<?xml version="1.0" encoding="UTF-8" standalone="no"?>
<!-- Generator: Adobe Illustrator 23.0.2, SVG Export Plug-In . SVG Version: 6.00 Build 0)  -->

<svg
   xmlns:dc="http://purl.org/dc/elements/1.1/"
   xmlns:cc="http://creativecommons.org/ns#"
   xmlns:rdf="http://www.w3.org/1999/02/22-rdf-syntax-ns#"
   xmlns:svg="http://www.w3.org/2000/svg"
   xmlns="http://www.w3.org/2000/svg"
   xmlns:sodipodi="http://sodipodi.sourceforge.net/DTD/sodipodi-0.dtd"
   xmlns:inkscape="http://www.inkscape.org/namespaces/inkscape"
   version="1.1"
   id="Layer_1"
   x="0px"
   y="0px"
   viewBox="0 0 205.00001 141"
   xml:space="preserve"
   sodipodi:docname="SmallPlatform.svg"
   width="205"
   height="141"
   inkscape:version="0.92.4 (33fec40, 2019-01-16)"><metadata
   id="metadata237"><rdf:RDF><cc:Work
       rdf:about=""><dc:format>image/svg+xml</dc:format><dc:type
         rdf:resource="http://purl.org/dc/dcmitype/StillImage" /></cc:Work></rdf:RDF></metadata><defs
   id="defs235" /><sodipodi:namedview
   pagecolor="#ffffff"
   bordercolor="#666666"
   borderopacity="1"
   objecttolerance="10"
   gridtolerance="10"
   guidetolerance="10"
   inkscape:pageopacity="0"
   inkscape:pageshadow="2"
   inkscape:window-width="1142"
   inkscape:window-height="712"
   id="namedview233"
   showgrid="false"
   inkscape:zoom="0.18941941"
   inkscape:cx="1055.3543"
   inkscape:cy="139.77002"
   inkscape:window-x="10"
   inkscape:window-y="34"
   inkscape:window-maximized="0"
   inkscape:current-layer="Layer_1" />
<style
   type="text/css"
   id="style2">
	.st0{fill:#3E2600;}
	.st1{fill:#3A2500;}
	.st2{fill:#593900;}
	.st3{fill:#311F00;}
	.st4{fill:#291A00;}
	.st5{fill:#523400;}
	.st6{fill:#1D1506;}
	.st7{fill:#150C04;}
	.st8{fill:#352C1B;}
	.st9{fill:#0B0602;}
	.st10{fill:#271806;}
	.st11{fill:#292215;}
	.st12{fill:#372D1C;}
	.st13{fill:#1A160D;}
	.st14{fill:#2E2109;}
	.st15{fill:#432B00;}
	.st16{fill:#3A2409;}
</style>
<g
   id="g230"
   transform="matrix(0.81621277,0,0,0.89110788,-569.2023,-214.28471)">
	<g
   id="g106">
		<path
   class="st0"
   d="m 940.48,301.31 8.05,-23.25 c 0,0 -23.38,-18.86 -42.63,-23.65 -19.25,-4.79 -72.33,-0.72 -85.96,0.19 -13.63,0.91 -34.18,-3.57 -60.57,-0.86 -12.48,1.28 -62,15.98 -62,15.98 l 5.43,24.93 10.44,43.28 80.35,29.33 64.22,-2.98 54.18,-24.86 z"
   id="path4"
   inkscape:connector-curvature="0"
   style="fill:#3e2600" />
		<g
   id="g46">
			<polygon
   class="st1"
   points="892.45,245.49 876.93,256.16 882.32,270.72 897.6,252.83 "
   id="polygon6"
   style="fill:#3a2500" />
			<polygon
   class="st2"
   points="781.84,248.85 768.26,252.48 767.95,258.3 777.75,262.84 792.07,261.92 792.68,255.45 "
   id="polygon8"
   style="fill:#593900" />
			<polygon
   class="st3"
   points="792.07,261.92 777.75,262.83 776.81,274.82 790.52,270.25 "
   id="polygon10"
   style="fill:#311f00" />
			<polygon
   class="st0"
   points="781.3,263.41 776.81,274.82 764.74,269.51 767.92,257.49 "
   id="polygon12"
   style="fill:#3e2600" />
			<polygon
   class="st1"
   points="875.54,247.52 867.2,246.99 860.12,252.36 858.44,255.48 859.79,262.09 870.48,268.73 "
   id="polygon14"
   style="fill:#3a2500" />
			<polygon
   class="st3"
   points="872.84,259.64 875.52,247.54 868.32,249.28 863.61,253.76 857.77,256.93 852.4,269.74 869.78,268.84 "
   id="polygon16"
   style="fill:#311f00" />
			<polygon
   class="st4"
   points="894.84,280.02 913.46,264.13 896,252.68 882.32,270.72 "
   id="polygon18"
   style="fill:#291a00" />
			<polygon
   class="st5"
   points="892.45,245.49 896.18,254.16 912.36,265.16 926.37,260.38 918.53,252.94 "
   id="polygon20"
   style="fill:#523400" />
			<polygon
   class="st5"
   points="829.53,272.08 823.45,265.93 795.43,260.16 791.58,265.27 794.89,278.43 800.32,278.31 817.96,276.22 "
   id="polygon22"
   style="fill:#523400" />
			<polygon
   class="st0"
   points="791.56,265.62 795.04,278.97 789.09,289.48 784.71,273.39 "
   id="polygon24"
   style="fill:#3e2600" />
			<polygon
   class="st3"
   points="829.53,272.08 794.56,278.06 789.09,289.48 825.71,282.71 "
   id="polygon26"
   style="fill:#311f00" />
			<polygon
   class="st1"
   points="868.03,242.93 851.67,240.47 840.72,251.9 849.22,257.66 858.16,259.55 875.54,247.52 "
   id="polygon28"
   style="fill:#3a2500" />
			<polygon
   class="st3"
   points="852.4,269.74 837.93,255.06 851.67,240.47 858.16,259.55 "
   id="polygon30"
   style="fill:#311f00" />
			<polygon
   class="st5"
   points="830.28,251.03 837.53,252.44 852,267.12 837.55,268.5 "
   id="polygon32"
   style="fill:#523400" />
			<polygon
   class="st3"
   points="830.28,251.03 822.09,261.36 834.86,275.62 838.76,268.8 "
   id="polygon34"
   style="fill:#311f00" />
			<polygon
   class="st5"
   points="751.44,244.79 740.09,247.82 751.33,260.73 768.92,264.7 761.5,250.95 "
   id="polygon36"
   style="fill:#523400" />
			<polygon
   class="st3"
   points="744.76,274.48 772.26,272.59 768.92,264.7 751.33,260.73 "
   id="polygon38"
   style="fill:#311f00" />
			<polygon
   class="st0"
   points="740.63,247.78 751.33,260.73 744.76,274.48 728.22,261.82 "
   id="polygon40"
   style="fill:#3e2600" />
			<polygon
   class="st3"
   points="926.37,260.38 913.46,264.13 894.84,280.02 919.34,277.83 "
   id="polygon42"
   style="fill:#311f00" />
			<polygon
   class="st1"
   points="852.14,266.95 837.55,268.5 834.86,275.62 852.76,274.09 "
   id="polygon44"
   style="fill:#3a2500" />
		</g>
		<g
   id="g84">
			<polygon
   class="st3"
   points="775.36,341.79 792.87,355.74 747.1,369.71 748.52,358.91 733.22,344.44 "
   id="polygon48"
   style="fill:#311f00" />
			<polygon
   class="st5"
   points="887.73,379.49 888.07,359.65 909.23,334.45 911.99,339.41 "
   id="polygon50"
   style="fill:#523400" />
			<polygon
   class="st3"
   points="894.33,329.94 854.47,347.02 888.07,359.65 909.08,334.65 "
   id="polygon52"
   style="fill:#311f00" />
			<polygon
   class="st3"
   points="799.47,387.57 774,371.77 761.94,361.53 818.59,329.74 871.1,351.12 854.73,389.83 812.63,398.7 "
   id="polygon54"
   style="fill:#311f00" />
			<polygon
   class="st1"
   points="806.96,381.01 812.63,398.7 786.67,391.46 767.91,378.46 761.94,361.53 "
   id="polygon56"
   style="fill:#3a2500" />
			<polygon
   class="st5"
   points="812.63,398.7 854.73,389.83 835.18,362.6 806.96,381.01 "
   id="polygon58"
   style="fill:#523400" />
			<polygon
   class="st1"
   points="857.81,364.27 854.47,347.02 888.07,359.65 888.2,379.09 "
   id="polygon60"
   style="fill:#3a2500" />
			<polygon
   class="st1"
   points="773.46,341.04 732.2,315.46 739.42,304.72 770.36,296.16 832.18,313.69 824.84,340.68 786.62,352.19 "
   id="polygon62"
   style="fill:#3a2500" />
			<path
   class="st5"
   d="m 748.7,313.24 32.25,21.25 5.68,17.7 c 0,0 -33.29,-7.38 -43.71,-16.15 -10.44,-8.77 -10.71,-20.58 -10.71,-20.58 z"
   id="path64"
   inkscape:connector-curvature="0"
   style="fill:#523400" />
			<polygon
   class="st1"
   points="824.36,329.94 833.54,313.23 848.84,327.71 857.04,360.87 825.83,339.36 "
   id="polygon66"
   style="fill:#3a2500" />
			<polygon
   class="st3"
   points="872.44,312.97 880.66,327.09 857.04,360.87 848.84,327.71 833.54,313.23 "
   id="polygon68"
   style="fill:#311f00" />
			<polygon
   class="st1"
   points="716.92,351.85 747.1,369.71 754.69,354.36 739.75,339.95 713.25,337.93 "
   id="polygon70"
   style="fill:#3a2500" />
			<g
   id="g78">
				<polygon
   class="st2"
   points="874.53,324.98 909.55,335.73 934.39,302.46 920.39,299.94 900.97,315.76 866.3,318.22 "
   id="polygon72"
   style="fill:#593900" />
				<polygon
   class="st3"
   points="928.96,292.83 940.68,300.12 909.55,335.73 900.5,316.45 "
   id="polygon74"
   style="fill:#311f00" />
				<polygon
   class="st3"
   points="901.64,295.95 900.5,316.45 866.3,318.22 867.49,302.24 "
   id="polygon76"
   style="fill:#311f00" />
			</g>
			<g
   id="g82">
				<polygon
   class="st1"
   points="928.96,292.83 907.83,326.26 882.47,317.15 901.64,295.95 "
   id="polygon80"
   style="fill:#3a2500" />
			</g>
		</g>
		<g
   id="g96">
			<polygon
   class="st4"
   points="711.93,266.92 719.51,266.35 720.83,282.47 708.94,282.51 703.3,278.71 697.42,269.71 "
   id="polygon86"
   style="fill:#291a00" />
			<path
   class="st5"
   d="m 756.85,297.81 -20.69,6.75 -2.38,6.57 c 0,0 17.82,1.39 26.98,-0.66 l 0.82,-7.27 z"
   id="path88"
   inkscape:connector-curvature="0"
   style="fill:#523400" />
			<polygon
   class="st1"
   points="733.77,311.14 736.81,304.58 719.72,282.34 708.94,282.51 697.46,269.68 697.51,293.04 713.04,290.08 "
   id="polygon90"
   style="fill:#3a2500" />
			<polygon
   class="st5"
   points="708.94,282.51 697.51,293.04 713.85,299.77 720.83,282.47 "
   id="polygon92"
   style="fill:#523400" />
			<polygon
   class="st4"
   points="756.85,297.81 736.81,304.58 719.72,282.34 751.54,280.79 "
   id="polygon94"
   style="fill:#291a00" />
		</g>
		<g
   id="g104">
			<polygon
   class="st5"
   points="851.79,309.48 830.49,309.63 807.95,314.03 826.66,322.03 "
   id="polygon98"
   style="fill:#523400" />
			<polygon
   class="st1"
   points="807.95,314.03 830.49,309.63 819.15,294.2 799.56,305.56 "
   id="polygon100"
   style="fill:#3a2500" />
			<polygon
   class="st3"
   points="851.79,309.48 830.49,309.63 819.15,294.2 844.22,296.04 "
   id="polygon102"
   style="fill:#311f00" />
		</g>
	</g>
	<polygon
   class="st3"
   points="825.41,340.7 786.62,352.19 780.95,334.49 826.66,322.03 "
   id="polygon108"
   style="fill:#311f00" />
	<g
   id="g228">
		<g
   id="g116">
			<polygon
   class="st6"
   points="780.21,279.3 775.44,286.27 771.32,288.23 765.78,285.7 764.94,281.28 774.49,278.37 "
   id="polygon110"
   style="fill:#1d1506" />
			<polygon
   class="st7"
   points="771,288.38 775.44,286.27 780.21,279.3 777.31,278.8 771.31,282.61 "
   id="polygon112"
   style="fill:#150c04" />
			<polygon
   class="st1"
   points="764.94,281.28 767.01,277.25 777.31,278.8 771.24,283.42 "
   id="polygon114"
   style="fill:#3a2500" />
		</g>
		<g
   id="g124">
			<polygon
   class="st8"
   points="731.41,342.8 734.15,345.82 741.36,341.51 738.95,339.77 732.96,338.9 "
   id="polygon118"
   style="fill:#352c1b" />
			<polygon
   class="st9"
   points="734.15,345.82 731.41,342.8 731.52,343.91 734.29,346.96 "
   id="polygon120"
   style="fill:#0b0602" />
			<polygon
   class="st6"
   points="734.29,346.96 734.15,345.82 741.36,341.51 740.23,343.24 "
   id="polygon122"
   style="fill:#1d1506" />
		</g>
		<g
   id="g134">
			<polygon
   class="st6"
   points="734.12,274.44 740.17,276.48 737.76,278.31 734.53,278.06 729.97,275.91 731.39,274.23 "
   id="polygon126"
   style="fill:#1d1506" />
			<polygon
   class="st6"
   points="733.73,279.4 734.92,278.09 729.97,275.91 729.83,277.69 "
   id="polygon128"
   style="fill:#1d1506" />
			<polygon
   class="st9"
   points="733.73,279.4 734.92,278.09 737.76,278.31 737.65,279.71 "
   id="polygon130"
   style="fill:#0b0602" />
			<polygon
   class="st7"
   points="740.17,276.48 737.76,278.31 737.65,279.71 740.28,277.81 "
   id="polygon132"
   style="fill:#150c04" />
		</g>
		<g
   id="g142">
			<polygon
   class="st9"
   points="843.1,281.83 840.8,283.86 840.07,283.51 840.21,282.45 842.78,280.32 "
   id="polygon136"
   style="fill:#0b0602" />
			<polygon
   class="st10"
   points="841.99,277.58 842.78,280.32 840.91,282.45 837.32,282.35 837.95,280.32 840.57,277.56 "
   id="polygon138"
   style="fill:#271806" />
			<polygon
   class="st6"
   points="840.91,282.45 840.8,283.86 837.26,283.61 837.32,282.35 "
   id="polygon140"
   style="fill:#1d1506" />
		</g>
		<g
   id="g152">
			<polygon
   class="st11"
   points="805.66,329.99 811.39,325.47 809.8,320.75 803.63,320.98 797.87,327.29 801.96,329.7 "
   id="polygon144"
   style="fill:#292215" />
			<polygon
   class="st1"
   points="801.96,329.7 797.87,327.29 797.78,328.44 802.18,330.93 "
   id="polygon146"
   style="fill:#3a2500" />
			<polygon
   class="st10"
   points="802.18,330.93 801.96,329.7 805.66,329.99 805.59,330.95 "
   id="polygon148"
   style="fill:#271806" />
			<polygon
   class="st6"
   points="805.59,330.95 805.66,329.99 811.39,325.47 811.29,326.79 "
   id="polygon150"
   style="fill:#1d1506" />
		</g>
		<g
   id="g160">
			<polygon
   class="st12"
   points="861.94,272.17 866.41,271.57 869.43,279.29 867.02,282.46 858.56,282.69 857.72,279.42 861.84,275.25 "
   id="polygon154"
   style="fill:#372d1c" />
			<polygon
   class="st13"
   points="866.81,282.54 858.21,282.7 857.06,284.53 864.36,285.19 "
   id="polygon156"
   style="fill:#1a160d" />
			<polygon
   class="st6"
   points="857.72,279.42 858.84,282.83 857.06,284.53 855.56,282.8 "
   id="polygon158"
   style="fill:#1d1506" />
		</g>
		<g
   id="g170">
			<polygon
   class="st9"
   points="888.79,290.1 883.97,289.67 884.62,293.53 887.38,294.67 894.03,290.6 894.87,288.24 898.06,281.21 897.32,280.07 892.31,285.83 "
   id="polygon162"
   style="fill:#0b0602" />
			<polygon
   class="st9"
   points="891.68,289.16 887.59,290.93 887.45,294.94 894.03,290.6 "
   id="polygon164"
   style="fill:#0b0602" />
			<polygon
   class="st6"
   points="898.06,281.21 897.32,280.07 893.93,284.98 891.68,289.16 894.03,290.6 "
   id="polygon166"
   style="fill:#1d1506" />
			<polygon
   class="st14"
   points="893.93,284.98 897.32,280.07 893.58,279.6 889.27,282.56 885.19,284.81 883.97,289.67 887.22,291.09 891.68,289.16 "
   id="polygon168"
   style="fill:#2e2109" />
		</g>
		<g
   id="g178">
			<polygon
   class="st15"
   points="795.82,280.51 793.06,278.35 787.99,282.33 788.36,285.41 793.93,288.9 795.79,287.03 794.67,282.62 "
   id="polygon172"
   style="fill:#432b00" />
			<polygon
   class="st1"
   points="788.47,285.54 794.17,289.04 794.26,292.46 788.68,290.56 "
   id="polygon174"
   style="fill:#3a2500" />
			<polygon
   class="st6"
   points="795.79,287.03 793.69,288.88 794.26,292.46 795.91,290.15 "
   id="polygon176"
   style="fill:#1d1506" />
		</g>
		<polygon
   class="st1"
   points="902.37,316.67 898.74,312.68 899.48,308.33 908,310.19 906.75,316 "
   id="polygon180"
   style="fill:#3a2500" />
		<g
   id="g188">
			<polygon
   class="st16"
   points="822.95,296.64 822.72,295.07 821.09,294.46 816.37,299.48 818.21,305.91 821.15,305.78 821.44,302.12 823.28,298.59 "
   id="polygon182"
   style="fill:#3a2409" />
			<polygon
   class="st10"
   points="818.21,305.91 821.15,305.78 820.76,301.63 816.36,299.72 "
   id="polygon184"
   style="fill:#271806" />
			<polygon
   class="st6"
   points="821.15,305.78 820.76,301.63 823.28,298.59 823.17,301.51 "
   id="polygon186"
   style="fill:#1d1506" />
		</g>
		<g
   id="g196">
			<polygon
   class="st12"
   points="862.36,303.18 864.75,304.81 870.13,305.05 870.15,300.37 867.77,298.56 "
   id="polygon190"
   style="fill:#372d1c" />
			<polygon
   class="st6"
   points="870.33,304.89 865.11,304.84 864.65,308.24 871.44,307.92 "
   id="polygon192"
   style="fill:#1d1506" />
			<polygon
   class="st11"
   points="864.65,308.24 865.64,304.88 862.36,303.18 862.36,306.16 "
   id="polygon194"
   style="fill:#292215" />
		</g>
		<g
   id="g204">
			<polygon
   class="st16"
   points="916.67,285.15 912.45,289.34 921.79,289.88 928.92,286.71 924.28,284.75 "
   id="polygon198"
   style="fill:#3a2409" />
			<polygon
   class="st7"
   points="912.9,291.01 912.63,289.27 922.03,289.77 921.31,290.9 "
   id="polygon200"
   style="fill:#150c04" />
			<polygon
   class="st6"
   points="928.92,286.71 922.03,289.77 921.31,290.9 928.37,288.06 "
   id="polygon202"
   style="fill:#1d1506" />
		</g>
		<g
   id="g216">
			<polygon
   class="st1"
   points="732.66,313.93 730.43,313.48 727.31,314.35 725.35,317.47 726.56,319.76 729.04,319.95 730.31,317.86 731.14,315.59 "
   id="polygon206"
   style="fill:#3a2500" />
			<polygon
   class="st9"
   points="729.04,319.95 726.56,319.76 727.02,320.9 729.87,321.13 "
   id="polygon208"
   style="fill:#0b0602" />
			<polygon
   class="st6"
   points="729.04,319.95 730.31,317.86 730.85,319.31 729.87,321.13 "
   id="polygon210"
   style="fill:#1d1506" />
			<polygon
   class="st9"
   points="730.91,315.57 730.31,317.86 730.77,319.35 731.59,316.29 "
   id="polygon212"
   style="fill:#0b0602" />
			<polygon
   class="st6"
   points="731.59,316.29 732.6,314.65 732.66,313.93 730.86,315.57 "
   id="polygon214"
   style="fill:#1d1506" />
		</g>
		<g
   id="g226">
			<polygon
   class="st16"
   points="787.08,305.32 782.13,304.38 773.95,308.91 771.54,315.12 776.09,314.89 779.42,310.03 784.94,307.51 "
   id="polygon218"
   style="fill:#3a2409" />
			<polygon
   class="st6"
   points="771.54,315.12 776.09,314.89 779.67,319.31 778.31,324.13 775.33,324.48 "
   id="polygon220"
   style="fill:#1d1506" />
			<polygon
   class="st7"
   points="782.3,312.04 788.68,307.03 786.76,304.91 780.57,307.95 776.09,314.89 779.67,319.31 783.13,316.29 "
   id="polygon222"
   style="fill:#150c04" />
			<polygon
   class="st6"
   points="783.21,320.79 783.13,316.29 779.67,319.31 777.72,324.67 780.42,323.71 "
   id="polygon224"
   style="fill:#1d1506" />
		</g>
	</g>
</g>
</svg>