<?xml version="1.0" encoding="UTF-8" standalone="no"?>
<!-- Generator: Adobe Illustrator 23.0.2, SVG Export Plug-In . SVG Version: 6.00 Build 0)  -->

<svg
   xmlns:dc="http://purl.org/dc/elements/1.1/"
   xmlns:cc="http://creativecommons.org/ns#"
   xmlns:rdf="http://www.w3.org/1999/02/22-rdf-syntax-ns#"
   xmlns:svg="http://www.w3.org/2000/svg"
   xmlns="http://www.w3.org/2000/svg"
   xmlns:sodipodi="http://sodipodi.sourceforge.net/DTD/sodipodi-0.dtd"
   xmlns:inkscape="http://www.inkscape.org/namespaces/inkscape"
   version="1.1"
   id="Layer_1"
   x="0px"
   y="0px"
   viewBox="0 0 123.84923 131.99001"
   xml:space="preserve"
   sodipodi:docname="axe_inv.svg"
   width="123.84923"
   height="131.99001"
   inkscape:version="0.92.4 (33fec40, 2019-01-16)"><metadata
   id="metadata10"><rdf:RDF><cc:Work
       rdf:about=""><dc:format>image/svg+xml</dc:format><dc:type
         rdf:resource="http://purl.org/dc/dcmitype/StillImage" /></cc:Work></rdf:RDF></metadata><defs
   id="defs8" /><sodipodi:namedview
   pagecolor="#ffffff"
   bordercolor="#666666"
   borderopacity="1"
   objecttolerance="10"
   gridtolerance="10"
   guidetolerance="10"
   inkscape:pageopacity="0"
   inkscape:pageshadow="2"
   inkscape:window-width="640"
   inkscape:window-height="480"
   id="namedview6"
   showgrid="false"
   inkscape:zoom="0.18941941"
   inkscape:cx="88.766876"
   inkscape:cy="123.56001"
   inkscape:window-x="10"
   inkscape:window-y="34"
   inkscape:window-maximized="0"
   inkscape:current-layer="Layer_1" />
<style
   type="text/css"
   id="style2">
	.st0{fill:#FFFFFF;}
</style>
<path
   id="path656_2_"
   class="st0"
   d="m 44.391881,32.47 c 1.25,0.64 2.23,1.2 3.12,1.71 1.44,0.81 2.57,1.45 4.29,2.2 0.45,0.2 0.92,0.34 1.37,0.49 l 2.18,0.7 -43.61,76.81 c -0.79,1.38 -0.76,3.08 0.07,4.44 0.37,0.6 0.9,1.11 1.53,1.47 0.26,0.15 0.55,0.28 0.91,0.38 0.51,0.11 0.73,0.14 0.94,0.16 l 0.37,0.01 c 0.18,-0.01 0.4,-0.02 0.63,-0.06 0.56,-0.11 0.84,-0.21 1.11,-0.32 v 0 l 0.11,-0.06 c 0.21,-0.11 0.41,-0.23 0.6,-0.37 0.34,-0.27 0.45,-0.38 0.56,-0.49 0.4,-0.43 0.53,-0.62 0.65,-0.84 l 43.82,-77.16 1.72,1.65 c 0.36,0.35 0.71,0.68 1.05,0.97 11.64,9.96 12.39,20.44 12.03,25.08 4.04,-0.28 12.87,-1.33 19.18,-5.22 0.32,-0.19 0.63,-0.4 0.94,-0.61 8.569999,-6.07 13.459999,-13.11 14.509999,-20.94 1.18,-8.83 -2.81,-16.52 -5.07,-20.06 -1.43,1.75 -3.27,3.45 -4.55,4.23 -5.659999,3.48 -14.519999,2.73 -26.159999,-2.19 -0.5,-0.22 -1,-0.5 -1.49,-0.8 l -1.37,-0.82 0.59,-1.48 c 0.81,-2.02 0.04,-4.27 -1.83,-5.36 -0.27,-0.15 -0.56,-0.27 -0.89,-0.36 l -0.33,-0.07 c -0.22,-0.05 -0.42,-0.09 -0.63,-0.1 l -0.37,-0.01 c -0.2,0 -0.42,0.03 -0.64,0.06 -0.59,0.12 -0.86,0.21 -1.09,0.32 l -0.2,0.09 c -0.23,0.13 -0.38,0.23 -0.53,0.33 -0.33,0.27 -0.45,0.39 -0.58,0.52 l -1.18,1.6 -1.5,-0.46 c -0.75,-0.33 -1.46,-0.69 -2.13,-1.12 -3.44,-2.16 -6.37,-3.33 -8,-3.88 z m -10.1,3.33 5.13,2.51 c 1.55,0.76 2.68,1.37 3.7,1.94 l 1.63,0.92 -39.4799997,69.52 c -2.14,3.72 -2.07,8.31 0.18,11.99 1.05,1.69 2.45,3.05 4.14,4.04 0.7699997,0.45 1.5899997,0.8 2.5099997,1.07 0.36,0.1 0.63,0.16 0.92,0.22 0.53,0.12 1.13,0.2 1.72,0.24 0.23,0.01 0.48,0.03 0.74,0.03 h 0.23 c 0.5,-0.01 1.09,-0.06 1.68,-0.16 0.32,-0.05 0.6,-0.1 0.89,-0.17 0.57,-0.14 1.12,-0.32 1.68,-0.55 l 0.38,-0.15 0.31,-0.14 0.82,-0.45 c 0.31,-0.18 0.62,-0.38 0.91,-0.6 0.18,-0.12 0.33,-0.24 0.47,-0.36 0.43,-0.34 0.78,-0.67 1.11,-1.01 0.17,-0.18 0.32,-0.34 0.47,-0.51 0.5,-0.58 0.91,-1.15 1.26,-1.76 l 39.16,-68.96 1.69,2.44 c 5.33,7.71 3.73,13.98 3.71,14.04 l -1.77,6.9 7.26,-0.04 c 1.53,-0.01 15.21,-0.27 25.199999,-6.43 0.44,-0.27 0.84,-0.53 1.24,-0.8 10.39,-7.36 16.35,-16.14 17.69,-26.11 2.06,-15.46 -8.04,-27.71 -8.15,-27.83 l -5.4,-6.56 -3.88,7.53 c -0.57,1.02 -2.449999,3.01 -3.439999,3.68 -2.94,1.83 -8.58,1.33 -15.82,-1.29 l -1,-0.36 -0.2,-1.04 c -0.64,-3.4 -2.7,-6.32 -5.64,-8.03 -0.82,-0.45 -1.64,-0.81 -2.49,-1.06 -0.23,-0.07 -0.44,-0.12 -0.64,-0.16 l -0.39,-0.09 c -0.61,-0.12 -1.11,-0.19 -1.61,-0.21 -0.25,-0.02 -0.47,-0.03 -0.7,-0.03 -0.76,0.01 -1.31,0.05 -1.9,0.15 -0.34,0.05 -0.55,0.09 -0.75,0.13 -0.71,0.17 -1.22,0.33 -1.7,0.52 l -1.39,0.64 -0.86,-0.47 c -5.13,-2.81 -8.89,-3.69 -9.05,-3.73 l -4.23,-0.98 z m -18.55,96.19 h -0.18 c -0.42,0 -0.75,-0.01 -1.04,-0.03 -0.78,-0.04 -1.59,-0.16 -2.29,-0.31 -0.35,-0.08 -0.69,-0.15 -1.18,-0.29 -1.2299997,-0.37 -2.2999997,-0.83 -3.3299997,-1.43 -2.19,-1.28 -4.07,-3.11 -5.44,-5.3 -2.94999998,-4.85 -3.04999998,-10.89 -0.24,-15.79 L 39.661881,42.6 c -0.56,-0.29 -1.18,-0.6 -1.88,-0.95 l -8.55,-4.18 19.42,-37.47 7.04,1.63 c 0.42,0.1 4.12,0.99 9.2,3.66 0.62,-0.22 1.24,-0.41 1.91,-0.58 0.52,-0.11 0.79,-0.16 1.21,-0.23 0.9,-0.14 1.78,-0.18 2.42,-0.19 0.49,0 0.78,0.01 1.02,0.03 0.73,0.04 1.52,0.15 2.36,0.33 l 0.35,0.08 c 0.25,0.06 0.51,0.12 0.77,0.2 1.1,0.32 2.17,0.78 3.25,1.38 3.59,2.08 6.16,5.5 7.21,9.5 9.14,3.11 11.23,1.54 11.58,1.32 0.48,-0.32 1.93,-1.88 2.19,-2.32 l 6.439999,-12.49 8.97,10.91 c 0.1,0.12 11.25,13.63 8.97,30.7 -1.48,11.02 -7.95,20.67 -19.24,28.66 -0.48,0.32 -0.93,0.62 -1.42,0.92 -10.849999,6.68 -25.499999,6.96 -27.129999,6.97 l -12.09,0.08 3.02,-11.71 c 0,0 0.69,-3.49 -1.64,-8.22 l -36.11,63.6 c -0.47,0.83 -1.02,1.58 -1.66,2.33 -0.19,0.22 -0.4,0.45 -0.62,0.68 -0.44,0.47 -0.93,0.91 -1.43,1.31 -0.18,0.16 -0.45,0.37 -0.65,0.51 -0.34,0.26 -0.78,0.55 -1.23,0.81 l -0.3,0.19 -1.65,0.78 c -0.77,0.3 -1.48,0.54 -2.22,0.72 -0.4,0.1 -0.8,0.17 -1.19,0.23 -0.75,0.13 -1.54,0.2 -2.22,0.2 z"
   inkscape:connector-curvature="0"
   style="fill:#ffffff" />
</svg>