<?xml version="1.0" encoding="UTF-8" standalone="no"?>
<!-- Generator: Adobe Illustrator 23.0.3, SVG Export Plug-In . SVG Version: 6.00 Build 0)  -->

<svg
   xmlns:dc="http://purl.org/dc/elements/1.1/"
   xmlns:cc="http://creativecommons.org/ns#"
   xmlns:rdf="http://www.w3.org/1999/02/22-rdf-syntax-ns#"
   xmlns:svg="http://www.w3.org/2000/svg"
   xmlns="http://www.w3.org/2000/svg"
   xmlns:xlink="http://www.w3.org/1999/xlink"
   xmlns:sodipodi="http://sodipodi.sourceforge.net/DTD/sodipodi-0.dtd"
   xmlns:inkscape="http://www.inkscape.org/namespaces/inkscape"
   version="1.1"
   id="Layer_1"
   x="0px"
   y="0px"
   viewBox="0 0 105.02054 100.53189"
   xml:space="preserve"
   sodipodi:docname="basket.svg"
   width="105.02055"
   height="100.53189"
   inkscape:version="0.92.4 (33fec40, 2019-01-16)"><metadata
   id="metadata312"><rdf:RDF><cc:Work
       rdf:about=""><dc:format>image/svg+xml</dc:format><dc:type
         rdf:resource="http://purl.org/dc/dcmitype/StillImage" /></cc:Work></rdf:RDF></metadata><defs
   id="defs310" /><sodipodi:namedview
   pagecolor="#ffffff"
   bordercolor="#666666"
   borderopacity="1"
   objecttolerance="10"
   gridtolerance="10"
   guidetolerance="10"
   inkscape:pageopacity="0"
   inkscape:pageshadow="2"
   inkscape:window-width="1920"
   inkscape:window-height="1056"
   id="namedview308"
   showgrid="false"
   inkscape:zoom="1.7289377"
   inkscape:cx="58.562756"
   inkscape:cy="50.481889"
   inkscape:window-x="0"
   inkscape:window-y="24"
   inkscape:window-maximized="1"
   inkscape:current-layer="Layer_1" />
<style
   type="text/css"
   id="style2">
	.st0{fill-rule:evenodd;clip-rule:evenodd;fill:url(#SVGID_1_);}
	.st1{fill-rule:evenodd;clip-rule:evenodd;fill:#2F1E0F;}
	.st2{fill-rule:evenodd;clip-rule:evenodd;}
	.st3{fill:none;stroke:#000000;stroke-width:2.3232;stroke-linecap:round;stroke-miterlimit:10;}
	.st4{fill:none;stroke:#000000;stroke-width:0.7744;stroke-miterlimit:10;}
	.st5{fill:none;stroke:#000000;stroke-width:1.5488;stroke-miterlimit:10;}
	.st6{fill:none;stroke:#000000;stroke-width:2.3232;stroke-miterlimit:10;}
	.st7{fill:#2F1E0F;}
	.st8{fill:#19351A;}
	.st9{fill:url(#SVGID_2_);}
	.st10{fill:#42270F;}
	.st11{fill:url(#SVGID_3_);}
	.st12{fill:#802C1C;}
	.st13{fill:url(#SVGID_4_);}
	.st14{clip-path:url(#SVGID_6_);}
	.st15{fill:url(#SVGID_7_);}
	.st16{fill:url(#SVGID_8_);}
	.st17{opacity:0.7;enable-background:new    ;}
	.st18{fill:#4D1111;}
	.st19{fill:url(#SVGID_9_);}
	.st20{fill:url(#SVGID_10_);}
	.st21{fill:#43120E;}
	.st22{fill:#261414;}
	.st23{fill:#192915;}
	.st24{fill:url(#SVGID_11_);}
	.st25{fill:url(#SVGID_12_);}
	.st26{fill:#71A842;}
	.st27{fill:#BFBA52;}
	.st28{fill:url(#SVGID_13_);}
	.st29{fill:url(#SVGID_14_);}
	.st30{fill:url(#SVGID_15_);}
	.st31{fill:#36170F;}
	.st32{fill:url(#SVGID_16_);}
	.st33{fill:#112416;}
	.st34{fill:url(#SVGID_17_);}
</style>
<g
   id="g83"
   transform="translate(-8.3372454,-18.2)">
	
		<linearGradient
   id="SVGID_1_"
   gradientUnits="userSpaceOnUse"
   x1="46.467098"
   y1="-0.52649999"
   x2="63.6077"
   y2="100.9203"
   gradientTransform="matrix(1,0,0,-1,0,138.55)">
		<stop
   offset="0"
   style="stop-color:#1E140D"
   id="stop4" />
		<stop
   offset="0.1133"
   style="stop-color:#23170E"
   id="stop6" />
		<stop
   offset="0.2381"
   style="stop-color:#301E0F"
   id="stop8" />
		<stop
   offset="0.3679"
   style="stop-color:#462B12"
   id="stop10" />
		<stop
   offset="0.4806"
   style="stop-color:#5F3A16"
   id="stop12" />
		<stop
   offset="0.8717"
   style="stop-color:#331F12"
   id="stop14" />
	</linearGradient>
	<path
   class="st0"
   d="m 12.7,48.5 c 0,0 -1,-2.8 -1.7,-1.9 -0.2,0.2 -1,2.8 -1.1,3.1 -0.7,2.8 -1.1,6.8 2.8,13.3 l 2.4,1.7 1.5,9.5 c 0,0 -2.6,5.8 2.2,10.7 0,0 3,20.6 9,24.5 0,0 8.5,5.2 14.7,4.4 h 1.3 c 0,0 2.1,2.9 3.7,3.3 1.6,0.4 18.4,-0.2 18.4,-0.2 l 2.3,0.1 c 0,0 13.9,-0.1 17.2,-2.8 l 1.2,-1.6 c 0,0 6.3,0.6 14,-7.6 L 104,86.3 c 0,0 4.3,-5.8 2.7,-12 l 0.2,-6.8 c 0,0 8.7,-11.4 3.9,-20.3 0,0 -14.3,19.6 -52.8,17.4 0.1,0 -28.1,1.8 -45.3,-16.1 z"
   id="path17"
   inkscape:connector-curvature="0"
   style="clip-rule:evenodd;fill:url(#SVGID_1_);fill-rule:evenodd" />
	<path
   class="st1"
   d="m 15.1,65.8 c 0,0 7.2,7.3 21.7,10.8 l -1.3,-2.1 c 0,0 -15.1,-6.6 -18.9,-9.9 -3.8,-3.4 -1.5,1.2 -1.5,1.2 z"
   id="path19"
   inkscape:connector-curvature="0"
   style="clip-rule:evenodd;fill:#2f1e0f;fill-rule:evenodd" />
	<path
   class="st1"
   d="m 107.2,66.7 c 0,0 -31.2,22 -67.8,10.6 l -2.9,-1.2 -2.1,-2.7 c 0,0 14.8,4.7 31.3,4.4 13.2,-0.2 27.2,-4.5 36.9,-11.1 -0.1,-0.1 7.8,-4.5 4.6,0 z"
   id="path21"
   inkscape:connector-curvature="0"
   style="clip-rule:evenodd;fill:#2f1e0f;fill-rule:evenodd" />
	<path
   class="st1"
   d="m 19.9,86.1 c 0,0 3.5,4.8 18,8.3 l -1,-2.5 c 0,0 -15.1,-6.6 -18.9,-9.9 -3.7,-3.4 1.9,4.1 1.9,4.1 z"
   id="path23"
   inkscape:connector-curvature="0"
   style="clip-rule:evenodd;fill:#2f1e0f;fill-rule:evenodd" />
	<path
   class="st1"
   d="M 104.1,85.2 C 103.9,84.6 103.9,84 104,83.4 94.4,90 80.4,94.2 67.4,94.4 44.9,94.7 36.1,90 36.1,90 l -2.6,1 6.7,3.2 c 34.8,7.2 54.4,-2.6 64.3,-8.1 -0.2,-0.3 -0.3,-0.6 -0.4,-0.9 z"
   id="path25"
   inkscape:connector-curvature="0"
   style="clip-rule:evenodd;fill:#2f1e0f;fill-rule:evenodd" />
	<polygon
   class="st1"
   points="93.7,81.6 91.1,82.5 92.2,72.9 94.7,71.9 "
   id="polygon27"
   style="clip-rule:evenodd;fill:#2f1e0f;fill-rule:evenodd" />
	<polygon
   class="st1"
   points="88.2,111.4 92.9,89.9 90.3,91.1 85.6,112.4 "
   id="polygon29"
   style="clip-rule:evenodd;fill:#2f1e0f;fill-rule:evenodd" />
	<polygon
   class="st1"
   points="70.2,87.7 70.1,79 65.3,79.2 64.9,88 "
   id="polygon31"
   style="clip-rule:evenodd;fill:#2f1e0f;fill-rule:evenodd" />
	<path
   class="st1"
   d="m 64.3,95.3 c -1.8,15.3 1.4,19.4 2.8,18.3 1.4,-1.2 2.6,-18.3 2.6,-18.3 z"
   id="path33"
   inkscape:connector-curvature="0"
   style="clip-rule:evenodd;fill:#2f1e0f;fill-rule:evenodd" />
	<path
   class="st1"
   d="m 43.9,93.9 -5.2,-1 c 0,0 0.4,17.8 3.9,20.9 h 1.3 z"
   id="path35"
   inkscape:connector-curvature="0"
   style="clip-rule:evenodd;fill:#2f1e0f;fill-rule:evenodd" />
	<polygon
   class="st1"
   points="42.6,86.5 42.2,76 37.6,74.5 38.5,84.9 "
   id="polygon37"
   style="clip-rule:evenodd;fill:#2f1e0f;fill-rule:evenodd" />
	<g
   id="g49">
		<path
   class="st2"
   d="m 15.5,50.6 c -0.9,-0.7 -1.7,-1.5 -2.5,-2.3 -0.1,0 -1,-4.1 -1.1,-4.1 -1.1,0.5 -2,3.7 -2.2,5.1 -0.2,1.3 0.2,4 0.2,5.2 0.1,1.2 0.4,2.4 0.7,3.6 0.5,2 1.5,3.7 3.4,4.8 0.5,0.3 1.1,1 1.2,1.6 0.2,1.3 0.1,2.6 0.3,3.9 0.1,1.3 0.5,2.5 0.7,3.8 0.2,0.9 0.3,1.8 0.4,2.8 -0.7,0.2 -1.3,1 -1.1,1.6 0.3,1.2 0.6,2.5 0.8,3.8 0.2,0.9 0.5,1.6 1.3,2.1 0.9,0.5 1.6,1.1 1.3,2.4 -0.2,0.9 0.1,1.9 0.3,2.8 0.4,2 0.7,4 1.2,5.9 0.5,1.7 1.4,3.3 1.8,5 0.7,2.5 1.4,5 2.6,7.4 0.5,1.1 1.2,2.1 2.6,2.1 0.8,0 1.2,0.4 1.7,0.9 0.6,0.5 1.1,1.1 1.8,1.5 1,0.8 2.3,1 3.5,1.4 2.5,0.9 5,2.1 7.5,3.1 1,0.4 2.2,0.5 3.3,0.5 0.6,0 1,0.1 1.3,0.5 0.7,0.8 1.5,1.2 2.7,1.1 1.3,-0.1 2.5,-0.2 3.8,-0.2 2.8,0 5.6,1 8.5,1 1.3,0 2.6,-0.1 3.8,-0.5 1.1,-0.3 2,-1.2 3.2,-0.3 0.1,0.1 0.4,0 0.6,0 1.8,-0.1 3.6,-0.1 5.3,-0.2 2.6,-0.2 5.2,-0.6 7.8,-0.9 0.1,0 0.2,0 0.3,-0.1 1.2,-0.8 2.6,-1.3 3.3,-2.7 0.2,-0.3 0.8,-0.6 1.1,-0.6 1.3,0.1 2.5,-0.3 3.6,-1.1 1.1,-0.8 2.2,-1.4 3.5,-1.5 1.3,-0.1 2.6,-0.5 3.4,-1.6 0.5,-0.7 1.2,-1.2 1.9,-1.6 1.7,-1 1.9,-2.7 2.3,-4.4 0.2,-1 0.4,-2 0.6,-3 0.3,-1.2 0.6,-2.3 0.8,-3.5 0.3,-1.3 0.4,-2.6 0.7,-3.9 0.3,-1.4 0.5,-2.9 0.9,-4.3 0.2,-0.9 0.2,-2 1,-2.6 0.9,-0.6 1.4,-1.4 1.6,-2.4 0.3,-1.5 0.5,-3.1 0.6,-4.6 0.1,-0.9 -0.2,-1.8 -0.4,-2.7 -0.1,-0.3 -0.3,-0.7 -0.3,-1 0.2,-1.9 0.3,-3.8 0.6,-5.6 0.2,-1.5 0.9,-2.8 1.9,-3.9 0.7,-0.8 2.9,-1 3.2,-10.5 0,-0.8 -0.5,-2.7 -0.7,-3.4 C 112,50.8 111,47.6 110.9,47.3 110.1,48 104,56.4 89.8,60.7 75.6,65 68,65.1 61,65.1 31.5,64.8 15.7,51 15.5,50.6 Z m 1.3,15.8 c 0,-0.4 -0.1,-0.7 -0.1,-1.2 0.8,0.2 1.3,0.6 1.4,1.5 0.1,1.7 0.4,3.4 0.6,5.2 0,0.2 0.2,0.3 0.3,0.6 -0.1,-1.9 -0.2,-3.7 -0.4,-5.8 0.4,-0.4 0.8,0 0.9,0.5 0.1,0.7 0.1,1.3 0.7,1.8 0.3,0.3 0,1.2 0.1,1.9 0,0.6 0.1,1.1 0.2,1.7 0.1,0 0.2,0 0.3,0 -0.1,-1.5 -0.1,-3 -0.2,-4.4 0.1,-0.1 0.1,-0.2 0.2,-0.2 4.4,3.3 9.7,4.6 14.6,6.5 0.3,3.3 0.6,6.5 0.9,9.7 C 29.9,82.3 23.6,80.1 18.2,76.4 18,75.6 17.9,75 17.8,74.4 17.6,73.1 17.4,71.7 17.2,70.4 17.1,69 17,67.7 16.8,66.4 Z m 47,21.4 h -6.1 c -0.1,-0.6 -0.1,-1.1 -0.2,-1.7 -0.1,0 -0.2,0 -0.2,0 v 1.5 c -1.3,0.2 -1.4,0 -1.5,-1.4 -0.1,0.2 -0.2,0.4 -0.2,0.6 0,0.7 -0.4,1.1 -1,1.1 -1.1,-0.1 -10.2,-1.3 -10.2,-1.3 l -0.5,-9.7 c 0,0 4.7,0.7 7.6,1.1 0,0 0.2,4.2 0.3,4.2 0.1,-1.3 0.2,-2.6 0.3,-3.9 l 3.2,0.4 0.2,2.1 0.7,-2.2 7.5,0.4 c 0.1,0 0.1,8.8 0.1,8.8 z M 42,85.5 39.7,84.8 39.2,76 l 2.3,0.6 z m 23.8,1.3 c 0,-1.9 -0.1,-4.7 0,-6.7 0,-0.3 2.1,-0.3 2.9,-0.3 -0.2,2.5 -0.3,5.3 -0.5,7.8 -0.6,0.1 -1.4,0.2 -2.2,0.2 -0.3,0.1 -0.2,-0.9 -0.2,-1 z m 17,-8.1 c 0.1,-0.5 0.2,-0.9 0.3,-1.4 0.1,-1.5 0.1,-1.6 1.9,-1.9 0.7,1.3 -0.7,2.7 0.2,4 0.2,-1.1 0.4,-2.3 0.5,-3.4 0,-0.8 0.3,-1.2 1.1,-1.2 0.7,2.5 0.3,4.9 0,7.4 0.1,0 0.2,0.1 0.2,0.1 0.2,-0.4 0.4,-0.9 0.4,-1.3 0.2,-1.1 0.3,-2.2 0.4,-3.3 0,-0.4 0.1,-0.8 -0.1,-1.1 -0.5,-1.4 -0.4,-1.8 0.8,-2.4 0.7,-0.3 1.4,-0.5 2.2,-0.8 -0.3,3.4 -0.6,6.7 -0.9,10.2 -5.6,2 -11.5,2.7 -17.5,3.6 0,-1 0,-1.9 0,-2.9 0.1,-1.8 0.2,-3.6 0.2,-5.4 0,-0.7 0.3,-0.8 0.9,-0.9 1.9,-0.3 3.8,-0.7 5.7,-1 1.2,-0.2 2.3,-0.6 3.6,-0.9 0,0.9 -0.1,1.8 -0.1,2.7 0,-0.1 0.1,-0.1 0.2,-0.1 z m 9,4.1 1.2,-10 c 0,0 0.7,-0.5 0.8,-0.4 -0.3,2.8 -1.2,10.1 -1.2,10.1 z m 8.8,-6.5 c 0.1,-1 0.3,-5.3 0.5,-6.4 0.1,-0.5 0.5,-0.5 0.9,-0.9 0.1,0.1 0.4,-0.4 0.5,-0.3 v 3.4 c 0,-0.5 0.7,-4 0.7,-4 l 2.8,-1.4 -1,9.3 c 0,0 -4.7,2.9 -6.6,3.9 -1,0.6 -2.1,1.1 -3.4,1.8 0.2,-1.6 0.3,-2.9 0.5,-4.2 0.2,-1.9 0.6,-6.2 0.6,-6.2 l 4.1,-1.7 0.2,2.7 c 0,0 0.2,4 0.2,4 z m -64.6,35 c -0.4,-0.2 -0.7,-0.3 -1.1,-0.5 -1.5,-0.6 -1.7,-1.2 -1.4,-2.9 0.1,-0.8 -0.1,-1.6 -0.2,-2.4 -0.2,-1.3 -0.5,-2.7 -0.8,-4 0,-0.1 -0.1,-0.2 -0.3,-0.3 0.2,1.5 0.4,3 0.6,4.5 0.2,1.5 -0.5,3 0.5,4.6 -1.1,-0.4 -2.1,-0.4 -2.2,-1.7 0,-0.4 -0.4,-0.5 -0.7,-0.2 -0.1,0.1 -0.4,0.2 -0.5,0.1 -0.9,-1.2 -1.8,-2.4 -2.1,-3.9 -0.1,-0.4 -0.4,-0.8 -0.6,-1.4 -0.4,1.3 0.7,2.3 0.6,3.4 -1.3,0.2 -1.8,-0.1 -2.2,-1.4 -0.6,-1.8 -1.1,-3.6 -1.7,-5.4 -0.6,-1.7 -1.3,-3.4 -1.8,-5.1 -0.5,-1.8 -1,-3.5 -1.3,-5.3 -0.3,-1.5 -0.4,-3 -0.5,-4.4 0.1,0 0.2,-0.1 0.3,-0.1 1.1,0.6 2.1,1.3 3.3,1.8 0.9,0.4 0.8,1.2 1,1.8 0.5,1.9 0.8,3.9 1.2,5.9 0,0.2 0,0.3 0.2,0.5 -0.2,-2.4 -0.2,-4.8 -1,-7.2 0.7,0.2 1.3,0.5 1.9,0.7 1.3,0.4 1,1.5 1.1,2.4 0.1,0.4 0.1,0.8 0.1,1.2 0.1,0 0.2,0 0.2,0 v -2.7 c 0.8,0.2 1.4,0.3 2.1,0.5 2,0.6 4,1.2 6,1.8 0.2,0.1 0.5,0.4 0.5,0.6 0.2,2.7 0.4,5.3 0.6,8 0.2,2 0.2,4.1 0.6,6 0.3,1.6 0.8,3.2 1.3,4.8 0.3,0.8 0.6,1.6 1,2.5 C 39,112.7 37.5,112 36,111.3 Z m 4.1,-17.6 3.1,0.8 0.9,18 c 0,0 -2,0.5 -2.7,-3.1 -0.9,-4.8 -1.3,-15.7 -1.3,-15.7 z m 25.6,20.9 c -0.6,0.8 -1.4,1.4 -2.5,1.3 -1.3,-0.1 -2.7,0 -4,0 -1,0 -1.8,-0.2 -1.9,-1.4 0,-0.1 -0.2,-0.2 -0.5,-0.5 0.1,0.6 0.1,0.9 0.2,1.3 -1.4,0.4 -2.3,0.1 -2.5,-1.7 0,-0.2 -0.3,-0.3 -0.4,-0.4 -0.1,0.1 -0.2,0.1 -0.3,0.2 0.2,0.6 0.4,1.2 0.6,1.8 -1.1,0 -1.3,-0.9 -1.5,-1.6 -0.2,-0.7 -0.2,-1.5 -0.3,-2.2 -0.1,0 -0.2,0 -0.3,0 0.1,1.2 0.2,2.4 0.3,3.7 -1.5,0 -3.1,0 -4.7,0 -1.3,0 -2.8,-2 -2.8,-2.9 -0.1,-2.3 -0.3,-4.7 -0.5,-7 0,-0.8 0,-1.6 -0.1,-2.4 -0.1,-2 -0.3,-4 -0.4,-6 0,-1.2 0,-2.4 0,-3.7 1.3,0.2 2.5,0.3 3.7,0.5 0.2,0 0.4,0.4 0.4,0.7 0,0.7 0,1.3 0,2 0.1,0 0.2,0 0.3,0 v -2.6 c 0.9,0.1 1.7,0.1 2.5,0.2 0,0.9 0,1.7 0,2.5 0,0.2 0.2,0.4 0.3,0.6 0.1,-0.2 0.2,-0.3 0.2,-0.5 0.1,-0.8 0.1,-1.6 0.1,-2.6 1.8,0.2 3.5,0.3 5.2,0.4 0.3,0 0.6,0.1 0.9,0.1 1.9,0 3.8,0 5.8,0 0.7,0 0.9,0.3 0.9,0.9 0,1 -0.1,1.9 -0.1,2.9 -0.1,1 -0.2,2 -0.2,3.1 0,1.1 0.1,2.1 0.2,3.2 0.1,1.7 0,3.4 0.3,5 0.2,0.9 0,2.1 0.9,2.8 0.2,0.1 0.1,0.5 0.1,0.8 0.1,0.4 0.2,0.7 0.3,1.1 -0.2,0.1 -0.2,0.3 -0.2,0.4 z m 0.2,-4.4 c -0.9,-4.5 -0.2,-9.1 -0.5,-13.7 0.9,0.1 1.7,0.1 2.7,0.2 -0.1,2 -0.3,4.1 -0.4,6.1 0,0.2 -0.1,0.4 -0.1,0.5 0,1.4 0.2,2.8 -0.1,4.1 -0.2,1.3 0,2.8 -1.1,3.8 -0.1,0.1 -0.2,0.2 -0.5,0.4 0.1,-0.6 0.1,-1 0,-1.4 z M 85.5,108 c -0.5,2.1 -1.5,3.9 -2.8,5.6 -0.6,0.8 -1.4,1.3 -2.5,1.1 -0.3,-0.1 -0.6,0 -1.1,-0.1 0.1,-0.4 0.3,-0.7 0.5,-1.4 -0.4,0.2 -0.8,0.3 -0.8,0.4 -0.2,1.2 -1,0.8 -1.8,0.8 0.1,-0.2 0.2,-0.3 0.2,-0.5 0,-0.2 -0.1,-0.4 -0.1,-0.6 -0.2,0.1 -0.4,0.2 -0.5,0.4 -0.7,1.3 -0.9,1.5 -2.4,1.4 1.9,-1.7 2.2,-4 2.3,-6.4 -0.1,0.2 -0.4,0.4 -0.4,0.5 0,1.5 -0.6,2.7 -1.2,4 -0.2,0.3 -0.2,1 -0.9,0.7 -0.1,0 -0.3,0.2 -0.4,0.4 -0.5,0.9 -1.1,1.3 -2.2,1.3 -1,0 -1.9,0.2 -2.9,0.3 -0.3,0 -0.7,0 -1,0 -0.1,-0.1 -0.2,-0.3 -0.3,-0.4 0.3,-0.1 0.6,-0.2 0.8,-0.3 0.6,-0.6 1.2,-1.2 1.6,-1.9 0.3,-0.6 0.3,-1.4 0.4,-2.1 0.2,-1.7 0.4,-3.4 0.6,-5.1 0.1,-1.2 0.1,-2.3 0.2,-3.5 0.1,-2.1 0.2,-4.1 0.4,-6.2 0.1,-0.8 0.3,-1.5 0.5,-2.3 h 1.9 c -0.1,1.3 -0.2,2.7 -0.2,4 0.1,0 0.2,0 0.3,0 0.1,-0.9 0.3,-1.8 0.3,-2.6 0,-1.3 0.4,-1.7 1.8,-1.9 1.3,-0.1 2.5,-0.3 3.9,-0.5 v 2 c 0.8,-0.7 -0.1,-2.5 1.7,-2.3 -0.2,1.8 -0.4,3.7 -0.5,5.5 0.1,0 0.3,0 0.4,0 0.1,-1.2 0.2,-2.3 0.3,-3.5 0.1,-0.7 0.1,-1.4 0.5,-1.9 0.2,-0.3 0.9,-0.4 1.2,-0.5 0.2,0.6 0.4,1.2 0.6,1.7 0.1,0.4 0.3,0.8 0.3,1.1 -0.2,2 -0.5,4.1 -0.7,6.1 -0.1,0.9 -0.1,1.8 0,2.7 0.2,-0.9 0.5,-1.8 0.6,-2.7 0.2,-1.9 0.4,-3.9 0.5,-5.8 0,-0.6 -0.3,-1.3 -0.4,-1.9 0,-0.4 0.1,-1.2 0.3,-1.2 1.4,-0.4 2.8,-0.8 4.3,-1.1 -0.2,1.6 -0.2,3 -0.5,4.4 -0.4,2.2 -0.9,4.4 -1.4,6.6 -0.3,1.9 -0.9,3.8 -1.4,5.7 z m 5.7,-16.7 c 0.1,0 0.7,-0.3 0.8,-0.3 -0.1,1.1 -0.7,4 -0.8,5 -0.2,1.5 -2,11.2 -3.8,13.6 1.3,-3.6 3.6,-15.3 3.8,-18.3 z m 11.4,-3.9 c -0.2,1.9 -0.4,3.8 -0.8,5.6 -0.3,1.8 -0.9,3.6 -1.3,5.4 -0.2,0.9 -0.3,1.8 -0.5,2.6 -0.3,1.2 -0.7,2.3 -1.1,3.5 -0.2,0.4 -0.8,0.6 -1.4,0.8 0.5,-1.9 1,-3.8 0.4,-5.8 -0.1,1.1 -0.2,2.2 -0.4,3.2 -0.3,1 -0.7,2 -1.2,2.9 -0.4,0.6 -0.2,1.5 -1.1,1.9 -0.3,0.1 -0.5,0.4 -0.8,0.6 -0.1,-0.1 -0.1,-0.1 -0.2,-0.2 0.3,-0.7 0.6,-1.3 0.9,-1.9 0,-0.1 -0.1,-0.1 -0.1,-0.2 -0.1,0.1 -0.3,0.2 -0.4,0.3 -0.3,0.4 -0.7,0.8 -0.8,1.3 -0.3,1.3 -1.3,1 -2.2,1 -0.2,0 -0.4,0 -0.5,0 0.4,-2 0.8,-4 1.2,-6 0.5,-2.7 1,-5.4 1.5,-8.2 0.3,-1.6 0.4,-3.2 0.8,-4.7 0.1,-0.5 0.8,-0.9 1.4,-1.2 0.6,-0.3 1.3,-0.5 2,-0.7 -0.2,1.3 -0.4,2.6 -0.7,3.9 0.1,0 0.2,0 0.3,0.1 0.3,-1.4 0.6,-2.7 0.9,-4.4 0.8,-0.3 1.9,-0.9 3,-1.2 0.9,0 1.2,0.4 1.1,1.4 z m 3.7,-6.7 c -0.1,0.9 -1.3,2 -2,2.3 -3,1.5 -13.2,10.1 -44.5,11.1 C 58,94.2 46,92.7 44.2,92.4 42,92 38.1,90.8 36,90.2 34.1,89.7 32.2,88.9 30.3,88.4 29.1,88.1 27.9,87.6 26.8,87 24.4,85.7 22.1,84.4 19.7,83.1 19.1,82.7 18.5,82.2 17.9,81.8 17.8,81.7 17.8,81.6 17.8,81.6 17.6,80.4 16.5,77.3 16.4,76 c 11.3,6.4 20,9.2 22.8,9.9 10.7,2.4 16.9,2.6 20.7,2.8 1.8,0.1 12.2,0.2 23.5,-3.1 14.1,-4.1 23,-9.7 23,-9.7 l 0.1,1.6 c 0,-0.1 -0.1,2.1 -0.2,3.2 z M 111.8,55 c 0,1.6 -0.8,5 -1,5.7 -0.2,0.7 -2.6,2.1 -3.2,2.6 -1.1,0.9 -9.2,5.4 -12,6.7 -2.5,1.1 -7.8,3.7 -18.8,5.8 C 66.3,77.8 60,77.7 49.2,76.4 37.8,75 33.2,73 26.4,69.8 19.6,66.6 15.1,63.3 14.3,62.6 c -1,-0.8 -2.6,-3 -2.9,-4.2 -0.5,-1.9 -1.8,-4.7 -1.6,-6.4 0.2,-1.7 1.6,-5.9 1.6,-5.9 0,0 4.9,9.2 16.1,14 2.5,1.1 18.4,5.8 33.1,6.3 15.1,0.6 26.9,-2.4 33.3,-4.9 18.2,-6.9 16.5,-14 16.5,-14 0,0 1.4,5.4 1.4,7.5 z"
   id="path39"
   inkscape:connector-curvature="0"
   style="clip-rule:evenodd;fill-rule:evenodd" />
		<path
   class="st2"
   d="m 82.4,70.5 c -0.2,0.1 -0.2,0.3 -0.3,0.5 -0.2,0.3 -0.4,0 -0.7,0.1 -0.3,0.2 -0.8,0.3 -1.5,-0.1 -0.3,-0.2 -1.5,0.2 -1.6,0 0.4,-0.3 1.5,-0.6 2,-0.9 0.4,-0.2 1,-0.6 1.2,-0.4 0.5,0.5 0.8,0.3 1.3,0.1 0.2,-0.1 0.5,-0.1 0.8,-0.1 0,0.2 -0.8,0.6 -1.2,0.8 z"
   id="path41"
   inkscape:connector-curvature="0"
   style="clip-rule:evenodd;fill-rule:evenodd" />
		<path
   class="st2"
   d="m 47.2,71.2 c 0.7,-0.2 1.6,-0.2 2,-0.3 0.2,-0.1 0.8,-0.1 0.9,0.1 0.5,0.7 2.5,0.8 2.5,0.9 -0.3,0 -1,0 -1.4,0.1 -0.9,1.5 -1.4,1.5 -2.4,0 -0.1,-0.2 -0.5,-0.3 -0.7,-0.4 -0.1,-0.2 -0.8,-0.3 -0.9,-0.4 z"
   id="path43"
   inkscape:connector-curvature="0"
   style="clip-rule:evenodd;fill-rule:evenodd" />
		<path
   class="st2"
   d="m 105.9,60.8 c -0.7,0.8 -1.2,1.2 -1.8,1.9 -0.9,-1.2 -2.1,0.2 -2.4,-0.2 0.5,-0.4 0.8,-0.7 1.1,-1 0.1,-0.1 0.7,-0.7 0.8,-0.7 0.4,0 0.6,0.3 1,0.4 0.2,0.1 1.2,-0.4 1.3,-0.4 z"
   id="path45"
   inkscape:connector-curvature="0"
   style="clip-rule:evenodd;fill-rule:evenodd" />
		<path
   class="st2"
   d="m 51.1,103.8 c 0,-2 0,-4 0,-6 0.1,-0.1 0.2,-0.1 0.2,-0.1 0.2,0.3 0.5,0.5 0.5,0.8 -0.1,1.8 -0.3,3.6 -0.5,5.3 -0.1,0 -0.1,0 -0.2,0 z"
   id="path47"
   inkscape:connector-curvature="0"
   style="clip-rule:evenodd;fill-rule:evenodd" />
	</g>
	<path
   class="st3"
   d="m 17.5,82.6 c 0,0 13.4,11.8 44.7,12 C 87,94.7 105.8,83 105.8,83"
   id="path51"
   inkscape:connector-curvature="0"
   style="fill:none;stroke:#000000;stroke-width:2.32319999;stroke-linecap:round;stroke-miterlimit:10" />
	<path
   class="st4"
   d="m 16.6,75.1 c 0,0 15.6,13.5 49,13.3 9.9,0 33.1,-6.5 41.2,-13.3"
   id="path53"
   inkscape:connector-curvature="0"
   style="fill:none;stroke:#000000;stroke-width:0.7744;stroke-miterlimit:10" />
	<path
   class="st4"
   d="m 16.2,76.8 c 0,0 16.1,13 49.4,12.9 9.9,0 33.1,-6.5 41.2,-13.3"
   id="path55"
   inkscape:connector-curvature="0"
   style="fill:none;stroke:#000000;stroke-width:0.7744;stroke-miterlimit:10" />
	<path
   class="st5"
   d="m 18,82.7 c 0,0 14.5,12.2 47.8,12.1 9.9,0 33.1,-6.5 41.2,-13.3"
   id="path57"
   inkscape:connector-curvature="0"
   style="fill:none;stroke:#000000;stroke-width:1.54879999;stroke-miterlimit:10" />
	<path
   class="st3"
   d="m 105.3,38.7 c 0,0 6.1,9.1 3.1,12.6 -3.1,3.6 -8.5,6.5 -12.8,8.3 C 77.3,67.4 61,66.4 61,66.4 26.7,66.1 13.9,49.6 13.9,49.6 c -2.3,-4.2 1.7,-10.3 1.2,-9.9 -3.2,2.7 -5.2,8.5 -5.3,9.2 -0.5,2.1 -0.2,5 -0.2,5 0.6,7.7 5.6,10.7 5.6,10.7 0.6,5 1.9,10.5 1.9,10.5 -1.6,0.4 -1.3,3.2 -1.3,3.2 1,5.8 3.5,6.5 3.5,6.5 0,0 2,14.2 6,22.2 0,0 5.7,5.7 14.9,7 l 4.8,0.4 c 0,0 1.8,2.8 4.6,2.7 2.8,-0.1 15.6,0.4 15.6,0.4 0,0 1.1,0.5 1.8,-1.1 0,0 -0.5,1.5 9.8,0.3 0,0 6.5,0.7 9.1,-3.6 0,0 7.1,0.6 14.9,-7.9 l 4,-19.2 c 0,0 2.9,-2.2 2.5,-10.5 -0.1,-0.9 -0.5,-1.6 -0.5,-1.6 l 0.8,-8.6 c 0,0 3.8,-1.5 4.4,-8 0.3,-2.9 0.2,-2.8 0.1,-4.7 -0.4,-6.2 -6.8,-13.9 -6.8,-13.9 z"
   id="path59"
   inkscape:connector-curvature="0"
   style="fill:none;stroke:#000000;stroke-width:2.32319999;stroke-linecap:round;stroke-miterlimit:10" />
	<path
   class="st4"
   d="m 10.4,48 c 0,0 1.9,5.4 4.8,7.9 5.3,4.6 20.1,11.6 43.5,12.8 0,0 16.6,0.6 32.6,-4.4 7.6,-2.4 18.6,-7.9 19.6,-14.5"
   id="path61"
   inkscape:connector-curvature="0"
   style="fill:none;stroke:#000000;stroke-width:0.7744;stroke-miterlimit:10" />
	<path
   class="st5"
   d="m 11.2,59.6 c 0,0 2.6,3.5 7.1,6.5 7.8,5.2 22,11.1 43.8,11.8 0,0 26.1,1.1 48.1,-15.4"
   id="path63"
   inkscape:connector-curvature="0"
   style="fill:none;stroke:#000000;stroke-width:1.54879999;stroke-miterlimit:10" />
	<path
   class="st6"
   d="m 64.2,94.3 c 0,0 -1.2,18 1.7,20.5"
   id="path65"
   inkscape:connector-curvature="0"
   style="fill:none;stroke:#000000;stroke-width:2.32319999;stroke-miterlimit:10" />
	<path
   class="st6"
   d="m 43.8,92.9 0.7,17.6 c 0,0 -0.2,3.3 2.2,5.5"
   id="path67"
   inkscape:connector-curvature="0"
   style="fill:none;stroke:#000000;stroke-width:2.32319999;stroke-miterlimit:10" />
	<circle
   class="st2"
   cx="50"
   cy="71.699997"
   r="1.6"
   id="circle69"
   style="clip-rule:evenodd;fill-rule:evenodd" />
	<path
   class="st2"
   d="m 82.7,70.3 c 0,0.9 -0.7,1.6 -1.6,1.6 -0.9,0 -1.6,-0.7 -1.6,-1.6 0,-0.9 0.7,-1.6 1.6,-1.6 0.9,0.1 1.6,0.8 1.6,1.6 z"
   id="path71"
   inkscape:connector-curvature="0"
   style="clip-rule:evenodd;fill-rule:evenodd" />
	<path
   class="st2"
   d="m 105.5,61.6 c 0,0.9 -0.6,1.5 -1.3,1.5 -0.7,0 -1.3,-0.7 -1.3,-1.5 0,-0.8 0.6,-1.5 1.3,-1.5 0.7,0 1.3,0.6 1.3,1.5 z"
   id="path73"
   inkscape:connector-curvature="0"
   style="clip-rule:evenodd;fill-rule:evenodd" />
	<path
   class="st2"
   d="m 19.1,61 c 0,0.8 -0.6,1.5 -1.3,1.5 -0.7,0 -1.3,-0.7 -1.3,-1.5 0,-0.8 0.6,-1.5 1.3,-1.5 0.7,-0.1 1.3,0.6 1.3,1.5 z"
   id="path75"
   inkscape:connector-curvature="0"
   style="clip-rule:evenodd;fill-rule:evenodd" />
	<g
   id="g81">
		<path
   class="st7"
   d="m 108.8,45.9 c 0,10.2 -21.6,19.7 -48.1,19.7 -26.5,0 -47.9,-9.4 -47.9,-19.7 0,-10.2 21.5,-18.5 48,-18.5 26.5,0 48,8.3 48,18.5 z"
   id="path77"
   inkscape:connector-curvature="0"
   style="fill:#2f1e0f" />
		<path
   d="m 60.7,67.1 c -26.8,0 -49.5,-9.7 -49.5,-21.2 0,-11.2 21.8,-20 49.6,-20 27.8,0 49.6,8.8 49.6,20 -0.1,11.5 -22.8,21.2 -49.7,21.2 z m 0.1,-38.2 c -27.8,0 -46.5,8.8 -46.5,17 0,4.3 4.8,8.7 13.1,12.2 9,3.8 20.9,5.9 33.3,5.9 26.6,0 46.6,-9.6 46.6,-18.1 0,-8.2 -18.7,-17 -46.5,-17 z"
   id="path79"
   inkscape:connector-curvature="0" />
	</g>
</g>
<path
   class="st8"
   d="m 45.762755,47.2 c 0.2,0 0.4,0 0.6,0 -1.9,-0.1 -3.7,-0.2 -5.5,-0.4 1.6,0.3 3.3,0.5 4.9,0.4 z"
   id="path85"
   inkscape:connector-curvature="0"
   style="fill:#19351a" />
<radialGradient
   id="SVGID_2_"
   cx="54.937401"
   cy="89.301399"
   r="12.6674"
   gradientTransform="matrix(1,0,0,-1,-8.3372454,120.35)"
   gradientUnits="userSpaceOnUse">
	<stop
   offset="0"
   style="stop-color:#5E9B43"
   id="stop87" />
	<stop
   offset="0.2779"
   style="stop-color:#477936"
   id="stop89" />
	<stop
   offset="0.7638"
   style="stop-color:#224322"
   id="stop91" />
	<stop
   offset="1"
   style="stop-color:#142E1A"
   id="stop93" />
</radialGradient>
<path
   class="st9"
   d="m 45.762755,47.2 c 0.2,0 0.4,0 0.6,0 -1.9,-0.1 -3.7,-0.2 -5.5,-0.4 1.6,0.3 3.3,0.5 4.9,0.4 z"
   id="path96"
   inkscape:connector-curvature="0"
   style="fill:url(#SVGID_2_)" />
<path
   class="st10"
   d="m 68.662755,48 c 0.3,-0.1 0.6,-0.3 0.9,-0.4 -0.3,0.1 -0.6,0.2 -0.9,0.4 0,0 0,0 0,0 z"
   id="path98"
   inkscape:connector-curvature="0"
   style="fill:#42270f" />
<radialGradient
   id="SVGID_3_"
   cx="48.205502"
   cy="1314.9772"
   r="20.804701"
   gradientTransform="matrix(-0.4376,0.8992,0.7201,0.3505,-851.40375,-489.1413)"
   gradientUnits="userSpaceOnUse">
	<stop
   offset="0"
   style="stop-color:#96A873"
   id="stop100" />
	<stop
   offset="1"
   style="stop-color:#452117"
   id="stop102" />
</radialGradient>
<path
   class="st11"
   d="m 68.662755,48 c 0.3,-0.1 0.6,-0.3 0.9,-0.4 -0.3,0.1 -0.6,0.2 -0.9,0.4 0,0 0,0 0,0 z"
   id="path105"
   inkscape:connector-curvature="0"
   style="fill:url(#SVGID_3_)" />
<path
   class="st12"
   d="m 80.862755,43.3 c 0.3,0.2 0.7,0.4 1.2,0.6 -0.4,-0.2 -0.8,-0.4 -1.2,-0.6 0,0 0,0 0,0 z"
   id="path107"
   inkscape:connector-curvature="0"
   style="fill:#802c1c" />
<radialGradient
   id="SVGID_4_"
   cx="97.209099"
   cy="94.309196"
   r="13.1351"
   gradientTransform="matrix(1,0,0,-1,-8.3372454,120.35)"
   gradientUnits="userSpaceOnUse">
	<stop
   offset="0"
   style="stop-color:#F69025"
   id="stop109" />
	<stop
   offset="1"
   style="stop-color:#993A21"
   id="stop111" />
</radialGradient>
<path
   class="st13"
   d="m 80.862755,43.3 c 0.3,0.2 0.7,0.4 1.2,0.6 -0.4,-0.2 -0.8,-0.4 -1.2,-0.6 0,0 0,0 0,0 z"
   id="path114"
   inkscape:connector-curvature="0"
   style="fill:url(#SVGID_4_)" />
<g
   id="g305"
   transform="translate(-8.3372454,-18.2)">
	<defs
   id="defs117">
		<path
   id="SVGID_5_"
   d="m 88.3,30.7 c 0,-0.4 -0.1,-0.8 -0.3,-1.2 -0.1,-0.2 -0.3,-0.4 -0.6,-0.6 0.2,-1.2 0.4,-2.4 0.5,-3.3 0.1,-1.9 -0.3,-3.5 -1,-4.7 v -0.4 c 0,-0.9 -0.5,-1.6 -1.3,-1.9 l -1,-0.3 c -0.2,-0.1 -0.4,-0.1 -0.7,-0.1 -0.5,0 -1,0.2 -1.4,0.5 l -0.2,0.2 c -2.7,0.6 -5.3,3.4 -8,8.3 -0.5,0.2 -0.9,0.4 -1.2,0.8 -2.2,-0.2 -4.5,-0.4 -6.9,-0.5 -0.1,-0.1 -0.2,-0.2 -0.3,-0.3 -3.1,-3.5 -7.3,-5.4 -11.7,-5.4 -4.4,0 -8.6,1.9 -11.7,5.4 -0.5,0.6 -1,1.2 -1.5,1.9 -4.5,0.8 -8.6,1.8 -12.2,3.1 -0.6,-0.4 -1.3,-0.6 -2.1,-0.4 -0.9,0.2 -1.8,0.9 -1.9,1 -0.3,0.3 -0.5,0.7 -0.5,1.1 0,0 0,0.1 0,0.1 -7.1,3.2 -11.5,7.4 -11.5,12 0,3.9 3.2,7.8 8.7,11 1.5,0.9 3.1,1.7 4.9,2.4 0,0 0,0 0.1,0 1.2,0.5 2.6,1 3.9,1.5 0,0 0.1,0 0.1,0 0.8,0.3 1.6,0.5 2.5,0.8 1.6,0.5 3.4,1 5.2,1.4 0.8,0.2 1.6,0.4 2.4,0.5 0.1,0 0.2,0 0.3,0.1 2.7,0.5 5.5,1 8.5,1.3 1.8,0.2 3.6,0.3 5.5,0.4 1.8,0.1 3.7,0.2 5.6,0.2 0,0 0,0 0,0 0.2,0 0.3,0 0.4,0 0.7,0 1.4,0 2,0 0.6,0 1.1,0 1.7,0 0.7,0 1.4,-0.1 2.1,-0.1 0.2,0 0.3,0 0.5,0 0.2,0 0.4,0 0.5,0 0.8,-0.1 1.7,-0.1 2.5,-0.2 0.3,0 0.6,-0.1 0.9,-0.1 0.7,-0.1 1.4,-0.1 2.1,-0.2 0.2,0 0.4,-0.1 0.7,-0.1 0.4,0 0.8,-0.1 1.2,-0.1 0.2,0 0.4,-0.1 0.5,-0.1 0.6,-0.1 1.2,-0.2 1.8,-0.3 0.2,0 0.4,-0.1 0.6,-0.1 0.7,-0.1 1.4,-0.2 2,-0.3 0.3,-0.1 0.6,-0.1 0.9,-0.2 0.1,0 0.1,0 0.2,0 0.1,0 0.1,0 0.2,0 1,-0.2 2,-0.4 2.9,-0.6 1,-0.2 1.9,-0.5 2.8,-0.7 0.8,-0.2 1.6,-0.5 2.4,-0.7 0,0 0,0 0,0 1.2,-0.4 2.3,-0.8 3.4,-1.2 6.7,-2.5 11.8,-5.8 14.3,-9.3 0.6,-0.8 1,-1.6 1.3,-2.4 0.3,-0.9 0.5,-1.8 0.5,-2.7 -0.1,-6.6 -8.2,-12.1 -20.6,-15.5 z"
   inkscape:connector-curvature="0" />
	</defs>
	<clipPath
   id="SVGID_6_">
		<use
   xlink:href="#SVGID_5_"
   style="overflow:visible"
   id="use119"
   x="0"
   y="0"
   width="100%"
   height="100%" />
	</clipPath>
	<g
   class="st14"
   clip-path="url(#SVGID_6_)"
   id="g303">
		<g
   id="g301">
			<g
   id="g299">
				<g
   id="g148">
					<path
   class="st8"
   d="m 65.9,27.2 c -3.1,-3.5 -7.3,-5.4 -11.7,-5.4 -4.4,0 -8.6,1.9 -11.7,5.4 -3.1,3.5 -4.9,8.1 -4.9,13 0,4.9 1.7,9.5 4.9,13 3.1,3.5 7.3,5.4 11.7,5.4 4.4,0 8.6,-1.9 11.7,-5.4 3.1,-3.5 4.9,-8.1 4.9,-13 0,-4.9 -1.8,-9.6 -4.9,-13 z"
   id="path122"
   inkscape:connector-curvature="0"
   style="fill:#19351a" />
					
						<radialGradient
   id="SVGID_7_"
   cx="11.3362"
   cy="307.79861"
   r="12.6673"
   gradientTransform="matrix(1.1408,0,0,-1.2638,45.5428,419.7094)"
   gradientUnits="userSpaceOnUse">
						<stop
   offset="0"
   style="stop-color:#5E9B43"
   id="stop124" />
						<stop
   offset="0.2779"
   style="stop-color:#477936"
   id="stop126" />
						<stop
   offset="0.7638"
   style="stop-color:#224322"
   id="stop128" />
						<stop
   offset="1"
   style="stop-color:#142E1A"
   id="stop130" />
					</radialGradient>
					<path
   class="st15"
   d="m 68.6,40.2 c 0,8.8 -6.5,16 -14.5,16 -8,0 -14.5,-7.2 -14.5,-16 0,-8.8 6.5,-16 14.5,-16 8,0 14.5,7.1 14.5,16 z"
   id="path133"
   inkscape:connector-curvature="0"
   style="fill:url(#SVGID_7_)" />
					
						<linearGradient
   id="SVGID_8_"
   gradientUnits="userSpaceOnUse"
   x1="50.731499"
   y1="93.315804"
   x2="46.166401"
   y2="86.596703"
   gradientTransform="matrix(1,0,0,-1,0,138.55)">
						<stop
   offset="0.2625"
   style="stop-color:#0E1E12"
   id="stop135" />
						<stop
   offset="1"
   style="stop-color:#152E19"
   id="stop137" />
					</linearGradient>
					<path
   class="st16"
   d="m 66.8,47.9 c 0,0 -4.6,2.9 -9.2,3.2 -8.1,0.5 -16.7,-5.1 -16.3,-14 0.2,-5.4 0,-4.3 0,-4.3 0,0 -2.7,4.7 -1.4,10.2 1.3,5.5 4.8,11.3 11.6,12.8 11.7,2.5 14.8,-8.3 15.3,-7.9 z"
   id="path140"
   inkscape:connector-curvature="0"
   style="fill:url(#SVGID_8_)" />
					<path
   class="st17"
   d="m 66.2,30.7 c 0.8,0.8 -1.4,2.6 -4.5,2.9 0.2,0.9 0.5,2.2 -0.2,3.5 -1.2,2.3 -2.5,2.7 -4,3.2 -0.2,0.1 -0.4,0.1 -0.6,0.2 0,0.1 0,0.1 0.1,0.2 0.1,0.3 0.2,0.7 0.3,1.2 0.2,0.8 0,1.6 -0.5,2.3 -0.9,1.4 -2.9,2.1 -4.4,2.4 -0.6,0.1 -1.1,0.2 -1.1,2.8 v 0.3 c 0,3.1 -0.4,3.7 -3.2,5.2 -0.2,0.1 -2.9,-1.4 -2.2,-1.8 0.5,-0.3 2.2,-1.6 2.3,-1.8 0.1,-0.2 0.1,-0.9 0.1,-1.6 v -0.3 c 0,-1.8 0,-5.2 3.6,-5.8 1.4,-0.2 2.3,-0.9 2.4,-1.1 -0.1,-0.2 -0.2,-0.5 -0.2,-0.7 -0.2,-0.6 -0.5,-1.3 -0.3,-2 0.2,-0.9 0.9,-1.6 2,-2 0.2,-0.1 0.5,-0.2 0.7,-0.2 1.3,-0.4 1.7,-0.6 2.3,-1.7 0.2,-0.4 0,-1 -0.1,-1.6 -0.2,-0.8 -0.5,-1.8 0.2,-2.7 0.7,-0.9 1.8,-0.9 2.2,-0.8 1.5,0 2.8,-2 2.8,-2 0.1,-0.2 1.5,1.2 2.3,1.9 z"
   id="path142"
   inkscape:connector-curvature="0"
   style="opacity:0.7;enable-background:new" />
					<path
   class="st17"
   d="m 56.1,24.3 c -0.5,0.6 -1.3,1.3 -2.2,1.2 -0.4,0 -1.5,0 -2.2,0.8 -0.7,0.9 -0.4,1.9 -0.2,2.7 0.1,0.6 0.3,1.2 0.1,1.6 -0.6,1.2 -1,1.3 -2.3,1.7 -0.2,0.1 -0.5,0.2 -0.7,0.2 -1.2,0.4 -1.8,1.1 -2,2 -0.2,0.8 0.1,1.4 0.3,2 0.1,0.2 0.2,0.5 0.2,0.7 -0.1,0.3 -1,0.9 -2.4,1.1 -3.6,0.6 -3.6,4 -3.6,5.8 v 0.3 c 0,0.7 0,1.5 -0.1,1.6 0,0.1 0.4,1.2 0.2,1.3 0.1,0.2 0.7,1.1 1.1,1.8 1.4,-1 1.8,-2.3 1.8,-4.7 v -0.3 c 0,-2.7 0.5,-2.7 1.1,-2.8 1.5,-0.2 3.5,-1 4.4,-2.4 0.5,-0.7 0.6,-1.5 0.5,-2.3 -0.1,-0.5 -0.2,-0.8 -0.3,-1.2 0,-0.1 0,-0.1 -0.1,-0.2 0.2,-0.1 0.4,-0.2 0.6,-0.2 1.5,-0.5 2.9,-1 4,-3.2 0.7,-1.3 0.4,-2.6 0.2,-3.5 3,-0.3 4.9,-3.5 4.9,-3.5 l -1.6,-0.6 c -0.1,0.2 -1.5,-0.1 -1.7,0.1 z"
   id="path144"
   inkscape:connector-curvature="0"
   style="opacity:0.7;enable-background:new" />
					<path
   class="st17"
   d="m 68.9,40.6 c 0.1,0 0.2,0 0.2,0 0,-0.3 -0.1,-0.6 -0.1,-0.8 0,-0.2 0,-0.4 0,-0.6 -0.1,-0.5 -0.2,-1 -0.3,-1.6 -0.1,0 -0.2,0 -0.3,0 -0.4,0 -1.5,0 -2.2,0.8 -0.7,0.9 -0.4,1.9 -0.2,2.7 0.1,0.6 0.3,1.2 0.1,1.6 -0.6,1.2 -0.9,1.3 -2.3,1.7 -0.2,0.1 -0.5,0.2 -0.7,0.2 -1.2,0.4 -1.8,1.1 -2,2 -0.2,0.8 0.1,1.4 0.3,2 0.1,0.2 0.2,0.5 0.2,0.7 -0.1,0.3 -1,0.9 -2.4,1.1 -3.6,0.6 -3.6,4 -3.6,5.8 v 0.1 c 0.1,0 0.3,0 0.4,0.1 0,0 0.1,0 0.2,0 0.2,-0.1 0.4,-0.1 0.6,-0.2 0.6,-0.2 1.2,-0.3 1.8,-0.4 0,-2.3 0.5,-2.4 1.1,-2.5 1.5,-0.2 3.5,-1 4.4,-2.4 0.5,-0.7 0.6,-1.5 0.5,-2.3 -0.1,-0.5 -0.2,-0.8 -0.3,-1.2 0,-0.1 -0.1,-0.1 -0.1,-0.2 0.2,-0.1 0.4,-0.2 0.6,-0.2 1.5,-0.5 2.9,-1 4,-3.2 0.6,-1 0.4,-2.3 0.1,-3.2 z"
   id="path146"
   inkscape:connector-curvature="0"
   style="opacity:0.7;enable-background:new" />
				</g>
				<g
   id="g172">
					<path
   class="st18"
   d="M 41.4,37.6 C 38,34.7 34.8,34.9 33.2,35.3 h -0.1 c 0,0 0,0 0,0 v 0 0 c -1.3,0.3 -2.7,1.2 -3,1.4 -0.2,0.1 -0.4,0.2 -0.6,0.3 -0.5,-2 -0.2,-3.1 -0.2,-3.2 0.2,-0.5 0.1,-1.2 -0.4,-1.6 -0.6,-0.6 -1.4,-0.8 -2.3,-0.6 -1,0.2 -1.8,0.9 -1.9,1 -0.3,0.3 -0.5,0.7 -0.5,1.1 0,1.1 0.1,2.3 0.5,3.6 -0.2,0 -0.4,0.1 -0.5,0.1 -0.3,0.1 -0.5,0.1 -0.6,0.2 -0.2,0 -0.4,0.1 -0.5,0.1 -1.8,0.4 -3.3,1.3 -4.4,2.6 -0.8,0.9 -1.5,1.9 -2,3.2 -0.3,0.8 -0.6,1.6 -0.7,2.4 -0.4,2.3 -0.1,4.5 1,6.5 0.9,1.6 2.2,3 3.6,3.8 0.1,0.1 0.3,0.2 0.4,0.2 2.3,1.4 3.8,3.4 3.9,3.4 0.1,0.1 0.1,0.2 0.2,0.2 0.1,0.1 0.1,0.1 0.2,0.2 0.5,0.5 1,0.8 1.6,1.1 2,1.1 3.6,1 4.7,0.8 0.5,-0.1 0.9,-0.3 1.3,-0.5 0.6,-0.3 1.2,-0.8 1.7,-1.4 0.2,0.1 0.5,0.1 0.7,0.2 0.7,0.1 1.4,0.1 2.1,-0.1 1,-0.2 1.9,-0.8 2.7,-1.6 0.2,-0.2 0.3,-0.4 0.5,-0.6 0.4,-0.5 0.7,-1.1 1,-1.8 0.3,-0.8 0.5,-1.6 0.5,-2.2 0.2,-0.8 0.4,-1.8 1.2,-2.7 0.4,-0.5 0.7,-1 0.9,-1.5 0,0 0,0 0,0 0.8,-1.8 1,-3.5 1,-4.1 0,-0.7 0.2,-4.8 -3.8,-8.2 z m 1.4,11.8 v 0 z"
   id="path150"
   inkscape:connector-curvature="0"
   style="fill:#4d1111" />
					
						<radialGradient
   id="SVGID_9_"
   cx="-271.15701"
   cy="-84.972603"
   r="12.3967"
   gradientTransform="matrix(0.9722,-0.2344,-0.2344,-0.9722,275.0501,-104.6478)"
   gradientUnits="userSpaceOnUse">
						<stop
   offset="0"
   style="stop-color:#DF4E45"
   id="stop152" />
						<stop
   offset="1"
   style="stop-color:#471111"
   id="stop154" />
					</radialGradient>
					<path
   class="st19"
   d="m 28.5,40.6 c -0.9,-1.3 -2.7,-1.7 -3.8,-1.5 -1.2,0.2 -4.8,0.6 -6.6,5.1 -1.9,4.6 0.5,7.8 0.5,7.8 0,0 1.2,2.5 3.6,3.6 2.9,1.3 3.3,3.8 5.4,4.7 0.8,0.3 4.4,2.1 6.5,-1.7 0,0 2.8,1.9 5.4,-1.2 1.5,-1.8 0.7,-4.1 2.7,-6.6 1.6,-2 1.6,-4.8 1.6,-4.8 0,0 0.7,-3.9 -3.1,-7.2 -3.7,-3.2 -7.2,-2.2 -8.2,-1.5 -1,0.6 -3,1.7 -3.2,3.2 z"
   id="path157"
   inkscape:connector-curvature="0"
   style="fill:url(#SVGID_9_)" />
					
						<linearGradient
   id="SVGID_10_"
   gradientUnits="userSpaceOnUse"
   x1="-291.75211"
   y1="-112.2876"
   x2="-275.9231"
   y2="-93.432404"
   gradientTransform="matrix(0.9722,-0.2344,-0.2344,-0.9722,275.0501,-104.6478)">
						<stop
   offset="0"
   style="stop-color:#DF4E45"
   id="stop159" />
						<stop
   offset="0.8926"
   style="stop-color:#270E0C"
   id="stop161" />
					</linearGradient>
					<path
   class="st20"
   d="m 19.8,41.4 c 0,0 -4.2,9 2.8,11.9 5,2.1 3.5,2.1 4.3,2.9 0.8,0.8 4,6.3 7.1,2 0,0 4.5,1.5 6,-3.2 0,0 0.8,-4.5 2.8,-5.5 0,0 -2.3,3.1 -2.2,4.7 0.1,1.6 -2.1,6.7 -6.5,4.4 0,0 -0.6,1.2 -1.8,1.9 -1.4,0.8 -3.6,0.9 -6.1,-1.3 0,0 -1.8,-2.4 -4.7,-4 -3,-1.8 -6.7,-7.2 -1.7,-13.8 z"
   id="path164"
   inkscape:connector-curvature="0"
   style="fill:url(#SVGID_10_)" />
					<path
   class="st21"
   d="m 24.1,39.1 c 0,0 1.8,-0.9 3.3,0.4 0.8,0.7 1.4,0.8 1.4,0.8 0,0 -0.4,-1.1 2.1,-2.5 0,0 1.4,-0.9 2.7,-1.2 0,0 -2.3,1.4 -2.4,2.1 0,0 1.1,-0.5 2,-0.5 0,0 -1.9,0.9 -2.3,1.7 0,0 2,-0.4 2.9,0.1 0,0 -1.7,-0.1 -2.9,0.7 0,0 1,-0.1 2,0.5 0,0 -1.9,0.4 -3,1.3 0,0 -1.1,1 -2.9,1 0,0 -0.7,0 -1.6,0.8 0,0 0.4,-0.8 1,-1.2 0.7,-0.4 1.2,-0.5 1.2,-0.5 0,0 -2,-0.9 -3.2,0.1 0,0 0.9,-1.4 2.6,-1.3 0,0 -1.4,-1 -2.9,-0.4 0,0 1.1,-1 2.2,-0.7 0,0.1 -0.5,-1.4 -2.2,-1.2 z"
   id="path166"
   inkscape:connector-curvature="0"
   style="fill:#43120e" />
					<g
   id="g170">
						<path
   class="st22"
   d="m 28.9,42.1 c 0,0 -3.4,-4.2 -3.2,-8.2 0,0 1.5,-1.2 2.2,-0.5 0,0 -1,2.7 1.7,8.3 0,-0.1 0.4,0.7 -0.7,0.4 z"
   id="path168"
   inkscape:connector-curvature="0"
   style="fill:#261414" />
					</g>
				</g>
				<g
   id="g201">
					<path
   class="st23"
   d="m 86.8,20.8 v -0.4 c 0,-0.9 -0.5,-1.6 -1.3,-1.9 l -1,-0.3 c -0.2,-0.1 -0.4,-0.1 -0.7,-0.1 -0.5,0 -1,0.2 -1.4,0.5 l -0.2,0.2 c -2.7,0.6 -5.3,3.4 -8,8.3 -0.6,0.2 -1.1,0.6 -1.5,1.2 -0.3,0.5 -0.6,1.3 -0.3,2.4 l -0.2,0.5 c -2.1,4.6 -3.5,7.7 -7,12.4 -0.3,0.2 -0.6,0.4 -0.9,0.8 -0.3,0.3 -0.5,0.8 -0.5,1.2 -0.3,0.5 -0.7,0.9 -1.1,1.4 -0.7,0.8 -5.2,6.3 -3.4,10.4 l -0.1,0.3 c -0.3,0.9 0,1.8 0.8,2.3 l 1,0.6 c 0.3,0.2 0.7,0.3 1.1,0.3 0.3,0 0.6,-0.1 0.9,-0.2 l 0.9,-0.4 c 0.1,0 0.1,0 0.2,0 4.1,0 9.4,-3.9 12.8,-7.8 2,-2.3 3.9,-5.4 5.7,-9.2 0.5,-0.3 0.8,-0.8 1,-1.3 0.2,-0.5 0.2,-1 0.2,-1.4 2.3,-5.5 4,-11.5 4.2,-15.1 0,-1.8 -0.4,-3.4 -1.2,-4.7 z M 64,58.5 c 0,0 0,0 0,0 0.1,0 0.3,0 0.4,0 -0.2,0 -0.3,0 -0.4,0 z M 75.4,29 c 0,0 0,0 0,0 0.1,0 0,0 0,0 0.1,0 0,0 0,0 z"
   id="path174"
   inkscape:connector-curvature="0"
   style="fill:#192915" />
					
						<radialGradient
   id="SVGID_11_"
   cx="74.855698"
   cy="98.925003"
   r="20.2668"
   gradientTransform="matrix(1,0,0,-1,0,138.55)"
   gradientUnits="userSpaceOnUse">
						<stop
   offset="0"
   style="stop-color:#142E1A"
   id="stop176" />
						<stop
   offset="0.1928"
   style="stop-color:#17321B"
   id="stop178" />
						<stop
   offset="0.3843"
   style="stop-color:#1F3E20"
   id="stop180" />
						<stop
   offset="0.5755"
   style="stop-color:#2C5227"
   id="stop182" />
						<stop
   offset="0.7664"
   style="stop-color:#3F6E32"
   id="stop184" />
						<stop
   offset="0.9556"
   style="stop-color:#58913F"
   id="stop186" />
						<stop
   offset="1"
   style="stop-color:#5E9B43"
   id="stop188" />
					</radialGradient>
					<path
   class="st24"
   d="m 84.8,21.5 v 0 -1 l -1,-0.3 -0.7,0.7 v 0 c -1.9,0.1 -4.6,2.3 -7.6,8.2 v 0 c 0,0 -1.9,-0.1 -0.9,1.9 -2.6,5.6 -4,8.9 -8.1,14.5 0,0 -0.9,0.1 -0.8,1 -0.5,0.6 -1,1.3 -1.5,1.9 0,0 -5.1,5.8 -2.8,9 l -0.4,1.2 1,0.6 1.3,-0.6 c 0,0 0,0 0,-0.1 3.2,0.6 8.4,-3 11.9,-7.1 2.1,-2.4 4.1,-5.8 5.7,-9.4 v 0 c 1.2,-0.4 0.6,-1.4 0.6,-1.4 0,0 0,0 0,0 2.5,-5.7 4.1,-11.7 4.3,-15.1 0.2,-1.8 -0.2,-3.2 -1,-4 z"
   id="path191"
   inkscape:connector-curvature="0"
   style="fill:url(#SVGID_11_)" />
					<path
   class="st23"
   d="m 64.8,57.2 c 0,0 14.9,-17 19.4,-32.5 0,0 -2.3,16.3 -19.4,32.5 z"
   id="path193"
   inkscape:connector-curvature="0"
   style="fill:#192915" />
					<path
   class="st23"
   d="m 84.2,22.2 c 0,0 -9.6,19.3 -21,35 z"
   id="path195"
   inkscape:connector-curvature="0"
   style="fill:#192915" />
					<path
   class="st23"
   d="m 81.3,22.8 c 0,0 -3.6,4 -10.5,17.3 0,0 -3.8,5.8 -6.8,9.7 -1.9,2.6 -2.4,5.8 -2.4,5.8 0,0 1.7,-3.7 5.5,-8.7 3.8,-5 11.2,-18.8 11.2,-18.8 z"
   id="path197"
   inkscape:connector-curvature="0"
   style="fill:#192915" />
					<path
   class="st23"
   d="M 67.2,56.8 C 67.2,56.8 78.3,46 83.1,33.4 83,33.5 80,47.1 67.2,56.8 Z"
   id="path199"
   inkscape:connector-curvature="0"
   style="fill:#192915" />
				</g>
				<g
   id="g227">
					<path
   class="st8"
   d="M 61.4,46.4 C 58.6,43.6 55,42.1 51.1,42.1 c -3.9,0 -7.5,1.5 -10.3,4.3 -2.8,2.8 -4.3,6.4 -4.3,10.3 0,3.9 1.5,7.5 4.3,10.3 2.8,2.8 6.4,4.3 10.3,4.3 3.9,0 7.5,-1.5 10.3,-4.3 2.8,-2.8 4.3,-6.4 4.3,-10.3 0,-3.9 -1.5,-7.5 -4.3,-10.3 z"
   id="path203"
   inkscape:connector-curvature="0"
   style="fill:#19351a" />
					
						<radialGradient
   id="SVGID_12_"
   cx="54.937401"
   cy="89.301399"
   r="12.6674"
   gradientTransform="matrix(1,0,0,-1,0,138.55)"
   gradientUnits="userSpaceOnUse">
						<stop
   offset="0"
   style="stop-color:#5E9B43"
   id="stop205" />
						<stop
   offset="0.2779"
   style="stop-color:#477936"
   id="stop207" />
						<stop
   offset="0.7638"
   style="stop-color:#224322"
   id="stop209" />
						<stop
   offset="1"
   style="stop-color:#142E1A"
   id="stop211" />
					</radialGradient>
					<path
   class="st25"
   d="m 63.8,56.7 c 0,7 -5.7,12.7 -12.7,12.7 -7,0 -12.7,-5.7 -12.7,-12.7 0,-7 5.7,-12.7 12.7,-12.7 7,0.1 12.7,5.7 12.7,12.7 z"
   id="path214"
   inkscape:connector-curvature="0"
   style="fill:url(#SVGID_12_)" />
					<path
   class="st26"
   d="m 54.7,46.2 c 0,0 -1.4,-0.1 -1,0.7 0.3,0.8 0.3,0.6 0.3,0.6 0,0 -0.2,0.8 -0.2,1.1 0,0.3 1,1 1.3,0.7 0.3,-0.3 0.7,0.6 1.2,0.3 0.4,-0.3 -0.3,-0.7 0.3,-1.1 0.5,-0.4 1,-0.2 0.7,-1 -0.3,-0.8 -0.6,-0.8 -0.6,-0.8 0,0 0.3,-1.2 -0.8,-1 -0.7,0.2 -0.7,0.5 -1.2,0.5 z"
   id="path216"
   inkscape:connector-curvature="0"
   style="fill:#71a842" />
					<path
   class="st27"
   d="m 56.8,47.5 c 0,0.7 -0.6,1.3 -1.3,1.3 -0.7,0 -1.3,-0.6 -1.3,-1.3 0,-0.7 0.6,-1.3 1.3,-1.3 0.7,0 1.3,0.6 1.3,1.3 z"
   id="path218"
   inkscape:connector-curvature="0"
   style="fill:#bfba52" />
					
						<linearGradient
   id="SVGID_13_"
   gradientUnits="userSpaceOnUse"
   x1="48.525002"
   y1="77.988098"
   x2="44.636902"
   y2="72.265297"
   gradientTransform="matrix(1,0,0,-1,0,138.55)">
						<stop
   offset="0.2625"
   style="stop-color:#0E1E12"
   id="stop220" />
						<stop
   offset="1"
   style="stop-color:#152E19"
   id="stop222" />
					</linearGradient>
					<path
   class="st28"
   d="m 62.2,62.8 c 0,0 -4,2.3 -8.1,2.6 -7.1,0.4 -14.6,-4 -14.3,-11.1 0.2,-4.3 0,-3.4 0,-3.4 0,0 -2.4,3.7 -1.2,8 1.2,4.3 4.2,9 10.2,10.2 10.2,2 13,-6.6 13.4,-6.3 z"
   id="path225"
   inkscape:connector-curvature="0"
   style="fill:url(#SVGID_13_)" />
				</g>
				<g
   id="g275">
					<g
   id="g269">
						<path
   class="st10"
   d="m 88.5,31.6 c 0,-0.3 -0.1,-0.5 -0.2,-0.8 0,-0.5 -0.1,-0.9 -0.3,-1.3 -0.2,-0.4 -0.9,-1.1 -2.1,-1.1 0,0 -0.1,0 -0.1,0 -0.4,-0.8 -2.6,-0.8 -2.8,-0.8 -1.1,0.3 -2.5,0.4 -2.9,2.4 -0.4,0.8 -1.6,3.3 -3.2,5.9 -2.4,4 -4.9,6.6 -6.9,7.5 -2,0.9 -3.9,2.5 -5.5,4.5 -1.6,2.1 -2.7,4.5 -3.2,6.9 -0.4,2 -0.3,3.9 0.2,5.7 0.6,2 1.7,3.8 3.3,5.4 1.1,1.1 2.4,1.9 3.7,2.5 1.2,0.5 2.6,0.8 3.9,0.8 1.6,0 3.1,-0.3 4.7,-1 1.4,-0.6 2.7,-1.4 3.9,-2.3 1.1,-0.9 2.1,-2 2.9,-3.1 0.8,-1.2 1.3,-2.4 1.4,-3.5 0.6,-4.7 -0.3,-7.5 -1.1,-9.9 -0.6,-2 -1.2,-3.7 -1.1,-6.4 0.1,-3.1 0.4,-4.9 1,-6.1 0.6,-1.1 1.5,-1.9 3.2,-3.2 1.1,-0.8 1.2,-1.7 1.2,-2.1 z"
   id="path229"
   inkscape:connector-curvature="0"
   style="fill:#42270f" />
						
							<radialGradient
   id="SVGID_14_"
   cx="48.205502"
   cy="1314.9772"
   r="20.804701"
   gradientTransform="matrix(-0.4376,0.8992,0.7201,0.3505,-843.0665,-470.9413)"
   gradientUnits="userSpaceOnUse">
							<stop
   offset="0"
   style="stop-color:#96A873"
   id="stop231" />
							<stop
   offset="1"
   style="stop-color:#452117"
   id="stop233" />
						</radialGradient>
						<path
   class="st29"
   d="m 81.9,30.6 c 0,0 -5.3,12 -11.2,14.6 -5.8,2.6 -11.5,12.6 -4.6,19.4 6.9,6.8 16.8,-1 17.4,-5.5 0.9,-7.8 -2.5,-9.4 -2.2,-16.1 0.3,-6.7 1.4,-8.1 5,-10.8 0.7,-0.5 0.2,-0.9 0,-1.2 -0.6,-0.9 -1.6,-0.4 -1.6,-0.4 0,0 -0.9,-1.2 -1.2,-1.1 -0.4,0.1 -1.3,-0.4 -1.6,1.1 z"
   id="path236"
   inkscape:connector-curvature="0"
   style="fill:url(#SVGID_14_)" />
						
							<linearGradient
   id="SVGID_15_"
   gradientUnits="userSpaceOnUse"
   x1="63.082298"
   y1="66.3722"
   x2="74.704399"
   y2="83.684303"
   gradientTransform="matrix(1,0,0,-1,0,138.55)">
							<stop
   offset="0"
   style="stop-color:#96A873"
   id="stop238" />
							<stop
   offset="6.390000e-02"
   style="stop-color:#889365"
   id="stop240" />
							<stop
   offset="0.198"
   style="stop-color:#6F6D4A"
   id="stop242" />
							<stop
   offset="0.3377"
   style="stop-color:#5A4E35"
   id="stop244" />
							<stop
   offset="0.4828"
   style="stop-color:#4A3624"
   id="stop246" />
							<stop
   offset="0.6353"
   style="stop-color:#3F2418"
   id="stop248" />
							<stop
   offset="0.8002"
   style="stop-color:#381A11"
   id="stop250" />
							<stop
   offset="1"
   style="stop-color:#36170F"
   id="stop252" />
						</linearGradient>
						<path
   class="st30"
   d="m 64.3,51.9 c 0,0 0.6,4.3 3.5,6.5 3.2,2.4 11.2,3.8 15.9,-1.9 0,0 1.1,5.7 -5.8,9.3 -7.8,4 -13.2,-0.8 -14.2,-4.4 -0.9,-3 -1.4,-5.5 0.6,-9.5 z"
   id="path255"
   inkscape:connector-curvature="0"
   style="fill:url(#SVGID_15_)" />
						<path
   class="st31"
   d="m 70,65.3 c 0.2,-2.9 -0.4,-11.8 5.8,-21.9 0,0 -6.1,12.7 -4.7,23.8 L 70,67 Z"
   id="path257"
   inkscape:connector-curvature="0"
   style="fill:#36170f" />
						<path
   class="st31"
   d="m 64.6,63.4 c 0,0 -1.7,-9.6 5.8,-16.5 3.3,-3.1 7,-6.3 8.8,-10.6 -0.2,0.9 -3.8,6.6 -9.7,12.2 -3.1,2.9 -5.7,12.1 -4.4,15.5 z"
   id="path259"
   inkscape:connector-curvature="0"
   style="fill:#36170f" />
						<path
   class="st31"
   d="m 67,65.7 c 0,0 0.6,-11.6 3.3,-15.4 0,0 -2.7,6.5 -2.8,15.8 z"
   id="path261"
   inkscape:connector-curvature="0"
   style="fill:#36170f" />
						<path
   class="st31"
   d="m 72.9,67.2 c 0,2.4 0,-13.8 3.3,-21.1 0,0 -2.7,7.6 -2.6,21.1 z"
   id="path263"
   inkscape:connector-curvature="0"
   style="fill:#36170f" />
						<path
   class="st31"
   d="m 76.2,66.8 c 0,0 3.1,-5.9 2.5,-19.7 0,0 0,-7.2 2.1,-10 0,0 -2.3,4 -1.8,11.2 0,0 1.1,9.8 -2,18 z"
   id="path265"
   inkscape:connector-curvature="0"
   style="fill:#36170f" />
						<path
   class="st31"
   d="m 80,46.5 c 0.5,2.7 2.3,8.5 1,14.3 -0.6,2.5 -2.3,4.5 -2.3,4.5 l 1.8,-1.4 c 0,0 2.9,-5.8 0.8,-13.6 -0.7,-2.3 -1.1,-4.1 -1.1,-5.7 0,-2.2 0.5,-3.7 0.6,-5 0,0 -1.3,4.2 -0.8,6.9 z"
   id="path267"
   inkscape:connector-curvature="0"
   style="fill:#36170f" />
					</g>
					<path
   class="st31"
   d="m 78.1,40.4 c 0,0 -1.1,6.2 -1.3,10.3 -0.3,4 -0.9,8.4 -2.4,16.3 l 0.5,-0.1 c 0,0 1.3,-5.5 1.9,-13 0,0.1 0.8,-9.6 1.3,-13.5 z"
   id="path271"
   inkscape:connector-curvature="0"
   style="fill:#36170f" />
					<path
   class="st31"
   d="m 79.2,37.6 c -0.7,1 -2.8,3.9 -3.6,7.9 0,0 0.4,-2.8 3.6,-7.5 1,-1.5 2.7,-3.5 2.7,-3.6 -0.1,-0.1 -2.1,2.2 -2.7,3.2 z"
   id="path273"
   inkscape:connector-curvature="0"
   style="fill:#36170f" />
				</g>
				<g
   id="g297">
					<path
   class="st12"
   d="m 102.5,43 c -0.4,-0.2 -0.8,-0.5 -1.2,-0.6 0.1,0 0.1,-0.1 0.1,-0.1 1,-0.3 1.6,-1 1.7,-1.9 0.1,-1.4 -1.2,-2.2 -1.7,-2.6 -0.5,-0.3 -1.1,-0.6 -1.1,-0.6 L 99.8,37 h -0.5 c -0.8,0.1 -2.1,0.6 -3.2,1.7 -0.2,-0.3 -0.5,-0.5 -0.9,-0.8 -0.8,-0.6 -1.9,-0.8 -3.4,-0.8 -0.3,0 -0.6,0 -1,0 -1.1,-0.3 -2.2,-0.4 -3.2,-0.4 -2.3,0 -4.3,0.7 -5.9,2 -2,1.6 -3.3,4.1 -4.1,7.4 -1.3,5.3 0.6,9.1 2.3,11.3 2.2,2.7 5.3,4.5 7.5,4.9 0.3,0.3 0.8,0.6 1.5,0.9 1.6,0.8 3.5,1.3 5.5,1.3 1.8,0 3.8,-0.4 5.8,-1.1 2.4,-0.8 4.6,-2.6 6.2,-4.9 1.6,-2.3 2.4,-4.9 2.4,-7.4 -0.2,-3.8 -2.4,-6.8 -6.3,-8.1 z m -15,-4.5 c 0.1,0 0.1,0 0.2,0 v 0 c -0.1,0 -0.2,0 -0.2,0 z m 4.3,0.4 c 0,0 0,0 0,0 0.1,0 0.1,0 0,0 0.1,0 0,0 0,0 z m 2.5,23.9 c 0,0 0,0 0,0 0,0 0.1,0 0,0 0.1,0 0,0 0,0 z m 4.6,-20 v 0 z"
   id="path277"
   inkscape:connector-curvature="0"
   style="fill:#802c1c" />
					
						<radialGradient
   id="SVGID_16_"
   cx="97.209099"
   cy="94.309196"
   r="13.1404"
   gradientTransform="matrix(1,0,0,-1,0,138.55)"
   gradientUnits="userSpaceOnUse">
						<stop
   offset="0"
   style="stop-color:#F69025"
   id="stop279" />
						<stop
   offset="1"
   style="stop-color:#993A21"
   id="stop281" />
					</radialGradient>
					<path
   class="st32"
   d="m 93.1,39.9 c -2.5,-1.5 -11.2,-4.3 -13.8,6.6 -2.3,9.6 6.6,14.1 8.8,14.1 0,0 3.7,3.9 11.5,1.1 7.8,-2.8 12.1,-16.8 -0.9,-17.9 l -2,-1.4 c 0,0.2 -1.1,-1 -3.6,-2.5 z"
   id="path284"
   inkscape:connector-curvature="0"
   style="fill:url(#SVGID_16_)" />
					<path
   class="st33"
   d="m 89.5,41.4 c 0,0 -6.3,-1.7 1.2,-2.4 5.1,-0.5 3.9,2.1 5.5,2.6 l 2.4,1.6 c 0,0 4.3,1 6,4.6 0,0 -1.1,0 -4,0 -2.9,0 0.2,3.7 -2.3,3.7 -2.4,0 -3,-3.2 -3,-3.2 0,0 -3.2,4 -4.8,3.2 -1.6,-0.8 0.9,-2.9 0,-4.7 -0.9,-1.8 -5.2,-1.9 -5.2,-1.9 0,0 0.1,-0.1 4.2,-3.5 z"
   id="path286"
   inkscape:connector-curvature="0"
   style="fill:#112416" />
					<path
   class="st33"
   d="m 99.6,38.7 c 0,0 -2.9,0.5 -3.7,3.7 -0.8,3.2 2.3,1.5 2.3,1.5 0,0 1.2,-2.9 2.8,-3.4 1.5,-0.4 -1.4,-1.8 -1.4,-1.8 z"
   id="path288"
   inkscape:connector-curvature="0"
   style="fill:#112416" />
					
						<linearGradient
   id="SVGID_17_"
   gradientUnits="userSpaceOnUse"
   x1="76.444901"
   y1="70.240898"
   x2="93.084198"
   y2="88.744499"
   gradientTransform="matrix(1,0,0,-1,0,138.55)">
						<stop
   offset="0"
   style="stop-color:#F69025"
   id="stop290" />
						<stop
   offset="0.602"
   style="stop-color:#6D2B13"
   id="stop292" />
					</linearGradient>
					<path
   class="st34"
   d="m 81.1,42 c 0,0 -4.9,12.2 8.4,17.4 0,0 4,1.7 8.2,0.9 4.3,-0.9 6.1,-1.4 6.1,-1.4 0,0 -1.1,1.5 -3.4,2.6 -3.1,1.6 -8.1,2.6 -12.3,-0.8 0,0 -15.2,-3.2 -7,-18.7 z"
   id="path295"
   inkscape:connector-curvature="0"
   style="fill:url(#SVGID_17_)" />
				</g>
			</g>
		</g>
	</g>
</g>
</svg>