<?xml version="1.0" encoding="UTF-8" standalone="no"?>
<!-- Generator: Adobe Illustrator 23.0.2, SVG Export Plug-In . SVG Version: 6.00 Build 0)  -->

<svg
   xmlns:dc="http://purl.org/dc/elements/1.1/"
   xmlns:cc="http://creativecommons.org/ns#"
   xmlns:rdf="http://www.w3.org/1999/02/22-rdf-syntax-ns#"
   xmlns:svg="http://www.w3.org/2000/svg"
   xmlns="http://www.w3.org/2000/svg"
   xmlns:sodipodi="http://sodipodi.sourceforge.net/DTD/sodipodi-0.dtd"
   xmlns:inkscape="http://www.inkscape.org/namespaces/inkscape"
   version="1.1"
   id="Layer_1"
   x="0px"
   y="0px"
   viewBox="0 0 152.75736 142.60001"
   xml:space="preserve"
   sodipodi:docname="fox_inv.svg"
   width="152.75735"
   height="142.60001"
   inkscape:version="0.92.4 (33fec40, 2019-01-16)"><metadata
   id="metadata77"><rdf:RDF><cc:Work
       rdf:about=""><dc:format>image/svg+xml</dc:format><dc:type
         rdf:resource="http://purl.org/dc/dcmitype/StillImage" /></cc:Work></rdf:RDF></metadata><defs
   id="defs75" /><sodipodi:namedview
   pagecolor="#ffffff"
   bordercolor="#666666"
   borderopacity="1"
   objecttolerance="10"
   gridtolerance="10"
   guidetolerance="10"
   inkscape:pageopacity="0"
   inkscape:pageshadow="2"
   inkscape:window-width="640"
   inkscape:window-height="480"
   id="namedview73"
   showgrid="false"
   inkscape:zoom="0.18941941"
   inkscape:cx="102.25632"
   inkscape:cy="128.98001"
   inkscape:window-x="10"
   inkscape:window-y="34"
   inkscape:window-maximized="0"
   inkscape:current-layer="Layer_1" />
<style
   type="text/css"
   id="style12">
	.st0{fill:none;}
	.st1{fill:#283D0D;}
	.st2{fill:#EBEBEF;}
	.st3{fill:#FFFFFF;}
	.st4{fill:#200C06;}
</style>
<g
   id="g70"
   transform="translate(-752.98868,-245.31)">
	<path
   class="st0"
   d="m 854.44,276.53 c 1.32,2.09 2.53,4.25 3.54,6.43 -1.01,-2.18 -2.22,-4.34 -3.54,-6.43 z"
   id="path14"
   inkscape:connector-curvature="0"
   style="fill:none" />
	<path
   class="st0"
   d="m 852.39,273.45 c 0.7,1.01 1.39,2.03 2.05,3.08 -0.66,-1.05 -1.35,-2.08 -2.05,-3.08 z"
   id="path16"
   inkscape:connector-curvature="0"
   style="fill:none" />
	<path
   class="st0"
   d="m 831.56,271.6 c -0.54,-0.56 -1.09,-1.11 -1.65,-1.65 0.56,0.54 1.11,1.09 1.65,1.65 z"
   id="path18"
   inkscape:connector-curvature="0"
   style="fill:none" />
	<path
   class="st0"
   d="m 848.06,267.74 c 0.72,0.89 1.45,1.81 2.18,2.76 -0.72,-0.95 -1.45,-1.87 -2.18,-2.76 z"
   id="path20"
   inkscape:connector-curvature="0"
   style="fill:none" />
	<path
   class="st0"
   d="m 860.98,295.95 c 0,-0.55 0,-1.09 -0.01,-1.64 -0.03,-1.57 -0.26,-3.18 -0.65,-4.81 0.39,1.63 0.62,3.24 0.65,4.81 0.01,0.55 0.02,1.09 0.01,1.64 z"
   id="path22"
   inkscape:connector-curvature="0"
   style="fill:none" />
	<path
   class="st0"
   d="m 857.98,282.96 c 1.01,2.18 1.82,4.38 2.34,6.55 -0.52,-2.17 -1.33,-4.37 -2.34,-6.55 z"
   id="path24"
   inkscape:connector-curvature="0"
   style="fill:none" />
	<path
   class="st0"
   d="m 825.89,266.14 c 0.97,0.88 1.95,1.79 2.93,2.73 -0.98,-0.93 -1.96,-1.85 -2.93,-2.73 z"
   id="path26"
   inkscape:connector-curvature="0"
   style="fill:none" />
	<path
   class="st0"
   d="m 774.6,359.05 c -0.23,-0.09 -0.47,-0.2 -0.72,-0.31 0.25,0.11 0.49,0.22 0.72,0.31 z"
   id="path28"
   inkscape:connector-curvature="0"
   style="fill:none" />
	<path
   class="st0"
   d="m 765.55,352.87 v 0 c -0.07,-0.08 -0.12,-0.15 -0.19,-0.23 0.07,0.08 0.12,0.15 0.19,0.23 z"
   id="path30"
   inkscape:connector-curvature="0"
   style="fill:none" />
	<path
   class="st0"
   d="m 810.38,253.85 c 0.28,0.19 0.6,0.42 0.97,0.68 -0.37,-0.26 -0.69,-0.49 -0.97,-0.68 z"
   id="path32"
   inkscape:connector-curvature="0"
   style="fill:none" />
	<path
   class="st0"
   d="m 815.71,257.73 c 0.75,0.57 1.55,1.19 2.38,1.85 -0.83,-0.66 -1.63,-1.28 -2.38,-1.85 z"
   id="path34"
   inkscape:connector-curvature="0"
   style="fill:none" />
	<path
   class="st0"
   d="m 760.84,345.48 c 0.22,-0.41 0.48,-0.76 0.76,-1.06 -0.28,0.31 -0.53,0.66 -0.76,1.06 z"
   id="path36"
   inkscape:connector-curvature="0"
   style="fill:none" />
	<path
   class="st0"
   d="m 819.53,260.72 c 1.54,1.24 3.18,2.61 4.85,4.08 -1.68,-1.47 -3.31,-2.84 -4.85,-4.08 z"
   id="path38"
   inkscape:connector-curvature="0"
   style="fill:none" />
	<path
   class="st0"
   d="m 775.87,359.39 c 0.02,0 0.04,0.01 0.06,0.01 0.6,0.05 1.21,0.11 1.82,0.19 -0.62,-0.07 -1.22,-0.14 -1.82,-0.19 -0.02,-0.01 -0.04,-0.01 -0.06,-0.01 z"
   id="path40"
   inkscape:connector-curvature="0"
   style="fill:none" />
	<path
   class="st0"
   d="m 878.11,326.93 c 6.91,-2.99 14.57,-9.45 20.98,-22.68 l 0.96,-1.98 -2.2,0.11 c -1.31,0.06 -27.74,1.52 -36.9,15.61 -0.71,-0.84 -1.5,-1.65 -2.34,-2.44 -0.39,-0.37 -0.78,-0.73 -1.19,-1.1 -0.98,-2.82 -2.06,-5.43 -3.14,-7.76 0,0 0,0 0,0 -0.25,-0.53 -0.49,-1.04 -0.73,-1.54 -0.03,-0.07 -0.06,-0.13 -0.1,-0.2 -0.23,-0.47 -0.45,-0.91 -0.68,-1.35 -0.05,-0.09 -0.09,-0.18 -0.14,-0.27 -0.21,-0.42 -0.42,-0.82 -0.63,-1.21 -0.05,-0.09 -0.1,-0.19 -0.15,-0.28 -0.2,-0.37 -0.4,-0.73 -0.59,-1.07 -0.05,-0.1 -0.11,-0.19 -0.16,-0.29 -0.19,-0.33 -0.36,-0.64 -0.54,-0.95 -0.05,-0.09 -0.11,-0.18 -0.16,-0.27 -0.17,-0.29 -0.33,-0.56 -0.49,-0.82 -0.05,-0.09 -0.1,-0.17 -0.15,-0.25 -0.15,-0.24 -0.29,-0.48 -0.42,-0.69 -0.05,-0.08 -0.1,-0.16 -0.15,-0.24 -0.12,-0.2 -0.24,-0.39 -0.35,-0.56 -0.05,-0.07 -0.09,-0.13 -0.13,-0.2 -0.1,-0.15 -0.2,-0.3 -0.28,-0.43 -0.04,-0.06 -0.07,-0.1 -0.11,-0.16 -0.07,-0.11 -0.14,-0.22 -0.2,-0.3 -0.03,-0.05 -0.05,-0.07 -0.08,-0.11 -0.11,-0.16 -0.18,-0.26 -0.18,-0.26 2.05,-13.01 -2.64,-24.46 -10.32,-38.76 0.41,8.75 -0.37,15.13 -1.75,19.81 v 0 c -2.24,7.58 -6.04,10.65 -8.88,11.88 -0.94,-17.31 -17.62,-35.02 -17.62,-35.02 0,0 7.43,19.76 2.23,38.13 -6.93,1.81 -11.77,4 -14.99,5.82 -2.65,0.61 -4.68,1.51 -6.1,2.74 -8.11,7.04 -8.38,7.69 -9.34,13.96 -0.21,1.36 -0.46,3.03 -0.87,5.14 -0.38,2 -0.41,3.78 -0.44,5.51 -0.05,3.26 -0.1,6.08 -2.47,9.74 l -1.65,2.56 c -0.36,0.23 -0.74,0.44 -1.13,0.63 -1.99,0.98 -3.88,1.92 -5.59,2.77 -1.78,0.84 -3.3,1.59 -4.4,2.2 -0.15,0.08 -0.31,0.16 -0.45,0.23 -0.58,0.3 -1.12,0.7 -1.58,1.1 -0.17,0.1 -0.33,0.22 -0.48,0.34 0.15,-0.13 0.32,-0.24 0.48,-0.34 4.23,-2.65 12.03,1.82 12.03,1.82 -2.47,4.74 -5.99,7.37 -7.88,7.66 4.26,1 19.73,4.27 30.54,1.68 12.64,-3.04 10.03,-12.02 29.85,-19.29 2.69,-0.99 5.01,-1.73 7.05,-2.29 11.12,0.99 17.09,2.61 20.09,3.75 2,0.76 2.69,1.31 2.71,1.32 l 0.59,0.56 0.76,-0.28 c 0.09,-0.03 0.83,-0.32 1.76,-1 1.19,0.97 2.17,1.79 3.14,2.35 0.56,0.32 1.58,0.87 2.91,1.56 3.22,1.67 8.3,4.23 13.38,6.78 1.06,-0.5 2.15,-0.96 3.24,-1.4 -10.16,-2.33 -15.84,-7.2 -19,-11.8 2.25,-0.76 4.22,-1.77 5.55,-3.05 1.7,-1.63 2.32,-3.58 1.79,-5.64 -0.02,-0.08 -0.04,-0.15 -0.07,-0.22 8.59,3.26 15.89,12.1 20.06,18.11 0.93,-0.21 1.87,-0.4 2.83,-0.57 -3.25,-4.92 -8.81,-12.12 -15.73,-16.8 z m -20.18,8.92 c -2.68,-1.62 -13.16,-6.13 -46.69,-6.13 -6.07,0 -12.9,0.15 -20.58,0.49 l -9.65,2.61 c 1.31,-3.07 1.35,-5.74 1.4,-8.34 0.03,-1.62 0.05,-3.29 0.4,-5.06 0.42,-2.16 0.68,-3.86 0.89,-5.25 0.87,-5.69 0.88,-5.8 8.47,-12.38 3.63,-3.15 13.02,-3.82 27.91,-2.03 14.28,1.71 24.54,5.69 30.49,11.82 1.45,1.5 2.85,2.76 4.2,3.98 3.82,3.44 6.57,5.93 7.04,10.6 0.62,6.36 -2.54,8.91 -3.88,9.69 z m 9.52,-5.71 c -0.87,0.84 -2.14,1.54 -3.61,2.12 0.55,-1.68 0.83,-3.77 0.57,-6.36 -0.16,-1.58 -0.55,-2.94 -1.1,-4.18 2.28,0.92 4.49,2.52 5.2,5.32 0.3,1.14 -0.04,2.13 -1.06,3.1 z m 1.86,-7.29 c -1.55,-1.96 -3.74,-3.16 -5.84,-3.88 7.29,-10.35 25.75,-13.14 32.22,-13.8 -6.43,12.3 -13.84,17.83 -20.25,20.12 -1.96,-1.07 -4.01,-1.92 -6.13,-2.44 z"
   id="path42"
   inkscape:connector-curvature="0"
   style="fill:none" />
	<path
   class="st0"
   d="m 851.08,371.22 c 0.68,0.14 1.41,0.29 2.18,0.45 -0.78,-0.15 -1.51,-0.31 -2.18,-0.45 z"
   id="path44"
   inkscape:connector-curvature="0"
   style="fill:none" />
	<path
   class="st0"
   d="m 761.27,346.46 c 0.31,0.64 0.82,1.58 1.61,2.79 0.29,0.48 0.62,0.96 1,1.45 -0.37,-0.52 -0.71,-1 -1,-1.45 -0.79,-1.2 -1.3,-2.14 -1.61,-2.79 z"
   id="path46"
   inkscape:connector-curvature="0"
   style="fill:none" />
	<path
   class="st1"
   d="m 847.88,295.22 c 0,0 0.07,0.1 0.18,0.26 0.03,0.04 0.04,0.06 0.08,0.11 0.06,0.08 0.13,0.19 0.2,0.3 0.04,0.05 0.07,0.1 0.11,0.16 0.08,0.13 0.18,0.28 0.28,0.43 0.04,0.07 0.08,0.13 0.13,0.2 0.11,0.17 0.23,0.36 0.35,0.56 0.05,0.08 0.1,0.15 0.15,0.24 0.13,0.22 0.27,0.45 0.42,0.69 0.05,0.08 0.1,0.17 0.15,0.25 0.16,0.26 0.32,0.53 0.49,0.82 0.05,0.09 0.1,0.18 0.16,0.27 0.17,0.3 0.35,0.62 0.54,0.95 0.05,0.09 0.11,0.19 0.16,0.29 0.19,0.35 0.39,0.7 0.59,1.07 0.05,0.09 0.1,0.19 0.15,0.28 0.21,0.39 0.42,0.79 0.63,1.21 0.04,0.09 0.09,0.18 0.14,0.27 0.22,0.44 0.45,0.88 0.68,1.35 0.03,0.06 0.06,0.13 0.1,0.2 0.24,0.5 0.49,1.01 0.73,1.54 0,0 0,0 0,0 1.08,2.33 2.16,4.94 3.14,7.76 0.41,0.37 0.8,0.74 1.19,1.1 0.38,-1.73 1.01,-4.86 1.53,-8.64 0.13,-0.95 0.25,-1.93 0.36,-2.95 0.11,-1.02 0.2,-2.06 0.28,-3.13 0.12,-1.6 0.19,-3.23 0.2,-4.87 0,-0.55 0,-1.09 -0.01,-1.64 -0.03,-1.57 -0.26,-3.18 -0.65,-4.81 -0.52,-2.17 -1.33,-4.37 -2.34,-6.55 -1.01,-2.18 -2.22,-4.34 -3.54,-6.43 -0.66,-1.05 -1.35,-2.07 -2.05,-3.08 -0.7,-1.01 -1.42,-1.99 -2.15,-2.94 -0.72,-0.95 -1.45,-1.88 -2.18,-2.76 -5.42,-6.65 -10.5,-11.29 -10.5,-11.29 7.66,14.31 12.35,25.77 10.3,38.78 z"
   id="path48"
   inkscape:connector-curvature="0"
   style="fill:#283d0d" />
	<g
   id="g52">
		<path
   class="st2"
   d="m 863.17,339.94 c -0.97,-0.56 -1.95,-1.38 -3.14,-2.35 -0.94,0.68 -1.67,0.97 -1.76,1 l -0.76,0.28 -0.59,-0.56 c -0.02,-0.02 -0.71,-0.57 -2.71,-1.32 -3,-1.14 -8.97,-2.75 -20.09,-3.75 -2.03,0.56 -4.36,1.3 -7.05,2.29 -19.82,7.28 -17.21,16.26 -29.85,19.29 -10.81,2.6 -26.29,-0.67 -30.54,-1.68 -0.21,0.03 -0.4,0.04 -0.57,0.02 2.49,2.42 5.55,4.54 7.77,5.57 0.25,0.12 0.5,0.22 0.72,0.31 0.17,0.07 0.34,0.12 0.49,0.17 0.29,0.09 0.55,0.14 0.78,0.17 0.02,0 0.04,0.01 0.06,0.01 0.6,0.05 1.21,0.11 1.82,0.19 2.57,0.31 5.32,0.81 8.77,1.35 0.39,0.06 0.79,0.12 1.19,0.18 1.63,0.24 3.41,0.49 5.4,0.72 6.37,0.75 11.45,1.36 11.45,1.36 l 18.14,4.18 17.36,9.42 c 0,0 1.12,0.51 2.92,1.18 0.18,0.07 0.37,0.14 0.56,0.21 0.39,0.14 0.8,0.29 1.23,0.43 0.22,0.07 0.44,0.15 0.66,0.22 1.44,0.48 3.09,0.96 4.83,1.37 0.46,-1.25 0.97,-2.47 1.51,-3.67 -1.42,-1.23 -2.92,-2.75 -4.44,-4.7 -0.43,-0.55 -0.86,-1.13 -1.29,-1.74 0,0 1.98,0.48 5.03,1.13 0.68,0.14 1.41,0.29 2.18,0.45 0.29,0.06 0.59,0.12 0.89,0.18 5.79,-10.24 14.64,-18.52 25.32,-23.57 -5.08,-2.54 -10.16,-5.1 -13.38,-6.78 -1.33,-0.69 -2.35,-1.24 -2.91,-1.56 z"
   id="path50"
   inkscape:connector-curvature="0"
   style="fill:#ebebef" />
	</g>
	<path
   class="st3"
   d="m 854.77,315.56 c -1.35,-1.22 -2.75,-2.48 -4.2,-3.98 -5.96,-6.13 -16.21,-10.11 -30.49,-11.82 -14.89,-1.79 -24.28,-1.12 -27.91,2.03 -7.58,6.58 -7.6,6.69 -8.47,12.38 -0.21,1.39 -0.47,3.09 -0.89,5.25 -0.34,1.77 -0.37,3.44 -0.4,5.06 -0.04,2.6 -0.09,5.27 -1.4,8.34 l 9.65,-2.61 c 7.68,-0.34 14.51,-0.49 20.58,-0.49 33.53,0 44,4.51 46.69,6.13 1.33,-0.78 4.5,-3.33 3.88,-9.7 -0.46,-4.66 -3.22,-7.15 -7.04,-10.59 z"
   id="path54"
   inkscape:connector-curvature="0"
   style="fill:#ffffff" />
	<path
   class="st3"
   d="m 895.7,305.17 c -6.47,0.67 -24.93,3.45 -32.22,13.8 2.1,0.72 4.29,1.92 5.84,3.88 2.12,0.52 4.18,1.37 6.14,2.44 6.4,-2.29 13.8,-7.82 20.24,-20.12 z"
   id="path56"
   inkscape:connector-curvature="0"
   style="fill:#ffffff" />
	<path
   class="st3"
   d="m 870.98,326.17 c 0.02,0.07 0.05,0.14 0.07,0.22 0.53,2.06 -0.09,4.01 -1.79,5.64 -1.33,1.28 -3.3,2.29 -5.55,3.05 3.16,4.6 8.84,9.46 19,11.8 2.69,-1.07 5.47,-1.94 8.34,-2.6 -4.18,-6.01 -11.48,-14.85 -20.07,-18.11 z"
   id="path58"
   inkscape:connector-curvature="0"
   style="fill:#ffffff" />
	<path
   class="st3"
   d="m 863.31,321.72 c 0.55,1.24 0.94,2.6 1.1,4.18 0.25,2.59 -0.02,4.68 -0.57,6.36 1.47,-0.58 2.74,-1.28 3.61,-2.12 1.02,-0.98 1.36,-1.96 1.06,-3.1 -0.71,-2.8 -2.92,-4.4 -5.2,-5.32 z"
   id="path60"
   inkscape:connector-curvature="0"
   style="fill:#ffffff" />
	<path
   class="st3"
   d="m 851.08,371.22 c -3.05,-0.64 -5.03,-1.13 -5.03,-1.13 0.43,0.61 0.86,1.19 1.29,1.74 1.52,1.95 3.02,3.47 4.44,4.7 0.72,-1.6 1.51,-3.17 2.37,-4.69 -0.3,-0.06 -0.6,-0.12 -0.89,-0.18 -0.78,-0.14 -1.51,-0.3 -2.18,-0.44 z"
   id="path62"
   inkscape:connector-curvature="0"
   style="fill:#ffffff" />
	<path
   class="st3"
   d="m 850.26,380.21 c -1.74,-0.41 -3.38,-0.9 -4.83,-1.37 -0.23,-0.07 -0.45,-0.15 -0.66,-0.22 -0.43,-0.15 -0.84,-0.29 -1.23,-0.43 -0.19,-0.07 -0.38,-0.14 -0.56,-0.21 -1.8,-0.67 -2.92,-1.18 -2.92,-1.18 l -17.36,-9.42 -18.14,-4.18 c 0,0 -5.09,-0.62 -11.45,-1.36 -1.99,-0.23 -3.77,-0.48 -5.4,-0.72 -0.41,-0.06 -0.81,-0.12 -1.19,-0.18 -3.45,-0.53 -6.2,-1.03 -8.77,-1.35 -0.62,-0.07 -1.22,-0.14 -1.82,-0.19 -0.02,0 -0.04,-0.01 -0.06,-0.01 -0.23,-0.02 -0.49,-0.08 -0.78,-0.17 -0.16,-0.05 -0.32,-0.11 -0.49,-0.17 -0.23,-0.09 -0.47,-0.2 -0.72,-0.31 -2.22,-1.03 -5.28,-3.15 -7.77,-5.57 0,0 0,0 0,0 -0.24,-0.04 -0.43,-0.14 -0.56,-0.29 v 0 0 c -0.07,-0.08 -0.12,-0.15 -0.19,-0.23 -0.56,-0.69 -1.05,-1.34 -1.49,-1.94 -0.37,-0.48 -0.71,-0.97 -1,-1.45 -0.79,-1.2 -1.3,-2.15 -1.61,-2.79 -0.31,-0.64 -0.43,-0.98 -0.43,-0.98 0.22,-0.41 0.48,-0.76 0.76,-1.06 0.14,-0.15 0.29,-0.29 0.44,-0.41 0.15,-0.13 0.32,-0.24 0.48,-0.34 0.47,-0.41 1,-0.81 1.58,-1.1 0.14,-0.07 0.3,-0.15 0.45,-0.23 1.1,-0.61 2.62,-1.37 4.4,-2.2 1.71,-0.85 3.6,-1.79 5.59,-2.77 0.39,-0.19 0.77,-0.41 1.13,-0.63 l 1.65,-2.56 c 2.36,-3.66 2.41,-6.48 2.47,-9.74 0.03,-1.73 0.06,-3.52 0.44,-5.51 0.41,-2.12 0.67,-3.78 0.87,-5.14 0.96,-6.28 1.22,-6.92 9.34,-13.96 1.41,-1.22 3.45,-2.13 6.1,-2.74 3.22,-1.83 8.06,-4.01 14.99,-5.82 5.2,-18.37 -2.23,-38.13 -2.23,-38.13 0,0 0.38,0.25 1.07,0.73 0.28,0.19 0.6,0.42 0.97,0.68 1.1,0.78 2.6,1.87 4.36,3.2 0.75,0.57 1.55,1.19 2.38,1.85 0.47,0.37 0.94,0.75 1.43,1.14 1.54,1.24 3.18,2.61 4.85,4.08 0.5,0.44 1.01,0.89 1.51,1.35 0.97,0.88 1.95,1.79 2.93,2.73 0.37,0.35 0.73,0.71 1.1,1.07 0.55,0.54 1.1,1.09 1.65,1.65 1.47,1.51 2.89,3.07 4.25,4.67 1.38,-4.68 2.17,-11.06 1.75,-19.81 0,0 5.08,4.64 10.5,11.29 0.72,0.89 1.45,1.81 2.18,2.76 0.72,0.95 1.44,1.93 2.15,2.94 0.7,1.01 1.39,2.03 2.05,3.08 1.32,2.09 2.53,4.25 3.54,6.43 1.01,2.18 1.82,4.38 2.34,6.55 0.39,1.63 0.62,3.24 0.65,4.81 0.01,0.54 0.01,1.09 0.01,1.64 -0.01,1.64 -0.09,3.27 -0.2,4.87 -0.08,1.06 -0.17,2.11 -0.28,3.13 -0.11,1.02 -0.23,2 -0.36,2.95 -0.52,3.78 -1.15,6.91 -1.53,8.64 0.84,0.8 1.63,1.6 2.34,2.44 9.17,-14.08 35.59,-15.54 36.9,-15.61 l 2.2,-0.11 -0.96,1.98 c -6.41,13.23 -14.07,19.7 -20.98,22.68 6.92,4.68 12.49,11.88 15.77,16.78 2.37,-0.42 4.78,-0.7 7.23,-0.81 -2.19,-3.52 -6.32,-9.57 -11.84,-15.05 6.09,-4.82 11.35,-11.76 15.71,-20.75 1.21,-2.49 1.01,-5.43 -0.51,-7.74 -1.46,-2.2 -3.92,-3.52 -6.54,-3.52 -0.13,0 -0.25,0 -0.38,0.01 -2.28,0.11 -16.88,1.05 -29.09,7.43 0.27,-2.92 0.43,-6.02 0.37,-9.11 -0.36,-19.56 -23.34,-41.11 -25.96,-43.5 -1.48,-1.35 -3.37,-2.05 -5.29,-2.05 -1.13,0 -2.27,0.24 -3.33,0.74 -2.87,1.35 -4.65,4.3 -4.5,7.47 0.04,0.79 0.06,1.56 0.08,2.31 -8.27,-7.3 -15.71,-12.26 -16.17,-12.56 -1.32,-0.87 -2.83,-1.3 -4.33,-1.3 -1.73,0 -3.46,0.57 -4.89,1.71 -2.66,2.11 -3.65,5.69 -2.47,8.87 0.06,0.16 5.36,14.77 2.93,29.16 -11.79,3.77 -17.3,8.45 -18.93,10.04 -8.4,7.31 -10.02,9.35 -11.3,17.73 -0.21,1.36 -0.44,2.9 -0.83,4.88 -0.49,2.53 -0.54,4.77 -0.58,6.57 -0.05,2.36 -0.11,3.65 -0.73,5.05 -0.47,0.45 -0.95,0.79 -1.43,1.03 -1.17,0.57 -2.27,1.15 -3.32,1.71 -6.5,2.97 -8.42,4.19 -9.52,5.05 -0.06,0.05 -0.13,0.1 -0.19,0.15 -1.72,1.14 -3.09,2.64 -4.1,4.48 -1.05,1.92 -1.25,4.19 -0.55,6.26 0.21,0.61 1.06,2.88 3.38,6.27 0.22,0.33 0.47,0.68 0.74,1.04 0.44,0.61 1.11,1.51 1.95,2.54 0.62,0.76 1.37,1.4 2.2,1.91 2.42,2.17 8.41,7.05 13.62,7.47 1.94,0.16 4.02,0.5 6.66,0.93 2.86,0.46 6.09,0.99 10.26,1.48 l 1.15,0.14 c 0.97,0.17 2.03,0.23 3.26,0.31 4.32,0.25 15.81,0.93 22.57,4.32 l 1.95,0.98 c 12.47,6.26 20.97,10.53 26.91,12.52 0.57,-2.65 1.3,-5.22 2.21,-7.7 z"
   id="path64"
   inkscape:connector-curvature="0"
   style="fill:#ffffff" />
	<path
   class="st4"
   d="m 766.68,353.15 c 1.89,-0.29 5.42,-2.92 7.88,-7.66 0,0 -7.8,-4.47 -12.03,-1.82 -0.17,0.1 -0.33,0.22 -0.48,0.34 -0.15,0.13 -0.3,0.26 -0.44,0.41 -0.28,0.3 -0.54,0.65 -0.76,1.06 0,0 0.11,0.34 0.43,0.98 0.32,0.64 0.82,1.58 1.61,2.79 0.29,0.45 0.62,0.93 1,1.45 0.43,0.6 0.93,1.25 1.49,1.94 0.06,0.08 0.12,0.15 0.19,0.23 v 0 c 0.13,0.16 0.32,0.26 0.56,0.29 0,0 0,0 0,0 0.14,0.03 0.34,0.02 0.55,-0.01 z"
   id="path66"
   inkscape:connector-curvature="0"
   style="fill:#200c06" />
	<path
   class="st1"
   d="m 835.81,276.26 v 0 c -1.35,-1.6 -2.78,-3.16 -4.25,-4.67 -0.54,-0.56 -1.09,-1.11 -1.65,-1.65 -0.37,-0.36 -0.73,-0.72 -1.1,-1.07 -0.97,-0.94 -1.95,-1.85 -2.93,-2.73 -0.51,-0.46 -1.01,-0.9 -1.51,-1.35 -1.67,-1.47 -3.31,-2.84 -4.85,-4.08 -0.49,-0.4 -0.97,-0.77 -1.43,-1.14 -0.83,-0.66 -1.63,-1.28 -2.38,-1.85 -1.76,-1.34 -3.26,-2.42 -4.36,-3.2 -0.37,-0.26 -0.69,-0.49 -0.97,-0.68 -0.69,-0.48 -1.07,-0.73 -1.07,-0.73 0,0 16.68,17.71 17.62,35.02 2.84,-1.21 6.64,-4.28 8.88,-11.87 z"
   id="path68"
   inkscape:connector-curvature="0"
   style="fill:#283d0d" />
</g>
</svg>