<?xml version="1.0" encoding="UTF-8" standalone="no"?>
<!-- Generator: Adobe Illustrator 23.0.2, SVG Export Plug-In . SVG Version: 6.00 Build 0)  -->

<svg
   xmlns:dc="http://purl.org/dc/elements/1.1/"
   xmlns:cc="http://creativecommons.org/ns#"
   xmlns:rdf="http://www.w3.org/1999/02/22-rdf-syntax-ns#"
   xmlns:svg="http://www.w3.org/2000/svg"
   xmlns="http://www.w3.org/2000/svg"
   xmlns:sodipodi="http://sodipodi.sourceforge.net/DTD/sodipodi-0.dtd"
   xmlns:inkscape="http://www.inkscape.org/namespaces/inkscape"
   version="1.1"
   id="Layer_1"
   x="0px"
   y="0px"
   viewBox="0 0 110.54694 139.72001"
   xml:space="preserve"
   sodipodi:docname="hammer_inv.svg"
   width="110.54694"
   height="139.72"
   inkscape:version="0.92.4 (33fec40, 2019-01-16)"><metadata
   id="metadata87"><rdf:RDF><cc:Work
       rdf:about=""><dc:format>image/svg+xml</dc:format><dc:type
         rdf:resource="http://purl.org/dc/dcmitype/StillImage" /></cc:Work></rdf:RDF></metadata><defs
   id="defs85" /><sodipodi:namedview
   pagecolor="#ffffff"
   bordercolor="#666666"
   borderopacity="1"
   objecttolerance="10"
   gridtolerance="10"
   guidetolerance="10"
   inkscape:pageopacity="0"
   inkscape:pageshadow="2"
   inkscape:window-width="640"
   inkscape:window-height="480"
   id="namedview83"
   showgrid="false"
   inkscape:zoom="0.18941941"
   inkscape:cx="81.15193"
   inkscape:cy="127.59001"
   inkscape:window-x="10"
   inkscape:window-y="34"
   inkscape:window-maximized="0"
   inkscape:current-layer="Layer_1" />
<style
   type="text/css"
   id="style79">
	.st0{fill:#FFFFFF;}
</style>
<path
   id="path557529_1_"
   class="st0"
   d="m 37.586935,37.82 12.9,-24.58 c 4.86,2.29 10.91,5.15 14.04,6.62 l 0.36,0.17 0.39,0.08 1.15,0.24 1.47,0.3 1.2,-0.88 0.56,-0.41 0.05,-0.01 0.32,-0.11 0.66,-0.22 0.32,-0.11 0.3,-0.17 c 0.17,-0.1 0.26,-0.15 0.54,-0.24 l 0.13,-0.04 0.13,-0.05 c 0.24,-0.04 0.4,-0.08 0.6,-0.08 h 0.43 c 0.24,0.02 0.49,0.06 0.83,0.13 0.52,0.14 0.87,0.29 1.16,0.45 1.58,0.91 2.49,2.61 2.37,4.43 l -0.08,1.11 -0.15,2.19 1.95,1.02 17.86,9.3 -12.5,25.02 -18.97,-9.93 -2.88,-1.5 -1.6,2.82 -42.07,73.93 c -0.11,0.19 -0.28,0.42 -0.45,0.62 -0.09,0.11 -0.13,0.16 -0.18,0.21 -0.15,0.16 -0.29,0.3 -0.43,0.41 l -0.34,0.27 c -0.1,0.07 -0.21,0.13 -0.31,0.19 l -0.63,0.31 c -0.24,0.09 -0.47,0.16 -0.71,0.22 -0.08,0.02 -0.15,0.03 -0.24,0.04 -0.32,0.05 -0.55,0.07 -0.79,0.08 l -0.46,-0.01 c -0.27,-0.01 -0.47,-0.06 -0.66,-0.1 -0.14,-0.03 -0.22,-0.04 -0.29,-0.06 -0.46,-0.14 -0.8,-0.28 -1.14,-0.46 -0.64,-0.38 -1.23,-0.95 -1.64,-1.63 -0.9299998,-1.51 -0.9599998,-3.4 -0.08,-4.92 l 41.67,-73.37 1.76,-3.1 -3.2,-1.58 z m 8.47,-37.82 -1.5,2.85 -19.1,36.38 -1.6,3.05 3.09,1.52 13.17,6.49 -38.1399998,67.14 c -2.72,4.71 -2.63,10.55 0.25,15.22 1.27,2.06 3.08,3.82 5.21,5.08 1.08,0.61 2.1,1.04 3.1899998,1.36 0.33,0.1 0.82,0.22 1.26,0.31 0.52,0.11 1.3,0.26 2.24,0.29 0.15,0.01 0.52,0.03 0.86,0.03 0.91,-0.02 1.67,-0.09 2.36,-0.21 0.28,-0.03 0.72,-0.11 1.11,-0.22 0.31,-0.08 1.08,-0.28 1.76,-0.56 l 0.85,-0.22 0.87,-0.22 0.64,-0.61 0.23,-0.23 c 0.25,-0.16 0.51,-0.32 0.76,-0.5 l 0.08,-0.06 0.08,-0.06 0.53,-0.42 c 0.36,-0.28 0.79,-0.67 1.32,-1.21 0.26,-0.26 0.51,-0.54 0.73,-0.81 0.49,-0.55 0.99,-1.26 1.47,-2.04 l 38.92,-68.4 19.29,10.09 3.04,1.59 1.53,-3.06 18.510005,-37.07 1.48,-2.95 -2.93,-1.53 L 87.396935,20.5 c -0.72,-4.34 -3.33,-8.12 -7.26,-10.38 -0.99,-0.56 -2,-0.98 -3.11,-1.33 -0.46,-0.14 -0.81,-0.21 -1.08,-0.26 -0.7,-0.16 -1.4,-0.26 -2.31,-0.32 l -0.43,-0.02 h -0.1 -0.09 l -0.52,0.01 c -0.88,0.01 -1.73,0.16 -2.08,0.23 -0.38,0.06 -1.21,0.22 -2,0.55 -0.47,0.16 -0.93,0.34 -1.38,0.57 -0.14,0.03 -0.28,0.07 -0.42,0.11 -3.73,-1.76 -9.17,-4.32 -13.28,-6.27 l -4.37,-2.06 z m 1.48,4.42 4.37,2.06 c 4.64,2.19 10.96,5.17 14.62,6.9 0.52,-0.29 1.09,-0.49 1.68,-0.6 0.39,-0.22 0.85,-0.43 1.43,-0.61 0.32,-0.15 0.84,-0.31 1.4,-0.39 0.34,-0.06 0.93,-0.17 1.56,-0.17 l 0.52,-0.01 0.31,0.01 c 0.66,0.05 1.21,0.11 1.93,0.28 0.18,0.03 0.41,0.08 0.7,0.17 0.89,0.27 1.68,0.61 2.42,1.03 3.53,2.03 5.67,5.65 5.77,9.62 l 21.830005,11.36 -18.510005,37.06 -22.17,-11.6 -40.49,71.12 c -0.37,0.62 -0.77,1.18 -1.17,1.64 -0.15,0.19 -0.34,0.39 -0.53,0.58 -0.35,0.36 -0.71,0.7 -1.03,0.94 l -0.53,0.42 c -0.3,0.21 -0.59,0.4 -0.89,0.57 l -0.5,0.48 -1.12,0.28 c -0.34,0.16 -0.92,0.35 -1.5,0.49 -0.28,0.07 -0.58,0.12 -0.88,0.16 -0.5,0.09 -1.08,0.14 -1.75,0.16 h -0.01 -0.01 c -0.27,0 -0.54,-0.01 -0.73,-0.02 -0.68,-0.02 -1.26,-0.13 -1.74,-0.24 -0.31,-0.06 -0.66,-0.14 -0.93,-0.23 -0.85,-0.25 -1.6599998,-0.59 -2.4399998,-1.03 -1.67,-0.99 -3.07,-2.35 -4.05,-3.95 -2.23,-3.62 -2.3,-8.14 -0.19,-11.79 l 39.8999998,-70.24 -16.37,-8.07 19.1,-36.38"
   inkscape:connector-curvature="0"
   style="fill:#ffffff" />
</svg>