<?xml version="1.0" encoding="utf-8"?>
<!-- Generator: Adobe Illustrator 24.0.1, SVG Export Plug-In . SVG Version: 6.00 Build 0)  -->
<svg version="1.1" id="Layer_1" xmlns="http://www.w3.org/2000/svg" xmlns:xlink="http://www.w3.org/1999/xlink" x="0px" y="0px"
	 viewBox="0 0 95.3 100.6" style="enable-background:new 0 0 95.3 100.6;" xml:space="preserve">
<style type="text/css">
	.st0{fill:#8CC63F;}
	.st1{fill:#141E07;}
	.st2{fill:#242424;}
	.st3{fill:#69952F;}
	.st4{fill:#466320;}
	.st5{fill:#233110;}
	.st6{fill:#292929;}
	.st7{fill:#283D0D;}
</style>
<g>
	<path class="st0" d="M84.2,10.8L65,0.9l0,0c0,0-28.9-0.6-31.2,0C32.5,1.2,22,5.1,17,8.3c-3.6,2.4-11.6,14-11.6,14l-1,2.5l-3.7,8.6
		c0,0,0.9,25.1,2.5,31.9C4.7,72,10.3,81,10.3,81l9.5,13.3l0,0l0,0v0.1l0,0c6.1,3.5,27.4,5,29.4,5.3c0,0,0,0,0.1,0l0,0
		c0,0,4.1-1.1,8.4-2.7c2.9-1,5.4-1.9,5.4-2.3l25.3-21.9l5.9-18.2V31.4L84.2,10.8z"/>
	<g>
		<path class="st1" d="M13.9,63.8L13.9,63.8L0.7,33.4c0,0,0.9,25.1,2.5,31.9C4.7,72,10.3,81,10.3,81l9.5,13.3L14,64.1L13.9,63.8z"/>
		<path class="st2" d="M19.8,94.3L19.8,94.3L19.8,94.3L19.8,94.3z"/>
		<path class="st3" d="M19.7,52.8l21.8,1.1l12.5-18l10.9-35H65l0,0c0,0-28.9-0.6-31.2,0C32.5,1.2,22,5.1,17,8.3
			c-3.6,2.4-11.6,14-11.6,14l-1,2.5l1-2.4L19.7,52.8z"/>
		<polygon class="st4" points="53.8,36.2 53.9,36.2 54,35.9 77.3,41.2 84.2,10.8 65,0.9 64.9,0.9 		"/>
		<polygon class="st5" points="84.2,10.8 77.3,41.2 94.3,54.5 94.3,31.4 		"/>
		<path class="st6" d="M57.7,96.8c2.9-1,5.4-1.9,5.4-2.3l0,0C61.5,95.4,59.6,96.1,57.7,96.8z"/>
		<path class="st7" d="M53.7,65.4l9.5,29.1h-0.1l0,0l25.3-21.9L77.3,41.2L53.7,65.4z"/>
		<path class="st7" d="M53.7,65.4l-39.8-1.6l5.9,30.4l0,0l0,0l0,0c6.1,3.5,27.5,5.2,29.5,5.5L53.7,65.4z"/>
		<path class="st5" d="M53.6,65.5l23.7-24.3L54,35.9l-0.2,0.3L41.5,53.9L53.6,65.5z"/>
		<polygon class="st4" points="14.2,63.2 13.9,63.8 13.9,63.8 53.6,65.4 41.5,53.9 19.7,52.8 		"/>
		<path class="st1" d="M63.2,94.5l-9.5-29.1v-0.1v0.2l-4.4,34.2c0,0,4.2-1.2,8.5-2.8C59.6,96.1,61.5,95.4,63.2,94.5
			C63.1,94.5,63.2,94.5,63.2,94.5z"/>
		<polygon class="st5" points="19.7,52.8 5.4,22.3 0.7,33.4 13.9,63.8 		"/>
		<polygon class="st1" points="77.3,41.2 88.4,72.7 94.3,54.5 		"/>
	</g>
</g>
</svg>
