<?xml version="1.0" encoding="UTF-8" standalone="no"?>
<!-- Generator: Adobe Illustrator 23.0.2, SVG Export Plug-In . SVG Version: 6.00 Build 0)  -->

<svg
   xmlns:dc="http://purl.org/dc/elements/1.1/"
   xmlns:cc="http://creativecommons.org/ns#"
   xmlns:rdf="http://www.w3.org/1999/02/22-rdf-syntax-ns#"
   xmlns:svg="http://www.w3.org/2000/svg"
   xmlns="http://www.w3.org/2000/svg"
   xmlns:sodipodi="http://sodipodi.sourceforge.net/DTD/sodipodi-0.dtd"
   xmlns:inkscape="http://www.inkscape.org/namespaces/inkscape"
   version="1.1"
   id="Layer_1"
   x="0px"
   y="0px"
   viewBox="0 0 1634.01 175.01"
   xml:space="preserve"
   sodipodi:docname="healthbarcontainer.svg"
   width="1634.01"
   height="175.00999"
   inkscape:version="0.92.4 (33fec40, 2019-01-16)"><metadata
   id="metadata94"><rdf:RDF><cc:Work
       rdf:about=""><dc:format>image/svg+xml</dc:format><dc:type
         rdf:resource="http://purl.org/dc/dcmitype/StillImage" /></cc:Work></rdf:RDF></metadata><defs
   id="defs92" /><sodipodi:namedview
   pagecolor="#ffffff"
   bordercolor="#666666"
   borderopacity="1"
   objecttolerance="10"
   gridtolerance="10"
   guidetolerance="10"
   inkscape:pageopacity="0"
   inkscape:pageshadow="2"
   inkscape:window-width="640"
   inkscape:window-height="480"
   id="namedview90"
   showgrid="false"
   inkscape:zoom="0.18941941"
   inkscape:cx="843.625"
   inkscape:cy="145.47001"
   inkscape:window-x="10"
   inkscape:window-y="34"
   inkscape:window-maximized="0"
   inkscape:current-layer="Layer_1" />
<style
   type="text/css"
   id="style85">
	.st0{fill:#4D4D4D;}
</style>
<path
   class="st0"
   d="M 1593.37,32.47 H 155.83 C 139.25,11.61 113.98,0 87.58,0 39.29,0 0,39.42 0,87.71 c 0,48.29 39.29,87.3 87.58,87.3 25.2,0 48.94,-9.04 65.61,-29.9 h 1440.19 c 23.91,0 40.63,-22.24 40.63,-51.54 V 85.22 C 1634,55.94 1617.29,32.47 1593.37,32.47 Z M 87.58,150.75 c -34.68,0 -62.91,-28.23 -62.91,-62.92 0,-34.69 28.22,-62.92 62.91,-62.92 34.69,0 62.92,28.23 62.92,62.92 0,34.69 -28.23,62.92 -62.92,62.92 z m 1510.05,-30.99 c -1.37,0.54 -2.79,0.32 -4.25,0.32 h -1424.2 -0.62 c 3.23,-8.34 5.3,-15.57 6.15,-24 0.29,-2.91 0.45,-5.57 0.45,-8.51 0,-8.63 -1.3,-16.96 -3.74,-25.06 -0.51,-1.7 -1,-5.01 -1.62,-5.01 h 0.34 1423.24 c 1.43,0 2.84,0.38 4.18,0.9 2.26,0.86 5.26,2.44 7.11,4.5 4.55,5.06 8.47,13.28 8.47,22.33 v 8.35 c 0,9.06 -3.93,16.97 -8.47,22.03 -1.84,2.04 -4.81,3.29 -7.04,4.15 z"
   id="path87"
   inkscape:connector-curvature="0"
   style="fill:#4d4d4d" />
</svg>