<?xml version="1.0" encoding="utf-8"?>
<!-- Generator: Adobe Illustrator 24.0.1, SVG Export Plug-In . SVG Version: 6.00 Build 0)  -->
<svg version="1.1" id="Layer_1" xmlns="http://www.w3.org/2000/svg" xmlns:xlink="http://www.w3.org/1999/xlink" x="0px" y="0px"
	 viewBox="0 0 430.1 127.3" style="enable-background:new 0 0 430.1 127.3;" xml:space="preserve">
<style type="text/css">
	.st0{fill:#161616;}
</style>
<path class="st0" d="M395.1,23.5c6.6,0,12,5.4,12,12v56.7c0,6.6-5.4,12-12,12H36.8c-6.6,0-12-5.4-12-12V35.5c0-6.6,5.4-12,12-12
	H395.1 M395.1,4H36.8C19.4,4,5.3,18.2,5.3,35.5v56.7c0,17.4,14.1,31.5,31.5,31.5h358.3c17.4,0,31.5-14.1,31.5-31.5V35.5
	C426.6,18.2,412.5,4,395.1,4L395.1,4z"/>
</svg>
