<?xml version="1.0" encoding="UTF-8" standalone="no"?>
<!-- Generator: Adobe Illustrator 23.0.2, SVG Export Plug-In . SVG Version: 6.00 Build 0)  -->

<svg
   xmlns:dc="http://purl.org/dc/elements/1.1/"
   xmlns:cc="http://creativecommons.org/ns#"
   xmlns:rdf="http://www.w3.org/1999/02/22-rdf-syntax-ns#"
   xmlns:svg="http://www.w3.org/2000/svg"
   xmlns="http://www.w3.org/2000/svg"
   xmlns:sodipodi="http://sodipodi.sourceforge.net/DTD/sodipodi-0.dtd"
   xmlns:inkscape="http://www.inkscape.org/namespaces/inkscape"
   version="1.1"
   id="Layer_1"
   x="0px"
   y="0px"
   viewBox="0 0 121.00997 231.00014"
   xml:space="preserve"
   sodipodi:docname="axe.svg"
   width="121.00997"
   height="231.00014"
   inkscape:version="0.92.4 (33fec40, 2019-01-16)"><metadata
   id="metadata35"><rdf:RDF><cc:Work
       rdf:about=""><dc:format>image/svg+xml</dc:format><dc:type
         rdf:resource="http://purl.org/dc/dcmitype/StillImage" /></cc:Work></rdf:RDF></metadata><defs
   id="defs33" /><sodipodi:namedview
   pagecolor="#ffffff"
   bordercolor="#666666"
   borderopacity="1"
   objecttolerance="10"
   gridtolerance="10"
   guidetolerance="10"
   inkscape:pageopacity="0"
   inkscape:pageshadow="2"
   inkscape:window-width="640"
   inkscape:window-height="480"
   id="namedview31"
   showgrid="false"
   inkscape:zoom="0.18941941"
   inkscape:cx="95.844995"
   inkscape:cy="173.32015"
   inkscape:window-x="10"
   inkscape:window-y="34"
   inkscape:window-maximized="0"
   inkscape:current-layer="Layer_1" />
<style
   type="text/css"
   id="style2">
	.st0{fill:none;}
	.st1{fill:#603813;}
	.st2{fill:#808080;}
	.st3{opacity:0.5;fill:#4D4D4D;}
	.st4{fill:#CCCCCC;}
</style>
<g
   id="g28"
   transform="translate(-759.4,-201.25)">
	<rect
   x="759.40997"
   y="201.25"
   class="st0"
   width="121"
   height="231"
   id="rect4"
   style="fill:none" />
	<g
   id="g24">
		<g
   id="g22">
			<g
   id="g10">
				<path
   class="st1"
   d="m 787.13,430.94 c -3.3,-1.82 -5.52,-5.33 -5.5,-9.36 l 0.02,-188.23 c 0.04,-5.84 4.81,-10.57 10.67,-10.53 5.86,0.03 10.57,4.81 10.54,10.67 l -0.01,188.22 c -0.04,5.86 -4.81,10.57 -10.66,10.54 -1.85,-0.02 -3.56,-0.49 -5.06,-1.31 z"
   id="path6"
   inkscape:connector-curvature="0"
   style="fill:#603813" />
				<path
   d="m 792.23,227.06 v 0 h 0.06 c 3.5,0.02 6.34,2.89 6.32,6.43 l -0.01,188.2 c -0.02,3.49 -2.88,6.33 -6.36,6.33 h -0.02 c -1.08,-0.01 -2.11,-0.28 -3.03,-0.78 -2.05,-1.13 -3.32,-3.29 -3.31,-5.65 l 0.02,-188.2 c 0.01,-3.5 2.86,-6.33 6.33,-6.33 m 0,-4.24 c -5.82,0 -10.54,4.71 -10.59,10.53 l -0.02,188.23 c -0.02,4.03 2.2,7.54 5.5,9.36 1.5,0.82 3.21,1.29 5.04,1.31 0.02,0 0.04,0 0.06,0 5.83,0 10.56,-4.7 10.6,-10.54 l 0.01,-188.22 c 0.03,-5.86 -4.68,-10.64 -10.54,-10.67 -0.01,0 -0.03,0 -0.06,0 z"
   id="path8"
   inkscape:connector-curvature="0" />
			</g>
			<g
   id="g20">
				<g
   id="g16">
					<path
   class="st2"
   d="m 762.22,276.75 c 8.52,-0.53 10.72,-0.25 17.01,-0.93 4.53,-0.5 8.87,-1.67 12.93,-1.81 5.25,-0.18 10.64,0.33 14.26,1.03 32.14,6.25 37.47,28.94 37.47,28.94 0,0 20.29,-11.38 28.1,-28.26 22.53,-48.67 -23.48,-71.16 -23.48,-71.16 0.68,17.98 -22.35,26.38 -43.06,28.8 -4.09,0.48 -9.54,-1.06 -13.85,-0.96 -4.91,0.11 -8.72,1.7 -13.23,1.5 -11.39,-0.52 -17.82,1.07 -17.82,1.07 z"
   id="path12"
   inkscape:connector-curvature="0"
   style="fill:#808080" />
					<path
   d="m 850.91,208.87 c 6.51,3.8 16.74,11.39 21.64,23.61 4.83,12.06 3.52,26.19 -3.88,42 -0.26,0.54 -0.54,1.09 -0.83,1.62 -5.42,9.85 -15.86,18.05 -21.95,22.27 -4.33,-8.02 -15.08,-21.61 -39.55,-26.36 -0.85,-0.16 -1.85,-0.42 -2.9,-0.68 -2.92,-0.74 -6.56,-1.65 -10.7,-1.65 -0.29,0 -0.58,0 -0.9,0.01 -2.7,0.1 -5.37,0.77 -7.95,1.41 -1.97,0.49 -3.83,0.95 -5.56,1.15 -3.07,0.33 -5.77,0.33 -8.9,0.34 -1.54,0 -3.19,0.01 -5.02,0.05 v -34.37 c 2.4,-0.39 5.89,-0.79 10.2,-0.79 1.09,0 2.2,0.03 3.29,0.08 0.38,0.02 0.76,0.03 1.14,0.03 2.49,0 4.82,-0.36 7.07,-0.71 1.99,-0.31 3.87,-0.6 5.8,-0.64 0.11,0 0.22,0 0.33,0 1.48,0 3.16,0.19 4.93,0.39 1.96,0.22 3.98,0.45 6.01,0.45 0.93,0 1.77,-0.05 2.57,-0.14 22.24,-2.58 36.45,-9.25 42.26,-19.8 1.07,-1.95 2.15,-5.05 2.9,-8.27 m -4.05,-7.62 c 0.15,3.82 -1.63,10.56 -3.23,13.46 -5.86,10.66 -22.16,15.36 -38.45,17.25 -0.65,0.08 -1.31,0.11 -2,0.11 -3.5,0 -7.41,-0.84 -10.94,-0.84 -0.15,0 -0.29,0 -0.44,0 -4.58,0.1 -8.6,1.34 -12.77,1.34 -0.3,0 -0.61,-0.01 -0.91,-0.02 -1.22,-0.06 -2.4,-0.08 -3.52,-0.08 -9.37,0 -15.2,1.73 -15.2,1.73 v 43.65 c 8.52,-0.54 13.16,0.03 19.45,-0.64 4.53,-0.5 9.12,-2.38 13.17,-2.53 0.24,-0.01 0.48,-0.01 0.71,-0.01 4.95,0 9.2,1.58 12.65,2.24 32.15,6.23 38.26,28.85 38.26,28.85 0,0 19.86,-11.44 28.56,-27.25 0.33,-0.62 0.66,-1.24 0.96,-1.88 25.97,-55.35 -26.3,-75.38 -26.3,-75.38 z"
   id="path14"
   inkscape:connector-curvature="0" />
				</g>
				<polygon
   class="st3"
   points="802.78,270.6 802.78,235.86 779.4,235.57 781.52,238.14 781.8,272.75 "
   id="polygon18"
   style="opacity:0.5;fill:#4d4d4d" />
			</g>
		</g>
	</g>
	<path
   class="st4"
   d="m 873.08,263.03 c 1.65,-5.5 2.14,-8.83 2.34,-13.76 0,-0.07 0,-0.13 0,-0.2 0.02,-0.52 0.02,-1.04 0.02,-1.56 -0.03,-6.02 -1.36,-11.71 -3.88,-17.08 -6.8,-14.49 -20.55,-21.5 -20.64,-21.56 -0.71,2.41 -1.65,8.67 -6.96,13.68 3.75,2.87 9.84,8.58 12.03,13.13 4.64,9.64 3.19,21.34 -4.33,34.79 -0.23,0.4 -0.48,0.8 -0.75,1.22 -2.49,3.77 -9.89,9.73 -15.46,13.64 5.34,4.8 8.26,9.44 10.43,13.02 2.66,-2.2 12.41,-7.92 19.91,-18.97 3.08,-4.51 5.37,-9.94 7.29,-16.35 z"
   id="path26"
   inkscape:connector-curvature="0"
   style="fill:#cccccc" />
</g>
</svg>