<?xml version="1.0" encoding="UTF-8" standalone="no"?>
<!-- Generator: Adobe Illustrator 23.0.2, SVG Export Plug-In . SVG Version: 6.00 Build 0)  -->

<svg
   xmlns:dc="http://purl.org/dc/elements/1.1/"
   xmlns:cc="http://creativecommons.org/ns#"
   xmlns:rdf="http://www.w3.org/1999/02/22-rdf-syntax-ns#"
   xmlns:svg="http://www.w3.org/2000/svg"
   xmlns="http://www.w3.org/2000/svg"
   xmlns:sodipodi="http://sodipodi.sourceforge.net/DTD/sodipodi-0.dtd"
   xmlns:inkscape="http://www.inkscape.org/namespaces/inkscape"
   version="1.1"
   id="Layer_1"
   x="0px"
   y="0px"
   viewBox="0 0 141.01082 255.80001"
   xml:space="preserve"
   sodipodi:docname="axeOutline.svg"
   width="141.01082"
   height="255.8"
   inkscape:version="0.92.4 (33fec40, 2019-01-16)"><metadata
   id="metadata46"><rdf:RDF><cc:Work
       rdf:about=""><dc:format>image/svg+xml</dc:format><dc:type
         rdf:resource="http://purl.org/dc/dcmitype/StillImage" /></cc:Work></rdf:RDF></metadata><defs
   id="defs44" /><sodipodi:namedview
   pagecolor="#ffffff"
   bordercolor="#666666"
   borderopacity="1"
   objecttolerance="10"
   gridtolerance="10"
   guidetolerance="10"
   inkscape:pageopacity="0"
   inkscape:pageshadow="2"
   inkscape:window-width="640"
   inkscape:window-height="480"
   id="namedview42"
   showgrid="false"
   inkscape:zoom="0.18941941"
   inkscape:cx="72.304995"
   inkscape:cy="129.38001"
   inkscape:window-x="10"
   inkscape:window-y="34"
   inkscape:window-maximized="0"
   inkscape:current-layer="Layer_1" />
<style
   type="text/css"
   id="style37">
	.st0{fill:#FFFFFF;}
</style>
<path
   class="st0"
   d="M 137.01,40.3 C 127.07,15.65 102.08,5.83 101.02,5.42 L 93.94,2.71 86.86,0 l 0.3,7.58 0.3,7.58 c 0.07,1.82 -1.21,6.82 -1.99,8.24 -2.86,5.2 -12.23,9.32 -25.94,11.48 -0.07,-0.09 -0.14,-0.19 -0.21,-0.28 -0.6,-0.8 -1.2,-1.5 -1.82,-2.14 -1.88,-1.9 -4.07,-3.4 -6.52,-4.45 -1.25,-0.54 -2.55,-0.95 -3.88,-1.23 -1.36,-0.29 -2.75,-0.43 -4.14,-0.44 h -0.12 c -0.42,0 -0.77,0.02 -1.03,0.04 H 41.8 41.77 c -0.31,0.01 -0.64,0.03 -0.96,0.06 -0.34,0.03 -0.68,0.08 -1.01,0.14 l -0.04,0.01 -0.05,0.01 c -0.31,0.04 -0.63,0.09 -0.94,0.16 -0.34,0.07 -0.66,0.15 -0.98,0.23 L 37.75,27 37.71,27.01 c -0.3,0.07 -0.61,0.15 -0.92,0.25 -0.32,0.1 -0.63,0.21 -0.94,0.33 l -0.03,0.01 -0.04,0.01 c -0.29,0.1 -0.59,0.21 -0.88,0.33 -0.3,0.13 -0.59,0.26 -0.88,0.41 l -0.03,0.01 -0.04,0.02 c -0.28,0.13 -0.57,0.27 -0.85,0.42 -0.28,0.15 -0.56,0.32 -0.83,0.49 l -0.03,0.02 -0.03,0.02 c -0.27,0.16 -0.54,0.32 -0.8,0.5 -0.27,0.18 -0.53,0.37 -0.79,0.57 l -0.03,0.02 -0.04,0.03 c -0.24,0.17 -0.49,0.36 -0.73,0.56 -0.25,0.21 -0.49,0.42 -0.73,0.64 l -0.02,0.02 -0.03,0.03 c -0.22,0.2 -0.46,0.41 -0.68,0.63 -0.23,0.22 -0.44,0.46 -0.66,0.7 l -0.02,0.02 -0.03,0.03 c -0.21,0.22 -0.42,0.45 -0.62,0.7 -0.21,0.25 -0.41,0.51 -0.6,0.77 l -0.02,0.02 -0.02,0.03 c -0.19,0.24 -0.38,0.49 -0.56,0.76 -0.15,0.22 -0.29,0.44 -0.43,0.67 -0.06,0 -0.13,0 -0.19,0 -10.51,0 -17.31,1.93 -18.05,2.15 L 3.58,39.24 0,40.3 v 3.73 3.73 43.65 5.33 5.33 l 5.32,-0.34 5.32,-0.34 c 3.71,-0.24 6.62,-0.24 9.43,-0.25 0.73,0 1.45,0 2.17,-0.01 l -0.01,134 c -0.02,3.73 0.99,7.43 2.93,10.66 0.93,1.55 2.07,2.98 3.37,4.24 0.99,0.95 2.09,1.8 3.36,2.6 0.19,0.13 0.55,0.37 1.01,0.62 0.74,0.41 1.5,0.77 2.27,1.07 1.58,0.63 3.23,1.07 4.92,1.29 0.86,0.12 1.73,0.18 2.6,0.19 h 0.14 c 0.42,0 0.78,-0.02 1.04,-0.04 h 0.01 0.03 c 0.31,-0.01 0.64,-0.03 0.97,-0.06 0.34,-0.03 0.68,-0.08 1.02,-0.14 l 0.04,-0.01 0.04,-0.01 c 0.31,-0.04 0.63,-0.09 0.95,-0.16 0.33,-0.07 0.66,-0.15 0.98,-0.23 l 0.03,-0.01 0.04,-0.01 c 0.3,-0.07 0.61,-0.15 0.92,-0.25 0.32,-0.1 0.63,-0.21 0.94,-0.32 l 0.03,-0.01 0.04,-0.01 c 0.29,-0.1 0.6,-0.21 0.9,-0.34 0.3,-0.13 0.6,-0.27 0.89,-0.41 l 0.03,-0.01 0.03,-0.02 c 0.28,-0.13 0.57,-0.27 0.85,-0.42 0.28,-0.15 0.56,-0.31 0.83,-0.48 l 0.02,-0.01 0.04,-0.03 c 0.27,-0.16 0.54,-0.32 0.81,-0.5 0.26,-0.18 0.51,-0.36 0.76,-0.55 l 0.01,-0.01 0.03,-0.02 c 0.26,-0.19 0.52,-0.38 0.78,-0.59 0.24,-0.2 0.47,-0.4 0.7,-0.61 l 0.01,-0.01 0.04,-0.04 c 0.23,-0.21 0.48,-0.43 0.71,-0.66 0.21,-0.21 0.42,-0.44 0.63,-0.67 l 0.01,-0.01 0.03,-0.03 c 0.22,-0.24 0.45,-0.48 0.66,-0.74 0.2,-0.24 0.39,-0.49 0.57,-0.74 v 0 l 0.03,-0.03 c 0.2,-0.26 0.4,-0.53 0.59,-0.8 0.17,-0.25 0.34,-0.53 0.51,-0.8 v 0 l 0.02,-0.04 c 0.17,-0.27 0.34,-0.56 0.51,-0.85 0.15,-0.28 0.3,-0.57 0.43,-0.86 v -0.01 l 0.02,-0.03 c 0.15,-0.29 0.29,-0.59 0.42,-0.9 0.13,-0.3 0.24,-0.6 0.35,-0.91 v -0.01 l 0.01,-0.04 c 0.12,-0.3 0.23,-0.61 0.33,-0.93 0.11,-0.34 0.19,-0.66 0.28,-0.99 v -0.02 l 0.01,-0.02 c 0.09,-0.3 0.17,-0.62 0.23,-0.94 0.1,-0.46 0.16,-0.88 0.21,-1.23 v -0.02 c 0.04,-0.26 0.08,-0.52 0.11,-0.79 0.07,-0.69 0.11,-1.39 0.12,-2.09 l 0.01,-132.44 c 17.08,6.4 20.93,18.31 21.18,19.12 l 1.68,6.22 1.7,6.31 5.64,-3.29 5.62,-3.28 c 0.89,-0.51 22.37,-13.03 32.31,-31.08 0.46,-0.85 0.83,-1.57 1.19,-2.32 l 0.02,-0.03 0.03,-0.07 c 9.28,-19.86 10.69,-38.06 4.2,-54.17 z"
   id="path39"
   inkscape:connector-curvature="0"
   style="fill:#ffffff" />
</svg>