<?xml version="1.0" encoding="UTF-8" standalone="no"?>
<!-- Generator: Adobe Illustrator 23.0.2, SVG Export Plug-In . SVG Version: 6.00 Build 0)  -->

<svg
   xmlns:dc="http://purl.org/dc/elements/1.1/"
   xmlns:cc="http://creativecommons.org/ns#"
   xmlns:rdf="http://www.w3.org/1999/02/22-rdf-syntax-ns#"
   xmlns:svg="http://www.w3.org/2000/svg"
   xmlns="http://www.w3.org/2000/svg"
   xmlns:sodipodi="http://sodipodi.sourceforge.net/DTD/sodipodi-0.dtd"
   xmlns:inkscape="http://www.inkscape.org/namespaces/inkscape"
   version="1.1"
   id="Layer_1"
   x="0px"
   y="0px"
   viewBox="0 0 8.8691283 27.660001"
   xml:space="preserve"
   sodipodi:docname="chain2.svg"
   width="8.8691282"
   height="27.66"
   inkscape:version="0.92.4 (33fec40, 2019-01-16)"><metadata
   id="metadata78"><rdf:RDF><cc:Work
       rdf:about=""><dc:format>image/svg+xml</dc:format><dc:type
         rdf:resource="http://purl.org/dc/dcmitype/StillImage" /></cc:Work></rdf:RDF></metadata><defs
   id="defs76" /><sodipodi:namedview
   pagecolor="#ffffff"
   bordercolor="#666666"
   borderopacity="1"
   objecttolerance="10"
   gridtolerance="10"
   guidetolerance="10"
   inkscape:pageopacity="0"
   inkscape:pageshadow="2"
   inkscape:window-width="640"
   inkscape:window-height="480"
   id="namedview74"
   showgrid="false"
   inkscape:zoom="0.18941941"
   inkscape:cx="36.544995"
   inkscape:cy="74.290007"
   inkscape:window-x="10"
   inkscape:window-y="34"
   inkscape:window-maximized="0"
   inkscape:current-layer="Layer_1" />
<style
   type="text/css"
   id="style65">
	.st0{fill:#243B24;}
	.st1{fill:#234523;}
</style>
<g
   id="g71"
   transform="translate(-818.7,-305.56)">
	<path
   class="st0"
   d="m 827.12,306.66 c 0,0 -1.52,-1.1 -4.25,-1.1 -3.43,0 -4.13,1.1 -4.13,1.1 l -0.04,25.46 c 0,0 1.63,1.1 4.35,1.1 3.43,0 4.06,-1.1 4.06,-1.1 v -25.46 z"
   id="path67"
   inkscape:connector-curvature="0"
   style="fill:#243b24" />
	<path
   class="st1"
   d="m 827.12,306.66 c 0,0 -0.1,13.81 -8.42,20.31 v 2.39 c 0,0 4.04,0.6 8.41,-5.1 v -4.63 l -2.84,3.09 c 0,0 2.02,-3.52 2.87,-6.72 0.29,-1.05 0.81,-6.28 -0.02,-9.34 z"
   id="path69"
   inkscape:connector-curvature="0"
   style="fill:#234523" />
</g>
</svg>