<?xml version="1.0" encoding="UTF-8" standalone="no"?>
<!-- Generator: Adobe Illustrator 23.0.2, SVG Export Plug-In . SVG Version: 6.00 Build 0)  -->

<svg
   xmlns:dc="http://purl.org/dc/elements/1.1/"
   xmlns:cc="http://creativecommons.org/ns#"
   xmlns:rdf="http://www.w3.org/1999/02/22-rdf-syntax-ns#"
   xmlns:svg="http://www.w3.org/2000/svg"
   xmlns="http://www.w3.org/2000/svg"
   xmlns:sodipodi="http://sodipodi.sourceforge.net/DTD/sodipodi-0.dtd"
   xmlns:inkscape="http://www.inkscape.org/namespaces/inkscape"
   version="1.1"
   id="Layer_1"
   x="0px"
   y="0px"
   viewBox="0 0 12.812478 27.660001"
   xml:space="preserve"
   sodipodi:docname="chain1.svg"
   width="12.812478"
   height="27.66"
   inkscape:version="0.92.4 (33fec40, 2019-01-16)"><metadata
   id="metadata63"><rdf:RDF><cc:Work
       rdf:about=""><dc:format>image/svg+xml</dc:format><dc:type
         rdf:resource="http://purl.org/dc/dcmitype/StillImage" /></cc:Work></rdf:RDF></metadata><defs
   id="defs61" /><sodipodi:namedview
   pagecolor="#ffffff"
   bordercolor="#666666"
   borderopacity="1"
   objecttolerance="10"
   gridtolerance="10"
   guidetolerance="10"
   inkscape:pageopacity="0"
   inkscape:pageshadow="2"
   inkscape:window-width="640"
   inkscape:window-height="480"
   id="namedview59"
   showgrid="false"
   inkscape:zoom="0.18941941"
   inkscape:cx="28.056045"
   inkscape:cy="74.650007"
   inkscape:window-x="10"
   inkscape:window-y="34"
   inkscape:window-maximized="0"
   inkscape:current-layer="Layer_1" />
<style
   type="text/css"
   id="style48">
	.st0{fill:#243B24;}
	.st1{fill:#234523;}
	.st2{fill:#144A2C;}
</style>
<path
   class="st0"
   d="m 10.77105,1.1 c 0,0 -1.5200001,-1.1 -4.2500001,-1.1 -3.43,0 -4.13,1.1 -4.13,1.1 l -0.04,25.46 c 0,0 1.63,1.1 4.35,1.1 3.4300001,0 4.0600001,-1.1 4.0600001,-1.1 V 1.1 Z"
   id="path50"
   inkscape:connector-curvature="0"
   style="fill:#243b24" />
<path
   class="st1"
   d="m 10.77105,1.1 c 0,0 -4.0800001,7.15 -8.3300001,10.28 l 0.06,4.16 c 0,0 0.85,-2.59 2.87,-5.72 2.1,-3.25 4.42,-5.26 5.4000001,-8.72 z"
   id="path52"
   inkscape:connector-curvature="0"
   style="fill:#234523" />
<path
   class="st1"
   d="m 3.4810499,26.01 c 0,0 -0.26,-3.72 6.13,-9.01 0,0 1.5700001,-0.65 1.8300001,-4.89 0,0 -1.8300001,6.07 -6.2700001,8.35 -4.44000003,2.28 -2.94,4.83 -3,5.22 -0.06,0.39 0.79,1.89 1.31,0.33 z"
   id="path54"
   inkscape:connector-curvature="0"
   style="fill:#234523" />
<path
   class="st2"
   d="m 12.63105,9.33 c -0.9,5.73 -1.89,6.21 -7.9700001,11.41 -3.17,2.71 -1.79,6.03 -2.26,5.58 -2.75000003,-2.67 -3.23000003,-5.34 -0.96,-9.48 1.08,-1.96 4.75,-3.25 6.37,-5.52 C 10.62105,7.39 10.03105,5.41 10.77105,1.1 c 0.02,-0.15 2.76,2.44 1.86,8.23 z"
   id="path56"
   inkscape:connector-curvature="0"
   style="fill:#144a2c" />
</svg>