<?xml version="1.0" encoding="UTF-8" standalone="no"?>
<!-- Generator: Adobe Illustrator 23.0.2, SVG Export Plug-In . SVG Version: 6.00 Build 0)  -->

<svg
   xmlns:dc="http://purl.org/dc/elements/1.1/"
   xmlns:cc="http://creativecommons.org/ns#"
   xmlns:rdf="http://www.w3.org/1999/02/22-rdf-syntax-ns#"
   xmlns:svg="http://www.w3.org/2000/svg"
   xmlns="http://www.w3.org/2000/svg"
   xmlns:sodipodi="http://sodipodi.sourceforge.net/DTD/sodipodi-0.dtd"
   xmlns:inkscape="http://www.inkscape.org/namespaces/inkscape"
   version="1.1"
   id="Layer_1"
   x="0px"
   y="0px"
   viewBox="0 0 137.02062 256.98002"
   xml:space="preserve"
   sodipodi:docname="hammerOutline.svg"
   width="137.02061"
   height="256.98001"
   inkscape:version="0.92.4 (33fec40, 2019-01-16)"><metadata
   id="metadata130"><rdf:RDF><cc:Work
       rdf:about=""><dc:format>image/svg+xml</dc:format><dc:type
         rdf:resource="http://purl.org/dc/dcmitype/StillImage" /></cc:Work></rdf:RDF></metadata><defs
   id="defs128" /><sodipodi:namedview
   pagecolor="#ffffff"
   bordercolor="#666666"
   borderopacity="1"
   objecttolerance="10"
   gridtolerance="10"
   guidetolerance="10"
   inkscape:pageopacity="0"
   inkscape:pageshadow="2"
   inkscape:window-width="640"
   inkscape:window-height="480"
   id="namedview126"
   showgrid="false"
   inkscape:zoom="0.18941941"
   inkscape:cx="69.155611"
   inkscape:cy="129.32001"
   inkscape:window-x="10"
   inkscape:window-y="34"
   inkscape:window-maximized="0"
   inkscape:current-layer="Layer_1" />
<style
   type="text/css"
   id="style117">
	.st0{fill:#FFFFFF;}
</style>
<g
   id="g123"
   transform="translate(-786.08938,-131.27)">
	<path
   class="st0"
   d="M 923.11,164.56 923,160.17 c -0.24,-9.64 -7.98,-17.28 -17.63,-17.37 l -3.75,-0.04 h -0.05 -0.05 l -25.95,-0.06 c -4.4,-6.76 -11.97,-11.27 -20.53,-11.42 h -0.01 c -0.15,0 -0.29,-0.01 -0.43,-0.01 v 0 0 c 0,0 0,0 -0.01,0 -0.58,0 -1.04,0.03 -1.29,0.05 -0.34,0.01 -0.64,0.03 -0.95,0.06 -0.63,0.06 -1.15,0.14 -1.46,0.18 h -0.02 c -0.36,0.05 -0.69,0.1 -1.02,0.16 -0.58,0.11 -1.06,0.23 -1.34,0.31 l -0.04,0.01 c -0.37,0.09 -0.7,0.17 -1.03,0.27 -0.54,0.16 -0.97,0.32 -1.23,0.41 l -0.08,0.03 c -0.34,0.12 -0.67,0.24 -1,0.37 -0.51,0.21 -0.91,0.4 -1.15,0.51 l -0.07,0.03 c -0.34,0.15 -0.66,0.31 -0.98,0.48 -0.48,0.25 -0.85,0.48 -1.08,0.61 l -0.07,0.04 c -0.31,0.18 -0.62,0.37 -0.92,0.56 -0.46,0.3 -0.81,0.56 -1.02,0.72 l -0.04,0.03 c -0.32,0.23 -0.6,0.43 -0.87,0.65 -0.43,0.34 -0.76,0.65 -0.96,0.83 l -0.04,0.03 c -0.28,0.25 -0.54,0.48 -0.79,0.72 -0.4,0.39 -0.73,0.75 -0.92,0.96 l -0.02,0.02 c -0.24,0.26 -0.47,0.5 -0.68,0.75 -0.39,0.46 -0.7,0.87 -0.89,1.12 -0.2,0.26 -0.39,0.51 -0.57,0.77 -0.16,0.23 -0.3,0.44 -0.43,0.64 l -25.28,-0.05 c -0.24,0 -0.47,0 -0.69,0.01 -2.35,0.06 -3.85,0.1 -3.87,0.1 -9.72,0.22 -17.37,8 -17.41,17.73 l -0.01,3.17 -0.25,41.91 -0.03,4.42 c -0.04,4.74 1.87,9.39 5.24,12.75 3.35,3.34 7.81,5.19 12.55,5.19 h 0.01 0.04 0.07 0.07 l 3.62,-0.04 21.87,-0.01 0.02,135.14 c -0.12,9.13 4.74,17.59 12.7,22.1 3.61,2.04 7.7,3.16 11.84,3.24 h 0.13 0.13 0.2 c 0.42,0 0.76,-0.02 1.03,-0.03 0.3,-0.01 0.78,-0.03 1.34,-0.08 0.35,-0.03 0.68,-0.08 1.02,-0.13 h -0.02 l 0.08,-0.01 c 0.3,-0.04 0.8,-0.11 1.4,-0.22 0.33,-0.06 0.66,-0.14 0.98,-0.22 l 0.04,-0.01 c 0.3,-0.07 0.79,-0.19 1.38,-0.36 0.32,-0.09 0.62,-0.2 0.93,-0.31 l 0.02,-0.01 c 0.29,-0.1 0.78,-0.27 1.35,-0.5 0.29,-0.12 0.59,-0.25 0.88,-0.39 l 0.01,-0.01 c 0.28,-0.13 0.75,-0.34 1.3,-0.63 0.28,-0.15 0.55,-0.3 0.82,-0.47 l 0.01,-0.01 c 0.27,-0.15 0.72,-0.41 1.23,-0.75 0.26,-0.17 0.52,-0.35 0.77,-0.54 0.26,-0.18 0.68,-0.48 1.16,-0.87 0.24,-0.19 0.47,-0.4 0.71,-0.61 0.24,-0.2 0.63,-0.54 1.07,-0.97 0.22,-0.22 0.44,-0.44 0.65,-0.67 0.22,-0.22 0.57,-0.6 0.97,-1.07 0.2,-0.24 0.4,-0.49 0.59,-0.74 0.19,-0.24 0.51,-0.64 0.86,-1.15 0.18,-0.26 0.36,-0.53 0.52,-0.8 0.17,-0.26 0.45,-0.69 0.75,-1.23 0.15,-0.27 0.3,-0.56 0.45,-0.86 0.14,-0.27 0.38,-0.73 0.63,-1.29 0.18,-0.41 0.31,-0.75 0.38,-0.95 0.11,-0.28 0.3,-0.74 0.49,-1.33 0.15,-0.46 0.25,-0.84 0.31,-1.05 v 0 c 0.08,-0.28 0.22,-0.74 0.35,-1.33 0.12,-0.52 0.18,-0.95 0.22,-1.18 v 0 c 0.05,-0.25 0.13,-0.71 0.2,-1.28 0.1,-0.83 0.16,-1.68 0.17,-2.52 v -0.12 -0.12 l -0.02,-135.7 25.62,-0.01 c 4.76,0 9.37,-1.92 12.69,-5.28 l 0.02,-0.02 0.02,-0.02 c 3.3,-3.36 5.16,-7.98 5.11,-12.69 l 0.01,-44.87 v -0.16 z"
   id="path119"
   inkscape:connector-curvature="0"
   style="fill:#ffffff" />
	<polygon
   class="st0"
   points="860.39,387.59 860.42,387.58 "
   id="polygon121"
   style="fill:#ffffff" />
</g>
</svg>