<?xml version="1.0" encoding="UTF-8" standalone="no"?>
<!-- Generator: Adobe Illustrator 23.0.2, SVG Export Plug-In . SVG Version: 6.00 Build 0)  -->

<svg
   xmlns:dc="http://purl.org/dc/elements/1.1/"
   xmlns:cc="http://creativecommons.org/ns#"
   xmlns:rdf="http://www.w3.org/1999/02/22-rdf-syntax-ns#"
   xmlns:svg="http://www.w3.org/2000/svg"
   xmlns="http://www.w3.org/2000/svg"
   xmlns:sodipodi="http://sodipodi.sourceforge.net/DTD/sodipodi-0.dtd"
   xmlns:inkscape="http://www.inkscape.org/namespaces/inkscape"
   version="1.1"
   id="Layer_1"
   x="0px"
   y="0px"
   viewBox="0 0 111.01003 231.01202"
   xml:space="preserve"
   sodipodi:docname="hammer.svg"
   width="111.01003"
   height="231.01201"
   inkscape:version="0.92.4 (33fec40, 2019-01-16)"><metadata
   id="metadata115"><rdf:RDF><cc:Work
       rdf:about=""><dc:format>image/svg+xml</dc:format><dc:type
         rdf:resource="http://purl.org/dc/dcmitype/StillImage" /></cc:Work></rdf:RDF></metadata><defs
   id="defs113" /><sodipodi:namedview
   pagecolor="#ffffff"
   bordercolor="#666666"
   borderopacity="1"
   objecttolerance="10"
   gridtolerance="10"
   guidetolerance="10"
   inkscape:pageopacity="0"
   inkscape:pageshadow="2"
   inkscape:window-width="640"
   inkscape:window-height="480"
   id="namedview111"
   showgrid="false"
   inkscape:zoom="0.18941941"
   inkscape:cx="275.58502"
   inkscape:cy="115.51201"
   inkscape:window-x="10"
   inkscape:window-y="34"
   inkscape:window-maximized="0"
   inkscape:current-layer="Layer_1" />
<style
   type="text/css"
   id="style80">
	.st0{fill:none;}
	.st1{fill:#603813;}
	.st2{fill:#808080;}
	.st3{fill:#B3B3B3;}
	.st4{fill:#4D4D4D;}
</style>
<g
   id="g108"
   transform="translate(-579.65997,-143.42999)">
	<rect
   x="579.65997"
   y="143.42999"
   class="st0"
   width="111"
   height="231"
   id="rect82"
   style="fill:none" />
	<g
   id="g106">
		<g
   id="g92">
			<g
   id="g90">
				<g
   id="g88">
					<path
   class="st1"
   d="m 629.26,372.87 c -3.72,-2.11 -6.19,-6.13 -6.11,-10.69 l -0.02,-206.95 c 0.13,-6.63 5.61,-11.92 12.25,-11.79 6.65,0.12 11.92,5.6 11.81,12.25 l 0.02,206.94 c -0.12,6.64 -5.6,11.93 -12.24,11.81 -2.09,-0.06 -4.03,-0.62 -5.71,-1.57 z"
   id="path84"
   inkscape:connector-curvature="0"
   style="fill:#603813" />
					<path
   d="m 635.15,143.43 m 0.14,4.82 c 1.93,0.04 3.72,0.82 5.05,2.2 1.34,1.39 2.06,3.22 2.02,5.18 l 0.02,206.91 c -0.07,3.91 -3.31,7.09 -7.33,7.09 -1.23,-0.02 -2.39,-0.34 -3.43,-0.93 -2.31,-1.31 -3.72,-3.78 -3.67,-6.45 l -0.02,-206.91 c 0.08,-3.91 3.31,-7.09 7.2,-7.09 z m -0.14,-4.82 m 0,0 c -6.53,0 -11.89,5.24 -12.02,11.8 l 0.02,206.95 c -0.08,4.57 2.39,8.59 6.11,10.69 1.69,0.95 3.63,1.51 5.7,1.56 0.07,0 0.14,0 0.21,0 6.55,0.01 11.91,-5.23 12.03,-11.81 l -0.02,-206.94 c 0.12,-6.64 -5.16,-12.13 -11.81,-12.25 -0.07,0.01 -0.15,0 -0.22,0 z"
   id="path86"
   inkscape:connector-curvature="0" />
				</g>
			</g>
		</g>
		<g
   id="g104">
			<g
   id="g98">
				<polygon
   class="st2"
   points="584.51,204.74 584.47,209.18 588.14,209.14 685.84,209.1 685.74,159.76 584.77,159.63 584.76,162.8 "
   id="polygon94"
   style="fill:#808080" />
				<path
   d="m 685.74,159.76 0.1,49.34 -97.7,0.04 -3.66,0.04 0.03,-4.44 0.25,-41.95 0.01,-3.16 z m -96.84,-5.05 c -0.05,0 -0.1,0 -0.15,0 -2.49,0.07 -4.08,0.1 -4.08,0.1 -2.62,0.06 -4.7,2.18 -4.71,4.79 l -0.01,3.16 -0.25,41.94 -0.03,4.43 c -0.01,1.29 0.5,2.53 1.42,3.44 0.9,0.9 2.12,1.4 3.39,1.4 0.02,0 0.04,0 0.04,0 l 3.68,-0.04 97.61,-0.04 h 0.04 c 1.29,0 2.52,-0.51 3.43,-1.43 0.91,-0.93 1.41,-2.19 1.38,-3.49 l 0.01,-44.96 -0.11,-4.39 c -0.06,-2.59 -2.17,-4.67 -4.76,-4.69 l -3.74,-0.04 -93.16,-0.18 z"
   id="path96"
   inkscape:connector-curvature="0" />
			</g>
			<polygon
   class="st3"
   points="589.3,204.71 584.47,209.15 584.77,159.64 685.74,159.76 681.35,164.5 589.55,164.46 "
   id="polygon100"
   style="fill:#b3b3b3" />
			<polygon
   class="st4"
   points="681.35,164.5 685.74,159.77 685.84,209.1 584.53,209.08 589.3,204.71 681,204.58 "
   id="polygon102"
   style="fill:#4d4d4d" />
		</g>
	</g>
</g>
</svg>