<?xml version="1.0" encoding="UTF-8" standalone="no"?>
<!-- Generator: Adobe Illustrator 23.0.2, SVG Export Plug-In . SVG Version: 6.00 Build 0)  -->

<svg
   xmlns:dc="http://purl.org/dc/elements/1.1/"
   xmlns:cc="http://creativecommons.org/ns#"
   xmlns:rdf="http://www.w3.org/1999/02/22-rdf-syntax-ns#"
   xmlns:svg="http://www.w3.org/2000/svg"
   xmlns="http://www.w3.org/2000/svg"
   xmlns:sodipodi="http://sodipodi.sourceforge.net/DTD/sodipodi-0.dtd"
   xmlns:inkscape="http://www.inkscape.org/namespaces/inkscape"
   version="1.1"
   id="Layer_1"
   x="0px"
   y="0px"
   viewBox="0 0 29.668346 30.83"
   xml:space="preserve"
   sodipodi:docname="silverapplepowerupitem.svg"
   width="29.668346"
   height="30.83"
   inkscape:version="0.92.4 (33fec40, 2019-01-16)"><metadata
   id="metadata309"><rdf:RDF><cc:Work
       rdf:about=""><dc:format>image/svg+xml</dc:format><dc:type
         rdf:resource="http://purl.org/dc/dcmitype/StillImage" /></cc:Work></rdf:RDF></metadata><defs
   id="defs307" /><sodipodi:namedview
   pagecolor="#ffffff"
   bordercolor="#666666"
   borderopacity="1"
   objecttolerance="10"
   gridtolerance="10"
   guidetolerance="10"
   inkscape:pageopacity="0"
   inkscape:pageshadow="2"
   inkscape:window-width="640"
   inkscape:window-height="480"
   id="namedview305"
   showgrid="false"
   inkscape:zoom="3.9650537"
   inkscape:cx="15.568199"
   inkscape:cy="15.41"
   inkscape:window-x="10"
   inkscape:window-y="34"
   inkscape:window-maximized="0"
   inkscape:current-layer="Layer_1" />
<style
   type="text/css"
   id="style278">
	.st0{fill:#666666;}
	.st1{fill:url(#SVGID_1_);}
	.st2{fill:url(#SVGID_2_);}
	.st3{fill:#424242;}
	.st4{fill:#212121;}
</style>
<g
   id="g302"
   transform="translate(-19.771801,-14.34)">
	<path
   class="st0"
   d="m 47.38,23.54 c -2.62,-3.66 -5.79,-4.2 -7.44,-4.2 h -0.06 c -0.01,0 -0.02,0 -0.03,0 H 39.8 v 0 c -1.37,0 -2.94,0.49 -3.28,0.61 -0.22,0.06 -0.44,0.13 -0.64,0.2 0.02,-2.08 0.54,-3.03 0.58,-3.11 0.32,-0.48 0.33,-1.11 0.02,-1.61 -0.43,-0.69 -1.19,-1.09 -2.09,-1.09 -0.98,0 -1.93,0.46 -2.11,0.56 -0.36,0.19 -0.63,0.52 -0.75,0.91 -0.31,1.09 -0.42,2.32 -0.32,3.66 -0.18,-0.02 -0.36,-0.03 -0.54,-0.03 -0.27,0 -0.49,0.02 -0.64,0.04 -0.19,-0.01 -0.37,-0.01 -0.55,-0.01 -1.82,0 -3.47,0.49 -4.92,1.45 -0.99,0.66 -1.88,1.54 -2.66,2.62 -0.5,0.7 -0.92,1.44 -1.24,2.19 -0.95,2.1 -1.14,4.37 -0.56,6.58 0.46,1.75 1.41,3.4 2.6,4.54 0.11,0.12 0.23,0.24 0.35,0.34 1.92,1.95 2.93,4.22 2.94,4.24 0.04,0.09 0.09,0.18 0.15,0.26 0.06,0.08 0.12,0.16 0.18,0.24 0.37,0.57 0.78,1.03 1.27,1.41 1.66,1.51 3.29,1.83 4.36,1.83 0.49,0 0.96,-0.06 1.41,-0.19 0.69,-0.18 1.34,-0.5 1.95,-0.96 0.21,0.12 0.43,0.22 0.65,0.31 0.66,0.28 1.34,0.43 2.03,0.43 1.02,0 2.02,-0.31 2.97,-0.93 0.22,-0.13 0.43,-0.27 0.64,-0.42 0.53,-0.39 0.98,-0.88 1.37,-1.49 0.51,-0.69 0.88,-1.4 1.04,-2.01 0.38,-0.78 0.84,-1.6 1.75,-2.32 0.45,-0.36 0.88,-0.78 1.26,-1.25 0.01,-0.01 0.02,-0.03 0.03,-0.03 1.24,-1.54 1.76,-3.22 1.9,-3.75 0.31,-0.82 1.51,-4.72 -1.57,-9.02 z m -1.49,11.85 v 0 z"
   id="path280"
   inkscape:connector-curvature="0"
   style="fill:#666666" />
	<radialGradient
   id="SVGID_1_"
   cx="36.646801"
   cy="24.997"
   r="12.3976"
   gradientUnits="userSpaceOnUse">
		<stop
   offset="0"
   style="stop-color:#E7E7E7"
   id="stop282" />
		<stop
   offset="1"
   style="stop-color:#434343"
   id="stop284" />
	</radialGradient>
	<path
   class="st1"
   d="m 34.12,23.42 c -0.56,-1.46 -2.25,-2.31 -3.37,-2.4 -1.2,-0.1 -4.79,-0.58 -7.63,3.39 -2.91,4.07 -1.37,7.7 -1.37,7.7 0,0 0.63,2.7 2.69,4.32 2.48,1.95 2.3,4.42 4.13,5.8 0.68,0.51 3.79,3.06 6.66,-0.11 0,0 2.3,2.47 5.5,0.11 1.84,-1.36 1.65,-3.85 4.13,-5.8 2.06,-1.62 2.69,-4.32 2.69,-4.32 0,0 1.54,-3.63 -1.37,-7.7 -2.84,-3.97 -6.48,-3.77 -7.63,-3.39 -1.09,0.37 -3.34,0.94 -3.9,2.4 z"
   id="path287"
   inkscape:connector-curvature="0"
   style="fill:url(#SVGID_1_)" />
	<linearGradient
   id="SVGID_2_"
   gradientUnits="userSpaceOnUse"
   x1="11.254"
   y1="52.924198"
   x2="29.076099"
   y2="35.938999">
		<stop
   offset="0"
   style="stop-color:#C1C1C1"
   id="stop289" />
		<stop
   offset="1"
   style="stop-color:#272727"
   id="stop291" />
	</linearGradient>
	<path
   class="st2"
   d="m 25.4,22.15 c 0,0 -6.25,7.75 -0.09,12.26 4.36,3.19 2.95,2.86 3.5,3.79 0.55,0.93 2.36,7.05 6.47,3.62 0,0 3.98,2.49 6.6,-1.7 0,0 1.78,-4.15 4.02,-4.74 0,0 -2.97,2.47 -3.28,4.02 -0.31,1.55 -3.64,5.96 -7.39,2.7 0,0 -0.89,1.07 -2.24,1.45 -1.48,0.42 -3.69,0 -5.62,-2.71 0,0 -1.2,-2.77 -3.6,-5.04 -2.4,-2.27 -4.78,-8.37 1.63,-13.65 z"
   id="path294"
   inkscape:connector-curvature="0"
   style="fill:url(#SVGID_2_)" />
	<path
   class="st3"
   d="m 30.12,20.97 c 0,0 1.95,-0.41 3.07,1.19 0.64,0.91 1.13,1.14 1.13,1.14 0,0 -0.08,-1.17 2.64,-1.92 0,0 1.61,-0.55 2.88,-0.54 0,0 -2.53,0.85 -2.8,1.53 0,0 1.16,-0.24 2.09,0 0,0 -2.09,0.46 -2.64,1.06 0,0 2.09,0.05 2.8,0.77 0,0 -1.59,-0.5 -2.97,0 0,0 0.99,0.16 1.87,0.96 0,0 -1.97,-0.03 -3.26,0.58 0,0 -1.3,0.77 -3,0.27 0,0 -0.69,-0.17 -1.8,0.44 0,0 0.54,-0.7 1.27,-0.93 0.73,-0.24 1.29,-0.16 1.29,-0.16 0,0 -1.75,-1.38 -3.12,-0.66 0,0 1.17,-1.17 2.86,-0.7 0,0 -1.15,-1.28 -2.69,-1.1 0,0 1.26,-0.73 2.27,-0.16 -0.02,-0.02 -0.12,-1.57 -1.89,-1.77 z"
   id="path296"
   inkscape:connector-curvature="0"
   style="fill:#424242" />
	<g
   id="g300">
		<path
   class="st4"
   d="m 34.17,24.96 c 0,0 -2.3,-4.89 -1.2,-8.74 0,0 1.7,-0.88 2.25,0 0,0 -1.66,2.42 -0.28,8.46 0,0 0.17,0.83 -0.77,0.28 z"
   id="path298"
   inkscape:connector-curvature="0"
   style="fill:#212121" />
	</g>
</g>
</svg>