<?xml version="1.0" encoding="UTF-8" standalone="no"?>
<!-- Generator: Adobe Illustrator 23.0.2, SVG Export Plug-In . SVG Version: 6.00 Build 0)  -->

<svg
   xmlns:dc="http://purl.org/dc/elements/1.1/"
   xmlns:cc="http://creativecommons.org/ns#"
   xmlns:rdf="http://www.w3.org/1999/02/22-rdf-syntax-ns#"
   xmlns:svg="http://www.w3.org/2000/svg"
   xmlns="http://www.w3.org/2000/svg"
   xmlns:sodipodi="http://sodipodi.sourceforge.net/DTD/sodipodi-0.dtd"
   xmlns:inkscape="http://www.inkscape.org/namespaces/inkscape"
   version="1.1"
   id="Layer_1"
   x="0px"
   y="0px"
   viewBox="0 0 33.653473 34.830002"
   xml:space="preserve"
   sodipodi:docname="applepowerupitem_outline.svg"
   width="33.653473"
   height="34.830002"
   inkscape:version="0.92.4 (33fec40, 2019-01-16)"><metadata
   id="metadata1521"><rdf:RDF><cc:Work
       rdf:about=""><dc:format>image/svg+xml</dc:format><dc:type
         rdf:resource="http://purl.org/dc/dcmitype/StillImage" /></cc:Work></rdf:RDF></metadata><defs
   id="defs1519" /><sodipodi:namedview
   pagecolor="#ffffff"
   bordercolor="#666666"
   borderopacity="1"
   objecttolerance="10"
   gridtolerance="10"
   guidetolerance="10"
   inkscape:pageopacity="0"
   inkscape:pageshadow="2"
   inkscape:window-width="640"
   inkscape:window-height="480"
   id="namedview1517"
   showgrid="false"
   inkscape:zoom="3.9650537"
   inkscape:cx="16.82732"
   inkscape:cy="17.41"
   inkscape:window-x="0"
   inkscape:window-y="24"
   inkscape:window-maximized="0"
   inkscape:current-layer="Layer_1" />
<style
   type="text/css"
   id="style1512">
	.st0{fill:#FFFFFF;}
</style>
<path
   class="st0"
   d="m 22.14732,5 h -0.03 -0.06 c -0.46,0 -0.92,0.04 -1.36,0.1 0.37,-1 0.27,-2.14 -0.31,-3.07 -0.79,-1.27 -2.21,-2.03 -3.78,-2.03 -1.42,0 -2.68,0.6 -3.03,0.78 -0.84,0.44 -1.48,1.21 -1.74,2.13 -0.2,0.7 -0.33,1.44 -0.39,2.21 -2.1200003,0.05 -4.0500003,0.65 -5.7700003,1.79 -1.19,0.79 -2.26,1.85 -3.18,3.13 -0.59,0.82 -1.07,1.68 -1.45,2.57 -1.11999996,2.48 -1.34999996,5.22 -0.64999996,7.87 0.55,2.08 1.67999996,4.06 3.11999996,5.45 0.12,0.13 0.25,0.25 0.37,0.36 1.61,1.65 2.5,3.6 2.51,3.62 0.09,0.2 0.2,0.41 0.34,0.6 0.06,0.09 0.12,0.17 0.18,0.24 0.47,0.71 1,1.29 1.61,1.78 2.1200003,1.9 4.2400003,2.3 5.6500003,2.3 0.67,0 1.32,-0.09 1.95,-0.27 0.53,-0.14 1.06,-0.35 1.57,-0.62 0.8,0.31 1.66,0.47 2.52,0.47 1.4,0 2.76,-0.41 4.03,-1.23 0.26,-0.16 0.52,-0.33 0.77,-0.51 0.71,-0.53 1.31,-1.17 1.83,-1.96 0.59,-0.81 1.02,-1.64 1.27,-2.42 0.32,-0.64 0.61,-1.08 1.11,-1.47 0.55,-0.43 1.06,-0.94 1.53,-1.5 l 0.09,-0.09 0.05,-0.08 c 1.36,-1.71 1.97,-3.53 2.19,-4.32 0.4,-1.11 1.71,-5.79 -1.86,-10.79 -3.14,-4.39 -7.03,-5.04 -9.08,-5.04 z"
   id="path1514"
   inkscape:connector-curvature="0"
   style="fill:#ffffff" />
</svg>