<?xml version="1.0" encoding="UTF-8" standalone="no"?>
<!-- Generator: Adobe Illustrator 23.0.3, SVG Export Plug-In . SVG Version: 6.00 Build 0)  -->

<svg
   xmlns:dc="http://purl.org/dc/elements/1.1/"
   xmlns:cc="http://creativecommons.org/ns#"
   xmlns:rdf="http://www.w3.org/1999/02/22-rdf-syntax-ns#"
   xmlns:svg="http://www.w3.org/2000/svg"
   xmlns="http://www.w3.org/2000/svg"
   xmlns:xlink="http://www.w3.org/1999/xlink"
   xmlns:sodipodi="http://sodipodi.sourceforge.net/DTD/sodipodi-0.dtd"
   xmlns:inkscape="http://www.inkscape.org/namespaces/inkscape"
   version="1.1"
   id="Layer_1"
   x="0px"
   y="0px"
   viewBox="0 0 104.92035 100.63189"
   xml:space="preserve"
   sodipodi:docname="basket_gold.svg"
   width="104.92036"
   height="100.63189"
   inkscape:version="0.92.4 (33fec40, 2019-01-16)"><metadata
   id="metadata266"><rdf:RDF><cc:Work
       rdf:about=""><dc:format>image/svg+xml</dc:format><dc:type
         rdf:resource="http://purl.org/dc/dcmitype/StillImage" /></cc:Work></rdf:RDF></metadata><defs
   id="defs264" /><sodipodi:namedview
   pagecolor="#ffffff"
   bordercolor="#666666"
   borderopacity="1"
   objecttolerance="10"
   gridtolerance="10"
   guidetolerance="10"
   inkscape:pageopacity="0"
   inkscape:pageshadow="2"
   inkscape:window-width="710"
   inkscape:window-height="480"
   id="namedview262"
   showgrid="false"
   inkscape:zoom="1.7289377"
   inkscape:cx="53.062756"
   inkscape:cy="59.881889"
   inkscape:window-x="10"
   inkscape:window-y="24"
   inkscape:window-maximized="0"
   inkscape:current-layer="Layer_1" />
<style
   type="text/css"
   id="style2">
	.st0{fill-rule:evenodd;clip-rule:evenodd;fill:url(#SVGID_1_);}
	.st1{fill-rule:evenodd;clip-rule:evenodd;fill:#2A2B02;}
	.st2{fill-rule:evenodd;clip-rule:evenodd;}
	.st3{fill:none;stroke:#000000;stroke-width:2.3232;stroke-linecap:round;stroke-miterlimit:10;}
	.st4{fill:none;stroke:#000000;stroke-width:0.7744;stroke-miterlimit:10;}
	.st5{fill:none;stroke:#000000;stroke-width:1.5488;stroke-miterlimit:10;}
	.st6{fill:none;stroke:#000000;stroke-width:2.3232;stroke-miterlimit:10;}
	.st7{fill:#2A2B02;}
	.st8{clip-path:url(#SVGID_3_);}
	.st9{fill:#474A03;}
	.st10{fill:url(#SVGID_4_);}
	.st11{fill:url(#SVGID_5_);}
	.st12{fill:url(#SVGID_6_);}
	.st13{fill:#22240F;}
	.st14{fill:url(#SVGID_7_);}
	.st15{fill:url(#SVGID_8_);}
	.st16{fill:url(#SVGID_9_);}
	.st17{opacity:0.7;enable-background:new    ;}
	.st18{fill:url(#SVGID_10_);}
	.st19{fill:url(#SVGID_11_);}
	.st20{fill:url(#SVGID_12_);}
	.st21{fill:#8D8D8D;}
	.st22{fill:#BFBA52;}
	.st23{fill:url(#SVGID_13_);}
	.st24{fill:url(#SVGID_14_);}
	.st25{fill:url(#SVGID_15_);}
</style>
<g
   id="g101"
   transform="translate(-13.837245,-27.5)">
	<g
   id="g99">
		
			<linearGradient
   id="SVGID_1_"
   gradientUnits="userSpaceOnUse"
   x1="52.958099"
   y1="-3.8405001"
   x2="68.277702"
   y2="86.616096"
   gradientTransform="matrix(1,0,0,-1,0,138.55)">
			<stop
   offset="0"
   style="stop-color:#4D470F"
   id="stop4" />
			<stop
   offset="5.911816e-02"
   style="stop-color:#534D10"
   id="stop6" />
			<stop
   offset="0.1364"
   style="stop-color:#625D11"
   id="stop8" />
			<stop
   offset="0.2238"
   style="stop-color:#7D7814"
   id="stop10" />
			<stop
   offset="0.3186"
   style="stop-color:#A19E18"
   id="stop12" />
			<stop
   offset="0.4182"
   style="stop-color:#CFCE1D"
   id="stop14" />
			<stop
   offset="0.5075"
   style="stop-color:#FFFF22"
   id="stop16" />
			<stop
   offset="0.5519"
   style="stop-color:#E2E11F"
   id="stop18" />
			<stop
   offset="0.6297"
   style="stop-color:#B5B21A"
   id="stop20" />
			<stop
   offset="0.7076"
   style="stop-color:#8F8C16"
   id="stop22" />
			<stop
   offset="0.7842"
   style="stop-color:#726E13"
   id="stop24" />
			<stop
   offset="0.8593"
   style="stop-color:#5E5811"
   id="stop26" />
			<stop
   offset="0.9321"
   style="stop-color:#514B0F"
   id="stop28" />
			<stop
   offset="1"
   style="stop-color:#4D470F"
   id="stop30" />
		</linearGradient>
		<path
   class="st0"
   d="m 18.2,57.9 c 0,0 -1,-2.8 -1.7,-1.9 -0.2,0.2 -1,2.8 -1.1,3.1 -0.7,2.8 -1.1,6.8 2.8,13.3 l 2.4,1.7 1.5,9.5 c 0,0 -2.6,5.8 2.2,10.7 0,0 3,20.6 9.1,24.5 0,0 8.5,5.2 14.7,4.5 h 1.4 c 0,0 2.1,2.9 3.7,3.3 1.5,0.4 18.4,-0.2 18.4,-0.2 l 2.3,0.1 c 0,0 13.9,-0.1 17.2,-2.8 l 1.2,-1.6 c 0,0 6.3,0.6 14,-7.6 l 3.4,-18.7 c 0,0 4.3,-5.8 2.7,-12 l 0.2,-6.8 c 0,0 8.7,-11.4 3.9,-20.3 0,0 -14.3,19.6 -52.9,17.4 0,-0.1 -28.2,1.7 -45.4,-16.2 z"
   id="path33"
   inkscape:connector-curvature="0"
   style="clip-rule:evenodd;fill:url(#SVGID_1_);fill-rule:evenodd" />
		<path
   class="st1"
   d="m 20.6,75.2 c 0,0 7.2,7.3 21.7,10.7 l -1.4,-2.1 c 0,0 -15.1,-6.6 -18.9,-9.9 -3.7,-3.4 -1.4,1.3 -1.4,1.3 z"
   id="path35"
   inkscape:connector-curvature="0"
   style="clip-rule:evenodd;fill:#2a2b02;fill-rule:evenodd" />
		<path
   class="st1"
   d="m 112.6,76 c 0,0 -31.2,22 -67.8,10.6 L 42,85.4 39.9,82.7 c 0,0 14.8,4.7 31.3,4.4 13.1,-0.3 27.1,-4.5 36.8,-11.1 0,0 7.9,-4.4 4.6,0 z"
   id="path37"
   inkscape:connector-curvature="0"
   style="clip-rule:evenodd;fill:#2a2b02;fill-rule:evenodd" />
		<path
   class="st1"
   d="m 25.4,95.5 c 0,0 3.5,4.8 18,8.3 l -1,-2.5 c 0,0 -15.1,-6.6 -18.9,-9.9 -3.7,-3.4 1.9,4.1 1.9,4.1 z"
   id="path39"
   inkscape:connector-curvature="0"
   style="clip-rule:evenodd;fill:#2a2b02;fill-rule:evenodd" />
		<path
   class="st1"
   d="m 109.6,94.6 c -0.1,-0.5 -0.2,-1.2 -0.1,-1.8 -9.6,6.6 -23.6,10.8 -36.6,11 -22.5,0.3 -31.3,-4.4 -31.3,-4.4 l -2.6,1 6.6,3.2 c 34.8,7.2 54.4,-2.6 64.3,-8.1 -0.1,-0.3 -0.2,-0.6 -0.3,-0.9 z"
   id="path41"
   inkscape:connector-curvature="0"
   style="clip-rule:evenodd;fill:#2a2b02;fill-rule:evenodd" />
		<polygon
   class="st1"
   points="99.2,90.9 96.6,91.8 97.6,82.3 100.2,81.2 "
   id="polygon43"
   style="clip-rule:evenodd;fill:#2a2b02;fill-rule:evenodd" />
		<polygon
   class="st1"
   points="93.6,120.7 98.4,99.3 95.8,100.5 91,121.8 "
   id="polygon45"
   style="clip-rule:evenodd;fill:#2a2b02;fill-rule:evenodd" />
		<polygon
   class="st1"
   points="75.7,97.1 75.6,88.3 70.8,88.6 70.4,97.4 "
   id="polygon47"
   style="clip-rule:evenodd;fill:#2a2b02;fill-rule:evenodd" />
		<path
   class="st1"
   d="m 69.8,104.7 c -1.8,15.3 1.4,19.4 2.8,18.3 1.4,-1.2 2.6,-18.3 2.6,-18.3 z"
   id="path49"
   inkscape:connector-curvature="0"
   style="clip-rule:evenodd;fill:#2a2b02;fill-rule:evenodd" />
		<path
   class="st1"
   d="m 49.4,103.3 -5.2,-1 c 0,0 0.4,17.8 3.9,20.9 h 1.4 z"
   id="path51"
   inkscape:connector-curvature="0"
   style="clip-rule:evenodd;fill:#2a2b02;fill-rule:evenodd" />
		<polygon
   class="st1"
   points="48,95.8 47.7,85.4 43,83.8 43.9,94.3 "
   id="polygon53"
   style="clip-rule:evenodd;fill:#2a2b02;fill-rule:evenodd" />
		<g
   id="g65">
			<path
   class="st2"
   d="m 21,60 c -0.9,-0.7 -1.7,-1.5 -2.5,-2.3 -0.1,0 -1,-4.1 -1,-4.1 -1.1,0.5 -2,3.7 -2.2,5.1 -0.2,1.3 0.2,4 0.2,5.2 0.1,1.2 0.4,2.4 0.7,3.6 0.5,2 1.5,3.6 3.4,4.7 0.5,0.3 1.1,1 1.2,1.6 0.2,1.3 0.1,2.6 0.3,3.9 0.1,1.3 0.5,2.5 0.7,3.8 0.2,0.9 0.3,1.8 0.4,2.8 -0.7,0.2 -1.3,1 -1.1,1.6 0.3,1.3 0.6,2.5 0.8,3.7 0.2,0.9 0.5,1.6 1.3,2.1 0.9,0.5 1.6,1.1 1.3,2.4 -0.2,0.9 0.1,1.9 0.3,2.8 0.4,2 0.7,4 1.2,5.9 0.5,1.7 1.4,3.3 1.8,5 0.7,2.5 1.4,5 2.6,7.4 0.5,1.1 1.2,2.1 2.6,2.1 0.8,0 1.2,0.4 1.7,0.9 0.6,0.5 1.1,1.1 1.8,1.5 1,0.8 2.3,1 3.5,1.4 2.5,0.9 5,2.1 7.5,3.1 1,0.4 2.2,0.5 3.3,0.5 0.6,0 1,0.1 1.3,0.5 0.7,0.8 1.5,1.2 2.7,1.1 1.3,-0.1 2.5,-0.2 3.8,-0.2 2.8,0 5.6,1 8.5,1 1.3,0 2.6,-0.1 3.8,-0.5 1.1,-0.3 2,-1.2 3.2,-0.4 0.1,0.1 0.4,0 0.5,0 1.8,-0.1 3.6,-0.1 5.3,-0.2 2.6,-0.2 5.2,-0.6 7.8,-0.9 0.1,0 0.2,0 0.3,-0.1 1.2,-0.8 2.6,-1.4 3.3,-2.7 0.2,-0.3 0.8,-0.6 1.1,-0.5 1.3,0.1 2.5,-0.3 3.6,-1.1 1.1,-0.7 2.2,-1.4 3.5,-1.5 1.3,-0.1 2.6,-0.5 3.4,-1.6 0.5,-0.7 1.2,-1.2 1.9,-1.6 1.7,-1 1.9,-2.7 2.3,-4.4 0.2,-1 0.4,-2 0.6,-3 0.3,-1.2 0.6,-2.3 0.8,-3.5 0.3,-1.3 0.4,-2.6 0.6,-3.9 0.3,-1.4 0.5,-2.9 0.9,-4.3 0.2,-0.9 0.2,-2 1,-2.6 0.9,-0.6 1.4,-1.4 1.5,-2.4 0.3,-1.5 0.5,-3.1 0.6,-4.6 0,-0.9 -0.2,-1.8 -0.4,-2.7 -0.1,-0.4 -0.4,-0.7 -0.3,-1 0.1,-1.9 0.4,-3.8 0.6,-5.6 0.2,-1.5 0.9,-2.8 1.9,-3.9 0.7,-0.8 2.9,-1 3.2,-10.5 0,-0.8 -0.5,-2.7 -0.7,-3.4 -0.1,-0.2 -1.1,-3.4 -1.2,-3.7 -0.8,0.7 -6.9,9.1 -21.1,13.4 C 80.9,74.2 73.3,74.3 66.3,74.3 37,74.2 21.2,60.4 21,60 Z m 1.3,15.8 c 0,-0.4 -0.1,-0.7 -0.1,-1.2 0.8,0.2 1.3,0.6 1.4,1.5 0.1,1.7 0.4,3.4 0.6,5.2 0,0.2 0.2,0.3 0.3,0.5 -0.1,-1.9 -0.2,-3.7 -0.4,-5.8 0.4,-0.4 0.8,0 0.9,0.5 0.1,0.7 0.1,1.3 0.7,1.9 0.3,0.3 0,1.2 0.1,1.9 0,0.6 0.2,1.1 0.2,1.7 0.1,0 0.2,0 0.3,0 -0.1,-1.5 -0.1,-3 -0.2,-4.4 0.1,-0.1 0.2,-0.2 0.2,-0.2 4.4,3.3 9.7,4.6 14.6,6.5 0.3,3.3 0.6,6.5 0.9,9.7 -6.4,-1.9 -12.7,-4.1 -18.1,-7.8 -0.2,-0.8 -0.3,-1.4 -0.4,-2 -0.2,-1.3 -0.4,-2.7 -0.6,-4 -0.1,-1.4 -0.3,-2.7 -0.4,-4 z M 69.2,97.1 H 63.1 C 63.1,96.5 63,96 63,95.5 c -0.1,0 -0.2,0 -0.2,0 V 97 c -1.3,0.2 -1.4,0 -1.5,-1.4 -0.1,0.2 -0.2,0.4 -0.2,0.6 0,0.7 -0.4,1.1 -1,1.1 C 58.9,97.1 49.9,96 49.9,96 l -0.5,-9.7 c 0,0 4.7,0.7 7.6,1.1 0,0 0.2,4.2 0.3,4.2 0.1,-1.3 0.2,-2.6 0.4,-3.9 l 3.2,0.4 0.2,2.1 0.7,-2.2 7.5,0.5 v 8.6 z m -21.7,-2.3 -2.3,-0.7 -0.6,-8.8 2.3,0.6 z m 23.8,1.3 c 0,-1.9 0,-4.7 0,-6.7 0,-0.3 2.1,-0.3 2.9,-0.3 -0.2,2.5 -0.3,5.3 -0.5,7.8 -0.6,0.1 -1.4,0.2 -2.2,0.2 -0.4,0.1 -0.2,-0.8 -0.2,-1 z m 17,-8 c 0.1,-0.5 0.3,-0.9 0.3,-1.4 0.1,-1.5 0.1,-1.6 1.9,-1.9 0.7,1.3 -0.7,2.7 0.2,4 0.2,-1.1 0.4,-2.3 0.5,-3.4 0,-0.8 0.3,-1.2 1,-1.2 0.6,2.5 0.3,4.9 0,7.4 0.1,0 0.2,0 0.2,0.1 0.2,-0.4 0.4,-0.9 0.5,-1.3 0.2,-1.1 0.3,-2.2 0.4,-3.3 0,-0.4 0.1,-0.8 -0.1,-1.1 -0.5,-1.4 -0.4,-1.8 0.8,-2.4 0.7,-0.3 1.4,-0.5 2.2,-0.8 -0.3,3.4 -0.6,6.7 -0.9,10.2 -5.6,2 -11.5,2.7 -17.5,3.6 0,-1 0,-2 0,-2.9 0,-1.8 0.2,-3.6 0.2,-5.4 0,-0.7 0.3,-0.8 0.9,-0.9 1.9,-0.3 3.8,-0.6 5.6,-1 1.2,-0.2 2.3,-0.6 3.6,-0.9 0,0.9 -0.1,1.8 -0.1,2.7 0.1,-0.1 0.2,-0.1 0.3,-0.1 z m 9,4 1.2,-10 c 0,0 0.7,-0.5 0.8,-0.4 -0.3,2.8 -1.2,10.1 -1.2,10.1 z m 8.8,-6.4 c 0.1,-1 0.3,-5.3 0.5,-6.5 0.1,-0.5 0.5,-0.5 0.9,-0.9 0.1,0.1 0.4,-0.4 0.5,-0.3 v 3.4 c 0,-0.5 0.7,-4 0.7,-4 l 2.8,-1.4 -1.2,9.3 c 0,0 -4.7,2.9 -6.6,3.9 -1,0.6 -2.1,1.1 -3.4,1.8 0.2,-1.6 0.3,-2.9 0.5,-4.2 0.2,-1.9 0.6,-6.2 0.6,-6.2 l 4.1,-1.7 0.3,2.7 c 0.1,0.1 0.3,4.1 0.3,4.1 z m -64.7,34.9 c -0.4,-0.2 -0.7,-0.3 -1.1,-0.5 -1.5,-0.6 -1.7,-1.2 -1.4,-2.9 0.1,-0.8 -0.1,-1.6 -0.2,-2.4 -0.2,-1.3 -0.5,-2.7 -0.8,-4 0,-0.1 -0.1,-0.2 -0.3,-0.3 0.2,1.5 0.4,3 0.6,4.5 0.2,1.5 -0.5,3 0.5,4.5 -1.1,-0.4 -2.1,-0.4 -2.2,-1.7 0,-0.4 -0.4,-0.5 -0.7,-0.2 -0.1,0.1 -0.4,0.2 -0.5,0.1 -0.9,-1.2 -1.8,-2.4 -2.2,-3.9 -0.1,-0.4 -0.3,-0.8 -0.6,-1.4 -0.4,1.4 0.7,2.3 0.6,3.4 -1.3,0.2 -1.8,-0.1 -2.2,-1.4 -0.6,-1.8 -1.1,-3.6 -1.7,-5.4 -0.6,-1.7 -1.3,-3.4 -1.8,-5.1 -0.5,-1.8 -1,-3.5 -1.3,-5.3 -0.3,-1.5 -0.4,-3 -0.6,-4.4 0.1,0 0.2,0 0.3,-0.1 1.1,0.6 2.1,1.3 3.3,1.8 0.9,0.4 0.8,1.2 1,1.8 0.5,1.9 0.8,3.9 1.2,5.9 0,0.2 0.1,0.3 0.2,0.5 -0.2,-2.4 -0.2,-4.8 -1,-7.2 0.7,0.2 1.3,0.5 1.9,0.7 1.3,0.4 0.9,1.5 1.1,2.4 0.1,0.4 0.1,0.8 0.1,1.2 0.1,0 0.2,0 0.2,0 v -2.7 c 0.8,0.2 1.4,0.4 2.1,0.5 2,0.6 4,1.2 6,1.8 0.2,0.1 0.5,0.4 0.5,0.6 0.2,2.7 0.4,5.3 0.6,8 0.2,2 0.3,4 0.6,6 0.3,1.6 0.8,3.2 1.3,4.8 0.3,0.8 0.6,1.6 1,2.5 -1.4,-0.7 -2.9,-1.4 -4.5,-2.1 z m 4.2,-17.5 3.1,0.8 0.9,18 c 0,0 -2,0.5 -2.7,-3 -1,-5 -1.3,-15.8 -1.3,-15.8 z M 71.1,124 c -0.6,0.8 -1.4,1.4 -2.5,1.3 -1.3,-0.1 -2.7,0 -4,0 -1,0 -1.8,-0.2 -1.9,-1.4 0,-0.1 -0.2,-0.2 -0.5,-0.5 0.1,0.6 0.1,0.9 0.2,1.3 -1.4,0.4 -2.3,0 -2.5,-1.7 0,-0.1 -0.3,-0.3 -0.4,-0.4 -0.1,0.1 -0.2,0.1 -0.3,0.2 0.2,0.6 0.4,1.2 0.6,1.8 -1.1,0 -1.3,-0.9 -1.5,-1.6 -0.2,-0.7 -0.2,-1.5 -0.3,-2.2 -0.1,0 -0.2,0 -0.3,0 0.1,1.2 0.2,2.4 0.3,3.7 -1.5,0 -3.1,0 -4.7,0 -1.3,0 -2.8,-2 -2.8,-2.9 -0.1,-2.3 -0.3,-4.7 -0.5,-7 -0.1,-0.8 0,-1.6 -0.1,-2.4 -0.1,-2 -0.3,-4 -0.4,-6 -0.1,-1.2 0,-2.4 0,-3.7 1.3,0.1 2.5,0.3 3.7,0.5 0.2,0 0.4,0.4 0.4,0.7 0.1,0.7 0,1.3 0,2 0.1,0 0.2,0 0.3,0 v -2.6 c 0.9,0.1 1.7,0.1 2.5,0.2 0,0.9 0,1.7 0,2.5 0,0.2 0.2,0.4 0.3,0.6 0.1,-0.2 0.2,-0.4 0.2,-0.5 0.1,-0.8 0.1,-1.5 0.1,-2.6 1.7,0.1 3.5,0.3 5.2,0.4 0.3,0 0.6,0.1 0.9,0.1 1.9,0 3.9,0 5.8,0 0.7,0 0.9,0.4 0.9,1 0,1 -0.1,1.9 -0.1,2.9 -0.1,1 -0.2,2 -0.2,3.1 0,1.1 0.1,2.1 0.2,3.2 0.1,1.7 0,3.4 0.3,5 0.2,0.9 0,2.1 0.9,2.8 0.2,0.1 0.1,0.5 0.1,0.8 0.1,0.4 0.2,0.7 0.3,1.1 -0.1,-0.1 -0.1,0.1 -0.2,0.3 z m 0.3,-4.4 c -0.9,-4.5 -0.2,-9.1 -0.5,-13.7 0.9,0.1 1.7,0.1 2.7,0.2 -0.1,2 -0.3,4.1 -0.4,6.1 0,0.2 0,0.4 0,0.5 0,1.4 0.2,2.8 -0.1,4.1 -0.2,1.3 0,2.8 -1.1,3.8 -0.1,0.1 -0.2,0.2 -0.5,0.4 0,-0.6 -0.1,-1 -0.1,-1.4 z M 91,117.3 c -0.5,2 -1.5,3.9 -2.8,5.6 -0.6,0.8 -1.4,1.3 -2.5,1.1 -0.3,-0.1 -0.6,0 -1.1,-0.1 0.1,-0.4 0.3,-0.7 0.5,-1.4 -0.4,0.2 -0.8,0.3 -0.8,0.5 -0.2,1.2 -1,0.8 -1.8,0.8 0.1,-0.2 0.2,-0.3 0.2,-0.5 0,-0.2 -0.1,-0.4 -0.1,-0.6 -0.2,0.1 -0.4,0.2 -0.5,0.4 -0.7,1.3 -1,1.5 -2.4,1.4 2,-1.7 2.2,-4 2.3,-6.4 -0.1,0.2 -0.4,0.4 -0.4,0.5 0,1.5 -0.6,2.7 -1.2,4 -0.1,0.3 -0.2,1 -0.9,0.7 -0.1,0 -0.3,0.2 -0.4,0.4 -0.5,0.9 -1.1,1.3 -2.2,1.3 -1,0 -1.9,0.2 -2.9,0.3 -0.3,0 -0.7,0 -1,0 -0.1,-0.1 -0.2,-0.3 -0.3,-0.4 0.3,-0.1 0.6,-0.2 0.8,-0.3 0.6,-0.6 1.2,-1.2 1.6,-1.9 0.3,-0.6 0.3,-1.4 0.4,-2.1 0.2,-1.7 0.4,-3.4 0.6,-5.1 0.1,-1.2 0.1,-2.3 0.2,-3.5 0.1,-2.1 0.2,-4.1 0.4,-6.2 0.1,-0.8 0.3,-1.5 0.5,-2.3 h 1.9 c -0.1,1.3 -0.1,2.7 -0.2,4 0.1,0 0.2,0 0.3,0 0.1,-0.9 0.3,-1.8 0.3,-2.6 0,-1.3 0.4,-1.7 1.8,-1.9 1.3,-0.1 2.5,-0.3 3.9,-0.5 v 2 c 0.8,-0.7 -0.1,-2.5 1.7,-2.3 -0.2,1.8 -0.4,3.7 -0.5,5.5 0.1,0 0.3,0 0.4,0 0.1,-1.2 0.2,-2.4 0.4,-3.5 0.1,-0.7 0.1,-1.4 0.5,-1.9 0.2,-0.3 0.9,-0.4 1.2,-0.5 0.2,0.6 0.5,1.1 0.6,1.7 0.1,0.4 0.3,0.8 0.3,1.1 -0.2,2 -0.5,4.1 -0.7,6.1 -0.1,0.9 -0.1,1.8 0,2.7 0.2,-0.9 0.5,-1.8 0.6,-2.7 0.2,-1.9 0.4,-3.9 0.5,-5.8 0,-0.6 -0.3,-1.3 -0.4,-1.9 0,-0.4 0.1,-1.2 0.3,-1.2 1.4,-0.5 2.8,-0.8 4.3,-1.1 -0.2,1.6 -0.2,3 -0.5,4.4 -0.4,2.2 -0.9,4.4 -1.4,6.6 -0.5,1.8 -1,3.7 -1.5,5.6 z m 5.7,-16.6 c 0.1,0 0.7,-0.3 0.8,-0.3 -0.1,1 -0.7,4 -0.8,5 -0.2,1.5 -2,11.2 -3.8,13.6 1.3,-3.6 3.6,-15.4 3.8,-18.3 z m 11.4,-4 c -0.2,1.9 -0.4,3.8 -0.8,5.6 -0.3,1.8 -0.9,3.6 -1.3,5.4 -0.2,0.9 -0.3,1.8 -0.5,2.6 -0.3,1.2 -0.7,2.4 -1.1,3.5 -0.2,0.4 -0.8,0.6 -1.4,0.8 0.5,-1.9 1,-3.8 0.4,-5.8 -0.1,1.1 -0.2,2.2 -0.5,3.2 -0.3,1 -0.7,2 -1.2,2.9 -0.4,0.6 -0.2,1.5 -1.1,1.9 -0.3,0.1 -0.5,0.4 -0.8,0.6 -0.1,-0.1 -0.1,-0.1 -0.2,-0.2 0.3,-0.6 0.6,-1.3 0.9,-1.9 0,-0.1 -0.1,-0.1 -0.1,-0.2 -0.1,0.1 -0.3,0.2 -0.4,0.3 -0.3,0.4 -0.7,0.8 -0.8,1.3 -0.3,1.3 -1.3,1 -2.2,1 -0.2,0 -0.4,0 -0.5,0 0.4,-2 0.8,-4 1.2,-6 0.5,-2.7 1,-5.4 1.5,-8.2 0.3,-1.6 0.4,-3.2 0.8,-4.7 0.1,-0.5 0.8,-0.9 1.4,-1.2 0.6,-0.3 1.3,-0.5 2,-0.7 -0.2,1.3 -0.5,2.6 -0.7,3.9 0.1,0 0.2,0 0.3,0 0.3,-1.4 0.6,-2.7 0.9,-4.4 0.8,-0.3 1.9,-0.9 3,-1.2 0.9,0.2 1.3,0.6 1.2,1.5 z m 3.7,-6.7 c -0.1,0.9 -1.4,2 -2,2.3 -3,1.5 -13.2,10.1 -44.5,11.1 -1.8,0.1 -13.8,-1.4 -15.5,-1.7 -2.2,-0.4 -6.1,-1.6 -8.3,-2.1 C 39.6,99.1 37.7,98.3 35.8,97.8 34.6,97.5 33.4,97 32.3,96.4 29.9,95.1 27.6,93.8 25.2,92.5 24.6,92.1 24,91.6 23.4,91.2 23.3,91.2 23.3,91 23.3,91 23.1,89.8 22,86.7 21.9,85.4 c 11.3,6.4 20,9.2 22.8,9.9 10.7,2.5 16.9,2.6 20.7,2.8 1.8,0.1 12.2,0.2 23.5,-3.1 14.1,-4.1 23,-9.7 23,-9.7 l 0.1,1.6 c -0.1,-0.1 -0.1,2 -0.2,3.1 z m 5.5,-25.7 c 0,1.6 -0.8,5 -1,5.7 -0.2,0.7 -2.6,2.1 -3.2,2.6 -1.1,0.9 -9.1,5.4 -12,6.7 C 98.6,80.4 93.4,83 82.3,85.1 71.8,87.1 65.6,87 54.7,85.7 43.3,84.3 38.7,82.3 31.9,79.1 25.1,75.9 20.6,72.6 19.8,71.9 18.8,71.1 17.2,69 16.9,67.7 16.4,65.8 15.1,63 15.3,61.3 c 0.1,-1.7 1.6,-5.9 1.6,-5.9 0,0 4.9,9.2 16.1,14 2.5,1.1 18.4,5.8 33.1,6.3 15.1,0.5 26.9,-2.5 33.3,-4.9 18.2,-6.9 16.5,-14 16.5,-14 0,0 1.4,5.4 1.4,7.5 z"
   id="path55"
   inkscape:connector-curvature="0"
   style="clip-rule:evenodd;fill-rule:evenodd" />
			<path
   class="st2"
   d="m 87.9,79.9 c -0.1,0.1 -0.2,0.3 -0.3,0.5 -0.2,0.3 -0.5,0 -0.7,0.1 -0.3,0.2 -0.8,0.3 -1.5,-0.1 -0.3,-0.2 -1.5,0.2 -1.6,0 0.4,-0.4 1.5,-0.6 2,-0.9 0.4,-0.2 1,-0.6 1.2,-0.4 0.5,0.5 0.8,0.3 1.3,0.1 0.2,-0.1 0.5,-0.1 0.8,-0.1 0,0.1 -0.8,0.6 -1.2,0.8 z"
   id="path57"
   inkscape:connector-curvature="0"
   style="clip-rule:evenodd;fill-rule:evenodd" />
			<path
   class="st2"
   d="m 52.7,80.5 c 0.7,-0.2 1.6,-0.2 2,-0.3 0.3,-0.1 0.8,-0.1 0.9,0 0.5,0.7 2.5,0.8 2.5,0.9 -0.3,0 -1,0 -1.4,0 -0.9,1.5 -1.4,1.5 -2.4,0 -0.1,-0.2 -0.5,-0.3 -0.7,-0.4 -0.2,0 -0.8,0 -0.9,-0.2 z"
   id="path59"
   inkscape:connector-curvature="0"
   style="clip-rule:evenodd;fill-rule:evenodd" />
			<path
   class="st2"
   d="m 111.4,70.1 c -0.7,0.8 -1.2,1.2 -1.8,1.9 -0.9,-1.2 -2.1,0.2 -2.4,-0.1 0.5,-0.4 0.8,-0.7 1.1,-1 0.1,-0.1 0.7,-0.7 0.8,-0.7 0.4,0 0.6,0.3 1,0.4 0.2,0 1.2,-0.5 1.3,-0.5 z"
   id="path61"
   inkscape:connector-curvature="0"
   style="clip-rule:evenodd;fill-rule:evenodd" />
			<path
   class="st2"
   d="m 56.6,113.2 c 0,-2 0,-4 0,-6 0.1,0 0.1,-0.1 0.2,-0.1 0.2,0.3 0.5,0.5 0.5,0.8 -0.1,1.8 -0.3,3.6 -0.5,5.3 -0.1,0 -0.1,0 -0.2,0 z"
   id="path63"
   inkscape:connector-curvature="0"
   style="clip-rule:evenodd;fill-rule:evenodd" />
		</g>
		<path
   class="st3"
   d="m 23,92 c 0,0 13.4,11.8 44.7,12 24.8,0.1 43.5,-11.6 43.5,-11.6"
   id="path67"
   inkscape:connector-curvature="0"
   style="fill:none;stroke:#000000;stroke-width:2.32319999;stroke-linecap:round;stroke-miterlimit:10" />
		<path
   class="st4"
   d="m 22,84.4 c 0,0 15.6,13.5 49,13.4 9.9,0 33.1,-6.5 41.2,-13.4"
   id="path69"
   inkscape:connector-curvature="0"
   style="fill:none;stroke:#000000;stroke-width:0.7744;stroke-miterlimit:10" />
		<path
   class="st4"
   d="m 21.7,86.1 c 0,0 16.1,13 49.4,12.9 9.9,0 33.1,-6.5 41.2,-13.4"
   id="path71"
   inkscape:connector-curvature="0"
   style="fill:none;stroke:#000000;stroke-width:0.7744;stroke-miterlimit:10" />
		<path
   class="st5"
   d="m 23.5,92.1 c 0,0 14.4,12.2 47.8,12.1 9.9,0 33.1,-6.5 41.2,-13.4"
   id="path73"
   inkscape:connector-curvature="0"
   style="fill:none;stroke:#000000;stroke-width:1.54879999;stroke-miterlimit:10" />
		<path
   class="st3"
   d="m 110.8,48.1 c 0,0 6.1,9.1 3.1,12.6 -3.1,3.6 -8.5,6.5 -12.8,8.3 C 82.8,76.8 66.5,75.8 66.5,75.8 32.2,75.5 19.4,59 19.4,59 c -2.3,-4.2 1.7,-10.3 1.2,-9.9 -3.2,2.7 -5.2,8.5 -5.3,9.2 -0.5,2.1 -0.2,5 -0.2,5 0.5,7.7 5.6,10.7 5.6,10.7 0.6,5 1.9,10.5 1.9,10.5 -1.5,0.4 -1.3,3.2 -1.3,3.2 1,5.8 3.5,6.5 3.5,6.5 0,0 2,14.2 6,22.2 0,0 5.7,5.7 14.9,7 l 4.7,0.4 c 0,0 1.8,2.8 4.6,2.7 2.8,-0.1 15.6,0.4 15.6,0.4 0,0 1.1,0.5 1.8,-1.1 0,0 -0.5,1.5 9.8,0.3 0,0 6.5,0.7 9.1,-3.6 0,0 7.1,0.6 14.9,-7.9 l 4,-19.2 c 0,0 2.9,-2.2 2.5,-10.5 -0.1,-0.9 -0.5,-1.6 -0.5,-1.6 l 0.8,-8.6 c 0,0 3.8,-1.5 4.4,-8 0.3,-2.9 0.2,-2.8 0.1,-4.6 -0.3,-6.3 -6.7,-14 -6.7,-14 z"
   id="path75"
   inkscape:connector-curvature="0"
   style="fill:none;stroke:#000000;stroke-width:2.32319999;stroke-linecap:round;stroke-miterlimit:10" />
		<path
   class="st4"
   d="m 15.9,57.4 c 0,0 1.9,5.4 4.8,7.9 5.3,4.6 20.1,11.6 43.5,12.8 0,0 16.6,0.6 32.6,-4.5 7.6,-2.4 18.6,-7.9 19.6,-14.5"
   id="path77"
   inkscape:connector-curvature="0"
   style="fill:none;stroke:#000000;stroke-width:0.7744;stroke-miterlimit:10" />
		<path
   class="st5"
   d="m 16.7,69 c 0,0 2.6,3.5 7.1,6.5 7.8,5.2 22,11.1 43.8,11.8 0,0 26.1,1.1 48.1,-15.4"
   id="path79"
   inkscape:connector-curvature="0"
   style="fill:none;stroke:#000000;stroke-width:1.54879999;stroke-miterlimit:10" />
		<path
   class="st6"
   d="m 69.6,103.7 c 0,0 -1.2,18 1.7,20.5"
   id="path81"
   inkscape:connector-curvature="0"
   style="fill:none;stroke:#000000;stroke-width:2.32319999;stroke-miterlimit:10" />
		<path
   class="st6"
   d="m 49.3,102.3 0.6,17.6 c 0,0 -0.2,3.3 2.2,5.5"
   id="path83"
   inkscape:connector-curvature="0"
   style="fill:none;stroke:#000000;stroke-width:2.32319999;stroke-miterlimit:10" />
		<circle
   class="st2"
   cx="55.400002"
   cy="81.099998"
   r="1.5"
   id="circle85"
   style="clip-rule:evenodd;fill-rule:evenodd" />
		<path
   class="st2"
   d="m 88.1,79.7 c 0,0.9 -0.7,1.5 -1.5,1.5 -0.9,0 -1.5,-0.7 -1.5,-1.5 0,-0.9 0.7,-1.5 1.5,-1.5 0.9,-0.1 1.5,0.6 1.5,1.5 z"
   id="path87"
   inkscape:connector-curvature="0"
   style="clip-rule:evenodd;fill-rule:evenodd" />
		<path
   class="st2"
   d="m 111,71 c 0,0.9 -0.6,1.5 -1.3,1.5 -0.7,0 -1.3,-0.7 -1.3,-1.5 0,-0.8 0.6,-1.5 1.3,-1.5 0.7,-0.1 1.3,0.6 1.3,1.5 z"
   id="path89"
   inkscape:connector-curvature="0"
   style="clip-rule:evenodd;fill-rule:evenodd" />
		<path
   class="st2"
   d="m 24.6,70.3 c 0,0.9 -0.6,1.5 -1.3,1.5 -0.7,0 -1.3,-0.7 -1.3,-1.5 0,-0.9 0.6,-1.5 1.3,-1.5 0.7,0 1.3,0.7 1.3,1.5 z"
   id="path91"
   inkscape:connector-curvature="0"
   style="clip-rule:evenodd;fill-rule:evenodd" />
		<g
   id="g97">
			<path
   class="st7"
   d="m 114.3,55.2 c 0,10.2 -21.6,19.7 -48.1,19.7 -26.5,0 -47.9,-9.4 -47.9,-19.7 0,-10.2 21.5,-18.5 48,-18.5 26.5,0 48,8.3 48,18.5 z"
   id="path93"
   inkscape:connector-curvature="0"
   style="fill:#2a2b02" />
			<path
   d="m 66.2,76.4 c -26.8,0 -49.4,-9.7 -49.4,-21.2 0,-11.2 21.7,-20 49.5,-20 27.8,0 49.5,8.8 49.5,20 0,11.5 -22.7,21.2 -49.6,21.2 z m 0.1,-38.2 c -27.8,0 -46.5,8.8 -46.5,17 0,8.6 19.1,18.2 46.4,18.2 26.7,0 46.6,-9.6 46.6,-18.2 0,-8.2 -18.7,-17 -46.5,-17 z"
   id="path95"
   inkscape:connector-curvature="0" />
		</g>
	</g>
</g>
<g
   id="g259"
   transform="translate(-13.837245,-27.5)">
	<defs
   id="defs104">
		<path
   id="SVGID_2_"
   d="m 108.2,46.2 c -0.4,-0.7 -1.1,-1.1 -1.4,-1.4 -0.5,-0.3 -1.1,-0.6 -1.1,-0.6 l -0.5,-0.2 -0.5,0.1 c 0,0 0,0 0,0 -3,-1.6 -6.7,-2.9 -10.8,-4 0,-0.4 -0.1,-0.8 -0.3,-1.2 -0.1,-0.2 -0.2,-0.4 -0.5,-0.6 0.3,-1.3 0.4,-2.5 0.5,-3.4 -0.1,-1.9 -0.5,-3.5 -1.2,-4.7 v -0.4 c 0,-0.9 -0.5,-1.6 -1.4,-1.9 l -1,-0.3 c -0.2,-0.1 -0.4,-0.1 -0.6,-0.1 -0.5,0 -1,0.2 -1.4,0.6 l -0.3,0.2 c -2.7,0.6 -5.3,3.4 -8,8.3 -0.4,0.1 -0.8,0.4 -1.1,0.7 C 76.3,37.1 74,36.9 71.6,36.8 71.5,36.7 71.4,36.6 71.3,36.5 68.2,33 64,31.1 59.6,31.1 c -4.4,0 -8.6,1.9 -11.7,5.4 -0.5,0.6 -1,1.2 -1.4,1.9 -4.5,0.8 -8.6,1.8 -12.3,3.1 -0.6,-0.5 -1.3,-0.6 -2.1,-0.5 -1,0.2 -1.8,0.9 -1.9,1 -0.3,0.3 -0.5,0.7 -0.5,1.1 0,0 0,0.1 0,0.1 -7.1,3.2 -11.4,7.4 -11.4,12 0,4.1 3.4,8 9.1,11.3 1.3,0.8 2.8,1.5 4.4,2.2 0,0 0.1,0 0.1,0 1.3,0.5 2.6,1.1 4,1.6 0,0 0,0 0.1,0 0.8,0.3 1.6,0.5 2.4,0.8 1.6,0.5 3.3,0.9 5,1.3 0.8,0.2 1.6,0.4 2.5,0.5 0.1,0 0.2,0 0.2,0 2.7,0.5 5.4,1 8.3,1.3 1.9,0.2 3.8,0.4 5.7,0.5 1.8,0.1 3.6,0.2 5.5,0.2 0,0 0,0 0,0 0.2,0 0.3,0 0.5,0 0.7,0 1.3,0 2,0 0.6,0 1.2,0 1.8,0 0.7,0 1.3,-0.1 2,-0.1 0.2,0 0.3,0 0.5,0 0,0 0.1,0 0.2,0 0.2,0 0.3,0 0.5,0 0.8,-0.1 1.7,-0.1 2.5,-0.2 0.3,0 0.6,-0.1 0.9,-0.1 0.7,-0.1 1.4,-0.1 2.1,-0.2 0.2,0 0.4,-0.1 0.6,-0.1 0.4,-0.1 0.8,-0.1 1.3,-0.2 0.2,0 0.4,-0.1 0.5,-0.1 0.6,-0.1 1.2,-0.2 1.7,-0.3 0.2,0 0.4,-0.1 0.6,-0.1 0.7,-0.1 1.4,-0.2 2.1,-0.4 0.3,-0.1 0.6,-0.1 0.9,-0.2 0.1,0 0.2,0 0.3,-0.1 0.1,0 0.1,0 0.2,0 0.9,-0.2 1.8,-0.4 2.6,-0.6 2,-0.5 4,-1 5.8,-1.6 0.9,-0.3 1.8,-0.6 2.7,-0.9 0.1,0 0.1,0 0.2,-0.1 2.1,-0.8 4.1,-1.6 5.8,-2.6 3.5,-1.9 6.3,-3.9 8.1,-6.2 1,-1.3 1.8,-2.6 2.1,-4 0.1,-0.6 0.2,-1.2 0.2,-1.8 0,-3.1 -2.2,-6.1 -6.1,-8.8 z"
   inkscape:connector-curvature="0" />
	</defs>
	<clipPath
   id="SVGID_3_">
		<use
   xlink:href="#SVGID_2_"
   style="overflow:visible"
   id="use106"
   x="0"
   y="0"
   width="100%"
   height="100%" />
	</clipPath>
	<g
   class="st8"
   clip-path="url(#SVGID_3_)"
   id="g257">
		<path
   class="st9"
   d="m 92.4,30.2 v -0.4 c 0,-0.9 -0.5,-1.6 -1.4,-1.9 l -1,-0.3 c -0.2,-0.1 -0.4,-0.1 -0.6,-0.1 -0.5,0 -1,0.2 -1.4,0.6 l -0.3,0.2 c -2.7,0.6 -5.3,3.4 -8,8.3 -0.6,0.2 -1.1,0.6 -1.5,1.2 C 78,38.2 77.7,39 78,40.1 l -0.2,0.5 c -2.1,4.6 -3.5,7.7 -7,12.4 -0.3,0.2 -0.6,0.4 -0.9,0.8 -0.3,0.4 -0.5,0.8 -0.5,1.2 -0.3,0.4 -0.7,0.9 -1.1,1.4 -0.7,0.8 -5.2,6.3 -3.4,10.4 l -0.1,0.3 c -0.3,0.9 0,1.8 0.8,2.3 l 1,0.6 c 0.3,0.2 0.7,0.3 1.1,0.3 0.3,0 0.6,-0.1 0.9,-0.2 l 0.9,-0.4 c 0.1,0 0.1,0 0.2,0 4.1,0 9.4,-3.9 12.8,-7.8 2,-2.3 3.9,-5.4 5.7,-9.2 0.5,-0.3 0.8,-0.8 1,-1.3 0.2,-0.5 0.2,-1 0.2,-1.4 2.3,-5.5 4,-11.5 4.2,-15.1 C 93.5,33 93.1,31.4 92.4,30.2 Z M 69.5,67.8 v 0 c 0.1,0 0.3,0 0.4,0 -0.1,0 -0.2,0 -0.4,0 z M 81,38.3 v 0 z"
   id="path109"
   inkscape:connector-curvature="0"
   style="fill:#474a03" />
		
			<radialGradient
   id="SVGID_4_"
   cx="80.403"
   cy="89.5951"
   r="24.943899"
   gradientTransform="matrix(1,0,0,-1,0,138.55)"
   gradientUnits="userSpaceOnUse">
			<stop
   offset="0"
   style="stop-color:#4D470F"
   id="stop111" />
			<stop
   offset="0.1334"
   style="stop-color:#514C0F"
   id="stop113" />
			<stop
   offset="0.2815"
   style="stop-color:#5E5911"
   id="stop115" />
			<stop
   offset="0.4366"
   style="stop-color:#746F13"
   id="stop117" />
			<stop
   offset="0.5965"
   style="stop-color:#928E16"
   id="stop119" />
			<stop
   offset="0.7603"
   style="stop-color:#B9B61A"
   id="stop121" />
			<stop
   offset="0.9248"
   style="stop-color:#E7E61F"
   id="stop123" />
			<stop
   offset="1"
   style="stop-color:#FFFF22"
   id="stop125" />
		</radialGradient>
		<path
   class="st10"
   d="m 90.4,30.9 v 0 -1.1 l -1,-0.3 -0.7,0.7 v 0 c -1.9,0.1 -4.6,2.3 -7.6,8.2 v 0 c 0,0 -1.9,-0.1 -0.9,1.9 -2.6,5.6 -4,8.9 -8.1,14.5 0,0 -0.9,0.1 -0.8,1 -0.5,0.6 -1,1.3 -1.5,1.9 0,0 -5.1,5.8 -2.8,9 l -0.4,1.2 1,0.6 1.3,-0.6 c 0,0 0,0 0,-0.1 3.2,0.6 8.4,-3 11.9,-7.1 2.1,-2.4 4.1,-5.8 5.7,-9.4 v 0 c 1.1,-0.4 0.6,-1.4 0.6,-1.4 v 0 c 2.5,-5.7 4.1,-11.7 4.3,-15.1 0.1,-1.7 -0.3,-3.1 -1,-3.9 z"
   id="path128"
   inkscape:connector-curvature="0"
   style="fill:url(#SVGID_4_)" />
		<path
   class="st9"
   d="m 70.4,66.5 c 0,0 14.9,-17 19.4,-32.5 0,0 -2.3,16.3 -19.4,32.5 z"
   id="path130"
   inkscape:connector-curvature="0"
   style="fill:#474a03" />
		<path
   class="st9"
   d="m 89.8,31.6 c 0,0 -9.6,19.3 -21,35 z"
   id="path132"
   inkscape:connector-curvature="0"
   style="fill:#474a03" />
		<path
   class="st9"
   d="m 86.8,32.1 c 0,0 -3.6,4 -10.5,17.3 0,0 -3.8,5.8 -6.8,9.7 -1.9,2.6 -2.4,5.8 -2.4,5.8 0,0 1.7,-3.7 5.5,-8.7 3.8,-5 11.2,-18.8 11.2,-18.8 z"
   id="path134"
   inkscape:connector-curvature="0"
   style="fill:#474a03" />
		<path
   class="st9"
   d="m 72.7,66.2 c 0,0 11.1,-10.7 15.9,-23.4 0,0 -3.1,13.6 -15.9,23.4 z"
   id="path136"
   inkscape:connector-curvature="0"
   style="fill:#474a03" />
		<path
   class="st9"
   d="m 46.9,47 c -3.4,-2.9 -6.6,-2.7 -8.2,-2.3 h -0.1 v 0 0 0 c -1.3,0.3 -2.7,1.2 -3,1.4 -0.2,0.1 -0.4,0.2 -0.6,0.3 -0.5,-2 -0.2,-3.1 -0.2,-3.2 C 35,42.7 34.9,42 34.4,41.6 33.8,41 33,40.8 32.1,41 c -1,0.2 -1.8,0.9 -1.9,1 -0.3,0.3 -0.5,0.7 -0.5,1.1 0,1.1 0.1,2.4 0.5,3.6 -0.2,0 -0.4,0.1 -0.5,0.1 -0.3,0.1 -0.5,0.1 -0.6,0.2 -0.2,0 -0.4,0.1 -0.5,0.1 -1.8,0.4 -3.3,1.3 -4.4,2.6 -0.8,0.9 -1.5,1.9 -2,3.2 -0.3,0.8 -0.6,1.6 -0.7,2.4 -0.4,2.3 -0.1,4.5 1,6.5 0.9,1.6 2.2,3 3.6,3.8 0.1,0.1 0.3,0.2 0.4,0.3 2.3,1.4 3.8,3.4 3.9,3.4 0.1,0.1 0.1,0.2 0.2,0.2 0.1,0.1 0.2,0.1 0.2,0.2 0.5,0.5 1,0.8 1.6,1.1 2,1.1 3.6,1 4.7,0.8 0.5,-0.1 0.9,-0.3 1.3,-0.5 0.6,-0.3 1.2,-0.8 1.7,-1.4 0.2,0.1 0.5,0.1 0.7,0.2 0.7,0.1 1.4,0.1 2.1,-0.1 1,-0.2 1.9,-0.8 2.7,-1.6 0.2,-0.2 0.4,-0.4 0.5,-0.6 0.4,-0.5 0.7,-1.1 1,-1.8 0.3,-0.8 0.5,-1.6 0.5,-2.2 0.2,-0.9 0.4,-1.8 1.2,-2.7 0.4,-0.5 0.7,-1 0.9,-1.5 v 0 c 0.8,-1.8 1,-3.5 1,-4.1 0,-0.8 0.2,-4.9 -3.8,-8.3 z m 1.3,11.8 v 0 z"
   id="path138"
   inkscape:connector-curvature="0"
   style="fill:#474a03" />
		
			<radialGradient
   id="SVGID_5_"
   cx="-265.78589"
   cy="-94.267601"
   r="12.3967"
   gradientTransform="matrix(0.9722,-0.2344,-0.2344,-0.9722,273.1262,-103.063)"
   gradientUnits="userSpaceOnUse">
			<stop
   offset="0"
   style="stop-color:#FFFF22"
   id="stop140" />
			<stop
   offset="1"
   style="stop-color:#4D470F"
   id="stop142" />
		</radialGradient>
		<path
   class="st11"
   d="m 34,49.9 c -0.9,-1.3 -2.7,-1.7 -3.8,-1.5 -1.2,0.2 -4.8,0.6 -6.6,5.1 -1.9,4.6 0.5,7.8 0.5,7.8 0,0 1.3,2.5 3.6,3.6 2.9,1.3 3.3,3.8 5.4,4.7 0.8,0.3 4.4,2.1 6.4,-1.7 0,0 2.8,1.9 5.4,-1.2 1.5,-1.8 0.7,-4.1 2.7,-6.6 1.6,-2.1 1.6,-4.8 1.6,-4.8 0,0 0.6,-3.9 -3.1,-7.2 -3.7,-3.2 -7.2,-2.1 -8.2,-1.5 -1,0.6 -3,1.7 -3.2,3.2 z"
   id="path145"
   inkscape:connector-curvature="0"
   style="fill:url(#SVGID_5_)" />
		
			<linearGradient
   id="SVGID_6_"
   gradientUnits="userSpaceOnUse"
   x1="-286.37769"
   y1="-121.5852"
   x2="-270.54861"
   y2="-102.7301"
   gradientTransform="matrix(0.9722,-0.2344,-0.2344,-0.9722,273.1262,-103.063)">
			<stop
   offset="0"
   style="stop-color:#E0C945"
   id="stop147" />
			<stop
   offset="0.7637"
   style="stop-color:#2B2910"
   id="stop149" />
		</linearGradient>
		<path
   class="st12"
   d="m 25.2,50.8 c 0,0 -4.3,9 2.8,11.9 5,2.1 3.5,2.1 4.3,2.9 0.8,0.8 3.9,6.3 7.1,2 0,0 4.4,1.5 6,-3.2 0,0 0.8,-4.5 2.8,-5.6 0,0 -2.3,3.1 -2.2,4.7 0.1,1.6 -2.1,6.6 -6.5,4.4 0,0 -0.6,1.2 -1.8,1.9 -1.3,0.8 -3.6,0.9 -6.1,-1.3 0,0 -1.8,-2.4 -4.7,-4.1 -2.9,-1.6 -6.7,-7 -1.7,-13.6 z"
   id="path152"
   inkscape:connector-curvature="0"
   style="fill:url(#SVGID_6_)" />
		<path
   class="st13"
   d="m 29.5,48.5 c 0,0 1.8,-0.9 3.3,0.4 0.8,0.7 1.4,0.8 1.4,0.8 0,0 -0.4,-1.1 2.1,-2.5 0,0 1.4,-0.9 2.7,-1.2 0,0 -2.3,1.4 -2.4,2.1 0,0 1.1,-0.5 2,-0.5 0,0 -1.9,0.9 -2.3,1.7 0,0 2,-0.4 2.9,0.1 0,0 -1.7,-0.1 -2.9,0.7 0,0 1,-0.1 2,0.5 0,0 -1.9,0.4 -3,1.3 0,0 -1.1,1.1 -2.9,1 0,0 -0.7,0 -1.6,0.8 0,0 0.4,-0.8 1,-1.2 C 32.5,52.1 33,52 33,52 c 0,0 -2,-0.9 -3.2,0.1 0,0 0.9,-1.4 2.6,-1.3 0,0 -1.4,-1 -2.9,-0.4 0,0 1.1,-1 2.2,-0.7 0.1,0.1 -0.4,-1.4 -2.2,-1.2 z"
   id="path154"
   inkscape:connector-curvature="0"
   style="fill:#22240f" />
		<path
   class="st13"
   d="m 34.4,51.4 c 0,0 -3.4,-4.2 -3.2,-8.2 0,0 1.5,-1.3 2.2,-0.5 0,0 -1,2.7 1.7,8.3 0,0 0.3,0.7 -0.7,0.4 z"
   id="path156"
   inkscape:connector-curvature="0"
   style="fill:#22240f" />
		
			<radialGradient
   id="SVGID_7_"
   cx="59.599998"
   cy="89.050003"
   r="17.5231"
   gradientTransform="matrix(1,0,0,-1,0,138.55)"
   gradientUnits="userSpaceOnUse">
			<stop
   offset="0"
   style="stop-color:#FFFF22"
   id="stop158" />
			<stop
   offset="1"
   style="stop-color:#4D470F"
   id="stop160" />
		</radialGradient>
		<path
   class="st14"
   d="M 71.3,36.5 C 68.2,33 64,31.1 59.6,31.1 55.2,31.1 51,33 47.9,36.5 44.8,40 43,44.6 43,49.5 c 0,4.9 1.7,9.5 4.9,13 3.1,3.5 7.3,5.4 11.7,5.4 4.4,0 8.6,-1.9 11.7,-5.4 3.1,-3.5 4.9,-8.1 4.9,-13 0,-4.9 -1.7,-9.5 -4.9,-13 z"
   id="path163"
   inkscape:connector-curvature="0"
   style="fill:url(#SVGID_7_)" />
		
			<radialGradient
   id="SVGID_8_"
   cx="16.841299"
   cy="298.5361"
   r="12.6673"
   gradientTransform="matrix(1.1408,0,0,-1.2638,44.7393,417.3658)"
   gradientUnits="userSpaceOnUse">
			<stop
   offset="0"
   style="stop-color:#FFFF22"
   id="stop165" />
			<stop
   offset="1"
   style="stop-color:#4D470F"
   id="stop167" />
		</radialGradient>
		<path
   class="st15"
   d="m 74.1,49.5 c 0,8.8 -6.5,16 -14.5,16 -8,0 -14.5,-7.2 -14.5,-16 0,-8.8 6.5,-16 14.5,-16 8,0 14.5,7.2 14.5,16 z"
   id="path170"
   inkscape:connector-curvature="0"
   style="fill:url(#SVGID_8_)" />
		
			<linearGradient
   id="SVGID_9_"
   gradientUnits="userSpaceOnUse"
   x1="56.216999"
   y1="83.9478"
   x2="38.138302"
   y2="57.338501"
   gradientTransform="matrix(1,0,0,-1,0,138.55)">
			<stop
   offset="7.322900e-02"
   style="stop-color:#2B2910"
   id="stop172" />
			<stop
   offset="1"
   style="stop-color:#E0C945"
   id="stop174" />
		</linearGradient>
		<path
   class="st16"
   d="m 72.3,57.2 c 0,0 -4.6,2.9 -9.2,3.2 -8.1,0.5 -16.7,-5.1 -16.3,-14 0.3,-5.4 0,-4.3 0,-4.3 0,0 -2.7,4.7 -1.4,10.2 1.3,5.5 4.8,11.3 11.6,12.8 11.6,2.6 14.8,-8.2 15.3,-7.9 z"
   id="path177"
   inkscape:connector-curvature="0"
   style="fill:url(#SVGID_9_)" />
		<path
   class="st17"
   d="m 71.6,40.1 c 0.8,0.8 -1.4,2.6 -4.5,2.9 0.2,0.9 0.5,2.2 -0.2,3.5 -1.1,2.3 -2.5,2.7 -4,3.2 -0.2,0.1 -0.4,0.1 -0.6,0.2 0,0.1 0,0.1 0.1,0.2 0.1,0.3 0.3,0.7 0.4,1.2 0.2,0.8 0,1.6 -0.5,2.3 -0.9,1.4 -2.9,2.1 -4.4,2.4 -0.6,0.1 -1.1,0.2 -1.1,2.8 v 0.3 c 0,3.1 -0.4,3.7 -3.2,5.2 -0.2,0.1 -2.9,-1.4 -2.2,-1.8 0.5,-0.3 2.2,-1.6 2.3,-1.8 0.1,-0.2 0.1,-0.9 0.1,-1.6 v -0.3 c 0,-1.8 0,-5.2 3.6,-5.8 1.4,-0.2 2.3,-0.9 2.4,-1.1 -0.1,-0.2 -0.2,-0.5 -0.3,-0.7 -0.2,-0.6 -0.5,-1.3 -0.3,-2 0.2,-0.9 0.9,-1.6 2,-2 0.3,-0.1 0.5,-0.2 0.7,-0.2 1.3,-0.4 1.7,-0.6 2.3,-1.7 0.2,-0.4 0,-1 -0.1,-1.6 -0.2,-0.8 -0.5,-1.8 0.2,-2.7 0.7,-0.9 1.9,-0.8 2.2,-0.8 1.5,0 2.8,-2 2.8,-2 0.2,-0.2 1.6,1.2 2.3,1.9 z"
   id="path179"
   inkscape:connector-curvature="0"
   style="opacity:0.7;enable-background:new" />
		<path
   class="st17"
   d="m 61.6,33.7 c -0.5,0.6 -1.3,1.3 -2.2,1.2 -0.4,0 -1.5,0 -2.2,0.8 -0.7,0.9 -0.4,1.9 -0.2,2.7 0.1,0.6 0.3,1.2 0.1,1.6 -0.6,1.2 -0.9,1.3 -2.3,1.7 -0.2,0.1 -0.5,0.2 -0.7,0.2 -1.2,0.4 -1.8,1.1 -2,2 -0.2,0.8 0.1,1.4 0.3,2 0.1,0.2 0.2,0.5 0.3,0.7 -0.1,0.3 -1.1,0.9 -2.4,1.1 -3.6,0.6 -3.6,4 -3.6,5.8 v 0.3 c 0,0.7 0,1.5 -0.1,1.6 0,0.1 0.4,1.2 0.3,1.3 0.1,0.2 0.6,1.1 1.1,1.8 1.4,-0.9 1.8,-2.3 1.8,-4.7 v -0.3 c 0,-2.7 0.4,-2.7 1.1,-2.8 1.5,-0.2 3.5,-1 4.4,-2.4 0.5,-0.7 0.6,-1.5 0.5,-2.3 -0.1,-0.4 -0.2,-0.8 -0.4,-1.2 0,-0.1 0,-0.1 -0.1,-0.2 0.2,-0.1 0.4,-0.2 0.6,-0.2 1.5,-0.5 2.9,-1 4,-3.2 0.6,-1.3 0.4,-2.6 0.2,-3.5 3,-0.3 4.9,-3.5 4.9,-3.5 l -1.6,-0.6 c -0.2,0.2 -1.7,-0.1 -1.8,0.1 z"
   id="path181"
   inkscape:connector-curvature="0"
   style="opacity:0.7;enable-background:new" />
		<path
   class="st17"
   d="m 74.4,50 c 0.1,0 0.2,0 0.2,0 0,-0.3 -0.1,-0.6 -0.1,-0.8 0,-0.2 0,-0.4 0,-0.6 -0.1,-0.5 -0.2,-1.1 -0.3,-1.6 -0.1,0 -0.2,0 -0.3,0 -0.4,0 -1.5,0 -2.2,0.8 -0.7,0.9 -0.4,1.9 -0.2,2.7 0.1,0.6 0.3,1.2 0.1,1.6 -0.6,1.2 -0.9,1.3 -2.3,1.7 -0.2,0.1 -0.5,0.2 -0.7,0.2 -1.2,0.4 -1.8,1.1 -2,2 -0.2,0.8 0.1,1.4 0.3,2 0.1,0.2 0.2,0.5 0.3,0.7 C 67,59.2 66,59.8 64.6,60 61,60.6 61,64 61,65.8 v 0.1 c 0.1,0 0.3,0.1 0.4,0.1 0.1,0 0.1,0 0.2,0 0.2,-0.1 0.4,-0.1 0.6,-0.2 0.6,-0.2 1.2,-0.3 1.8,-0.4 0,-2.3 0.5,-2.4 1.1,-2.5 1.5,-0.2 3.5,-1 4.4,-2.4 C 70,59.8 70.1,59 70,58.2 69.9,57.8 69.8,57.4 69.6,57 c 0,-0.1 0,-0.1 -0.1,-0.2 0.2,-0.1 0.4,-0.2 0.6,-0.2 1.5,-0.5 2.9,-1 4,-3.2 0.8,-1.2 0.5,-2.5 0.3,-3.4 z"
   id="path183"
   inkscape:connector-curvature="0"
   style="opacity:0.7;enable-background:new" />
		<path
   class="st9"
   d="m 94.1,41 c 0,-0.3 -0.1,-0.5 -0.2,-0.8 0,-0.5 -0.1,-0.9 -0.3,-1.3 -0.2,-0.4 -0.9,-1.1 -2.1,-1.1 H 91.4 C 91,37 88.8,37 88.6,37 c -1.1,0.3 -2.5,0.4 -2.9,2.4 -0.4,0.8 -1.6,3.3 -3.2,5.9 -2.5,3.9 -4.9,6.6 -6.9,7.5 -2,0.9 -3.9,2.5 -5.5,4.5 -1.6,2.1 -2.7,4.5 -3.2,6.9 -0.4,2 -0.3,3.9 0.2,5.7 0.6,2 1.7,3.8 3.3,5.4 1.1,1.1 2.4,1.9 3.7,2.5 1.2,0.5 2.6,0.8 3.9,0.8 1.5,0 3.1,-0.3 4.7,-1 1.4,-0.6 2.7,-1.4 3.9,-2.3 1.1,-0.9 2.1,-2 2.9,-3.1 0.8,-1.2 1.3,-2.4 1.4,-3.5 0.6,-4.7 -0.3,-7.4 -1.1,-9.9 -0.6,-2 -1.2,-3.7 -1.1,-6.4 0.1,-3.1 0.4,-4.9 1,-6.1 0.6,-1.1 1.5,-1.9 3.2,-3.2 1.2,-0.7 1.3,-1.6 1.2,-2.1 z m -5,-2.9 v 0 0 0 z"
   id="path185"
   inkscape:connector-curvature="0"
   style="fill:#474a03" />
		
			<radialGradient
   id="SVGID_10_"
   cx="53.8535"
   cy="1305.5135"
   r="20.804701"
   gradientTransform="matrix(-0.4376,0.8992,0.7201,0.3505,-828.1317,-463.2394)"
   gradientUnits="userSpaceOnUse">
			<stop
   offset="0"
   style="stop-color:#FFFF22"
   id="stop187" />
			<stop
   offset="1"
   style="stop-color:#4D470F"
   id="stop189" />
		</radialGradient>
		<path
   class="st18"
   d="m 87.6,40.1 c 0,0 -5.3,12 -11.2,14.6 -5.8,2.6 -11.5,12.6 -4.6,19.4 6.9,6.8 16.8,-1 17.4,-5.5 0.9,-7.8 -2.5,-9.4 -2.2,-16.1 0.2,-6.7 1.4,-8.1 5,-10.8 0.7,-0.5 0.2,-0.9 0,-1.2 -0.6,-0.9 -1.6,-0.4 -1.6,-0.4 0,0 -0.9,-1.2 -1.2,-1.1 -0.5,0.1 -1.4,-0.5 -1.6,1.1 z"
   id="path192"
   inkscape:connector-curvature="0"
   style="fill:url(#SVGID_10_)" />
		
			<linearGradient
   id="SVGID_11_"
   gradientUnits="userSpaceOnUse"
   x1="67.520401"
   y1="55.059502"
   x2="79.111298"
   y2="72.3899"
   gradientTransform="matrix(1,0,0,-1,0,138.55)">
			<stop
   offset="0"
   style="stop-color:#E0C945"
   id="stop194" />
			<stop
   offset="0.9268"
   style="stop-color:#2B2910"
   id="stop196" />
		</linearGradient>
		<path
   class="st19"
   d="m 69.9,61.4 c 0,0 0.6,4.3 3.5,6.5 3.2,2.4 11.2,3.8 15.9,-1.9 0,0 1.1,5.7 -5.8,9.3 -7.8,4 -13.2,-0.8 -14.2,-4.4 -0.8,-3 -1.3,-5.5 0.6,-9.5 z"
   id="path199"
   inkscape:connector-curvature="0"
   style="fill:url(#SVGID_11_)" />
		<path
   class="st13"
   d="m 75.6,74.7 c 0.2,-2.9 -0.4,-11.8 5.8,-21.9 0,0 -6.1,12.7 -4.7,23.8 l -1,-0.2 z"
   id="path201"
   inkscape:connector-curvature="0"
   style="fill:#22240f" />
		<path
   class="st13"
   d="m 70.2,72.9 c 0,0 -1.7,-9.6 5.8,-16.6 C 79.3,53.2 83,50 84.8,45.7 84.6,46.6 81,52.3 75.1,57.9 72,60.8 69.4,70 70.7,73.4 Z"
   id="path203"
   inkscape:connector-curvature="0"
   style="fill:#22240f" />
		<path
   class="st13"
   d="m 72.6,75.2 c 0,0 0.6,-11.6 3.3,-15.4 0,0 -2.7,6.5 -2.8,15.8 z"
   id="path205"
   inkscape:connector-curvature="0"
   style="fill:#22240f" />
		<path
   class="st13"
   d="m 78.5,76.6 c 0,2.4 0,-13.8 3.3,-21.1 0,0 -2.7,7.6 -2.6,21.1 z"
   id="path207"
   inkscape:connector-curvature="0"
   style="fill:#22240f" />
		<path
   class="st13"
   d="m 81.8,76.2 c 0,0 3.1,-5.9 2.5,-19.7 0,0 0,-7.1 2.1,-10 0,0 -2.3,4 -1.8,11.2 0,0 1.1,9.8 -2,18 z"
   id="path209"
   inkscape:connector-curvature="0"
   style="fill:#22240f" />
		<path
   class="st13"
   d="m 85.6,56 c 0.5,2.7 2.4,8.4 1,14.3 -0.6,2.5 -2.3,4.5 -2.3,4.5 l 1.8,-1.4 c 0,0 2.9,-5.8 0.8,-13.6 -0.7,-2.3 -1.1,-4.1 -1.1,-5.7 0,-2.2 0.5,-3.7 0.6,-5 0,0 -1.2,4.2 -0.8,6.9 z"
   id="path211"
   inkscape:connector-curvature="0"
   style="fill:#22240f" />
		<path
   class="st13"
   d="m 83.7,49.9 c 0,0 -1.1,6.2 -1.3,10.3 -0.3,4 -0.9,8.4 -2.4,16.3 l 0.5,-0.1 c 0,0 1.3,-5.5 1.9,-13 0,0.1 0.8,-9.6 1.3,-13.5 z"
   id="path213"
   inkscape:connector-curvature="0"
   style="fill:#22240f" />
		<path
   class="st13"
   d="m 84.8,47.1 c -0.7,1 -2.8,3.9 -3.6,7.9 0,0 0.4,-2.8 3.6,-7.5 1,-1.5 2.7,-3.5 2.7,-3.6 -0.1,-0.1 -2,2.2 -2.7,3.2 z"
   id="path215"
   inkscape:connector-curvature="0"
   style="fill:#22240f" />
		<path
   class="st9"
   d="M 66.9,55.8 C 64.2,53 60.5,51.5 56.6,51.5 c -3.9,0 -7.5,1.5 -10.3,4.3 -2.7,2.8 -4.3,6.4 -4.3,10.3 0,3.9 1.5,7.5 4.3,10.3 2.7,2.7 6.4,4.3 10.3,4.3 3.9,0 7.5,-1.5 10.3,-4.3 2.8,-2.8 4.3,-6.4 4.3,-10.3 0,-3.9 -1.6,-7.6 -4.3,-10.3 z"
   id="path217"
   inkscape:connector-curvature="0"
   style="fill:#474a03" />
		
			<radialGradient
   id="SVGID_12_"
   cx="60.4142"
   cy="79.939301"
   r="12.6674"
   gradientTransform="matrix(1,0,0,-1,0,138.55)"
   gradientUnits="userSpaceOnUse">
			<stop
   offset="0"
   style="stop-color:#FFFF22"
   id="stop219" />
			<stop
   offset="1"
   style="stop-color:#4D470F"
   id="stop221" />
		</radialGradient>
		<path
   class="st20"
   d="m 69.3,66.1 c 0,7 -5.7,12.7 -12.7,12.7 -7,0 -12.7,-5.7 -12.7,-12.7 0,-7 5.7,-12.7 12.7,-12.7 7,0 12.7,5.7 12.7,12.7 z"
   id="path224"
   inkscape:connector-curvature="0"
   style="fill:url(#SVGID_12_)" />
		<path
   class="st21"
   d="m 60.2,55.5 c 0,0 -1.4,-0.1 -1,0.7 0.3,0.8 0.3,0.6 0.3,0.6 0,0 -0.2,0.8 -0.1,1.1 0.1,0.3 1,1 1.3,0.7 0.3,-0.3 0.7,0.6 1.1,0.3 0.4,-0.3 -0.3,-0.7 0.3,-1.1 0.5,-0.4 1,-0.2 0.7,-1 C 62.5,56 62.2,56 62.2,56 c 0,0 0.3,-1.2 -0.8,-1 -0.7,0.3 -0.8,0.5 -1.2,0.5 z"
   id="path226"
   inkscape:connector-curvature="0"
   style="fill:#8d8d8d" />
		<path
   class="st22"
   d="m 62.3,56.9 c 0,0.7 -0.6,1.3 -1.3,1.3 -0.7,0 -1.3,-0.6 -1.3,-1.3 0,-0.7 0.6,-1.3 1.3,-1.3 0.7,-0.1 1.3,0.5 1.3,1.3 z"
   id="path228"
   inkscape:connector-curvature="0"
   style="fill:#bfba52" />
		
			<linearGradient
   id="SVGID_13_"
   gradientUnits="userSpaceOnUse"
   x1="53.995499"
   y1="68.630096"
   x2="36.171101"
   y2="42.3951"
   gradientTransform="matrix(1,0,0,-1,0,138.55)">
			<stop
   offset="4.546300e-02"
   style="stop-color:#2B2910"
   id="stop230" />
			<stop
   offset="1"
   style="stop-color:#E0C945"
   id="stop232" />
		</linearGradient>
		<path
   class="st23"
   d="m 67.7,72.2 c 0,0 -4,2.3 -8.1,2.6 -7.1,0.4 -14.6,-4 -14.3,-11.1 0.2,-4.3 0,-3.4 0,-3.4 0,0 -2.4,3.7 -1.2,8 1.1,4.3 4.2,9 10.2,10.2 10.2,2 13,-6.6 13.4,-6.3 z"
   id="path235"
   inkscape:connector-curvature="0"
   style="fill:url(#SVGID_13_)" />
		<path
   class="st9"
   d="m 107.9,50 c -0.4,-0.2 -0.8,-0.5 -1.2,-0.6 0.1,0 0.1,-0.1 0.1,-0.1 1,-0.3 1.6,-1 1.7,-1.9 0.1,-1.4 -1.2,-2.2 -1.7,-2.6 -0.5,-0.3 -1.1,-0.6 -1.1,-0.6 l -0.5,-0.2 -0.5,0.1 c -0.8,0.1 -2.1,0.6 -3.2,1.7 -0.2,-0.3 -0.5,-0.5 -0.9,-0.8 -0.8,-0.6 -1.9,-0.8 -3.4,-0.8 -0.3,0 -0.6,0 -1,0 -1.1,-0.3 -2.2,-0.4 -3.2,-0.4 -2.3,0 -4.3,0.7 -5.9,2 -2,1.6 -3.3,4.1 -4.1,7.4 -1.3,5.3 0.6,9.1 2.3,11.3 2.2,2.7 5.4,4.5 7.5,4.9 0.3,0.3 0.8,0.6 1.5,0.9 1.6,0.8 3.5,1.3 5.5,1.3 1.8,0 3.8,-0.4 5.8,-1.1 2.4,-0.8 4.6,-2.6 6.2,-4.9 1.6,-2.3 2.4,-4.9 2.4,-7.4 -0.1,-3.9 -2.4,-6.9 -6.3,-8.2 z m -15,-4.5 c 0.1,0 0.1,0 0.2,0 v 0 c -0.1,0 -0.2,0 -0.2,0 z m 4.3,0.4 v 0 0 c 0.1,0 0.1,0 0,0 z m 2.5,24 v 0 c 0,0 0.1,0 0,0 0.1,0 0,0 0,0 z m 4.6,-20.1 v 0 z"
   id="path237"
   inkscape:connector-curvature="0"
   style="fill:#474a03" />
		
			<radialGradient
   id="SVGID_14_"
   cx="102.6221"
   cy="87.273598"
   r="13.1404"
   gradientTransform="matrix(1,0,0,-1,0,138.55)"
   gradientUnits="userSpaceOnUse">
			<stop
   offset="0"
   style="stop-color:#FFFF22"
   id="stop239" />
			<stop
   offset="1"
   style="stop-color:#4D470F"
   id="stop241" />
		</radialGradient>
		<path
   class="st24"
   d="M 98.5,47 C 96,45.5 87.3,42.7 84.7,53.6 c -2.3,9.6 6.5,14.1 8.8,14.1 0,0 3.7,3.9 11.5,1.1 7.8,-2.8 12.1,-16.8 -0.9,-17.9 l -2,-1.4 c 0,0.1 -1.1,-1 -3.6,-2.5 z"
   id="path244"
   inkscape:connector-curvature="0"
   style="fill:url(#SVGID_14_)" />
		<path
   class="st13"
   d="m 94.9,48.4 c 0,0 -6.3,-1.7 1.2,-2.4 5.1,-0.5 3.9,2.1 5.5,2.6 l 2.4,1.6 c 0,0 4.3,1 6,4.6 0,0 -1.1,0 -4,0 -2.9,0 0.2,3.7 -2.3,3.7 -2.4,0 -3,-3.2 -3,-3.2 0,0 -3.2,4 -4.8,3.2 -1.7,-0.8 0.9,-2.9 0,-4.7 -0.9,-1.8 -5.2,-1.9 -5.2,-1.9 0,0 0.1,0 4.2,-3.5 z"
   id="path246"
   inkscape:connector-curvature="0"
   style="fill:#22240f" />
		<path
   class="st13"
   d="m 105,45.8 c 0,0 -2.9,0.5 -3.7,3.7 -0.8,3.2 2.3,1.5 2.3,1.5 0,0 1.2,-2.9 2.8,-3.4 1.5,-0.4 -1.4,-1.8 -1.4,-1.8 z"
   id="path248"
   inkscape:connector-curvature="0"
   style="fill:#22240f" />
		
			<linearGradient
   id="SVGID_15_"
   gradientUnits="userSpaceOnUse"
   x1="76.7612"
   y1="56.261299"
   x2="93.051003"
   y2="75.447098"
   gradientTransform="matrix(1,0,0,-1,0,138.55)">
			<stop
   offset="0"
   style="stop-color:#E0C945"
   id="stop250" />
			<stop
   offset="1"
   style="stop-color:#2B2910"
   id="stop252" />
		</linearGradient>
		<path
   class="st25"
   d="m 86.5,49 c 0,0 -4.9,12.2 8.4,17.4 0,0 4,1.7 8.2,0.9 4.3,-0.9 6.1,-1.4 6.1,-1.4 0,0 -1.1,1.4 -3.4,2.6 -3.1,1.6 -8.1,2.6 -12.3,-0.8 0,0 -15.2,-3.2 -7,-18.7 z"
   id="path255"
   inkscape:connector-curvature="0"
   style="fill:url(#SVGID_15_)" />
	</g>
</g>
</svg>