<?xml version="1.0" encoding="UTF-8" standalone="no"?>
<!-- Generator: Adobe Illustrator 23.0.3, SVG Export Plug-In . SVG Version: 6.00 Build 0)  -->

<svg
   xmlns:dc="http://purl.org/dc/elements/1.1/"
   xmlns:cc="http://creativecommons.org/ns#"
   xmlns:rdf="http://www.w3.org/1999/02/22-rdf-syntax-ns#"
   xmlns:svg="http://www.w3.org/2000/svg"
   xmlns="http://www.w3.org/2000/svg"
   xmlns:xlink="http://www.w3.org/1999/xlink"
   xmlns:sodipodi="http://sodipodi.sourceforge.net/DTD/sodipodi-0.dtd"
   xmlns:inkscape="http://www.inkscape.org/namespaces/inkscape"
   version="1.1"
   id="Layer_1"
   x="0px"
   y="0px"
   viewBox="0 0 104.92035 100.63189"
   xml:space="preserve"
   sodipodi:docname="basket_silver.svg"
   width="104.92036"
   height="100.63189"
   inkscape:version="0.92.4 (33fec40, 2019-01-16)"><metadata
   id="metadata259"><rdf:RDF><cc:Work
       rdf:about=""><dc:format>image/svg+xml</dc:format><dc:type
         rdf:resource="http://purl.org/dc/dcmitype/StillImage" /></cc:Work></rdf:RDF></metadata><defs
   id="defs257" /><sodipodi:namedview
   pagecolor="#ffffff"
   bordercolor="#666666"
   borderopacity="1"
   objecttolerance="10"
   gridtolerance="10"
   guidetolerance="10"
   inkscape:pageopacity="0"
   inkscape:pageshadow="2"
   inkscape:window-width="1920"
   inkscape:window-height="1056"
   id="namedview255"
   showgrid="false"
   inkscape:zoom="1.7289377"
   inkscape:cx="52.862756"
   inkscape:cy="60.081889"
   inkscape:window-x="0"
   inkscape:window-y="24"
   inkscape:window-maximized="1"
   inkscape:current-layer="Layer_1" />
<style
   type="text/css"
   id="style2">
	.st0{fill-rule:evenodd;clip-rule:evenodd;fill:url(#SVGID_1_);}
	.st1{fill-rule:evenodd;clip-rule:evenodd;fill:#202020;}
	.st2{fill-rule:evenodd;clip-rule:evenodd;}
	.st3{fill:none;stroke:#000000;stroke-width:2.3232;stroke-linecap:round;stroke-miterlimit:10;}
	.st4{fill:none;stroke:#000000;stroke-width:0.7744;stroke-miterlimit:10;}
	.st5{fill:none;stroke:#000000;stroke-width:1.5488;stroke-miterlimit:10;}
	.st6{fill:none;stroke:#000000;stroke-width:2.3232;stroke-miterlimit:10;}
	.st7{fill:#202020;stroke:#000000;stroke-width:3.0977;stroke-miterlimit:10;}
	.st8{clip-path:url(#SVGID_3_);}
	.st9{fill:#191919;}
	.st10{fill:url(#SVGID_4_);}
	.st11{fill:url(#SVGID_5_);}
	.st12{fill:#181818;}
	.st13{fill:#1A1A1A;}
	.st14{fill:#1C1C1C;}
	.st15{fill:url(#SVGID_6_);}
	.st16{fill:#1F1F1F;}
	.st17{fill:url(#SVGID_7_);}
	.st18{fill:url(#SVGID_8_);}
	.st19{opacity:0.7;enable-background:new    ;}
	.st20{fill:#2B2B2B;}
	.st21{fill:url(#SVGID_9_);}
	.st22{fill:url(#SVGID_10_);}
	.st23{fill:#1E1E1E;}
	.st24{fill:url(#SVGID_11_);}
	.st25{fill:#8D8D8D;}
	.st26{fill:#B0B0B0;}
	.st27{fill:url(#SVGID_12_);}
	.st28{fill:#434343;}
	.st29{fill:url(#SVGID_13_);}
	.st30{fill:url(#SVGID_14_);}
</style>
<g
   id="g83"
   transform="translate(-14.037245,-27.7)">
	
		<linearGradient
   id="SVGID_1_"
   gradientUnits="userSpaceOnUse"
   x1="52.160301"
   y1="-10.1326"
   x2="69.300903"
   y2="91.314201"
   gradientTransform="matrix(1,0,0,-1,0,138.55)">
		<stop
   offset="0"
   style="stop-color:#141414"
   id="stop4" />
		<stop
   offset="8.496820e-02"
   style="stop-color:#181818"
   id="stop6" />
		<stop
   offset="0.1787"
   style="stop-color:#252525"
   id="stop8" />
		<stop
   offset="0.2765"
   style="stop-color:#3B3B3B"
   id="stop10" />
		<stop
   offset="0.3772"
   style="stop-color:#5A5A5A"
   id="stop12" />
		<stop
   offset="0.4792"
   style="stop-color:#818181"
   id="stop14" />
		<stop
   offset="0.4806"
   style="stop-color:#828282"
   id="stop16" />
		<stop
   offset="0.7743"
   style="stop-color:#242424"
   id="stop18" />
	</linearGradient>
	<path
   class="st0"
   d="m 18.4,58.1 c 0,0 -1,-2.8 -1.7,-1.9 -0.2,0.2 -1,2.8 -1.1,3.1 -0.7,2.8 -1.1,6.8 2.8,13.3 l 2.4,1.7 1.5,9.5 c 0,0 -2.6,5.8 2.2,10.7 0,0 3,20.6 9.1,24.5 0,0 8.5,5.2 14.7,4.5 h 1.4 c 0,0 2.1,2.9 3.7,3.3 1.5,0.4 18.4,-0.2 18.4,-0.2 l 2.3,0.1 c 0,0 13.9,-0.1 17.2,-2.8 l 1.2,-1.6 c 0,0 6.3,0.6 14,-7.6 L 109.9,96 c 0,0 4.3,-5.8 2.7,-12 l 0.2,-6.8 c 0,0 8.7,-11.4 3.9,-20.3 0,0 -14.3,19.6 -52.9,17.4 0,0 -28.2,1.7 -45.4,-16.2 z"
   id="path21"
   inkscape:connector-curvature="0"
   style="clip-rule:evenodd;fill:url(#SVGID_1_);fill-rule:evenodd" />
	<path
   class="st1"
   d="m 20.8,75.4 c 0,0 7.2,7.3 21.7,10.7 L 41.1,84 c 0,0 -15.1,-6.6 -18.9,-9.9 -3.7,-3.3 -1.4,1.3 -1.4,1.3 z"
   id="path23"
   inkscape:connector-curvature="0"
   style="clip-rule:evenodd;fill:#202020;fill-rule:evenodd" />
	<path
   class="st1"
   d="m 112.9,76.3 c 0,0 -31.2,22 -67.8,10.6 L 42.2,85.7 40.1,83 c 0,0 14.8,4.7 31.3,4.4 13.2,-0.3 27.2,-4.5 36.9,-11.1 -0.1,-0.1 7.9,-4.5 4.6,0 z"
   id="path25"
   inkscape:connector-curvature="0"
   style="clip-rule:evenodd;fill:#202020;fill-rule:evenodd" />
	<path
   class="st1"
   d="m 25.6,95.8 c 0,0 3.5,4.8 18,8.3 l -1,-2.5 c 0,0 -15.1,-6.6 -18.9,-9.9 -3.7,-3.5 1.9,4.1 1.9,4.1 z"
   id="path27"
   inkscape:connector-curvature="0"
   style="clip-rule:evenodd;fill:#202020;fill-rule:evenodd" />
	<path
   class="st1"
   d="m 109.8,94.9 c -0.1,-0.5 -0.2,-1.2 -0.1,-1.8 -9.6,6.6 -23.6,10.8 -36.6,11 -22.5,0.3 -31.3,-4.4 -31.3,-4.4 l -2.6,1 6.6,3.2 c 34.8,7.2 54.4,-2.6 64.3,-8.1 -0.1,-0.4 -0.2,-0.7 -0.3,-0.9 z"
   id="path29"
   inkscape:connector-curvature="0"
   style="clip-rule:evenodd;fill:#202020;fill-rule:evenodd" />
	<polygon
   class="st1"
   points="99.4,91.2 96.8,92.1 97.9,82.5 100.4,81.5 "
   id="polygon31"
   style="clip-rule:evenodd;fill:#202020;fill-rule:evenodd" />
	<polygon
   class="st1"
   points="93.9,121 98.6,99.6 96.1,100.7 91.3,122 "
   id="polygon33"
   style="clip-rule:evenodd;fill:#202020;fill-rule:evenodd" />
	<polygon
   class="st1"
   points="75.9,97.4 75.8,88.6 71,88.8 70.6,97.6 "
   id="polygon35"
   style="clip-rule:evenodd;fill:#202020;fill-rule:evenodd" />
	<path
   class="st1"
   d="m 70,104.9 c -1.8,15.3 1.4,19.4 2.8,18.3 1.4,-1.2 2.6,-18.3 2.6,-18.3 z"
   id="path37"
   inkscape:connector-curvature="0"
   style="clip-rule:evenodd;fill:#202020;fill-rule:evenodd" />
	<path
   class="st1"
   d="m 49.6,103.6 -5.2,-1 c 0,0 0.4,17.8 3.9,20.9 h 1.4 z"
   id="path39"
   inkscape:connector-curvature="0"
   style="clip-rule:evenodd;fill:#202020;fill-rule:evenodd" />
	<polygon
   class="st1"
   points="48.3,96.1 47.9,85.6 43.3,84.1 44.2,94.5 "
   id="polygon41"
   style="clip-rule:evenodd;fill:#202020;fill-rule:evenodd" />
	<g
   id="g53">
		<path
   class="st2"
   d="m 21.2,60.3 c -0.9,-0.7 -1.7,-1.5 -2.5,-2.3 -0.1,0 -1,-4.1 -1,-4.1 -1.1,0.5 -2,3.7 -2.2,5.1 -0.2,1.3 0.2,4 0.2,5.2 0.1,1.2 0.4,2.4 0.7,3.6 0.5,2 1.5,3.6 3.4,4.7 0.5,0.3 1.1,1 1.2,1.6 0.2,1.3 0.1,2.6 0.3,3.9 0.1,1.3 0.5,2.5 0.7,3.8 0.2,0.9 0.3,1.8 0.4,2.8 -0.7,0.2 -1.3,1 -1.1,1.6 0.3,1.3 0.6,2.5 0.8,3.7 0.2,0.9 0.5,1.6 1.3,2.1 0.9,0.5 1.6,1.1 1.3,2.4 -0.2,0.9 0.1,1.9 0.3,2.8 0.4,2 0.7,4 1.2,5.9 0.5,1.7 1.4,3.3 1.8,5 0.7,2.5 1.4,5 2.6,7.4 0.5,1.1 1.2,2.1 2.6,2.1 0.8,0 1.2,0.4 1.7,0.9 0.6,0.5 1.1,1.1 1.8,1.5 1,0.8 2.3,1 3.5,1.4 2.5,0.9 5,2.1 7.5,3.1 1,0.4 2.2,0.5 3.3,0.5 0.6,0 1,0.1 1.3,0.5 0.7,0.8 1.5,1.2 2.7,1.1 1.3,-0.1 2.5,-0.2 3.8,-0.2 2.8,0 5.6,1 8.5,1 1.3,0 2.6,-0.1 3.8,-0.5 1.1,-0.3 2,-1.2 3.2,-0.4 0.1,0.1 0.4,0 0.5,0 1.8,-0.1 3.6,-0.1 5.3,-0.2 2.6,-0.2 5.2,-0.6 7.8,-0.9 0.1,0 0.2,0 0.3,-0.1 1.2,-0.8 2.6,-1.4 3.3,-2.7 0.2,-0.3 0.8,-0.6 1.1,-0.5 1.3,0.1 2.5,-0.3 3.6,-1.1 1.1,-0.7 2.2,-1.4 3.5,-1.5 1.3,-0.1 2.6,-0.5 3.4,-1.6 0.5,-0.7 1.2,-1.2 1.9,-1.6 1.7,-1 1.9,-2.7 2.3,-4.4 0.2,-1 0.4,-2 0.6,-3 0.3,-1.2 0.6,-2.3 0.8,-3.5 0.3,-1.3 0.4,-2.6 0.6,-3.9 0.3,-1.4 0.5,-2.9 0.9,-4.3 0.2,-0.9 0.2,-2 1,-2.6 0.9,-0.6 1.4,-1.4 1.5,-2.4 0.3,-1.5 0.5,-3.1 0.6,-4.6 0,-0.9 -0.2,-1.8 -0.4,-2.7 -0.1,-0.4 -0.4,-0.7 -0.3,-1 0.1,-1.9 0.4,-3.8 0.6,-5.6 0.2,-1.5 0.9,-2.8 1.9,-3.9 0.7,-0.8 2.9,-1 3.2,-10.5 0,-0.8 -0.5,-2.7 -0.7,-3.4 -0.1,-0.2 -1.1,-3.4 -1.2,-3.7 -0.8,0.7 -6.9,9.1 -21.1,13.4 C 81.1,74.5 73.5,74.6 66.5,74.6 37.2,74.5 21.4,60.6 21.2,60.3 Z M 22.5,76 c 0,-0.4 -0.1,-0.7 -0.1,-1.2 0.8,0.2 1.3,0.6 1.4,1.5 0.1,1.7 0.4,3.4 0.6,5.2 0,0.2 0.2,0.3 0.3,0.5 -0.1,-1.9 -0.2,-3.7 -0.4,-5.8 0.4,-0.4 0.8,0 0.9,0.5 0.1,0.7 0.1,1.3 0.7,1.9 0.3,0.3 0,1.2 0.1,1.9 0,0.6 0.2,1.1 0.2,1.7 0.1,0 0.2,0 0.3,0 -0.1,-1.5 -0.1,-3 -0.2,-4.4 0.1,-0.1 0.2,-0.2 0.2,-0.2 4.4,3.3 9.7,4.6 14.6,6.5 0.3,3.3 0.6,6.5 0.9,9.7 C 35.6,92 29.3,89.7 24,86 23.8,85.2 23.7,84.6 23.6,84 23.4,82.7 23.2,81.3 23,80 22.8,78.6 22.7,77.3 22.5,76 Z m 47,21.4 h -6.1 c -0.1,-0.6 -0.1,-1.1 -0.2,-1.6 -0.1,0 -0.2,0 -0.2,0 v 1.5 c -1.3,0.2 -1.4,0 -1.5,-1.4 -0.1,0.2 -0.2,0.4 -0.2,0.6 0,0.7 -0.4,1.1 -1,1.1 -1.1,-0.1 -10.2,-1.3 -10.2,-1.3 l -0.5,-9.7 c 0,0 4.7,0.7 7.6,1.1 0,0 0.2,4.2 0.3,4.2 0.1,-1.3 0.2,-2.6 0.4,-3.9 l 3.2,0.4 0.2,2.1 0.7,-2.2 7.5,0.5 z m -21.8,-2.3 -2.3,-0.7 -0.6,-8.8 2.3,0.6 z m 23.8,1.3 c 0,-1.9 0,-4.7 0,-6.7 0,-0.3 2.1,-0.3 2.9,-0.3 -0.2,2.5 -0.3,5.3 -0.5,7.8 -0.6,0.1 -1.4,0.2 -2.2,0.2 -0.3,0.1 -0.2,-0.9 -0.2,-1 z m 17,-8 c 0.1,-0.5 0.3,-0.9 0.3,-1.4 0.1,-1.5 0.1,-1.6 1.9,-1.9 0.7,1.3 -0.7,2.7 0.2,4 0.2,-1.1 0.4,-2.3 0.5,-3.4 0,-0.8 0.3,-1.2 1,-1.2 0.6,2.5 0.3,4.9 0,7.4 0.1,0 0.2,0 0.2,0.1 0.2,-0.4 0.4,-0.9 0.5,-1.3 0.2,-1.1 0.3,-2.2 0.4,-3.3 0,-0.4 0.1,-0.8 -0.1,-1.1 -0.5,-1.4 -0.4,-1.8 0.8,-2.4 0.7,-0.3 1.4,-0.5 2.2,-0.8 -0.3,3.4 -0.6,6.7 -0.9,10.2 -5.6,2 -11.5,2.7 -17.5,3.5 0,-1 0,-2 0,-2.9 0,-1.8 0.2,-3.6 0.2,-5.4 0,-0.7 0.3,-0.8 0.9,-0.9 1.9,-0.3 3.8,-0.6 5.6,-1 1.2,-0.2 2.3,-0.6 3.6,-0.9 0,0.9 -0.1,1.8 -0.1,2.7 0.1,-0.1 0.2,-0.1 0.3,0 z m 9,4 1.2,-10 c 0,0 0.7,-0.5 0.8,-0.4 -0.3,2.8 -1.2,10.1 -1.2,10.1 z m 8.8,-6.5 c 0.1,-1 0.3,-5.3 0.5,-6.5 0.1,-0.5 0.5,-0.5 0.9,-0.9 0.1,0.1 0.4,-0.4 0.5,-0.3 v 3.4 c 0,-0.5 0.7,-4 0.7,-4 l 2.8,-1.4 -1.2,9.3 c 0,0 -4.7,2.9 -6.6,3.9 -1,0.6 -2.1,1.1 -3.4,1.8 0.2,-1.6 0.3,-2.9 0.5,-4.2 0.2,-1.9 0.6,-6.2 0.6,-6.2 l 4.1,-1.7 0.3,2.7 c 0.1,0.1 0.3,4.1 0.3,4.1 z m -64.6,35 c -0.4,-0.2 -0.7,-0.3 -1.1,-0.5 -1.5,-0.6 -1.7,-1.2 -1.4,-2.9 0.1,-0.8 -0.1,-1.6 -0.2,-2.4 -0.2,-1.3 -0.5,-2.7 -0.8,-4 0,-0.1 -0.1,-0.2 -0.3,-0.3 0.2,1.5 0.4,3 0.6,4.5 0.2,1.5 -0.5,3 0.5,4.5 -1.1,-0.4 -2.1,-0.4 -2.2,-1.7 0,-0.4 -0.4,-0.5 -0.7,-0.2 -0.1,0.1 -0.4,0.2 -0.5,0.1 -0.9,-1.2 -1.8,-2.4 -2.2,-3.9 -0.1,-0.4 -0.3,-0.8 -0.6,-1.4 -0.4,1.4 0.7,2.3 0.6,3.4 -1.3,0.2 -1.8,-0.1 -2.2,-1.4 -0.6,-1.8 -1.1,-3.6 -1.7,-5.4 -0.6,-1.7 -1.3,-3.4 -1.8,-5.1 -0.5,-1.8 -1,-3.5 -1.3,-5.3 -0.3,-1.5 -0.4,-3 -0.6,-4.4 0.1,0 0.2,0 0.3,-0.1 1.1,0.6 2.1,1.3 3.3,1.8 0.9,0.4 0.8,1.2 1,1.8 0.5,1.9 0.8,3.9 1.2,5.9 0,0.2 0.1,0.3 0.2,0.5 -0.2,-2.4 -0.2,-4.8 -1,-7.2 0.7,0.2 1.3,0.5 1.9,0.7 1.3,0.4 0.9,1.5 1.1,2.4 0.1,0.4 0.1,0.8 0.1,1.2 0.1,0 0.2,0 0.2,0 v -2.7 c 0.8,0.2 1.4,0.4 2.1,0.5 2,0.6 4,1.2 6,1.8 0.2,0.1 0.5,0.4 0.5,0.6 0.2,2.7 0.4,5.3 0.6,8 0.2,2 0.3,4 0.6,6 0.3,1.6 0.8,3.2 1.3,4.8 0.3,0.8 0.6,1.6 1,2.5 -1.5,-0.7 -3,-1.4 -4.5,-2.1 z m 4.1,-17.6 3.1,0.8 0.9,18 c 0,0 -2,0.5 -2.7,-3 -0.9,-4.9 -1.3,-15.8 -1.3,-15.8 z m 25.6,20.9 c -0.6,0.8 -1.4,1.4 -2.5,1.3 -1.3,-0.1 -2.7,0 -4,0 -1,0 -1.8,-0.2 -1.9,-1.4 0,-0.1 -0.2,-0.2 -0.5,-0.5 0.1,0.6 0.1,0.9 0.2,1.3 -1.4,0.4 -2.3,0 -2.5,-1.7 0,-0.1 -0.3,-0.3 -0.4,-0.4 -0.1,0.1 -0.2,0.1 -0.3,0.2 0.2,0.6 0.4,1.2 0.6,1.8 -1.1,0 -1.3,-0.9 -1.5,-1.6 -0.2,-0.7 -0.2,-1.5 -0.3,-2.2 -0.1,0 -0.2,0 -0.3,0 0.1,1.2 0.2,2.4 0.3,3.7 -1.5,0 -3.1,0 -4.7,0 -1.3,0 -2.8,-2 -2.8,-2.9 -0.1,-2.3 -0.3,-4.7 -0.5,-7 -0.1,-0.8 0,-1.6 -0.1,-2.4 -0.1,-2 -0.3,-4 -0.4,-6 -0.1,-1.2 0,-2.4 0,-3.7 1.3,0.1 2.5,0.3 3.7,0.5 0.2,0 0.4,0.4 0.4,0.7 0.1,0.7 0,1.3 0,2 0.1,0 0.2,0 0.3,0 v -2.6 c 0.9,0.1 1.7,0.1 2.5,0.2 0,0.9 0,1.7 0,2.5 0,0.2 0.2,0.4 0.3,0.6 0.1,-0.2 0.2,-0.4 0.2,-0.5 0.1,-0.8 0.1,-1.5 0.1,-2.6 1.7,0.1 3.5,0.3 5.2,0.4 0.3,0 0.6,0.1 0.9,0.1 1.9,0 3.9,0 5.8,0 0.7,0 0.9,0.4 0.9,1 0,1 -0.1,1.9 -0.1,2.9 -0.1,1 -0.2,2 -0.2,3.1 0,1.1 0.1,2.1 0.2,3.2 0.1,1.7 0,3.4 0.3,5 0.2,0.9 0,2.1 0.9,2.8 0.2,0.1 0.1,0.5 0.1,0.8 0.1,0.4 0.2,0.7 0.3,1.1 -0.2,0 -0.1,0.2 -0.2,0.3 z m 0.2,-4.4 c -0.9,-4.5 -0.2,-9.1 -0.5,-13.7 0.9,0.1 1.7,0.1 2.7,0.2 -0.1,2 -0.3,4.1 -0.4,6.1 0,0.2 0,0.4 0,0.5 0,1.4 0.2,2.8 -0.1,4.1 -0.2,1.3 0,2.8 -1.1,3.8 -0.1,0.1 -0.2,0.2 -0.5,0.4 0,-0.5 0,-1 -0.1,-1.4 z m 19.6,-2.2 c -0.5,2 -1.5,3.9 -2.8,5.6 -0.6,0.8 -1.4,1.3 -2.5,1.1 -0.3,-0.1 -0.6,0 -1.1,-0.1 0.1,-0.4 0.3,-0.7 0.5,-1.4 -0.4,0.2 -0.8,0.3 -0.8,0.5 -0.2,1.2 -1,0.8 -1.8,0.8 0.1,-0.2 0.2,-0.3 0.2,-0.5 0,-0.2 -0.1,-0.4 -0.1,-0.6 -0.2,0.1 -0.4,0.2 -0.5,0.4 -0.7,1.3 -1,1.5 -2.4,1.4 2,-1.7 2.2,-4 2.3,-6.4 -0.1,0.2 -0.4,0.4 -0.4,0.5 0,1.5 -0.6,2.7 -1.2,4 -0.1,0.3 -0.2,1 -0.9,0.7 -0.1,0 -0.3,0.2 -0.4,0.4 -0.5,0.9 -1.1,1.3 -2.2,1.3 -1,0 -1.9,0.2 -2.9,0.3 -0.3,0 -0.7,0 -1,0 -0.1,-0.1 -0.2,-0.3 -0.3,-0.4 0.3,-0.1 0.6,-0.2 0.8,-0.3 0.6,-0.6 1.2,-1.2 1.6,-1.9 0.3,-0.6 0.3,-1.4 0.4,-2.1 0.2,-1.7 0.4,-3.4 0.6,-5.1 0.1,-1.2 0.1,-2.3 0.2,-3.5 0.1,-2.1 0.2,-4.1 0.4,-6.2 0.1,-0.8 0.3,-1.5 0.5,-2.3 h 1.9 c -0.1,1.3 -0.1,2.7 -0.2,4 0.1,0 0.2,0 0.3,0 0.1,-0.9 0.3,-1.8 0.3,-2.6 0,-1.3 0.4,-1.7 1.8,-1.9 1.3,-0.1 2.5,-0.3 3.9,-0.5 v 2 c 0.8,-0.7 -0.1,-2.5 1.7,-2.3 -0.2,1.8 -0.4,3.7 -0.5,5.5 0.1,0 0.3,0 0.4,0 0.1,-1.2 0.2,-2.4 0.4,-3.5 0.1,-0.7 0.1,-1.4 0.5,-1.9 0.2,-0.3 0.9,-0.4 1.2,-0.5 0.2,0.6 0.5,1.1 0.6,1.7 0.1,0.4 0.3,0.8 0.3,1.1 -0.2,2 -0.5,4.1 -0.7,6.1 -0.1,0.9 -0.1,1.8 0,2.7 0.2,-0.9 0.5,-1.8 0.6,-2.7 0.2,-1.9 0.4,-3.9 0.5,-5.8 0,-0.6 -0.3,-1.3 -0.4,-1.9 0,-0.4 0.1,-1.2 0.3,-1.2 1.4,-0.5 2.8,-0.8 4.3,-1.1 -0.2,1.6 -0.2,3 -0.5,4.4 -0.4,2.2 -0.9,4.4 -1.4,6.6 -0.4,1.8 -1,3.7 -1.5,5.6 z M 97,100.9 c 0.1,0 0.7,-0.3 0.8,-0.3 -0.1,1 -0.7,4 -0.8,5 -0.2,1.5 -2,11.2 -3.8,13.6 1.2,-3.6 3.5,-15.3 3.8,-18.3 z M 108.3,97 c -0.2,1.9 -0.4,3.8 -0.8,5.6 -0.3,1.8 -0.9,3.6 -1.3,5.4 -0.2,0.9 -0.3,1.8 -0.5,2.6 -0.3,1.2 -0.7,2.4 -1.1,3.5 -0.2,0.4 -0.8,0.6 -1.4,0.8 0.5,-1.9 1,-3.8 0.4,-5.8 -0.1,1.1 -0.2,2.2 -0.5,3.2 -0.3,1 -0.7,2 -1.2,2.9 -0.4,0.6 -0.2,1.5 -1.1,1.9 -0.3,0.1 -0.5,0.4 -0.8,0.6 -0.1,-0.1 -0.1,-0.1 -0.2,-0.2 0.3,-0.6 0.6,-1.3 0.9,-1.9 0,-0.1 -0.1,-0.1 -0.1,-0.2 -0.1,0.1 -0.3,0.2 -0.4,0.3 -0.3,0.4 -0.7,0.8 -0.8,1.3 -0.3,1.3 -1.3,1 -2.2,1 -0.2,0 -0.4,0 -0.5,0 0.4,-2 0.8,-4 1.2,-6 0.5,-2.7 1,-5.4 1.5,-8.2 0.3,-1.6 0.4,-3.2 0.8,-4.7 0.1,-0.5 0.8,-0.9 1.4,-1.2 0.6,-0.3 1.3,-0.5 2,-0.7 -0.2,1.3 -0.5,2.6 -0.7,3.9 0.1,0 0.2,0 0.3,0 0.3,-1.4 0.6,-2.7 0.9,-4.4 0.8,-0.3 1.9,-0.9 3,-1.2 1,0.1 1.3,0.5 1.2,1.5 z m 3.7,-6.7 c -0.1,0.9 -1.4,2 -2,2.3 -3,1.5 -13.2,10.1 -44.5,11.1 -1.8,0.1 -13.8,-1.4 -15.5,-1.7 -2.2,-0.4 -6.1,-1.6 -8.3,-2.1 -1.9,-0.5 -3.8,-1.3 -5.7,-1.8 -1.2,-0.3 -2.4,-0.8 -3.5,-1.4 -2.4,-1.3 -4.7,-2.6 -7.1,-3.9 -0.6,-0.4 -1.2,-0.9 -1.8,-1.3 -0.1,0 -0.1,-0.2 -0.1,-0.2 -0.2,-1.2 -1.3,-4.3 -1.4,-5.6 11.3,6.4 20,9.2 22.8,9.9 10.7,2.5 16.9,2.6 20.7,2.8 1.8,0.1 12.2,0.2 23.5,-3.1 14.1,-4.1 23,-9.7 23,-9.7 l 0.1,1.6 c 0,-0.1 -0.1,2 -0.2,3.1 z m 5.6,-25.7 c 0,1.6 -0.8,5 -1,5.7 -0.2,0.7 -2.6,2.1 -3.2,2.6 -1.1,0.9 -9.1,5.4 -12,6.7 -2.5,1.1 -7.7,3.7 -18.8,5.8 C 72,87.4 65.8,87.3 55,86 43.6,84.6 39,82.6 32.2,79.4 25.4,76.2 20.9,72.9 20.1,72.2 c -1,-0.8 -2.6,-2.9 -2.9,-4.2 -0.5,-1.9 -1.8,-4.7 -1.6,-6.4 0.1,-1.7 1.6,-5.9 1.6,-5.9 0,0 4.9,9.2 16.1,14 2.5,1.1 18.4,5.8 33.1,6.3 15.1,0.5 26.9,-2.5 33.3,-4.9 18.2,-6.9 16.5,-14 16.5,-14 0,0 1.3,5.4 1.4,7.5 z"
   id="path43"
   inkscape:connector-curvature="0"
   style="clip-rule:evenodd;fill-rule:evenodd" />
		<path
   class="st2"
   d="m 88.1,80.1 c -0.1,0.1 -0.2,0.3 -0.3,0.5 -0.2,0.3 -0.5,0 -0.7,0.1 -0.3,0.2 -0.8,0.3 -1.5,-0.1 -0.3,-0.2 -1.5,0.2 -1.6,0 0.4,-0.4 1.5,-0.6 2,-0.9 0.4,-0.2 1,-0.6 1.2,-0.4 0.5,0.5 0.8,0.3 1.3,0.1 0.2,-0.1 0.5,-0.1 0.8,-0.1 0,0.2 -0.8,0.6 -1.2,0.8 z"
   id="path45"
   inkscape:connector-curvature="0"
   style="clip-rule:evenodd;fill-rule:evenodd" />
		<path
   class="st2"
   d="m 52.9,80.8 c 0.7,-0.2 1.6,-0.2 2,-0.3 0.3,-0.1 0.8,-0.1 0.9,0 0.5,0.7 2.5,0.8 2.5,0.9 -0.3,0 -1,0 -1.4,0 -0.9,1.5 -1.4,1.5 -2.4,0 C 54.4,81.2 54,81.1 53.8,81 53.7,81 53,80.9 52.9,80.8 Z"
   id="path47"
   inkscape:connector-curvature="0"
   style="clip-rule:evenodd;fill-rule:evenodd" />
		<path
   class="st2"
   d="m 111.7,70.4 c -0.7,0.8 -1.2,1.2 -1.8,1.9 -0.9,-1.2 -2.1,0.2 -2.4,-0.1 0.5,-0.4 0.8,-0.7 1.1,-1 0.1,-0.1 0.7,-0.7 0.8,-0.7 0.4,0 0.6,0.3 1,0.4 0.1,0 1.1,-0.5 1.3,-0.5 z"
   id="path49"
   inkscape:connector-curvature="0"
   style="clip-rule:evenodd;fill-rule:evenodd" />
		<path
   class="st2"
   d="m 56.8,113.4 c 0,-2 0,-4 0,-6 0.1,0 0.1,-0.1 0.2,-0.1 0.2,0.3 0.5,0.5 0.5,0.8 -0.1,1.8 -0.3,3.6 -0.5,5.3 -0.1,0 -0.1,0 -0.2,0 z"
   id="path51"
   inkscape:connector-curvature="0"
   style="clip-rule:evenodd;fill-rule:evenodd" />
	</g>
	<path
   class="st3"
   d="m 23.3,92.2 c 0,0 13.4,11.8 44.7,12 24.8,0.1 43.5,-11.6 43.5,-11.6"
   id="path55"
   inkscape:connector-curvature="0"
   style="fill:none;stroke:#000000;stroke-width:2.32319999;stroke-linecap:round;stroke-miterlimit:10" />
	<path
   class="st4"
   d="m 22.3,84.7 c 0,0 15.6,13.5 49,13.4 9.9,0 33.1,-6.5 41.2,-13.4"
   id="path57"
   inkscape:connector-curvature="0"
   style="fill:none;stroke:#000000;stroke-width:0.7744;stroke-miterlimit:10" />
	<path
   class="st4"
   d="m 21.9,86.4 c 0,0 16.1,13 49.4,12.9 9.9,0 33.1,-6.5 41.2,-13.4"
   id="path59"
   inkscape:connector-curvature="0"
   style="fill:none;stroke:#000000;stroke-width:0.7744;stroke-miterlimit:10" />
	<path
   class="st5"
   d="m 23.7,92.4 c 0,0 14.4,12.2 47.8,12.1 9.9,0 33.1,-6.5 41.2,-13.4"
   id="path61"
   inkscape:connector-curvature="0"
   style="fill:none;stroke:#000000;stroke-width:1.54879999;stroke-miterlimit:10" />
	<path
   class="st3"
   d="m 111,48.3 c 0,0 6.1,9.1 3.1,12.6 -3.1,3.6 -8.5,6.5 -12.8,8.3 C 83.1,77 66.7,76 66.7,76 32.4,75.7 19.6,59.2 19.6,59.2 17.3,55 21.3,48.9 20.8,49.3 c -3.2,2.7 -5.2,8.5 -5.3,9.2 -0.5,2.1 -0.2,5 -0.2,5 0.6,7.7 5.6,10.7 5.6,10.7 0.6,5 1.9,10.5 1.9,10.5 -1.5,0.4 -1.3,3.2 -1.3,3.2 1,5.8 3.5,6.5 3.5,6.5 0,0 2,14.2 6,22.2 0,0 5.7,5.7 14.9,7 l 4.7,0.4 c 0,0 1.8,2.8 4.6,2.7 2.8,-0.1 15.6,0.4 15.6,0.4 0,0 1.1,0.5 1.8,-1.1 0,0 -0.5,1.5 9.8,0.3 0,0 6.5,0.7 9.1,-3.6 0,0 7.1,0.6 14.9,-7.9 l 4,-19.2 c 0,0 2.9,-2.2 2.5,-10.5 -0.1,-0.9 -0.5,-1.6 -0.5,-1.6 l 0.8,-8.6 c 0,0 3.8,-1.5 4.4,-8 0.3,-2.9 0.2,-2.8 0.1,-4.6 -0.3,-6.2 -6.7,-14 -6.7,-14 z"
   id="path63"
   inkscape:connector-curvature="0"
   style="fill:none;stroke:#000000;stroke-width:2.32319999;stroke-linecap:round;stroke-miterlimit:10" />
	<path
   class="st4"
   d="m 16.2,57.6 c 0,0 1.9,5.4 4.8,7.9 5.3,4.6 20.1,11.6 43.5,12.8 0,0 16.6,0.6 32.6,-4.5 7.6,-2.4 18.6,-7.9 19.6,-14.5"
   id="path65"
   inkscape:connector-curvature="0"
   style="fill:none;stroke:#000000;stroke-width:0.7744;stroke-miterlimit:10" />
	<path
   class="st5"
   d="m 16.9,69.2 c 0,0 2.6,3.5 7.1,6.5 7.8,5.2 22,11.1 43.8,11.8 0,0 26.1,1.1 48.1,-15.4"
   id="path67"
   inkscape:connector-curvature="0"
   style="fill:none;stroke:#000000;stroke-width:1.54879999;stroke-miterlimit:10" />
	<path
   class="st6"
   d="m 69.9,103.9 c 0,0 -1.2,18 1.7,20.5"
   id="path69"
   inkscape:connector-curvature="0"
   style="fill:none;stroke:#000000;stroke-width:2.32319999;stroke-miterlimit:10" />
	<path
   class="st6"
   d="m 49.5,102.5 0.6,17.6 c 0,0 -0.2,3.3 2.2,5.5"
   id="path71"
   inkscape:connector-curvature="0"
   style="fill:none;stroke:#000000;stroke-width:2.32319999;stroke-miterlimit:10" />
	<circle
   class="st2"
   cx="55.700001"
   cy="81.300003"
   r="1.5"
   id="circle73"
   style="clip-rule:evenodd;fill-rule:evenodd" />
	<path
   class="st2"
   d="m 88.4,79.9 c 0,0.9 -0.7,1.5 -1.5,1.5 -0.9,0 -1.5,-0.7 -1.5,-1.5 0,-0.9 0.7,-1.5 1.5,-1.5 0.8,0 1.5,0.7 1.5,1.5 z"
   id="path75"
   inkscape:connector-curvature="0"
   style="clip-rule:evenodd;fill-rule:evenodd" />
	<path
   class="st2"
   d="m 111.2,71.2 c 0,0.9 -0.6,1.5 -1.3,1.5 -0.7,0 -1.3,-0.7 -1.3,-1.5 0,-0.9 0.6,-1.5 1.3,-1.5 0.7,0 1.3,0.7 1.3,1.5 z"
   id="path77"
   inkscape:connector-curvature="0"
   style="clip-rule:evenodd;fill-rule:evenodd" />
	<path
   class="st2"
   d="m 24.8,70.6 c 0,0.9 -0.6,1.5 -1.3,1.5 -0.7,0 -1.3,-0.7 -1.3,-1.5 0,-0.9 0.6,-1.5 1.3,-1.5 0.7,-0.1 1.3,0.6 1.3,1.5 z"
   id="path79"
   inkscape:connector-curvature="0"
   style="clip-rule:evenodd;fill-rule:evenodd" />
	<path
   class="st7"
   d="M 114.5,55.5 C 114.5,65.7 92.9,75.2 66.4,75.2 39.9,75.2 18.5,65.8 18.5,55.5 18.5,45.3 40,37 66.5,37 c 26.5,0 48,8.3 48,18.5 z"
   id="path81"
   inkscape:connector-curvature="0"
   style="fill:#202020;stroke:#000000;stroke-width:3.09770012;stroke-miterlimit:10" />
</g>
<g
   id="g252"
   transform="translate(-14.037245,-27.7)">
	<defs
   id="defs86">
		<path
   id="SVGID_2_"
   d="m 108.2,46.3 c -0.4,-0.4 -0.8,-0.7 -1.1,-0.9 -0.5,-0.3 -1.1,-0.6 -1.1,-0.6 l -0.5,-0.2 h -0.2 c -3.1,-1.7 -7,-3.1 -11.3,-4.3 0,-0.5 -0.1,-0.9 -0.3,-1.2 -0.1,-0.2 -0.3,-0.4 -0.6,-0.6 0.2,-1.2 0.4,-2.3 0.5,-3.3 0.1,-1.9 -0.3,-3.5 -1.1,-4.8 V 30 c 0,-0.9 -0.5,-1.6 -1.4,-1.9 l -1,-0.3 c -0.2,-0.1 -0.4,-0.1 -0.6,-0.1 -0.5,0 -1,0.2 -1.4,0.6 l -0.3,0.2 c -2.7,0.6 -5.3,3.4 -8,8.3 -0.5,0.2 -0.8,0.4 -1.2,0.8 -2.2,-0.2 -4.4,-0.4 -6.8,-0.5 -0.1,-0.1 -0.2,-0.2 -0.3,-0.3 -3.1,-3.5 -7.3,-5.4 -11.7,-5.4 -4.4,0 -8.6,1.9 -11.7,5.4 -0.5,0.6 -1,1.2 -1.4,1.8 -4.5,0.8 -8.6,1.8 -12.3,3.1 -0.6,-0.5 -1.3,-0.7 -2.2,-0.5 -1,0.2 -1.8,0.9 -1.9,1 -0.3,0.3 -0.5,0.7 -0.5,1.1 0,0.1 0,0.2 0,0.2 -7.1,3.2 -11.4,7.4 -11.4,12 0,4.2 3.6,8.3 9.6,11.6 1.2,0.7 2.5,1.3 3.9,1.9 0.2,0.1 0.4,0.2 0.6,0.3 1,0.4 2.1,0.9 3.3,1.3 0.1,0 0.2,0.1 0.2,0.1 0.8,0.3 1.6,0.5 2.4,0.8 1.7,0.5 3.4,1 5.2,1.4 0.8,0.2 1.6,0.4 2.5,0.5 0.1,0 0.2,0 0.2,0 2.9,0.6 5.9,1 9,1.3 1.4,0.1 2.9,0.3 4.4,0.4 2,0.1 4,0.2 6,0.2 0,0 0,0 0,0 0.2,0 0.4,0 0.5,0 0.7,0 1.3,0 1.9,0 0.6,0 1.2,0 1.8,0 0.7,0 1.4,-0.1 2.1,-0.1 0.1,0 0.3,0 0.4,0 0.2,0 0.3,0 0.5,0 0.8,-0.1 1.7,-0.1 2.5,-0.2 0.3,0 0.6,-0.1 0.9,-0.1 0.7,-0.1 1.4,-0.1 2.1,-0.2 0.2,0 0.4,-0.1 0.6,-0.1 0.4,0 0.8,-0.1 1.2,-0.2 0.2,0 0.4,-0.1 0.5,-0.1 0.6,-0.1 1.2,-0.2 1.7,-0.3 0.2,0 0.4,-0.1 0.6,-0.1 0.7,-0.1 1.3,-0.2 2,-0.3 0.3,-0.1 0.6,-0.1 0.9,-0.2 0,0 0,0 0,0 0,0 0,0 0,0 0.1,0 0.2,0 0.3,-0.1 0.9,-0.2 1.9,-0.4 2.8,-0.6 2,-0.5 3.9,-1 5.7,-1.6 0.9,-0.3 1.7,-0.6 2.5,-0.9 0,0 0.1,0 0.1,-0.1 1.9,-0.7 3.7,-1.4 5.3,-2.2 4.2,-2.1 7.5,-4.5 9.4,-7 0.9,-1.2 1.5,-2.5 1.8,-3.7 0.1,-0.6 0.2,-1.1 0.2,-1.7 0.5,-3.3 -1.8,-6.5 -5.8,-9.2 z"
   inkscape:connector-curvature="0" />
	</defs>
	<clipPath
   id="SVGID_3_">
		<use
   xlink:href="#SVGID_2_"
   style="overflow:visible"
   id="use88"
   x="0"
   y="0"
   width="100%"
   height="100%" />
	</clipPath>
	<g
   class="st8"
   clip-path="url(#SVGID_3_)"
   id="g250">
		<path
   class="st9"
   d="m 47.1,47.2 c -3.4,-2.9 -6.6,-2.7 -8.2,-2.3 h -0.1 v 0 0 0 c -1.3,0.3 -2.7,1.2 -3,1.4 -0.2,0.1 -0.4,0.2 -0.6,0.3 -0.5,-2 -0.2,-3.1 -0.2,-3.2 0.2,-0.5 0.1,-1.2 -0.4,-1.6 -0.6,-0.6 -1.4,-0.8 -2.3,-0.6 -1,0.2 -1.8,0.9 -1.9,1 -0.3,0.3 -0.5,0.7 -0.5,1.1 0,1.1 0.1,2.4 0.5,3.6 -0.2,0 -0.4,0.1 -0.5,0.1 -0.3,0.1 -0.5,0.1 -0.6,0.2 -0.2,0 -0.4,0.1 -0.5,0.1 -1.8,0.4 -3.3,1.3 -4.4,2.6 -0.8,0.9 -1.5,1.9 -2,3.2 -0.3,0.8 -0.6,1.6 -0.7,2.4 -0.4,2.3 -0.1,4.5 1,6.5 0.9,1.6 2.2,3 3.6,3.8 0.1,0.1 0.3,0.2 0.4,0.3 2.3,1.4 3.8,3.4 3.9,3.4 0.1,0.1 0.1,0.2 0.2,0.2 0.1,0.1 0.2,0.1 0.2,0.2 0.5,0.5 1,0.8 1.6,1.1 2,1.1 3.6,1 4.7,0.8 0.5,-0.1 0.9,-0.3 1.3,-0.5 0.6,-0.3 1.2,-0.8 1.7,-1.4 0.2,0.1 0.5,0.1 0.7,0.2 0.7,0.1 1.4,0.1 2.1,-0.1 1,-0.2 1.9,-0.8 2.7,-1.6 0.2,-0.2 0.4,-0.4 0.5,-0.6 0.4,-0.5 0.7,-1.1 1,-1.8 0.3,-0.8 0.5,-1.6 0.5,-2.2 0.2,-0.9 0.4,-1.8 1.2,-2.7 0.4,-0.5 0.7,-1 0.9,-1.5 v 0 c 0.8,-1.8 1,-3.5 1,-4.1 0,-0.8 0.2,-4.8 -3.8,-8.3 z m 1.4,11.9 v 0 z"
   id="path91"
   inkscape:connector-curvature="0"
   style="fill:#191919" />
		
			<radialGradient
   id="SVGID_4_"
   cx="-265.62009"
   cy="-94.560799"
   r="12.3967"
   gradientTransform="matrix(0.9722,-0.2344,-0.2344,-0.9722,273.1262,-103.063)"
   gradientUnits="userSpaceOnUse">
			<stop
   offset="0"
   style="stop-color:#797979"
   id="stop93" />
			<stop
   offset="1"
   style="stop-color:#171717"
   id="stop95" />
		</radialGradient>
		<path
   class="st10"
   d="m 34.2,50.2 c -0.9,-1.3 -2.7,-1.7 -3.8,-1.5 -1.2,0.2 -4.8,0.6 -6.6,5.1 -1.9,4.6 0.5,7.8 0.5,7.8 0,0 1.3,2.5 3.6,3.6 2.9,1.3 3.3,3.8 5.4,4.7 0.8,0.3 4.4,2.1 6.4,-1.7 0,0 2.8,1.9 5.4,-1.2 1.5,-1.8 0.7,-4.1 2.7,-6.6 1.6,-2.1 1.6,-4.8 1.6,-4.8 0,0 0.6,-3.9 -3.1,-7.2 -3.7,-3.2 -7.2,-2.1 -8.2,-1.5 -1,0.6 -3,1.7 -3.2,3.2 z"
   id="path98"
   inkscape:connector-curvature="0"
   style="fill:url(#SVGID_4_)" />
		
			<linearGradient
   id="SVGID_5_"
   gradientUnits="userSpaceOnUse"
   x1="-286.18079"
   y1="-121.9045"
   x2="-270.35172"
   y2="-103.0494"
   gradientTransform="matrix(0.9722,-0.2344,-0.2344,-0.9722,273.1262,-103.063)">
			<stop
   offset="0"
   style="stop-color:#797979"
   id="stop100" />
			<stop
   offset="0.8926"
   style="stop-color:#121212"
   id="stop102" />
		</linearGradient>
		<path
   class="st11"
   d="m 25.5,51 c 0,0 -4.3,9 2.8,11.9 5,2.1 3.5,2.1 4.3,2.9 0.8,0.8 3.9,6.3 7.1,2 0,0 4.4,1.5 6,-3.2 0,0 0.8,-4.5 2.8,-5.6 0,0 -2.3,3.1 -2.2,4.7 0.1,1.6 -2.1,6.6 -6.5,4.4 0,0 -0.6,1.2 -1.8,1.9 -1.3,0.8 -3.6,0.9 -6.1,-1.3 0,0 -1.8,-2.4 -4.7,-4.1 -3,-1.6 -6.7,-7 -1.7,-13.6 z"
   id="path105"
   inkscape:connector-curvature="0"
   style="fill:url(#SVGID_5_)" />
		<path
   class="st12"
   d="m 29.8,48.7 c 0,0 1.8,-0.9 3.3,0.4 0.8,0.7 1.4,0.8 1.4,0.8 0,0 -0.4,-1.1 2.1,-2.5 0,0 1.4,-0.9 2.7,-1.2 0,0 -2.3,1.4 -2.4,2.1 0,0 1.1,-0.5 2,-0.5 0,0 -1.9,0.9 -2.3,1.7 0,0 2,-0.4 2.9,0.1 0,0 -1.7,-0.1 -2.9,0.7 0,0 1,-0.1 2,0.5 0,0 -1.9,0.4 -3,1.3 0,0 -1.1,1.1 -2.9,1 0,0 -0.7,0 -1.6,0.8 0,0 0.4,-0.8 1,-1.2 0.7,-0.4 1.2,-0.5 1.2,-0.5 0,0 -2,-0.9 -3.2,0.1 0,0 0.9,-1.4 2.6,-1.3 0,0 -1.4,-1 -2.9,-0.4 0,0 1.1,-1 2.2,-0.7 0,0.1 -0.5,-1.4 -2.2,-1.2 z"
   id="path107"
   inkscape:connector-curvature="0"
   style="fill:#181818" />
		<path
   class="st13"
   d="m 34.6,51.7 c 0,0 -3.4,-4.2 -3.2,-8.2 0,0 1.5,-1.3 2.2,-0.5 0,0 -1,2.7 1.7,8.3 0,-0.1 0.4,0.7 -0.7,0.4 z"
   id="path109"
   inkscape:connector-curvature="0"
   style="fill:#1a1a1a" />
		<path
   class="st14"
   d="M 92.5,30.4 V 30 c 0,-0.9 -0.5,-1.6 -1.4,-1.9 l -1,-0.3 c -0.2,-0.1 -0.4,-0.1 -0.6,-0.1 -0.5,0 -1,0.2 -1.4,0.6 l -0.3,0.2 c -2.7,0.6 -5.3,3.4 -8,8.3 -0.6,0.2 -1.1,0.6 -1.5,1.2 -0.3,0.5 -0.6,1.3 -0.3,2.4 l -0.2,0.5 c -2.1,4.6 -3.5,7.7 -7,12.4 -0.3,0.2 -0.6,0.4 -0.9,0.8 -0.3,0.4 -0.5,0.8 -0.5,1.2 -0.3,0.4 -0.7,0.9 -1.1,1.4 -0.7,0.8 -5.2,6.3 -3.4,10.4 l -0.1,0.3 c -0.3,0.9 0,1.8 0.8,2.3 l 1,0.6 c 0.3,0.2 0.7,0.3 1.1,0.3 0.3,0 0.6,-0.1 0.9,-0.2 L 69.5,70 c 0.1,0 0.1,0 0.2,0 4.1,0 9.4,-3.9 12.8,-7.8 2,-2.3 3.9,-5.4 5.7,-9.2 0.5,-0.3 0.8,-0.8 1,-1.3 0.2,-0.5 0.2,-1 0.2,-1.4 2.3,-5.5 4,-11.5 4.2,-15.1 0.1,-1.9 -0.3,-3.5 -1.1,-4.8 z M 69.7,68.1 v 0 c 0.1,0 0.3,0 0.4,0 -0.1,0 -0.3,0 -0.4,0 z M 81.1,38.6 v 0 c 0.1,0 0.1,0 0,0 0.1,0 0.1,0 0,0 z"
   id="path111"
   inkscape:connector-curvature="0"
   style="fill:#1c1c1c" />
		
			<radialGradient
   id="SVGID_6_"
   cx="80.5625"
   cy="89.349998"
   r="20.2404"
   gradientTransform="matrix(1,0,0,-1,0,138.55)"
   gradientUnits="userSpaceOnUse">
			<stop
   offset="0"
   style="stop-color:#222222"
   id="stop113" />
			<stop
   offset="0.2082"
   style="stop-color:#262626"
   id="stop115" />
			<stop
   offset="0.4151"
   style="stop-color:#323232"
   id="stop117" />
			<stop
   offset="0.6215"
   style="stop-color:#464646"
   id="stop119" />
			<stop
   offset="0.8265"
   style="stop-color:#626262"
   id="stop121" />
			<stop
   offset="1"
   style="stop-color:#808080"
   id="stop123" />
		</radialGradient>
		<path
   class="st15"
   d="m 90.5,31.1 v 0 -1.1 l -1,-0.3 -0.7,0.7 v 0 c -1.9,0.1 -4.6,2.3 -7.6,8.2 v 0 c 0,0 -1.9,-0.1 -0.9,1.9 -2.6,5.6 -4,8.9 -8.1,14.5 0,0 -0.9,0.1 -0.8,1 -0.5,0.6 -1,1.3 -1.5,1.9 0,0 -5.1,5.8 -2.8,9 l -0.4,1.2 1,0.6 1.3,-0.6 c 0,0 0,0 0,-0.1 3.2,0.6 8.4,-3 11.9,-7.1 2.1,-2.4 4.1,-5.8 5.7,-9.4 v 0 c 1.1,-0.4 0.6,-1.4 0.6,-1.4 v 0 c 2.5,-5.7 4.1,-11.7 4.3,-15.1 0.2,-1.6 -0.2,-3.1 -1,-3.9 z"
   id="path126"
   inkscape:connector-curvature="0"
   style="fill:url(#SVGID_6_)" />
		<path
   class="st14"
   d="m 70.6,66.8 c 0,0 14.9,-17 19.4,-32.5 -0.1,0 -2.4,16.3 -19.4,32.5 z"
   id="path128"
   inkscape:connector-curvature="0"
   style="fill:#1c1c1c" />
		<path
   class="st14"
   d="m 89.9,31.9 c 0,0 -9.6,19.3 -21,35 z"
   id="path130"
   inkscape:connector-curvature="0"
   style="fill:#1c1c1c" />
		<path
   class="st14"
   d="m 87,32.4 c 0,0 -3.6,4 -10.5,17.3 0,0 -3.8,5.8 -6.8,9.7 -1.9,2.6 -2.4,5.8 -2.4,5.8 0,0 1.7,-3.7 5.5,-8.7 C 76.6,51.5 84,37.7 84,37.7 Z"
   id="path132"
   inkscape:connector-curvature="0"
   style="fill:#1c1c1c" />
		<path
   class="st14"
   d="M 72.9,66.4 C 72.9,66.4 84,55.6 88.8,43 88.7,43.1 85.7,56.7 72.9,66.4 Z"
   id="path134"
   inkscape:connector-curvature="0"
   style="fill:#1c1c1c" />
		<path
   class="st16"
   d="m 71.6,36.8 c -3.1,-3.5 -7.3,-5.4 -11.7,-5.4 -4.4,0 -8.6,1.9 -11.7,5.4 -3.1,3.5 -4.9,8.1 -4.9,13 0,4.9 1.7,9.5 4.9,13 3.1,3.5 7.3,5.4 11.7,5.4 4.4,0 8.6,-1.9 11.7,-5.4 3.1,-3.5 4.9,-8.1 4.9,-13 -0.1,-4.9 -1.8,-9.6 -4.9,-13 z"
   id="path136"
   inkscape:connector-curvature="0"
   style="fill:#1f1f1f" />
		
			<radialGradient
   id="SVGID_7_"
   cx="17.0429"
   cy="298.34131"
   r="12.6673"
   gradientTransform="matrix(1.1408,0,0,-1.2638,44.7393,417.3658)"
   gradientUnits="userSpaceOnUse">
			<stop
   offset="0"
   style="stop-color:#808080"
   id="stop138" />
			<stop
   offset="0.1722"
   style="stop-color:#6E6E6E"
   id="stop140" />
			<stop
   offset="0.7293"
   style="stop-color:#383838"
   id="stop142" />
			<stop
   offset="1"
   style="stop-color:#222222"
   id="stop144" />
		</radialGradient>
		<path
   class="st17"
   d="m 74.3,49.8 c 0,8.8 -6.5,16 -14.5,16 -8,0 -14.5,-7.2 -14.5,-16 0,-8.8 6.5,-16 14.5,-16 8,0 14.5,7.1 14.5,16 z"
   id="path147"
   inkscape:connector-curvature="0"
   style="fill:url(#SVGID_7_)" />
		
			<linearGradient
   id="SVGID_8_"
   gradientUnits="userSpaceOnUse"
   x1="56.4436"
   y1="83.703796"
   x2="51.878502"
   y2="76.984703"
   gradientTransform="matrix(1,0,0,-1,0,138.55)">
			<stop
   offset="0.2625"
   style="stop-color:#121212"
   id="stop149" />
			<stop
   offset="1"
   style="stop-color:#202020"
   id="stop151" />
		</linearGradient>
		<path
   class="st18"
   d="m 72.5,57.5 c 0,0 -4.6,2.9 -9.2,3.2 -8.1,0.5 -16.7,-5.1 -16.3,-14 0.3,-5.4 0,-4.3 0,-4.3 0,0 -2.7,4.7 -1.4,10.2 1.3,5.5 4.8,11.3 11.6,12.8 11.7,2.5 14.8,-8.3 15.3,-7.9 z"
   id="path154"
   inkscape:connector-curvature="0"
   style="fill:url(#SVGID_8_)" />
		<path
   class="st19"
   d="m 71.9,40.4 c 0.8,0.8 -1.4,2.6 -4.5,2.9 0.2,0.9 0.5,2.2 -0.2,3.5 -1.1,2.3 -2.5,2.7 -4,3.2 -0.2,0.1 -0.4,0.1 -0.6,0.2 0,0.1 0,0.1 0.1,0.2 0.1,0.3 0.3,0.7 0.4,1.2 0.2,0.8 0,1.6 -0.5,2.3 -0.9,1.4 -2.9,2.1 -4.4,2.4 -0.7,0 -1.2,0.1 -1.2,2.7 v 0.3 c 0,3.1 -0.4,3.7 -3.2,5.2 -0.2,0.1 -2.9,-1.4 -2.2,-1.8 0.5,-0.3 2.2,-1.6 2.3,-1.8 C 54,60.8 54,60 54,59.3 V 59 c 0,-1.8 0,-5.2 3.6,-5.8 1.4,-0.2 2.3,-0.9 2.4,-1.1 -0.1,-0.2 -0.2,-0.5 -0.3,-0.7 -0.2,-0.6 -0.5,-1.3 -0.3,-2 0.2,-0.9 0.9,-1.6 2,-2 0.3,-0.1 0.5,-0.2 0.7,-0.2 1.3,-0.4 1.7,-0.6 2.3,-1.7 0.2,-0.4 0,-1 -0.1,-1.6 C 64.2,43 64,42 64.7,41.1 c 0.7,-0.9 1.9,-0.8 2.2,-0.8 1.5,0 2.8,-2 2.8,-2 0,-0.1 1.4,1.4 2.2,2.1 z"
   id="path156"
   inkscape:connector-curvature="0"
   style="opacity:0.7;enable-background:new" />
		<path
   class="st19"
   d="m 61.8,33.9 c -0.5,0.6 -1.3,1.3 -2.2,1.2 -0.4,0 -1.5,0 -2.2,0.8 -0.7,0.9 -0.4,1.9 -0.2,2.7 0.1,0.6 0.3,1.2 0.1,1.6 -0.6,1.2 -0.9,1.3 -2.3,1.7 -0.2,0.1 -0.5,0.2 -0.7,0.2 -1.2,0.4 -1.8,1.1 -2,2 -0.2,0.8 0.1,1.4 0.3,2 0.1,0.2 0.2,0.5 0.3,0.7 -0.1,0.3 -1.1,0.9 -2.4,1.1 -3.6,0.6 -3.6,4 -3.6,5.8 V 54 c 0,0.7 0,1.5 -0.1,1.6 0,0.1 0.4,1.2 0.3,1.3 0.1,0.2 0.6,1.1 1.1,1.8 C 49.6,57.8 50,56.4 50,54 v -0.3 c 0,-2.7 0.4,-2.7 1.1,-2.8 1.5,-0.2 3.5,-1 4.4,-2.4 C 56,47.8 56.1,47 56,46.2 55.9,45.8 55.8,45.4 55.6,45 c 0,-0.1 0,-0.1 -0.1,-0.2 0.2,-0.1 0.4,-0.2 0.6,-0.2 1.5,-0.5 2.9,-1 4,-3.2 0.6,-1.3 0.4,-2.6 0.2,-3.5 3,-0.3 4.9,-3.5 4.9,-3.5 L 63.4,34 c 0,0 -1.4,-0.2 -1.6,-0.1 z"
   id="path158"
   inkscape:connector-curvature="0"
   style="opacity:0.7;enable-background:new" />
		<path
   class="st19"
   d="m 74.6,50.3 c 0.1,0 0.2,0 0.2,0 0,-0.3 -0.1,-0.6 -0.1,-0.8 0,-0.2 0,-0.4 0,-0.6 -0.1,-0.5 -0.2,-1.1 -0.3,-1.6 -0.1,0 -0.2,0 -0.3,0 -0.4,0 -1.5,0 -2.2,0.8 -0.7,0.9 -0.4,1.9 -0.2,2.7 0.1,0.6 0.3,1.2 0.1,1.6 -0.6,1.2 -0.9,1.3 -2.3,1.7 -0.2,0.1 -0.5,0.2 -0.7,0.2 -1.2,0.4 -1.8,1.1 -2,2 -0.2,0.8 0.1,1.4 0.3,2 0.1,0.2 0.2,0.5 0.3,0.7 -0.1,0.3 -1.1,0.9 -2.4,1.1 -3.6,0.6 -3.6,4 -3.6,5.8 V 66 c 0.1,0 0.3,0.1 0.4,0.1 0.1,0 0.1,0 0.2,0 0.2,-0.1 0.4,-0.1 0.6,-0.2 0.6,-0.2 1.2,-0.3 1.8,-0.4 0,-2.3 0.5,-2.4 1.1,-2.5 1.5,-0.2 3.5,-1 4.4,-2.4 0.5,-0.7 0.6,-1.5 0.5,-2.3 -0.1,-0.4 -0.2,-0.8 -0.4,-1.2 0,-0.1 0,-0.1 -0.1,-0.2 0.2,-0.1 0.4,-0.2 0.6,-0.2 1.5,-0.5 2.9,-1 4,-3.2 0.6,-1.1 0.4,-2.3 0.1,-3.2 z"
   id="path160"
   inkscape:connector-curvature="0"
   style="opacity:0.7;enable-background:new" />
		<path
   class="st20"
   d="M 94.2,41.2 C 94.2,40.9 94.1,40.7 94,40.4 94,39.9 93.9,39.5 93.7,39.1 93.5,38.7 92.8,38 91.6,38 h -0.1 c -0.4,-0.8 -2.6,-0.8 -2.8,-0.8 -1.1,0.3 -2.5,0.4 -2.9,2.4 -0.4,0.8 -1.6,3.3 -3.2,5.9 -2.5,3.9 -4.9,6.6 -6.9,7.5 -2,0.9 -3.9,2.5 -5.5,4.5 -1.6,2.1 -2.7,4.5 -3.2,6.9 -0.4,2 -0.3,3.9 0.2,5.7 0.6,2 1.7,3.8 3.3,5.4 1.1,1.1 2.4,1.9 3.7,2.5 1.2,0.5 2.6,0.8 3.9,0.8 1.5,0 3.1,-0.3 4.7,-1 1.4,-0.6 2.7,-1.4 3.9,-2.3 1.1,-0.9 2.1,-2 2.9,-3.1 0.8,-1.2 1.3,-2.4 1.4,-3.5 0.6,-4.7 -0.3,-7.4 -1.1,-9.9 -0.6,-2 -1.2,-3.7 -1.1,-6.4 0.1,-3.1 0.4,-4.9 1,-6.1 0.6,-1.1 1.5,-1.9 3.2,-3.2 1.1,-0.7 1.2,-1.7 1.2,-2.1 z"
   id="path162"
   inkscape:connector-curvature="0"
   style="fill:#2b2b2b" />
		
			<radialGradient
   id="SVGID_9_"
   cx="53.9123"
   cy="1305.3688"
   r="20.804701"
   gradientTransform="matrix(-0.4376,0.8992,0.7201,0.3505,-827.9431,-463.0969)"
   gradientUnits="userSpaceOnUse">
			<stop
   offset="0"
   style="stop-color:#9E9E9E"
   id="stop164" />
			<stop
   offset="1"
   style="stop-color:#2A2A2A"
   id="stop166" />
		</radialGradient>
		<path
   class="st21"
   d="m 87.6,40.2 c 0,0 -5.3,12 -11.2,14.6 -5.8,2.6 -11.5,12.6 -4.6,19.4 6.9,6.8 16.8,-1 17.4,-5.5 0.9,-7.8 -2.5,-9.4 -2.2,-16.1 0.2,-6.7 1.4,-8.1 5,-10.8 0.7,-0.5 0.2,-0.9 0,-1.2 -0.6,-0.9 -1.6,-0.4 -1.6,-0.4 0,0 -0.9,-1.2 -1.2,-1.1 -0.4,0.1 -1.3,-0.4 -1.6,1.1 z"
   id="path169"
   inkscape:connector-curvature="0"
   style="fill:url(#SVGID_9_)" />
		
			<linearGradient
   id="SVGID_10_"
   gradientUnits="userSpaceOnUse"
   x1="68.788902"
   y1="56.763802"
   x2="80.411003"
   y2="74.075897"
   gradientTransform="matrix(1,0,0,-1,0,138.55)">
			<stop
   offset="0"
   style="stop-color:#9E9E9E"
   id="stop171" />
			<stop
   offset="1.460981e-02"
   style="stop-color:#9A9A9A"
   id="stop173" />
			<stop
   offset="0.1557"
   style="stop-color:#747474"
   id="stop175" />
			<stop
   offset="0.3028"
   style="stop-color:#555555"
   id="stop177" />
			<stop
   offset="0.4555"
   style="stop-color:#3D3D3D"
   id="stop179" />
			<stop
   offset="0.616"
   style="stop-color:#2B2B2B"
   id="stop181" />
			<stop
   offset="0.7896"
   style="stop-color:#212121"
   id="stop183" />
			<stop
   offset="1"
   style="stop-color:#1E1E1E"
   id="stop185" />
		</linearGradient>
		<path
   class="st22"
   d="m 70,61.5 c 0,0 0.6,4.3 3.5,6.5 3.2,2.4 11.2,3.8 15.9,-1.9 0,0 1.1,5.7 -5.8,9.3 C 75.8,79.4 70.4,74.6 69.4,71 68.6,68 68,65.5 70,61.5 Z"
   id="path188"
   inkscape:connector-curvature="0"
   style="fill:url(#SVGID_10_)" />
		<path
   class="st23"
   d="M 75.7,74.9 C 75.9,72 75.3,63.1 81.5,53 c 0,0 -6.1,12.7 -4.7,23.8 l -1,-0.2 z"
   id="path190"
   inkscape:connector-curvature="0"
   style="fill:#1e1e1e" />
		<path
   class="st23"
   d="m 70.3,73 c 0,0 -1.7,-9.6 5.8,-16.6 3.3,-3.1 7,-6.3 8.8,-10.6 -0.2,0.9 -3.8,6.6 -9.7,12.2 -3.2,3 -5.7,12.1 -4.4,15.6 z"
   id="path192"
   inkscape:connector-curvature="0"
   style="fill:#1e1e1e" />
		<path
   class="st23"
   d="m 72.7,75.3 c 0,0 0.6,-11.6 3.3,-15.4 0,0 -2.7,6.5 -2.8,15.8 z"
   id="path194"
   inkscape:connector-curvature="0"
   style="fill:#1e1e1e" />
		<path
   class="st23"
   d="m 78.6,76.8 c 0,2.4 0,-13.8 3.3,-21.1 0,0 -2.7,7.6 -2.6,21.1 z"
   id="path196"
   inkscape:connector-curvature="0"
   style="fill:#1e1e1e" />
		<path
   class="st23"
   d="m 81.9,76.4 c 0,0 3.1,-5.9 2.5,-19.7 0,0 0,-7.1 2.1,-10 0,0 -2.3,4 -1.8,11.2 0,0 1.1,9.8 -2,18 z"
   id="path198"
   inkscape:connector-curvature="0"
   style="fill:#1e1e1e" />
		<path
   class="st23"
   d="m 85.7,56.1 c 0.5,2.7 2.4,8.4 1,14.3 -0.6,2.5 -2.3,4.5 -2.3,4.5 l 1.8,-1.4 c 0,0 2.9,-5.8 0.8,-13.6 -0.7,-2.3 -1.1,-4.1 -1.1,-5.7 0,-2.2 0.5,-3.7 0.6,-5 0,0 -1.3,4.2 -0.8,6.9 z"
   id="path200"
   inkscape:connector-curvature="0"
   style="fill:#1e1e1e" />
		<path
   class="st23"
   d="m 83.8,50 c 0,0 -1.1,6.2 -1.3,10.3 -0.3,4 -0.9,8.4 -2.4,16.3 l 0.5,-0.1 c 0,0 1.3,-5.5 1.9,-13 0,0.1 0.8,-9.6 1.3,-13.5 z"
   id="path202"
   inkscape:connector-curvature="0"
   style="fill:#1e1e1e" />
		<path
   class="st23"
   d="m 84.9,47.2 c -0.7,1 -2.8,3.9 -3.6,7.9 0,0 0.4,-2.8 3.6,-7.5 1,-1.5 2.7,-3.5 2.7,-3.6 -0.1,-0.1 -2.1,2.2 -2.7,3.2 z"
   id="path204"
   inkscape:connector-curvature="0"
   style="fill:#1e1e1e" />
		<path
   class="st16"
   d="m 67.1,56 c -2.7,-2.8 -6.4,-4.3 -10.3,-4.3 -3.9,0 -7.5,1.5 -10.3,4.3 -2.7,2.8 -4.3,6.4 -4.3,10.3 0,3.9 1.5,7.5 4.3,10.3 2.7,2.7 6.4,4.3 10.3,4.3 3.9,0 7.5,-1.5 10.3,-4.3 2.8,-2.8 4.3,-6.4 4.3,-10.3 0,-3.9 -1.5,-7.5 -4.3,-10.3 z"
   id="path206"
   inkscape:connector-curvature="0"
   style="fill:#1f1f1f" />
		
			<radialGradient
   id="SVGID_11_"
   cx="60.6441"
   cy="79.693001"
   r="12.6674"
   gradientTransform="matrix(1,0,0,-1,0,138.55)"
   gradientUnits="userSpaceOnUse">
			<stop
   offset="0"
   style="stop-color:#808080"
   id="stop208" />
			<stop
   offset="0.1722"
   style="stop-color:#6E6E6E"
   id="stop210" />
			<stop
   offset="0.7293"
   style="stop-color:#383838"
   id="stop212" />
			<stop
   offset="1"
   style="stop-color:#222222"
   id="stop214" />
		</radialGradient>
		<path
   class="st24"
   d="m 69.5,66.3 c 0,7 -5.7,12.7 -12.7,12.7 -7,0 -12.7,-5.7 -12.7,-12.7 0,-7 5.7,-12.7 12.7,-12.7 7,0.1 12.7,5.7 12.7,12.7 z"
   id="path217"
   inkscape:connector-curvature="0"
   style="fill:url(#SVGID_11_)" />
		<path
   class="st25"
   d="m 60.4,55.8 c 0,0 -1.4,-0.1 -1,0.7 0.3,0.8 0.3,0.6 0.3,0.6 0,0 -0.2,0.8 -0.1,1.1 0.1,0.3 1,1 1.3,0.7 0.3,-0.3 0.7,0.6 1.1,0.3 0.4,-0.3 -0.3,-0.7 0.3,-1.1 0.5,-0.4 1,-0.2 0.7,-1 -0.3,-0.8 -0.6,-0.8 -0.6,-0.8 0,0 0.3,-1.2 -0.8,-1 -0.7,0.2 -0.7,0.5 -1.2,0.5 z"
   id="path219"
   inkscape:connector-curvature="0"
   style="fill:#8d8d8d" />
		<path
   class="st26"
   d="m 62.5,57.1 c 0,0.7 -0.6,1.3 -1.3,1.3 -0.7,0 -1.3,-0.6 -1.3,-1.3 0,-0.7 0.6,-1.3 1.3,-1.3 0.7,0 1.3,0.6 1.3,1.3 z"
   id="path221"
   inkscape:connector-curvature="0"
   style="fill:#b0b0b0" />
		
			<linearGradient
   id="SVGID_12_"
   gradientUnits="userSpaceOnUse"
   x1="54.183601"
   y1="68.412399"
   x2="50.295502"
   y2="62.689701"
   gradientTransform="matrix(1,0,0,-1,0,138.55)">
			<stop
   offset="0.2625"
   style="stop-color:#121212"
   id="stop223" />
			<stop
   offset="1"
   style="stop-color:#202020"
   id="stop225" />
		</linearGradient>
		<path
   class="st27"
   d="m 67.9,72.4 c 0,0 -4,2.3 -8.1,2.6 -7.1,0.4 -14.6,-4 -14.3,-11.1 0.2,-4.3 0,-3.4 0,-3.4 0,0 -2.4,3.7 -1.2,8 1.1,4.3 4.2,9 10.2,10.2 10.2,2 13,-6.5 13.4,-6.3 z"
   id="path228"
   inkscape:connector-curvature="0"
   style="fill:url(#SVGID_12_)" />
		<path
   class="st28"
   d="m 108.2,50.6 c -0.4,-0.2 -0.8,-0.5 -1.2,-0.6 0.1,0 0.1,-0.1 0.1,-0.1 1,-0.3 1.6,-1 1.7,-1.9 0.1,-1.4 -1.2,-2.2 -1.7,-2.6 -0.5,-0.3 -1.1,-0.6 -1.1,-0.6 l -0.5,-0.2 -0.5,0.1 c -0.8,0.1 -2.1,0.6 -3.2,1.7 -0.2,-0.3 -0.5,-0.5 -0.9,-0.8 -0.8,-0.6 -1.9,-0.8 -3.4,-0.8 -0.3,0 -0.6,0 -1,0 -1.1,-0.3 -2.2,-0.4 -3.2,-0.4 -2.3,0 -4.3,0.7 -5.9,2 -2,1.6 -3.3,4.1 -4.1,7.4 -1.3,5.3 0.6,9.1 2.3,11.3 2.2,2.7 5.4,4.5 7.5,4.9 0.3,0.3 0.8,0.6 1.5,0.9 1.6,0.8 3.5,1.3 5.5,1.3 1.8,0 3.8,-0.4 5.8,-1.1 2.4,-0.8 4.6,-2.6 6.2,-4.9 1.6,-2.3 2.4,-4.9 2.4,-7.4 -0.2,-3.9 -2.4,-6.9 -6.3,-8.2 z m -15,-4.5 c 0.1,0 0.1,0 0.2,0 v 0 c -0.1,0 -0.2,0 -0.2,0 z m 4.3,0.4 v 0 0 c 0.1,0 0.1,0 0,0 z m 2.5,23.9 v 0 c 0,0 0.1,0 0,0 0.1,0 0,0 0,0 z m 4.6,-20 v 0 z"
   id="path230"
   inkscape:connector-curvature="0"
   style="fill:#434343" />
		
			<radialGradient
   id="SVGID_13_"
   cx="102.9159"
   cy="86.700798"
   r="13.1404"
   gradientTransform="matrix(1,0,0,-1,0,138.55)"
   gradientUnits="userSpaceOnUse">
			<stop
   offset="0"
   style="stop-color:#A6A6A6"
   id="stop232" />
			<stop
   offset="1"
   style="stop-color:#535353"
   id="stop234" />
		</radialGradient>
		<path
   class="st29"
   d="M 98.8,47.6 C 96.3,46.1 87.6,43.3 85,54.2 c -2.3,9.6 6.5,14.1 8.8,14.1 0,0 3.7,3.9 11.5,1.1 7.8,-2.8 12.1,-16.8 -0.9,-17.9 l -2,-1.4 c 0,0.1 -1.1,-1.1 -3.6,-2.5 z"
   id="path237"
   inkscape:connector-curvature="0"
   style="fill:url(#SVGID_13_)" />
		<path
   class="st13"
   d="m 95.2,49 c 0,0 -6.3,-1.7 1.2,-2.4 5.1,-0.5 3.9,2.1 5.5,2.6 l 2.4,1.6 c 0,0 4.3,1 6,4.6 0,0 -1.1,0 -4,0 -2.9,0 0.2,3.7 -2.3,3.7 -2.4,0 -3,-3.2 -3,-3.2 0,0 -3.2,4 -4.8,3.2 -1.7,-0.8 0.9,-2.9 0,-4.7 -0.9,-1.8 -5.2,-1.9 -5.2,-1.9 0,0 0.1,-0.1 4.2,-3.5 z"
   id="path239"
   inkscape:connector-curvature="0"
   style="fill:#1a1a1a" />
		<path
   class="st13"
   d="m 105.3,46.4 c 0,0 -2.9,0.5 -3.7,3.7 -0.8,3.2 2.3,1.5 2.3,1.5 0,0 1.2,-2.9 2.8,-3.4 1.5,-0.4 -1.4,-1.8 -1.4,-1.8 z"
   id="path241"
   inkscape:connector-curvature="0"
   style="fill:#1a1a1a" />
		
			<linearGradient
   id="SVGID_14_"
   gradientUnits="userSpaceOnUse"
   x1="78.830498"
   y1="59.0121"
   x2="95.469803"
   y2="77.515701"
   gradientTransform="matrix(1,0,0,-1,0,138.55)">
			<stop
   offset="0"
   style="stop-color:#A6A6A6"
   id="stop243" />
			<stop
   offset="0.6792"
   style="stop-color:#3B3B3B"
   id="stop245" />
		</linearGradient>
		<path
   class="st30"
   d="m 86.8,49.6 c 0,0 -4.9,12.2 8.4,17.4 0,0 4,1.7 8.2,0.9 4.3,-0.9 6.1,-1.4 6.1,-1.4 0,0 -1.1,1.4 -3.4,2.6 -3.1,1.6 -8.1,2.6 -12.3,-0.8 0,0 -15.2,-3.2 -7,-18.7 z"
   id="path248"
   inkscape:connector-curvature="0"
   style="fill:url(#SVGID_14_)" />
	</g>
</g>
</svg>