<?xml version="1.0" encoding="UTF-8" standalone="no"?>
<!-- Generator: Adobe Illustrator 23.0.2, SVG Export Plug-In . SVG Version: 6.00 Build 0)  -->

<svg
   xmlns:dc="http://purl.org/dc/elements/1.1/"
   xmlns:cc="http://creativecommons.org/ns#"
   xmlns:rdf="http://www.w3.org/1999/02/22-rdf-syntax-ns#"
   xmlns:svg="http://www.w3.org/2000/svg"
   xmlns="http://www.w3.org/2000/svg"
   xmlns:sodipodi="http://sodipodi.sourceforge.net/DTD/sodipodi-0.dtd"
   xmlns:inkscape="http://www.inkscape.org/namespaces/inkscape"
   version="1.1"
   id="Layer_1"
   x="0px"
   y="0px"
   viewBox="0 0 20.736645 52.850048"
   xml:space="preserve"
   sodipodi:docname="cucumberOutline.svg"
   width="20.736645"
   height="52.850048"
   inkscape:version="0.92.4 (33fec40, 2019-01-16)"><metadata
   id="metadata648"><rdf:RDF><cc:Work
       rdf:about=""><dc:format>image/svg+xml</dc:format><dc:type
         rdf:resource="http://purl.org/dc/dcmitype/StillImage" /></cc:Work></rdf:RDF></metadata><defs
   id="defs646" /><sodipodi:namedview
   pagecolor="#ffffff"
   bordercolor="#666666"
   borderopacity="1"
   objecttolerance="10"
   gridtolerance="10"
   guidetolerance="10"
   inkscape:pageopacity="0"
   inkscape:pageshadow="2"
   inkscape:window-width="1920"
   inkscape:window-height="1056"
   id="namedview644"
   showgrid="false"
   inkscape:zoom="3.9650537"
   inkscape:cx="-34.284787"
   inkscape:cy="26.54409"
   inkscape:window-x="0"
   inkscape:window-y="24"
   inkscape:window-maximized="1"
   inkscape:current-layer="Layer_1"
   showguides="true"
   inkscape:guide-bbox="true"><sodipodi:guide
     position="6.9602266,101.15121"
     orientation="1,0"
     id="guide3776"
     inkscape:locked="false" /></sodipodi:namedview>
<style
   type="text/css"
   id="style639">
	.st0{fill:#FFFFFF;}
</style>
<path
   class="st0"
   d="m 6.9602266,0.1154879 -1.025608,0.252445 C 5.5137966,0.4709299 5.1000336,0.6406364 4.7293796,0.8777346 3.9122556,1.4004283 3.3174286,2.1964061 3.0473496,3.1289068 1.0334434,5.473663 0.20577858,9.3388242 0.56094468,14.904636 c -0.3825571,0.719548 -0.5778092,1.509217 -0.5598024,2.316791 0.018007,0.807574 0.237745,1.949071 1.15455672,3.048278 0.6646361,4.750564 1.0978366,7.951632 0.8213426,13.327955 -0.2113494,0.467581 -0.334435,0.961797 -0.3884578,1.47119 -0.063811,0.58688 -2.737e-4,1.187266 0.155245,1.764426 -0.032775,0.412706 -0.073975,0.8308 -0.1128206,1.27113 -0.22946,1.571289 -0.98206192,8.652934 2.9788644,12.04281 0.53903,1.566412 2.002648,2.648226 3.696954,2.680286 l 1.15357,0.02183 c 0.7930794,0.01501 1.5656614,-0.206164 2.2311544,-0.631863 0.513861,-0.328704 0.960706,-0.780732 1.273143,-1.312976 l 0.263564,-0.441626 c 4.125761,-2.829081 6.452005,-9.659029 7.194033,-14.715855 0.449132,-3.065091 0.418985,-6.74953 -0.103262,-10.962018 0.193887,-0.717571 0.227413,-1.463142 0.08844,-2.181463 C 20.288677,21.991002 20.06106,21.412477 19.721579,20.881768 18.630698,14.908128 16.789848,8.9868722 14.976688,5.7069862 13.976149,3.9015994 12.679032,2.5233443 11.174589,1.6931916 10.237281,0.3578069 8.5599596,-0.2786632 6.9602266,0.1154879 Z"
   id="path641"
   inkscape:connector-curvature="0"
   style="fill:#ffffff" />
</svg>