<?xml version="1.0" encoding="UTF-8" standalone="no"?>
<!-- Generator: Adobe Illustrator 23.0.2, SVG Export Plug-In . SVG Version: 6.00 Build 0)  -->

<svg
   xmlns:dc="http://purl.org/dc/elements/1.1/"
   xmlns:cc="http://creativecommons.org/ns#"
   xmlns:rdf="http://www.w3.org/1999/02/22-rdf-syntax-ns#"
   xmlns:svg="http://www.w3.org/2000/svg"
   xmlns="http://www.w3.org/2000/svg"
   xmlns:sodipodi="http://sodipodi.sourceforge.net/DTD/sodipodi-0.dtd"
   xmlns:inkscape="http://www.inkscape.org/namespaces/inkscape"
   version="1.1"
   id="Layer_1"
   x="0px"
   y="0px"
   viewBox="0 0 16.21443 48.859325"
   xml:space="preserve"
   sodipodi:docname="cucumber.svg"
   width="16.21443"
   height="48.859325"
   inkscape:version="0.92.4 (33fec40, 2019-01-16)"><metadata
   id="metadata688"><rdf:RDF><cc:Work
       rdf:about=""><dc:format>image/svg+xml</dc:format><dc:type
         rdf:resource="http://purl.org/dc/dcmitype/StillImage" /></cc:Work></rdf:RDF></metadata><defs
   id="defs686" /><sodipodi:namedview
   pagecolor="#ffffff"
   bordercolor="#666666"
   borderopacity="1"
   objecttolerance="10"
   gridtolerance="10"
   guidetolerance="10"
   inkscape:pageopacity="0"
   inkscape:pageshadow="2"
   inkscape:window-width="1223"
   inkscape:window-height="768"
   id="namedview684"
   showgrid="false"
   inkscape:zoom="3.9650537"
   inkscape:cx="6.2595209"
   inkscape:cy="23.447559"
   inkscape:window-x="10"
   inkscape:window-y="34"
   inkscape:window-maximized="0"
   inkscape:current-layer="Layer_1"
   showguides="true"
   inkscape:guide-bbox="true"><sodipodi:guide
     position="6.8823599,92.06756"
     orientation="1,0"
     id="guide67"
     inkscape:locked="false" /></sodipodi:namedview>
<style
   type="text/css"
   id="style650">
	.st0{fill:#192A16;}
	.st1{fill:url(#SVGID_1_);}
</style>
<g
   id="g681"
   transform="rotate(-28.966969,11.818577,83.128349)">
	<path
   class="st0"
   d="M 48.79,10.13 V 9.76 c 0,-0.86 -0.54,-1.62 -1.35,-1.89 l -1,-0.34 C 46.23,7.46 46.01,7.42 45.79,7.42 c -0.51,0 -1,0.19 -1.38,0.55 l -0.25,0.24 c -2.66,0.57 -5.34,3.35 -7.99,8.3 -0.62,0.23 -1.13,0.63 -1.46,1.17 -0.31,0.51 -0.57,1.31 -0.29,2.39 l -0.23,0.51 c -2.11,4.59 -3.52,7.67 -6.96,12.42 -0.31,0.16 -0.65,0.4 -0.93,0.76 -0.28,0.35 -0.47,0.77 -0.55,1.22 -0.34,0.45 -0.7,0.91 -1.08,1.39 -0.72,0.83 -5.23,6.28 -3.41,10.44 l -0.1,0.28 c -0.32,0.87 0,1.84 0.77,2.35 l 0.96,0.64 c 0.33,0.22 0.72,0.34 1.11,0.34 0.3,0 0.61,-0.07 0.89,-0.21 l 0.88,-0.44 c 0.07,0 0.13,0 0.2,0 4.11,0 9.37,-3.94 12.75,-7.84 1.99,-2.29 3.91,-5.39 5.71,-9.24 0.46,-0.33 0.81,-0.76 1.01,-1.27 C 45.65,30.9 45.67,30.41 45.62,30 47.91,24.51 49.59,18.5 49.83,14.88 49.95,13 49.58,11.35 48.79,10.13 Z M 25.96,47.77 c -0.01,0 -0.02,0 -0.03,0 0.14,0 0.29,-0.01 0.43,-0.02 -0.13,0.01 -0.27,0.02 -0.4,0.02 z M 37.42,18.28 c 0,0 0,0 0,0 0.02,0 0.02,0 0.03,0 -0.01,0 -0.02,0 -0.03,0 z"
   id="path652"
   inkscape:connector-curvature="0"
   style="fill:#192a16" />
	<radialGradient
   id="SVGID_1_"
   cx="36.8372"
   cy="28.914801"
   r="20.2651"
   gradientUnits="userSpaceOnUse">
		<stop
   offset="0"
   style="stop-color:#152E1B"
   id="stop654" />
		<stop
   offset="0.1549"
   style="stop-color:#17311C"
   id="stop656" />
		<stop
   offset="0.3088"
   style="stop-color:#1D3720"
   id="stop658" />
		<stop
   offset="0.4624"
   style="stop-color:#254326"
   id="stop660" />
		<stop
   offset="0.616"
   style="stop-color:#31542E"
   id="stop662" />
		<stop
   offset="0.7695"
   style="stop-color:#416B36"
   id="stop664" />
		<stop
   offset="0.9209"
   style="stop-color:#54893E"
   id="stop666" />
		<stop
   offset="1"
   style="stop-color:#5F9C43"
   id="stop668" />
	</radialGradient>
	<path
   class="st1"
   d="m 46.79,10.81 v 0 -1.05 l -1,-0.34 -0.72,0.68 c 0,0 0,0 0,0 -1.89,0.07 -4.59,2.32 -7.58,8.19 0,0 0,0 0,0 0,0 -1.9,-0.12 -0.9,1.86 -2.58,5.58 -3.96,8.88 -8.1,14.51 -0.02,0 -0.9,0.1 -0.78,1.04 -0.47,0.62 -0.96,1.26 -1.5,1.94 0,0 -5.12,5.85 -2.75,8.98 l -0.42,1.15 0.96,0.64 1.29,-0.64 c 0,-0.02 -0.02,-0.04 -0.02,-0.06 3.18,0.57 8.43,-3.05 11.94,-7.09 2.11,-2.43 4.05,-5.8 5.68,-9.36 0,0 0,0 0,0 1.15,-0.4 0.63,-1.41 0.63,-1.41 0,0 0,0 -0.01,0 2.46,-5.73 4.1,-11.74 4.32,-15.1 0.11,-1.71 -0.28,-3.13 -1.04,-3.94 z"
   id="path671"
   inkscape:connector-curvature="0"
   style="fill:url(#SVGID_1_)" />
	<path
   class="st0"
   d="m 26.83,46.5 c 0,0 14.88,-17 19.38,-32.5 -0.01,0 -2.32,16.25 -19.38,32.5 z"
   id="path673"
   inkscape:connector-curvature="0"
   style="fill:#192a16" />
	<path
   class="st0"
   d="m 46.2,11.54 c 0,0 -9.63,19.27 -21,34.95 z"
   id="path675"
   inkscape:connector-curvature="0"
   style="fill:#192a16" />
	<path
   class="st0"
   d="m 43.25,12.08 c 0,0 -3.58,3.98 -10.5,17.32 0,0 -3.83,5.82 -6.75,9.72 -1.92,2.56 -2.42,5.75 -2.42,5.75 0,0 1.67,-3.71 5.5,-8.69 3.83,-4.98 11.17,-18.77 11.17,-18.77 z"
   id="path677"
   inkscape:connector-curvature="0"
   style="fill:#192a16" />
	<path
   class="st0"
   d="m 29.14,46.12 c 0,0 11.06,-10.75 15.88,-23.38 0,0.01 -3.07,13.63 -15.88,23.38 z"
   id="path679"
   inkscape:connector-curvature="0"
   style="fill:#192a16" />
</g>
</svg>