<?xml version="1.0" encoding="UTF-8" standalone="no"?>
<!-- Generator: Adobe Illustrator 23.0.2, SVG Export Plug-In . SVG Version: 6.00 Build 0)  -->

<svg
   xmlns:dc="http://purl.org/dc/elements/1.1/"
   xmlns:cc="http://creativecommons.org/ns#"
   xmlns:rdf="http://www.w3.org/1999/02/22-rdf-syntax-ns#"
   xmlns:svg="http://www.w3.org/2000/svg"
   xmlns="http://www.w3.org/2000/svg"
   xmlns:sodipodi="http://sodipodi.sourceforge.net/DTD/sodipodi-0.dtd"
   xmlns:inkscape="http://www.inkscape.org/namespaces/inkscape"
   version="1.1"
   id="Layer_1"
   x="0px"
   y="0px"
   viewBox="0 0 27.402826 41.528759"
   xml:space="preserve"
   sodipodi:docname="figpowerupitem.svg"
   width="27.402826"
   height="41.528759"
   inkscape:version="0.92.4 (33fec40, 2019-01-16)"><metadata
   id="metadata637"><rdf:RDF><cc:Work
       rdf:about=""><dc:format>image/svg+xml</dc:format><dc:type
         rdf:resource="http://purl.org/dc/dcmitype/StillImage" /></cc:Work></rdf:RDF></metadata><defs
   id="defs635" /><sodipodi:namedview
   pagecolor="#ffffff"
   bordercolor="#666666"
   borderopacity="1"
   objecttolerance="10"
   gridtolerance="10"
   guidetolerance="10"
   inkscape:pageopacity="0"
   inkscape:pageshadow="2"
   inkscape:window-width="640"
   inkscape:window-height="480"
   id="namedview633"
   showgrid="false"
   inkscape:zoom="3.9650537"
   inkscape:cx="13.708167"
   inkscape:cy="19.96"
   inkscape:window-x="0"
   inkscape:window-y="24"
   inkscape:window-maximized="0"
   inkscape:current-layer="Layer_1" />
<style
   type="text/css"
   id="style580">
	.st0{fill:#432810;}
	.st1{fill:url(#SVGID_1_);}
	.st2{fill:url(#SVGID_2_);}
	.st3{fill:#361810;}
</style>
<g
   id="g630"
   transform="translate(-21.631833,-8.191241)">
	<g
   id="g624">
		<path
   class="st0"
   d="m 49.03,12.1 c -0.02,-0.27 -0.08,-0.53 -0.19,-0.78 0.02,-0.45 -0.1,-0.88 -0.34,-1.26 -0.25,-0.4 -0.86,-1.07 -2.11,-1.07 -0.04,0 -0.07,0 -0.11,0 -0.42,-0.76 -2.61,-0.83 -2.77,-0.79 -1.13,0.28 -2.48,0.36 -2.88,2.37 -0.39,0.84 -1.56,3.28 -3.2,5.91 -2.45,3.95 -4.9,6.6 -6.89,7.48 -1.98,0.87 -3.93,2.45 -5.49,4.46 -1.64,2.1 -2.74,4.5 -3.19,6.93 -0.37,1.97 -0.29,3.9 0.24,5.71 0.58,2.01 1.68,3.83 3.29,5.42 1.12,1.1 2.36,1.94 3.7,2.48 1.24,0.51 2.57,0.76 3.95,0.76 1.55,0 3.13,-0.32 4.71,-0.96 1.38,-0.56 2.74,-1.37 3.95,-2.34 1.14,-0.92 2.14,-1.99 2.89,-3.08 0.82,-1.2 1.32,-2.41 1.45,-3.52 0.56,-4.69 -0.34,-7.45 -1.13,-9.89 -0.64,-1.98 -1.2,-3.67 -1.1,-6.4 0.11,-3.11 0.4,-4.87 1.02,-6.09 0.55,-1.1 1.47,-1.91 3.18,-3.21 0.96,-0.74 1.05,-1.65 1.02,-2.13 z"
   id="path582"
   inkscape:connector-curvature="0"
   style="fill:#432810" />
		
			<radialGradient
   id="SVGID_1_"
   cx="43.302502"
   cy="13.8481"
   r="20.804701"
   gradientTransform="matrix(-0.4376,0.8992,-0.7201,-0.3505,72.2239,-20.2352)"
   gradientUnits="userSpaceOnUse">
			<stop
   offset="0"
   style="stop-color:#97AA74"
   id="stop584" />
			<stop
   offset="1"
   style="stop-color:#452118"
   id="stop586" />
		</radialGradient>
		<path
   class="st1"
   d="m 42.48,11.15 c 0,0 -5.35,12.02 -11.16,14.57 -5.81,2.56 -11.47,12.56 -4.57,19.38 6.9,6.82 16.82,-0.96 17.37,-5.5 0.93,-7.83 -2.48,-9.38 -2.25,-16.12 0.23,-6.74 1.39,-8.06 4.96,-10.78 0.7,-0.53 0.17,-0.92 0,-1.16 -0.62,-0.9 -1.63,-0.39 -1.63,-0.39 0,0 -0.93,-1.16 -1.24,-1.09 -0.32,0.09 -1.25,-0.46 -1.48,1.09 z"
   id="path589"
   inkscape:connector-curvature="0"
   style="fill:url(#SVGID_1_)" />
		<linearGradient
   id="SVGID_2_"
   gradientUnits="userSpaceOnUse"
   x1="23.6304"
   y1="52.721401"
   x2="35.252602"
   y2="35.409199">
			<stop
   offset="0"
   style="stop-color:#97AA74"
   id="stop591" />
			<stop
   offset="0.0417"
   style="stop-color:#8E9869"
   id="stop593" />
			<stop
   offset="0.1585"
   style="stop-color:#777251"
   id="stop595" />
			<stop
   offset="0.2803"
   style="stop-color:#62543D"
   id="stop597" />
			<stop
   offset="0.4058"
   style="stop-color:#523E2E"
   id="stop599" />
			<stop
   offset="0.536"
   style="stop-color:#462E22"
   id="stop601" />
			<stop
   offset="0.6728"
   style="stop-color:#3D2219"
   id="stop603" />
			<stop
   offset="0.8207"
   style="stop-color:#381A12"
   id="stop605" />
			<stop
   offset="1"
   style="stop-color:#361810"
   id="stop607" />
		</linearGradient>
		<path
   class="st2"
   d="m 24.81,32.47 c 0,0 0.58,4.31 3.52,6.45 3.23,2.36 11.23,3.82 15.94,-1.92 0,0 1.12,5.7 -5.8,9.27 -7.8,4.03 -13.22,-0.75 -14.23,-4.36 -0.85,-2.96 -1.36,-5.45 0.57,-9.44 z"
   id="path610"
   inkscape:connector-curvature="0"
   style="fill:url(#SVGID_2_)" />
		<path
   class="st3"
   d="m 30.54,45.8 c 0.19,-2.88 -0.41,-11.82 5.81,-21.94 0,0 -6.14,12.72 -4.74,23.81 L 30.56,47.5 Z"
   id="path612"
   inkscape:connector-curvature="0"
   style="fill:#361810" />
		<path
   class="st3"
   d="m 25.1,43.98 c 0,0 -1.69,-9.63 5.75,-16.55 3.33,-3.1 6.98,-6.26 8.84,-10.64 -0.22,0.87 -3.77,6.61 -9.69,12.16 -3.13,2.94 -5.69,12.06 -4.38,15.54 z"
   id="path614"
   inkscape:connector-curvature="0"
   style="fill:#361810" />
		<path
   class="st3"
   d="m 27.52,46.26 c 0,0 0.57,-11.62 3.3,-15.42 0,0 -2.65,6.45 -2.77,15.81 z"
   id="path616"
   inkscape:connector-curvature="0"
   style="fill:#361810" />
		<path
   class="st3"
   d="m 33.41,47.72 c 0.03,2.43 0,-13.78 3.34,-21.14 0,0 -2.73,7.56 -2.57,21.14 z"
   id="path618"
   inkscape:connector-curvature="0"
   style="fill:#361810" />
		<path
   class="st3"
   d="m 36.74,47.32 c 0,0 3.14,-5.9 2.51,-19.68 0,0 0.04,-7.15 2.06,-10.01 0,0 -2.33,4.03 -1.78,11.24 0,0 1.09,9.76 -2.02,18.02 z"
   id="path620"
   inkscape:connector-curvature="0"
   style="fill:#361810" />
		<path
   class="st3"
   d="m 40.54,27.04 c 0.47,2.69 2.35,8.45 0.98,14.29 -0.59,2.5 -2.27,4.47 -2.27,4.47 l 1.83,-1.4 c 0,0 2.93,-5.85 0.78,-13.56 -0.65,-2.33 -1.09,-4.13 -1.11,-5.68 -0.02,-2.16 0.47,-3.7 0.57,-5.01 0,-0.01 -1.24,4.2 -0.78,6.89 z"
   id="path622"
   inkscape:connector-curvature="0"
   style="fill:#361810" />
	</g>
	<path
   class="st3"
   d="m 38.6,20.98 c 0,0 -1.08,6.18 -1.34,10.28 C 37,35.27 36.36,39.7 34.9,47.6 l 0.48,-0.1 c 0,0 1.35,-5.47 1.92,-12.98 0,0.01 0.84,-9.66 1.3,-13.54 z"
   id="path626"
   inkscape:connector-curvature="0"
   style="fill:#361810" />
	<path
   class="st3"
   d="m 39.72,18.16 c -0.67,1.02 -2.79,3.94 -3.6,7.89 0,0 0.38,-2.8 3.57,-7.55 1.01,-1.5 2.72,-3.54 2.69,-3.57 -0.05,-0.05 -1.99,2.2 -2.66,3.23 z"
   id="path628"
   inkscape:connector-curvature="0"
   style="fill:#361810" />
</g>
</svg>