<?xml version="1.0" encoding="UTF-8" standalone="no"?>
<!-- Generator: Adobe Illustrator 23.0.2, SVG Export Plug-In . SVG Version: 6.00 Build 0)  -->

<svg
   xmlns:dc="http://purl.org/dc/elements/1.1/"
   xmlns:cc="http://creativecommons.org/ns#"
   xmlns:rdf="http://www.w3.org/1999/02/22-rdf-syntax-ns#"
   xmlns:svg="http://www.w3.org/2000/svg"
   xmlns="http://www.w3.org/2000/svg"
   xmlns:sodipodi="http://sodipodi.sourceforge.net/DTD/sodipodi-0.dtd"
   xmlns:inkscape="http://www.inkscape.org/namespaces/inkscape"
   version="1.1"
   id="Layer_1"
   x="0px"
   y="0px"
   viewBox="0 0 27.412817 41.528736"
   xml:space="preserve"
   sodipodi:docname="goldfigpowerupitem.svg"
   width="27.412817"
   height="41.528736"
   inkscape:version="0.92.4 (33fec40, 2019-01-16)"><metadata
   id="metadata496"><rdf:RDF><cc:Work
       rdf:about=""><dc:format>image/svg+xml</dc:format><dc:type
         rdf:resource="http://purl.org/dc/dcmitype/StillImage" /></cc:Work></rdf:RDF></metadata><defs
   id="defs494" /><sodipodi:namedview
   pagecolor="#ffffff"
   bordercolor="#666666"
   borderopacity="1"
   objecttolerance="10"
   gridtolerance="10"
   guidetolerance="10"
   inkscape:pageopacity="0"
   inkscape:pageshadow="2"
   inkscape:window-width="640"
   inkscape:window-height="480"
   id="namedview492"
   showgrid="false"
   inkscape:zoom="3.9650537"
   inkscape:cx="11.368167"
   inkscape:cy="20.76"
   inkscape:window-x="0"
   inkscape:window-y="24"
   inkscape:window-maximized="0"
   inkscape:current-layer="Layer_1" />
<style
   type="text/css"
   id="style453">
	.st0{fill:#484B1F;}
	.st1{fill:url(#SVGID_1_);}
	.st2{fill:url(#SVGID_2_);}
	.st3{fill:#242614;}
</style>
<g
   id="g489"
   transform="translate(-23.971833,-8.9912651)">
	<g
   id="g483">
		<path
   class="st0"
   d="M 51.38,12.91 C 51.36,12.64 51.3,12.38 51.19,12.13 51.21,11.68 51.09,11.25 50.85,10.87 50.6,10.47 49.99,9.8 48.74,9.8 c -0.04,0 -0.07,0 -0.11,0 C 48.21,9.03 46.01,8.96 45.85,9 c -1.13,0.28 -2.48,0.36 -2.88,2.37 -0.39,0.84 -1.56,3.28 -3.2,5.91 -2.45,3.95 -4.9,6.6 -6.89,7.48 -1.98,0.87 -3.93,2.45 -5.49,4.46 -1.64,2.1 -2.74,4.5 -3.19,6.93 -0.37,1.97 -0.29,3.9 0.24,5.71 0.58,2.01 1.68,3.83 3.29,5.42 1.12,1.1 2.36,1.94 3.7,2.48 1.24,0.51 2.57,0.76 3.95,0.76 1.55,0 3.13,-0.32 4.71,-0.96 1.38,-0.56 2.74,-1.37 3.95,-2.34 1.14,-0.92 2.14,-1.99 2.89,-3.08 0.82,-1.2 1.32,-2.41 1.45,-3.52 0.56,-4.69 -0.34,-7.45 -1.13,-9.89 -0.64,-1.98 -1.2,-3.67 -1.1,-6.4 0.11,-3.11 0.4,-4.87 1.02,-6.09 0.55,-1.1 1.47,-1.91 3.18,-3.21 0.97,-0.74 1.06,-1.65 1.03,-2.12 z M 46.32,9.94 c -0.01,0 -0.01,0 0,0 -0.01,0 -0.01,0 0,0 -0.01,0 0,0 0,0 0,0 -0.01,0 -0.02,0 0,0 0.01,0 0.02,0 z"
   id="path455"
   inkscape:connector-curvature="0"
   style="fill:#484b1f" />
		
			<radialGradient
   id="SVGID_1_"
   cx="45.647301"
   cy="14.6496"
   r="20.804701"
   gradientTransform="matrix(-0.4376,0.8992,-0.7201,-0.3505,76.1718,-21.2612)"
   gradientUnits="userSpaceOnUse">
			<stop
   offset="0"
   style="stop-color:#F7EC2C"
   id="stop457" />
			<stop
   offset="1"
   style="stop-color:#4E481D"
   id="stop459" />
		</radialGradient>
		<path
   class="st1"
   d="m 44.82,11.95 c 0,0 -5.35,12.02 -11.16,14.57 -5.81,2.56 -11.47,12.56 -4.57,19.38 6.9,6.82 16.82,-0.96 17.37,-5.5 0.93,-7.83 -2.48,-9.38 -2.25,-16.12 0.23,-6.74 1.39,-8.06 4.96,-10.78 0.7,-0.53 0.17,-0.92 0,-1.16 -0.62,-0.9 -1.63,-0.39 -1.63,-0.39 0,0 -0.93,-1.16 -1.24,-1.09 -0.31,0.09 -1.24,-0.46 -1.48,1.09 z"
   id="path462"
   inkscape:connector-curvature="0"
   style="fill:url(#SVGID_1_)" />
		<linearGradient
   id="SVGID_2_"
   gradientUnits="userSpaceOnUse"
   x1="24.773199"
   y1="55.377102"
   x2="36.364101"
   y2="38.0466">
			<stop
   offset="0"
   style="stop-color:#E0C945"
   id="stop464" />
			<stop
   offset="0.9268"
   style="stop-color:#2C2A16"
   id="stop466" />
		</linearGradient>
		<path
   class="st2"
   d="m 27.16,33.27 c 0,0 0.58,4.31 3.52,6.45 3.23,2.36 11.23,3.82 15.94,-1.92 0,0 1.12,5.7 -5.8,9.27 -7.8,4.03 -13.22,-0.75 -14.23,-4.36 -0.85,-2.96 -1.37,-5.45 0.57,-9.44 z"
   id="path469"
   inkscape:connector-curvature="0"
   style="fill:url(#SVGID_2_)" />
		<path
   class="st3"
   d="m 32.89,46.6 c 0.19,-2.88 -0.41,-11.82 5.81,-21.94 0,0 -6.14,12.72 -4.74,23.81 L 32.91,48.3 Z"
   id="path471"
   inkscape:connector-curvature="0"
   style="fill:#242614" />
		<path
   class="st3"
   d="m 27.45,44.78 c 0,0 -1.69,-9.63 5.75,-16.55 3.33,-3.1 6.98,-6.26 8.84,-10.64 -0.22,0.87 -3.77,6.61 -9.69,12.16 -3.13,2.94 -5.69,12.06 -4.38,15.54 z"
   id="path473"
   inkscape:connector-curvature="0"
   style="fill:#242614" />
		<path
   class="st3"
   d="m 29.87,47.06 c 0,0 0.57,-11.62 3.3,-15.42 0,0 -2.65,6.45 -2.77,15.81 z"
   id="path475"
   inkscape:connector-curvature="0"
   style="fill:#242614" />
		<path
   class="st3"
   d="m 35.75,48.52 c 0.03,2.43 0,-13.78 3.34,-21.14 0,0 -2.73,7.56 -2.57,21.14 z"
   id="path477"
   inkscape:connector-curvature="0"
   style="fill:#242614" />
		<path
   class="st3"
   d="m 39.09,48.12 c 0,0 3.14,-5.9 2.51,-19.68 0,0 0.04,-7.15 2.06,-10.01 0,0 -2.33,4.03 -1.78,11.24 0,0 1.09,9.76 -2.02,18.02 z"
   id="path479"
   inkscape:connector-curvature="0"
   style="fill:#242614" />
		<path
   class="st3"
   d="m 42.89,27.85 c 0.47,2.69 2.35,8.45 0.98,14.29 -0.59,2.5 -2.27,4.47 -2.27,4.47 l 1.83,-1.4 c 0,0 2.93,-5.85 0.78,-13.56 -0.65,-2.33 -1.09,-4.13 -1.11,-5.68 -0.02,-2.17 0.47,-3.7 0.57,-5.01 -0.01,-0.01 -1.25,4.2 -0.78,6.89 z"
   id="path481"
   inkscape:connector-curvature="0"
   style="fill:#242614" />
	</g>
	<path
   class="st3"
   d="m 40.95,21.78 c 0,0 -1.08,6.18 -1.34,10.28 -0.26,4.01 -0.9,8.44 -2.36,16.34 l 0.48,-0.1 c 0,0 1.35,-5.47 1.92,-12.98 0,0.01 0.83,-9.66 1.3,-13.54 z"
   id="path485"
   inkscape:connector-curvature="0"
   style="fill:#242614" />
	<path
   class="st3"
   d="m 42.06,18.96 c -0.67,1.02 -2.79,3.94 -3.6,7.89 0,0 0.38,-2.8 3.57,-7.55 1.01,-1.5 2.72,-3.54 2.69,-3.57 -0.05,-0.05 -1.98,2.2 -2.66,3.23 z"
   id="path487"
   inkscape:connector-curvature="0"
   style="fill:#242614" />
</g>
</svg>