<?xml version="1.0" encoding="UTF-8" standalone="no"?>
<!-- Generator: Adobe Illustrator 23.0.2, SVG Export Plug-In . SVG Version: 6.00 Build 0)  -->

<svg
   xmlns:dc="http://purl.org/dc/elements/1.1/"
   xmlns:cc="http://creativecommons.org/ns#"
   xmlns:rdf="http://www.w3.org/1999/02/22-rdf-syntax-ns#"
   xmlns:svg="http://www.w3.org/2000/svg"
   xmlns="http://www.w3.org/2000/svg"
   xmlns:sodipodi="http://sodipodi.sourceforge.net/DTD/sodipodi-0.dtd"
   xmlns:inkscape="http://www.inkscape.org/namespaces/inkscape"
   version="1.1"
   id="Layer_1"
   x="0px"
   y="0px"
   viewBox="0 0 31.390419 45.549999"
   xml:space="preserve"
   sodipodi:docname="figpowerupitem_outline.svg"
   width="31.390419"
   height="45.549999"
   inkscape:version="0.92.4 (33fec40, 2019-01-16)"><metadata
   id="metadata578"><rdf:RDF><cc:Work
       rdf:about=""><dc:format>image/svg+xml</dc:format><dc:type
         rdf:resource="http://purl.org/dc/dcmitype/StillImage" /></cc:Work></rdf:RDF></metadata><defs
   id="defs576" /><sodipodi:namedview
   pagecolor="#ffffff"
   bordercolor="#666666"
   borderopacity="1"
   objecttolerance="10"
   gridtolerance="10"
   guidetolerance="10"
   inkscape:pageopacity="0"
   inkscape:pageshadow="2"
   inkscape:window-width="640"
   inkscape:window-height="480"
   id="namedview574"
   showgrid="false"
   inkscape:zoom="3.9650537"
   inkscape:cx="19.308718"
   inkscape:cy="22.79"
   inkscape:window-x="0"
   inkscape:window-y="24"
   inkscape:window-maximized="0"
   inkscape:current-layer="Layer_1" />
<style
   type="text/css"
   id="style569">
	.st0{fill:#FFFFFF;}
</style>
<path
   class="st0"
   d="m 31.198718,4.75 c -0.05,-0.69 -0.26,-1.36 -0.64,-1.95 -0.68,-1.08 -1.78,-1.77 -3.09,-1.95 -1.12,-0.75 -2.68,-0.85 -3.43,-0.85 v 0 c -0.26,0 -0.45,0.02 -0.64,0.07 -0.12,0.03 -0.22,0.05 -0.33,0.08 -1.08,0.24 -3.29,0.74 -3.98,3.59 -0.47,1 -1.55,3.19 -2.99,5.5 -2.18,3.51 -4.42,6.01 -6,6.71 -2.2700002,1 -4.5000002,2.8 -6.2600002,5.06 -1.84,2.36 -3.06999999,5.05 -3.57999999,7.8 -0.42,2.28 -0.33,4.51 0.28,6.63 0.66999999,2.34 1.94999999,4.46 3.79999999,6.29 1.3,1.29 2.77,2.27 4.35,2.91 1.4800002,0.6 3.0700002,0.91 4.7000002,0.91 1.81,0 3.64,-0.37 5.46,-1.11 1.55,-0.63 3.09,-1.54 4.45,-2.63 1.3,-1.05 2.44,-2.26 3.29,-3.51 1,-1.46 1.61,-2.98 1.78,-4.41 0.61,-5.12 -0.4,-8.23 -1.22,-10.74 -0.63,-1.95 -1.09,-3.35 -1,-5.72 0.09,-2.76 0.34,-4.33 0.81,-5.26 0.34,-0.68 0.95,-1.27 2.6,-2.53 1.26,-0.97 1.93,-2.37 1.82,-3.87 -0.01,-0.35 -0.07,-0.69 -0.18,-1.02 z m -7.16,-2.76 c 0,0 0,0 0,0 0.08,0 0.17,0 0.27,0.01 -0.11,0 -0.2,-0.01 -0.27,-0.01 z"
   id="path571"
   inkscape:connector-curvature="0"
   style="fill:#ffffff" />
</svg>