<?xml version="1.0" encoding="UTF-8" standalone="no"?>
<!-- Generator: Adobe Illustrator 23.0.2, SVG Export Plug-In . SVG Version: 6.00 Build 0)  -->

<svg
   xmlns:dc="http://purl.org/dc/elements/1.1/"
   xmlns:cc="http://creativecommons.org/ns#"
   xmlns:rdf="http://www.w3.org/1999/02/22-rdf-syntax-ns#"
   xmlns:svg="http://www.w3.org/2000/svg"
   xmlns="http://www.w3.org/2000/svg"
   xmlns:sodipodi="http://sodipodi.sourceforge.net/DTD/sodipodi-0.dtd"
   xmlns:inkscape="http://www.inkscape.org/namespaces/inkscape"
   version="1.1"
   id="Layer_1"
   x="0px"
   y="0px"
   viewBox="0 0 31.545668 27.809999"
   xml:space="preserve"
   sodipodi:docname="persimmonpowerupitem.svg"
   width="31.545668"
   height="27.809999"
   inkscape:version="0.92.4 (33fec40, 2019-01-16)"><metadata
   id="metadata351"><rdf:RDF><cc:Work
       rdf:about=""><dc:format>image/svg+xml</dc:format><dc:type
         rdf:resource="http://purl.org/dc/dcmitype/StillImage" /></cc:Work></rdf:RDF></metadata><defs
   id="defs349" /><sodipodi:namedview
   pagecolor="#ffffff"
   bordercolor="#666666"
   borderopacity="1"
   objecttolerance="10"
   gridtolerance="10"
   guidetolerance="10"
   inkscape:pageopacity="0"
   inkscape:pageshadow="2"
   inkscape:window-width="640"
   inkscape:window-height="480"
   id="namedview347"
   showgrid="false"
   inkscape:zoom="3.9650537"
   inkscape:cx="15.764317"
   inkscape:cy="13.1"
   inkscape:window-x="10"
   inkscape:window-y="34"
   inkscape:window-maximized="0"
   inkscape:current-layer="Layer_1" />
<style
   type="text/css"
   id="style322">
	.st0{fill:#802D1D;}
	.st1{fill:url(#SVGID_1_);}
	.st2{fill:#122516;}
	.st3{fill:url(#SVGID_2_);}
</style>
<g
   id="g344"
   transform="translate(-19.575683,-15.05)">
	<path
   class="st0"
   d="m 44.91,21.27 c -0.4,-0.25 -0.78,-0.46 -1.15,-0.64 0.05,-0.04 0.09,-0.06 0.11,-0.07 0.98,-0.29 1.6,-1 1.67,-1.89 0.11,-1.4 -1.19,-2.24 -1.68,-2.56 -0.54,-0.35 -1.06,-0.6 -1.12,-0.63 l -0.49,-0.24 -0.54,0.09 c -0.81,0.13 -2.12,0.64 -3.23,1.72 -0.22,-0.26 -0.5,-0.53 -0.86,-0.77 -0.84,-0.56 -1.94,-0.83 -3.37,-0.83 -0.3,0 -0.62,0.01 -0.96,0.04 -1.09,-0.29 -2.18,-0.44 -3.23,-0.44 -2.28,0 -4.27,0.68 -5.93,2.03 -1.96,1.59 -3.35,4.08 -4.13,7.38 -1.27,5.34 0.55,9.11 2.31,11.33 2.15,2.72 5.35,4.52 7.49,4.88 0.33,0.26 0.82,0.6 1.46,0.93 1.59,0.82 3.48,1.26 5.47,1.26 1.85,0 3.81,-0.36 5.85,-1.08 2.38,-0.84 4.56,-2.59 6.16,-4.93 1.57,-2.3 2.42,-4.91 2.38,-7.37 -0.07,-3.91 -2.33,-6.89 -6.21,-8.21 z M 29.89,16.79 c 0.05,0 0.11,0 0.16,0 0,0 0.01,0 0.01,0 -0.06,-0.01 -0.11,-0.01 -0.17,0 z m 4.34,0.4 c 0.01,0 0.01,0 0.02,0 0.03,0 0.06,0 0.08,0 -0.03,0 -0.07,0 -0.1,0 z m 2.49,23.94 c -0.01,0 -0.02,0 -0.03,0 0.04,0 0.08,0 0.11,0 -0.02,0 -0.05,0 -0.08,0 z m 4.56,-20.06 v 0 c 0,-0.01 0,0 0,0 z"
   id="path324"
   inkscape:connector-curvature="0"
   style="fill:#802d1d" />
	<radialGradient
   id="SVGID_1_"
   cx="39.619301"
   cy="22.5371"
   r="13.1404"
   gradientUnits="userSpaceOnUse">
		<stop
   offset="0"
   style="stop-color:#F79226"
   id="stop326" />
		<stop
   offset="1"
   style="stop-color:#9A3A21"
   id="stop328" />
	</radialGradient>
	<path
   class="st1"
   d="m 35.51,18.25 c -2.54,-1.49 -11.23,-4.3 -13.83,6.61 -2.29,9.63 6.55,14.15 8.84,14.15 0,0 3.68,3.89 11.47,1.14 7.8,-2.75 12.08,-16.82 -0.92,-17.89 l -1.99,-1.38 c 0.01,0 -1.03,-1.15 -3.57,-2.63 z"
   id="path331"
   inkscape:connector-curvature="0"
   style="fill:url(#SVGID_1_)" />
	<path
   class="st2"
   d="m 31.9,19.66 c 0,0 -6.32,-1.74 1.21,-2.42 5.1,-0.46 3.86,2.09 5.51,2.63 l 2.39,1.58 c 0,0 4.34,0.97 6.02,4.63 0,0 -1.07,0 -3.98,0 -2.9,0 0.15,3.67 -2.29,3.67 -2.45,0 -2.96,-3.21 -2.96,-3.21 0,0 -3.15,3.96 -4.83,3.2 -1.68,-0.76 0.92,-2.9 0,-4.73 -0.92,-1.83 -5.15,-1.9 -5.15,-1.9 0,0 0,0.01 4.08,-3.45 z"
   id="path333"
   inkscape:connector-curvature="0"
   style="fill:#122516" />
	<path
   class="st2"
   d="m 41.99,17.04 c 0,0 -2.87,0.47 -3.65,3.69 -0.78,3.21 2.27,1.53 2.27,1.53 0,0 1.22,-2.9 2.75,-3.36 1.54,-0.46 -1.37,-1.86 -1.37,-1.86 z"
   id="path335"
   inkscape:connector-curvature="0"
   style="fill:#122516" />
	<linearGradient
   id="SVGID_2_"
   gradientUnits="userSpaceOnUse"
   x1="18.852301"
   y1="46.602798"
   x2="35.491501"
   y2="28.0993">
		<stop
   offset="0"
   style="stop-color:#F79226"
   id="stop337" />
		<stop
   offset="0.602"
   style="stop-color:#6D2C13"
   id="stop339" />
	</linearGradient>
	<path
   class="st3"
   d="m 23.54,20.3 c 0,0 -4.87,12.24 8.43,17.44 0,0 3.99,1.72 8.23,0.87 4.31,-0.87 6.07,-1.42 6.07,-1.42 0,0 -1.11,1.45 -3.44,2.61 -3.11,1.56 -8.07,2.62 -12.32,-0.79 0.01,0 -15.18,-3.23 -6.97,-18.71 z"
   id="path342"
   inkscape:connector-curvature="0"
   style="fill:url(#SVGID_2_)" />
</g>
</svg>