<?xml version="1.0" encoding="UTF-8" standalone="no"?>
<!-- Generator: Adobe Illustrator 23.0.2, SVG Export Plug-In . SVG Version: 6.00 Build 0)  -->

<svg
   xmlns:dc="http://purl.org/dc/elements/1.1/"
   xmlns:cc="http://creativecommons.org/ns#"
   xmlns:rdf="http://www.w3.org/1999/02/22-rdf-syntax-ns#"
   xmlns:svg="http://www.w3.org/2000/svg"
   xmlns="http://www.w3.org/2000/svg"
   xmlns:sodipodi="http://sodipodi.sourceforge.net/DTD/sodipodi-0.dtd"
   xmlns:inkscape="http://www.inkscape.org/namespaces/inkscape"
   version="1.1"
   id="Layer_1"
   x="0px"
   y="0px"
   viewBox="0 0 35.555111 31.819999"
   xml:space="preserve"
   sodipodi:docname="persimmonpowerupitem_outline.svg"
   width="35.555111"
   height="31.82"
   inkscape:version="0.92.4 (33fec40, 2019-01-16)"><metadata
   id="metadata320"><rdf:RDF><cc:Work
       rdf:about=""><dc:format>image/svg+xml</dc:format><dc:type
         rdf:resource="http://purl.org/dc/dcmitype/StillImage" /></cc:Work></rdf:RDF></metadata><defs
   id="defs318" /><sodipodi:namedview
   pagecolor="#ffffff"
   bordercolor="#666666"
   borderopacity="1"
   objecttolerance="10"
   gridtolerance="10"
   guidetolerance="10"
   inkscape:pageopacity="0"
   inkscape:pageshadow="2"
   inkscape:window-width="640"
   inkscape:window-height="480"
   id="namedview316"
   showgrid="false"
   inkscape:zoom="3.9650537"
   inkscape:cx="17.783922"
   inkscape:cy="15.91"
   inkscape:window-x="10"
   inkscape:window-y="34"
   inkscape:window-maximized="0"
   inkscape:current-layer="Layer_1" />
<style
   type="text/css"
   id="style311">
	.st0{fill:#FFFFFF;}
</style>
<path
   class="st0"
   d="m 29.673922,7.03 c 0.17,-0.39 0.27,-0.81 0.3,-1.25 0.13,-1.71 -0.73,-3.19 -2.58,-4.39 -0.57,-0.37 -1.12,-0.65 -1.33,-0.75 l -0.51,-0.25 -0.57,-0.27 -0.62,0.1 -0.54,0.09 c -0.41,0.07 -1.57,0.32 -2.86,1.13 -1.14,-0.7 -2.55,-1.03 -4.27,-1.03 -0.25,0 -0.51,0.01 -0.77,0.02 -1.15,-0.28 -2.3,-0.43 -3.43,-0.43 -2.7500003,0 -5.1700003,0.83 -7.1900003,2.48 -2.31,1.88 -3.93,4.73 -4.82000002,8.47 -1.46,6.12 0.66000002,10.47 2.69000002,13.04 2.1,2.65 5.4,4.86 8.2200003,5.51 0.42,0.3 0.89,0.59 1.38,0.84 1.87,0.97 4.08,1.48 6.39,1.48 2.07,0 4.26,-0.4 6.51,-1.2 2.77,-0.98 5.31,-3 7.15,-5.69 1.8,-2.64 2.77,-5.67 2.73,-8.53 -0.06,-4.12 -2.23,-7.52 -5.88,-9.37 z"
   id="path313"
   inkscape:connector-curvature="0"
   style="fill:#ffffff" />
</svg>