<?xml version="1.0" encoding="UTF-8" standalone="no"?>
<!-- Generator: Adobe Illustrator 23.0.2, SVG Export Plug-In . SVG Version: 6.00 Build 0)  -->

<svg
   xmlns:dc="http://purl.org/dc/elements/1.1/"
   xmlns:cc="http://creativecommons.org/ns#"
   xmlns:rdf="http://www.w3.org/1999/02/22-rdf-syntax-ns#"
   xmlns:svg="http://www.w3.org/2000/svg"
   xmlns="http://www.w3.org/2000/svg"
   xmlns:sodipodi="http://sodipodi.sourceforge.net/DTD/sodipodi-0.dtd"
   xmlns:inkscape="http://www.inkscape.org/namespaces/inkscape"
   version="1.1"
   id="Layer_1"
   x="0px"
   y="0px"
   viewBox="0 0 29.10005 29.1"
   xml:space="preserve"
   sodipodi:docname="goldsudachipowerupitem.svg"
   width="29.10005"
   height="29.1"
   inkscape:version="0.92.4 (33fec40, 2019-01-16)"><metadata
   id="metadata420"><rdf:RDF><cc:Work
       rdf:about=""><dc:format>image/svg+xml</dc:format><dc:type
         rdf:resource="http://purl.org/dc/dcmitype/StillImage" /></cc:Work></rdf:RDF></metadata><defs
   id="defs418" /><sodipodi:namedview
   pagecolor="#ffffff"
   bordercolor="#666666"
   borderopacity="1"
   objecttolerance="10"
   gridtolerance="10"
   guidetolerance="10"
   inkscape:pageopacity="0"
   inkscape:pageshadow="2"
   inkscape:window-width="640"
   inkscape:window-height="480"
   id="namedview416"
   showgrid="false"
   inkscape:zoom="3.9650537"
   inkscape:cx="18.15"
   inkscape:cy="14.55"
   inkscape:window-x="10"
   inkscape:window-y="34"
   inkscape:window-maximized="0"
   inkscape:current-layer="Layer_1" />
<style
   type="text/css"
   id="style391">
	.st0{fill:#484B1F;}
	.st1{fill:url(#SVGID_1_);}
	.st2{fill:#888D4F;}
	.st3{fill:#C0BB52;}
	.st4{fill:url(#SVGID_2_);}
</style>
<g
   id="g413"
   transform="translate(-17.19,-15.21)">
	<path
   class="st0"
   d="m 42.03,19.47 c -2.75,-2.75 -6.41,-4.26 -10.29,-4.26 -3.88,0 -7.54,1.51 -10.29,4.26 -2.75,2.75 -4.26,6.4 -4.26,10.29 0,3.89 1.51,7.54 4.26,10.29 2.75,2.75 6.4,4.26 10.29,4.26 3.89,0 7.54,-1.51 10.29,-4.26 2.75,-2.75 4.26,-6.4 4.26,-10.29 0.01,-3.89 -1.51,-7.54 -4.26,-10.29 z"
   id="path393"
   inkscape:connector-curvature="0"
   style="fill:#484b1f" />
	<radialGradient
   id="SVGID_1_"
   cx="35.555801"
   cy="22.2782"
   r="12.6674"
   gradientUnits="userSpaceOnUse">
		<stop
   offset="0"
   style="stop-color:#F7EC2C"
   id="stop395" />
		<stop
   offset="1"
   style="stop-color:#4E481D"
   id="stop397" />
	</radialGradient>
	<path
   class="st1"
   d="m 44.41,29.76 c 0,7 -5.67,12.67 -12.67,12.67 -7,0 -12.67,-5.67 -12.67,-12.67 0,-7 5.67,-12.67 12.67,-12.67 7,0 12.67,5.67 12.67,12.67 z"
   id="path400"
   inkscape:connector-curvature="0"
   style="fill:url(#SVGID_1_)" />
	<path
   class="st2"
   d="m 35.32,19.2 c 0,0 -1.37,-0.11 -1.04,0.7 0.33,0.82 0.26,0.63 0.26,0.63 0,0 -0.22,0.78 -0.15,1.11 0.07,0.33 1,0.96 1.3,0.7 0.3,-0.26 0.74,0.56 1.15,0.26 0.41,-0.3 -0.26,-0.71 0.26,-1.12 0.52,-0.4 1.04,-0.18 0.74,-0.96 -0.3,-0.78 -0.58,-0.77 -0.58,-0.77 0,0 0.3,-1.23 -0.75,-0.99 -0.7,0.18 -0.72,0.43 -1.19,0.44 z"
   id="path402"
   inkscape:connector-curvature="0"
   style="fill:#888d4f" />
	<path
   class="st3"
   d="m 37.41,20.54 c 0,0.74 -0.6,1.33 -1.33,1.33 -0.74,0 -1.33,-0.6 -1.33,-1.33 0,-0.74 0.6,-1.33 1.33,-1.33 0.73,-0.01 1.33,0.59 1.33,1.33 z"
   id="path404"
   inkscape:connector-curvature="0"
   style="fill:#c0bb52" />
	<linearGradient
   id="SVGID_2_"
   gradientUnits="userSpaceOnUse"
   x1="14.6979"
   y1="54.236301"
   x2="28.353001"
   y2="34.6362">
		<stop
   offset="0"
   style="stop-color:#E0C945"
   id="stop406" />
		<stop
   offset="0.9545"
   style="stop-color:#2C2A16"
   id="stop408" />
	</linearGradient>
	<path
   class="st4"
   d="m 42.84,35.87 c 0,0 -4.05,2.32 -8.1,2.56 -7.07,0.41 -14.63,-4.03 -14.26,-11.11 0.22,-4.28 0.02,-3.41 0.02,-3.41 0,0 -2.38,3.71 -1.24,8.04 1.14,4.33 4.21,8.97 10.18,10.16 10.21,2.03 12.96,-6.53 13.4,-6.24 z"
   id="path411"
   inkscape:connector-curvature="0"
   style="fill:url(#SVGID_2_)" />
</g>
</svg>