<?xml version="1.0" encoding="UTF-8" standalone="no"?>
<!-- Generator: Adobe Illustrator 23.0.2, SVG Export Plug-In . SVG Version: 6.00 Build 0)  -->

<svg
   xmlns:dc="http://purl.org/dc/elements/1.1/"
   xmlns:cc="http://creativecommons.org/ns#"
   xmlns:rdf="http://www.w3.org/1999/02/22-rdf-syntax-ns#"
   xmlns:svg="http://www.w3.org/2000/svg"
   xmlns="http://www.w3.org/2000/svg"
   xmlns:sodipodi="http://sodipodi.sourceforge.net/DTD/sodipodi-0.dtd"
   xmlns:inkscape="http://www.inkscape.org/namespaces/inkscape"
   version="1.1"
   id="Layer_1"
   x="0px"
   y="0px"
   viewBox="0 0 33.200001 36.799999"
   xml:space="preserve"
   sodipodi:docname="watermelonpowerupitem.svg"
   width="33.200001"
   height="36.799999"
   inkscape:version="0.92.4 (33fec40, 2019-01-16)"><metadata
   id="metadata52"><rdf:RDF><cc:Work
       rdf:about=""><dc:format>image/svg+xml</dc:format><dc:type
         rdf:resource="http://purl.org/dc/dcmitype/StillImage" /></cc:Work></rdf:RDF></metadata><defs
   id="defs50" /><sodipodi:namedview
   pagecolor="#ffffff"
   bordercolor="#666666"
   borderopacity="1"
   objecttolerance="10"
   gridtolerance="10"
   guidetolerance="10"
   inkscape:pageopacity="0"
   inkscape:pageshadow="2"
   inkscape:window-width="640"
   inkscape:window-height="480"
   id="namedview48"
   showgrid="false"
   inkscape:zoom="3.9650537"
   inkscape:cx="16.6"
   inkscape:cy="17.6"
   inkscape:window-x="10"
   inkscape:window-y="34"
   inkscape:window-maximized="0"
   inkscape:current-layer="Layer_1" />
<style
   type="text/css"
   id="style13">
	.st0{fill:#1A351A;}
	.st1{fill:url(#SVGID_1_);}
	.st2{fill:url(#SVGID_2_);}
	.st3{opacity:0.7;fill:#010101;}
</style>
<g
   id="g45"
   transform="translate(-18.74,-10.56)">
	<path
   class="st0"
   d="m 47.08,15.95 c -3.14,-3.48 -7.31,-5.39 -11.74,-5.39 -4.44,0 -8.61,1.91 -11.74,5.39 -3.14,3.48 -4.86,8.09 -4.86,13.01 0,4.91 1.73,9.53 4.86,13.01 3.14,3.47 7.31,5.39 11.74,5.39 4.44,0 8.61,-1.91 11.74,-5.39 3.14,-3.47 4.86,-8.09 4.86,-13.01 0,-4.92 -1.72,-9.53 -4.86,-13.01 z"
   id="path15"
   inkscape:connector-curvature="0"
   style="fill:#1a351a" />
	
		<radialGradient
   id="SVGID_1_"
   cx="59.317299"
   cy="-53.651199"
   r="12.6673"
   gradientTransform="matrix(1.1408,0,0,1.2638,-27.9791,87.308)"
   gradientUnits="userSpaceOnUse">
		<stop
   offset="0"
   style="stop-color:#5F9C43"
   id="stop17" />
		<stop
   offset="0.0342"
   style="stop-color:#5C9741"
   id="stop19" />
		<stop
   offset="0.5068"
   style="stop-color:#365B31"
   id="stop21" />
		<stop
   offset="0.8394"
   style="stop-color:#1F3A22"
   id="stop23" />
		<stop
   offset="1"
   style="stop-color:#152E1B"
   id="stop25" />
	</radialGradient>
	<path
   class="st1"
   d="m 49.79,28.96 c 0,8.84 -6.47,16.01 -14.45,16.01 -7.98,0 -14.45,-7.17 -14.45,-16.01 0,-8.84 6.47,-16.01 14.45,-16.01 7.98,0 14.45,7.17 14.45,16.01 z"
   id="path28"
   inkscape:connector-curvature="0"
   style="fill:url(#SVGID_1_)" />
	<linearGradient
   id="SVGID_2_"
   gradientUnits="userSpaceOnUse"
   x1="31.9478"
   y1="34.025002"
   x2="27.382799"
   y2="40.744099">
		<stop
   offset="0.2625"
   style="stop-color:#0F1F12"
   id="stop30" />
		<stop
   offset="0.4063"
   style="stop-color:#112314"
   id="stop32" />
		<stop
   offset="1"
   style="stop-color:#162E19"
   id="stop34" />
	</linearGradient>
	<path
   class="st2"
   d="m 48,36.67 c 0,0 -4.62,2.94 -9.24,3.23 -8.07,0.51 -16.69,-5.1 -16.27,-14.04 0.25,-5.41 0.02,-4.3 0.02,-4.3 0,0 -2.72,4.68 -1.41,10.16 1.31,5.47 4.8,11.34 11.61,12.84 C 44.36,47.13 47.5,36.31 48,36.67 Z"
   id="path37"
   inkscape:connector-curvature="0"
   style="fill:url(#SVGID_2_)" />
	<path
   class="st3"
   d="m 47.36,19.53 c 0.81,0.75 -1.44,2.61 -4.47,2.89 0.22,0.9 0.48,2.18 -0.16,3.47 -1.15,2.29 -2.47,2.73 -4,3.25 -0.2,0.07 -0.42,0.14 -0.64,0.22 0.02,0.07 0.05,0.14 0.07,0.2 0.11,0.32 0.25,0.71 0.35,1.16 0.18,0.8 0.02,1.6 -0.47,2.32 -0.93,1.37 -2.9,2.12 -4.43,2.36 -0.62,0.1 -1.07,0.17 -1.07,2.83 v 0.3 c 0,3.13 -0.36,3.71 -3.23,5.18 -0.22,0.11 -2.92,-1.41 -2.18,-1.79 0.52,-0.27 2.21,-1.6 2.34,-1.78 0.08,-0.16 0.08,-0.93 0.08,-1.61 v -0.31 c 0,-1.82 0,-5.21 3.6,-5.79 1.39,-0.22 2.35,-0.86 2.44,-1.13 -0.07,-0.23 -0.17,-0.5 -0.25,-0.74 -0.21,-0.6 -0.46,-1.28 -0.29,-2.04 0.19,-0.91 0.88,-1.58 2.03,-1.99 0.25,-0.09 0.49,-0.17 0.71,-0.24 1.33,-0.44 1.68,-0.56 2.27,-1.74 0.19,-0.38 0.04,-0.98 -0.1,-1.56 -0.19,-0.77 -0.46,-1.83 0.25,-2.71 0.71,-0.88 1.85,-0.85 2.23,-0.84 1.51,0.05 2.77,-2.03 2.78,-2.05 -0.02,0 1.39,1.45 2.14,2.14 z"
   id="path39"
   inkscape:connector-curvature="0"
   style="opacity:0.7;fill:#010101" />
	<path
   class="st3"
   d="m 37.33,13.1 c -0.51,0.58 -1.3,1.27 -2.18,1.24 -0.38,-0.01 -1.52,-0.04 -2.23,0.84 -0.71,0.88 -0.44,1.94 -0.25,2.71 0.14,0.58 0.29,1.18 0.1,1.56 -0.59,1.18 -0.95,1.3 -2.27,1.74 -0.22,0.07 -0.46,0.15 -0.71,0.24 -1.15,0.41 -1.83,1.08 -2.03,1.99 -0.16,0.76 0.08,1.44 0.29,2.04 0.09,0.24 0.18,0.51 0.25,0.74 -0.1,0.27 -1.05,0.9 -2.44,1.13 -3.6,0.58 -3.6,3.97 -3.6,5.79 v 0.31 c 0,0.68 0,1.45 -0.08,1.61 -0.04,0.06 0.43,1.21 0.25,1.32 0.1,0.19 0.65,1.09 1.07,1.79 1.37,-0.95 1.75,-2.35 1.75,-4.73 v -0.3 c 0,-2.66 0.45,-2.73 1.07,-2.83 1.53,-0.25 3.5,-1 4.43,-2.36 0.48,-0.71 0.64,-1.51 0.47,-2.32 -0.1,-0.45 -0.24,-0.84 -0.35,-1.16 -0.02,-0.06 -0.05,-0.13 -0.07,-0.2 0.23,-0.08 0.44,-0.15 0.64,-0.22 1.53,-0.51 2.86,-0.96 4,-3.25 0.65,-1.29 0.38,-2.57 0.16,-3.47 3.03,-0.27 4.92,-3.55 4.92,-3.55 l -1.61,-0.59 c 0.03,0.02 -1.43,-0.23 -1.58,-0.07 z"
   id="path41"
   inkscape:connector-curvature="0"
   style="opacity:0.7;fill:#010101" />
	<path
   class="st3"
   d="m 50.14,29.44 c 0.08,-0.01 0.15,-0.02 0.23,-0.03 -0.04,-0.28 -0.08,-0.56 -0.08,-0.85 0,-0.19 -0.02,-0.38 -0.04,-0.56 -0.09,-0.53 -0.19,-1.05 -0.28,-1.58 -0.1,0.02 -0.2,0.04 -0.3,0.04 -0.38,-0.01 -1.52,-0.04 -2.23,0.84 -0.71,0.88 -0.44,1.94 -0.25,2.71 0.14,0.58 0.29,1.18 0.1,1.56 -0.59,1.18 -0.95,1.3 -2.27,1.74 -0.22,0.07 -0.46,0.15 -0.71,0.24 -1.15,0.41 -1.84,1.08 -2.03,1.99 -0.16,0.76 0.08,1.44 0.29,2.04 0.09,0.24 0.18,0.51 0.25,0.74 -0.1,0.27 -1.05,0.9 -2.44,1.13 -3.6,0.58 -3.6,3.97 -3.6,5.79 v 0.13 c 0.14,0.03 0.28,0.05 0.41,0.09 0.05,0.01 0.11,0.02 0.16,0.04 0.21,-0.06 0.41,-0.11 0.62,-0.17 0.61,-0.18 1.21,-0.31 1.81,-0.42 0.04,-2.32 0.47,-2.39 1.07,-2.49 1.53,-0.25 3.5,-1 4.43,-2.36 0.48,-0.71 0.64,-1.51 0.47,-2.32 -0.1,-0.45 -0.24,-0.84 -0.35,-1.16 -0.02,-0.06 -0.05,-0.13 -0.07,-0.2 0.23,-0.08 0.44,-0.15 0.64,-0.22 1.53,-0.51 2.86,-0.96 4,-3.25 0.65,-1.29 0.39,-2.57 0.17,-3.47 z"
   id="path43"
   inkscape:connector-curvature="0"
   style="opacity:0.7;fill:#010101" />
</g>
</svg>