<?xml version="1.0" encoding="utf-8"?>
<!-- Generator: Adobe Illustrator 24.0.1, SVG Export Plug-In . SVG Version: 6.00 Build 0)  -->
<svg version="1.1" id="Layer_1" xmlns="http://www.w3.org/2000/svg" xmlns:xlink="http://www.w3.org/1999/xlink" x="0px" y="0px"
	 viewBox="0 0 100 100" style="enable-background:new 0 0 100 100;" xml:space="preserve">
<style type="text/css">
	.st0{fill:#261C08;}
	.st1{fill:#1A1007;}
	.st2{fill:#422E1A;}
	.st3{fill:#2A1E11;}
	.st4{fill:#261A09;}
	.st5{fill:#150808;}
	.st6{fill:#2F2113;}
	.st7{fill:#23170A;}
	.st8{fill:#3D2A15;}
	.st9{fill:#1F1706;}
</style>
<g>
	<g>
		<g>
			<polygon class="st0" points="4.4,67.7 13,87.7 21.9,96.3 19.2,55.8 2.5,38.8 			"/>
			<polygon class="st1" points="50.8,62.3 60.8,97.8 53.7,99.7 21.9,96.3 16.5,55.3 			"/>
			<polygon class="st1" points="60.8,97.8 85.7,77.5 93,65 98.7,47.7 97.2,35.5 75.8,27.8 50.8,62.3 			"/>
			<polygon class="st2" points="97.2,35.5 74.5,4.3 43,0.3 26.5,6.3 14.5,16.3 2.5,38.8 18.5,65 52,70 76.3,51.8 89.5,33.5 			"/>
		</g>
		<polygon class="st3" points="89.5,33.5 74.5,4.3 85.8,14.3 97.2,35.5 		"/>
		<polygon class="st4" points="76.3,51.8 85.7,77.5 60.8,97.8 52,70 		"/>
		<polygon class="st5" points="89.5,33.5 98.7,47.7 97.2,35.5 		"/>
	</g>
	<polygon class="st6" points="89.5,33.5 74.5,25.5 67.5,3.5 74.5,4.3 	"/>
	<polygon class="st7" points="74.5,25.5 65.3,37.7 76.3,51.8 89.5,33.5 	"/>
	<polygon class="st6" points="52,70 46.5,47.7 65.3,37.7 76.3,51.8 	"/>
	<polygon class="st7" points="18.5,65 23.7,45.5 46.5,47.7 52,70 	"/>
	<polygon class="st6" points="23.7,45.5 14.2,27.8 2.5,38.8 18.5,65 	"/>
	<polygon class="st8" points="14.5,16.3 14.2,27.8 2.5,38.8 	"/>
	<polygon class="st9" points="18.5,65 13,87.7 21.9,96.3 	"/>
	<polygon class="st7" points="52,70 53.7,99.7 60.8,97.8 	"/>
	<polygon class="st3" points="76.3,51.8 93,65 85.7,77.5 	"/>
</g>
</svg>
