<?xml version="1.0" encoding="utf-8"?>
<!-- Generator: Adobe Illustrator 24.0.1, SVG Export Plug-In . SVG Version: 6.00 Build 0)  -->
<svg version="1.1" id="Layer_1" xmlns="http://www.w3.org/2000/svg" xmlns:xlink="http://www.w3.org/1999/xlink" x="0px" y="0px"
	 viewBox="0 0 100 100" style="enable-background:new 0 0 100 100;" xml:space="preserve">
<style type="text/css">
	.st0{fill:#302105;}
	.st1{fill:#3D2A06;}
	.st2{fill:#65440A;}
	.st3{fill:#452F07;}
	.st4{fill:#382606;}
	.st5{fill:#261A04;}
	.st6{fill:#422D07;}
	.st7{fill:#4D3308;}
	.st8{fill:#15110B;}
	.st9{fill:#573A09;}
	.st10{fill:#473107;}
	.st11{fill:#2B1D05;}
</style>
<g>
	<g>
		<g>
			<g>
				<polygon class="st0" points="72.3,95.7 59.2,99.7 27.9,37 57.7,9.9 71.8,2.1 88.2,15.2 95.4,29.6 98.8,49.9 				"/>
				<path class="st1" d="M59.2,99.7c0,0-1.9-27.7-2.7-29.7c-1.4-3.8-11.7-15-11.7-15l-7.2-2.3l-27.1-0.6l4.8,28.1l1.9,6.4l13.5,10.7
					L59.2,99.7z"/>
				<polygon class="st2" points="36.4,1 53.9,0.3 71.8,2.1 83.6,23.4 82.5,37 56.5,70 32.5,69.4 10.5,52.2 6.4,38.2 12.7,22.3 
					22.9,7.5 				"/>
			</g>
			<path class="st3" d="M17.2,86.8l-6.7-34.6L6.4,74C6.4,74,10.4,78.4,17.2,86.8z"/>
			<polygon class="st4" points="82.5,37 95.4,69.3 72.3,95.7 56.5,70 			"/>
			<path class="st5" d="M82.5,37l16.3,12.9c0,0,1.2,1.4-3.4,19.4L82.5,37z"/>
		</g>
		<polygon class="st6" points="6.4,38.2 1,47.4 6.4,74 10.5,52.2 		"/>
		<polygon class="st7" points="30.7,97.4 32.5,69.4 10.5,52.2 17.2,86.8 		"/>
		<polygon class="st8" points="1,47.4 6.8,31.2 12.7,22.3 6.4,38.2 		"/>
		<polygon class="st4" points="83.6,23.4 95.4,29.6 88.2,15.2 71.8,2.1 		"/>
		<polygon class="st9" points="32.5,69.4 33.6,53.2 17.2,38.2 10.5,52.2 		"/>
		<polygon class="st10" points="56.5,70 52.1,53.8 33.6,53.2 32.5,69.4 		"/>
		<polygon class="st3" points="82.5,37 71.8,30.5 52.1,53.8 56.5,70 		"/>
		<polygon class="st7" points="17.2,38.2 15.6,26.7 6.4,38.2 10.5,52.2 		"/>
		<polygon class="st4" points="71.8,30.5 74.5,14.2 83.6,23.4 82.5,37 		"/>
		<polygon class="st11" points="71.8,2.1 67.3,1.6 74.5,14.2 83.6,23.4 		"/>
		<polygon class="st4" points="15.6,26.7 22.9,7.5 11.4,25.6 6.4,38.2 		"/>
	</g>
</g>
</svg>
