<?xml version="1.0" encoding="utf-8"?>
<!-- Generator: Adobe Illustrator 24.0.1, SVG Export Plug-In . SVG Version: 6.00 Build 0)  -->
<svg version="1.1" id="Layer_1" xmlns="http://www.w3.org/2000/svg" xmlns:xlink="http://www.w3.org/1999/xlink" x="0px" y="0px"
	 viewBox="0 0 100 100" style="enable-background:new 0 0 100 100;" xml:space="preserve">
<style type="text/css">
	.st0{fill:#292515;}
	.st1{fill:#51492A;}
	.st2{fill:#171713;}
	.st3{fill:#15110B;}
	.st4{fill:#36311C;}
	.st5{fill:#1B180E;}
	.st6{fill:#080704;}
	.st7{fill:#2E2A18;}
	.st8{fill:#36342C;}
</style>
<g>
	<g>
		<g>
			<polygon points="82.6,85.9 55.3,99.6 21.3,45 54.2,14.8 68,0.2 87.1,18.6 96.6,50.8 			"/>
			<path class="st0" d="M55.3,99.6c0,0-1.6-16-2.4-18.2C51.3,77.2,40,64.8,40,64.8l-8-2.4L3.8,53.5l1.8,25.8l18.7,18.4L55.3,99.6z"
				/>
			<polygon class="st1" points="43.3,1.7 68,0.2 87.1,18.6 89.1,47.5 79.1,66.3 52.9,81.4 25.8,79.2 3.8,53.7 8.5,31.9 24.2,11.5 
							"/>
		</g>
		<path class="st2" d="M24,97.6l1.6-18.4L3.8,53.5l1.8,25.8C5.4,79.2,12.5,92.8,24,97.6z"/>
		<polygon class="st3" points="89.1,47.5 96.6,50.8 82.6,85.9 79.1,66.3 		"/>
	</g>
	<polygon class="st4" points="25.8,79.2 29.6,52.8 50.7,52.8 52.9,81.4 	"/>
	<polygon class="st5" points="79.1,66.3 72.4,43.2 50.7,52.8 52.9,81.4 	"/>
	<polygon class="st5" points="72.4,43.2 81.5,31.9 89.1,47.5 79.1,66.3 	"/>
	<polygon class="st6" points="80.6,14.8 81.5,31.9 89.1,47.5 87.1,18.6 	"/>
	<polygon class="st7" points="3.8,53.5 14.7,34.4 29.6,52.8 25.8,79.2 	"/>
	<polygon class="st5" points="8.5,31.9 24.2,11.5 14.7,27.5 14.7,34.4 3.8,53.5 	"/>
	<polygon class="st8" points="80.6,14.8 68,0.2 87.1,18.6 	"/>
</g>
</svg>
