<?xml version="1.0" encoding="utf-8"?>
<!-- Generator: Adobe Illustrator 24.0.1, SVG Export Plug-In . SVG Version: 6.00 Build 0)  -->
<svg version="1.1" id="Layer_1" xmlns="http://www.w3.org/2000/svg" xmlns:xlink="http://www.w3.org/1999/xlink" x="0px" y="0px"
	 viewBox="0 0 100 100" style="enable-background:new 0 0 100 100;" xml:space="preserve">
<style type="text/css">
	.st0{fill:#251D0F;}
	.st1{fill:#251904;}
	.st2{fill:#1A1007;}
	.st3{fill:#4A3B1D;}
	.st4{fill:#2A1E11;}
	.st5{fill:#120C02;}
	.st6{fill:#150F08;}
</style>
<g>
	<g>
		<polygon class="st0" points="1.3,71.7 19.9,96.3 17.2,56 0.8,39.1 		"/>
		<polygon class="st1" points="48.6,62.5 56.6,99.7 19.9,96.3 14.6,55.5 		"/>
		<polygon class="st2" points="56.6,99.7 87,75.8 96.1,47.8 98.3,36 73.5,28.3 48.6,62.5 		"/>
		<polygon class="st3" points="98.3,36 68.4,4.8 35.6,0.3 9.3,19.3 0.8,39.1 16.5,65.2 48.6,65.2 73.9,52.1 87,34 		"/>
	</g>
	<polygon class="st4" points="87,34 68.4,4.8 82.4,9.9 98.3,36 	"/>
	<polygon class="st5" points="73.9,52.1 87,75.8 56.6,99.7 48.6,65.2 	"/>
	<polygon class="st6" points="87,34 96.1,47.8 98.3,36 	"/>
</g>
</svg>
