<?xml version="1.0" encoding="utf-8"?>
<!-- Generator: Adobe Illustrator 24.0.1, SVG Export Plug-In . SVG Version: 6.00 Build 0)  -->
<svg version="1.1" id="Layer_1" xmlns="http://www.w3.org/2000/svg" xmlns:xlink="http://www.w3.org/1999/xlink" x="0px" y="0px"
	 viewBox="0 0 100 100" style="enable-background:new 0 0 100 100;" xml:space="preserve">
<style type="text/css">
	.st0{fill:#1D1506;}
	.st1{fill:#18120B;}
	.st2{fill:#3B3323;}
	.st3{fill:#292215;}
	.st4{fill:#372D1C;}
	.st5{fill:#15110B;}
	.st6{fill:#1B180E;}
	.st7{opacity:0.23;fill:#3C0A05;enable-background:new    ;}
</style>
<g>
	<g>
		<g>
			<path class="st0" d="M2.2,33.5c0,0,0.9,25.1,2.5,31.9S11.7,81,11.7,81l9.6,13.4l-4.5-62.2L2.2,33.5z"/>
			<g>
				<path class="st1" d="M64.6,94.7c0.2-1.6-6.1-25.8-6.7-27.6c-1.2-3.3-10.2-13-10.2-13l-6.3-2l-20-0.4l-6.1,12.5l5.9,30.2
					c6,3.6,27.4,5.1,29.5,5.3C50.8,99.7,64.5,95.5,64.6,94.7z"/>
				<path class="st2" d="M35.3,1c2.4-0.6,31.2,0,31.2,0l-9.6,64.6l-41.8-2.3L2.6,33.5l4.3-11.1c0,0,8-11.6,11.6-14
					C23.5,5.2,33.9,1.3,35.3,1z"/>
				<polygon class="st0" points="64.6,94.7 89.9,72.8 78.7,41.3 55.5,36 43,54.1 55.1,65.4 				"/>
				<polygon class="st3" points="55.1,65.5 78.7,41.3 55.5,36 43,54.1 				"/>
				<polygon class="st4" points="66.4,1 85.7,10.9 78.5,41.8 55.3,36.3 				"/>
				<polygon class="st3" points="85.7,10.9 95.8,31.5 95.8,54.6 89.9,72.6 78,41.4 				"/>
			</g>
			<polygon class="st0" points="55.1,65.5 15.4,63.9 21.1,52.9 43,54.1 			"/>
			<path class="st5" d="M55.1,65.4l-4.3,34.3c0,0,8.7-2.4,13.9-5.1L55.1,65.4z"/>
		</g>
		<polygon class="st3" points="21.1,52.9 6.9,22.5 2.2,33.5 15.4,63.9 		"/>
		<polygon class="st6" points="95.8,54.6 78,41.4 89.9,72.8 		"/>
	</g>
	<path class="st7" d="M85.7,10.9L66.4,1c0,0-28.9-0.6-31.2,0c-1.3,0.3-11.8,4.2-16.7,7.5c-3.6,2.4-11.6,14-11.6,14L2.2,33.6
		c0,0,0.9,25.1,2.5,31.9c1.5,6.7,7.1,15.7,7.1,15.7l9.6,13.4c6,3.6,27.4,5.1,29.5,5.3c0,0,4.6-1.3,9-2.9c2.6-0.9,4.8-1.7,4.9-2.1
		l25.2-22.1v-0.1l5.9-18V31.5L85.7,10.9z"/>
</g>
</svg>
