<?xml version="1.0" encoding="utf-8"?>
<!-- Generator: Adobe Illustrator 24.0.1, SVG Export Plug-In . SVG Version: 6.00 Build 0)  -->
<svg version="1.1" id="Layer_1" xmlns="http://www.w3.org/2000/svg" xmlns:xlink="http://www.w3.org/1999/xlink" x="0px" y="0px"
	 viewBox="0 0 100 100" style="enable-background:new 0 0 100 100;" xml:space="preserve">
<style type="text/css">
	.st0{fill:#181A12;}
	.st1{fill:#1A180D;}
	.st2{fill:#3B3523;}
	.st3{fill:#150808;}
	.st4{fill:#272317;}
	.st5{fill:#14120C;}
	.st6{fill:#1C1B19;}
	.st7{fill:#262216;}
	.st8{fill:#24211A;}
	.st9{fill:#24261B;}
	.st10{fill:#0D0C07;}
</style>
<g>
	<g>
		<g>
			<g>
				<polygon class="st0" points="2.7,67.6 11.4,87.3 20.1,96 17.5,56 0.9,39.1 				"/>
				<polygon class="st1" points="48.7,62.4 58.5,97.5 51.6,99.2 20.1,96 14.8,55.4 				"/>
				<polygon class="st1" points="58.5,97.5 83.2,77.3 90.4,64.9 95.9,47.8 94.6,35.8 73.4,28.3 48.7,62.4 				"/>
				<polygon class="st2" points="94.6,35.8 72.2,5 41,1.1 24.6,7 12.8,16.8 0.9,39.1 16.7,64.9 49.8,69.9 73.9,52 86.9,33.9 				"/>
			</g>
			<polygon class="st0" points="86.9,33.9 72.2,5 83.4,14.8 94.6,35.8 			"/>
			<polygon class="st1" points="73.9,52 83.2,77.3 58.5,97.5 49.8,69.9 			"/>
			<polygon class="st3" points="86.9,33.9 95.9,47.8 94.6,35.8 			"/>
		</g>
		<polygon class="st4" points="86.9,33.9 72.2,26 65.2,4.2 72.2,5 		"/>
		<polygon class="st5" points="72.2,26 63.1,38 73.9,52 86.9,33.9 		"/>
		<polygon class="st6" points="49.8,69.9 44.4,47.8 63.1,38 73.9,52 		"/>
		<polygon class="st7" points="16.7,64.9 21.8,45.7 44.4,47.8 49.8,69.9 		"/>
		<polygon class="st8" points="21.8,45.7 12.6,28.3 0.9,39.1 16.7,64.9 		"/>
		<polygon class="st9" points="12.8,16.8 12.6,28.3 0.9,39.1 		"/>
		<polygon points="16.7,64.9 11.4,87.3 20.1,96 		"/>
		<polygon class="st10" points="49.8,69.9 51.6,99.2 58.5,97.5 		"/>
		<polygon class="st10" points="73.9,52 90.4,64.9 83.2,77.3 		"/>
	</g>
</g>
</svg>
