<?xml version="1.0" encoding="utf-8"?>
<!-- Generator: Adobe Illustrator 24.0.1, SVG Export Plug-In . SVG Version: 6.00 Build 0)  -->
<svg version="1.1" id="Layer_1" xmlns="http://www.w3.org/2000/svg" xmlns:xlink="http://www.w3.org/1999/xlink" x="0px" y="0px"
	 viewBox="0 0 100 100" style="enable-background:new 0 0 100 100;" xml:space="preserve">
<style type="text/css">
	.st0{fill:#1D1506;}
	.st1{fill:#18120B;}
	.st2{fill:#3B3323;}
	.st3{fill:#292215;}
	.st4{fill:#372D1C;}
	.st5{fill:#15110B;}
	.st6{fill:#1B180E;}
</style>
<g>
	<g>
		<path class="st0" d="M3.7,33.5c0,0,0.9,25.2,2.5,31.9S13.4,81,13.4,81L23,94.4l-4.5-62.2L3.7,33.5z"/>
		<g>
			<path class="st1" d="M66.2,94.5c0.2-1.6-6.1-25.8-6.7-27.5C58.3,63.8,49.3,54,49.3,54l-6.4-2l-20-0.5l-6.1,12.4l5.9,30.3
				c6.1,3.6,27.5,5.1,29.5,5.3C52.2,99.7,66.1,95.3,66.2,94.5z"/>
			<path class="st2" d="M36.8,0.8c2.3-0.6,31.2,0,31.2,0l-9.6,64.6l-41.8-2.3L4.1,33.5l4.4-11c0,0,8.1-11.7,11.7-14
				C25,5,35.4,1.1,36.8,0.8z"/>
			<polygon class="st0" points="66.2,94.5 91.4,72.6 80.4,41.2 57,36 44.6,54 56.7,65.2 			"/>
			<polygon class="st3" points="56.7,65.2 80.4,41.2 57,36 44.6,54 			"/>
			<polygon class="st4" points="67.9,0.8 87.2,10.8 80,41.7 56.7,36.1 			"/>
			<polygon class="st3" points="87.2,10.8 97.5,31.4 97.5,54.4 91.4,72.5 79.6,41.2 			"/>
		</g>
		<polygon class="st0" points="56.7,65.2 17,63.9 22.7,52.7 44.6,54 		"/>
		<path class="st5" d="M56.7,65.2l-4.5,34.5c0,0,8.7-2.3,13.8-5L56.7,65.2z"/>
	</g>
	<polygon class="st3" points="22.7,52.7 8.4,22.3 3.7,33.5 17,63.9 	"/>
	<polygon class="st6" points="97.5,54.4 79.6,41.2 91.4,72.5 	"/>
</g>
</svg>
