<?xml version="1.0" encoding="utf-8"?>
<!-- Generator: Adobe Illustrator 23.0.4, SVG Export Plug-In . SVG Version: 6.00 Build 0)  -->
<svg version="1.1" id="Layer_1" xmlns="http://www.w3.org/2000/svg" xmlns:xlink="http://www.w3.org/1999/xlink" x="0px" y="0px"
	 viewBox="0 0 24 24" style="enable-background:new 0 0 24 24;" xml:space="preserve">
<style type="text/css">
	.st0{fill:#FFFFFF;}
</style>
<path d="M12,23C5.9,23,1,18.1,1,12C1,5.9,5.9,1,12,1s11,4.9,11,11C23,18.1,18.1,23,12,23z M12,3c-5,0-9,4-9,9s4,9,9,9c5,0,9-4,9-9
	S17,3,12,3z"/>
<path class="st0" d="M12,3c-5,0-9,4-9,9s4,9,9,9c5,0,9-4,9-9S17,3,12,3z"/>
</svg>
