<?xml version="1.0" encoding="utf-8"?>
<!-- Generator: Adobe Illustrator 23.0.3, SVG Export Plug-In . SVG Version: 6.00 Build 0)  -->
<svg version="1.1" id="Layer_1" xmlns="http://www.w3.org/2000/svg" xmlns:xlink="http://www.w3.org/1999/xlink" x="0px" y="0px"
	 viewBox="0 0 200 200" style="enable-background:new 0 0 200 200;" xml:space="preserve">
<style type="text/css">
	.st0{fill:#ED1C24;}
</style>
<g>
	<path class="st0" d="M99,180.5c-2.4,0-4.8-0.8-6.8-2.3l-47.1-36.9H11.1c-6.1,0-11.1-4.9-11.1-11.1V72.9c0-6.1,4.9-11.1,11.1-11.1
		h34.1L92.2,25c3.3-2.6,7.9-3.1,11.7-1.2c3.8,1.9,6.2,5.7,6.2,9.9v135.8c0,4.2-2.4,8.1-6.2,9.9C102.3,180.2,100.7,180.5,99,180.5z
		 M22.1,119.2h26.8c2.5,0,4.9,0.8,6.8,2.3L88,146.8V56.4L55.8,81.7c-2,1.5-4.3,2.3-6.8,2.3H22.1V119.2z"/>
	<path class="st0" d="M179.4,100.2l17.3-17.3c4.3-4.3,4.3-11.3,0-15.6c-4.3-4.3-11.3-4.3-15.6,0l-17.3,17.3l-17.3-17.3
		c-4.3-4.3-11.3-4.3-15.6,0c-4.3,4.3-4.3,11.3,0,15.6l17.3,17.3L131,117.5c-4.3,4.3-4.3,11.3,0,15.6c2.1,2.1,4.8,3.2,7.8,3.2
		c2.9,0,5.7-1.1,7.8-3.2l17.3-17.3l17.3,17.3c2.1,2.1,4.8,3.2,7.8,3.2c2.9,0,5.7-1.1,7.8-3.2c4.3-4.3,4.3-11.3,0-15.6L179.4,100.2z"
		/>
</g>
</svg>
